<?xml version="1.0" encoding="utf-8" standalone="no"?>
<!DOCTYPE svg PUBLIC "-//W3C//DTD SVG 1.1//EN"
  "http://www.w3.org/Graphics/SVG/1.1/DTD/svg11.dtd">
<svg xmlns:xlink="http://www.w3.org/1999/xlink" width="613.117188pt" height="336.384688pt" viewBox="0 0 613.117188 336.384688" xmlns="http://www.w3.org/2000/svg" version="1.1">
 <metadata>
  <rdf:RDF xmlns:dc="http://purl.org/dc/elements/1.1/" xmlns:cc="http://creativecommons.org/ns#" xmlns:rdf="http://www.w3.org/1999/02/22-rdf-syntax-ns#">
   <cc:Work>
    <dc:type rdf:resource="http://purl.org/dc/dcmitype/StillImage"/>
    <dc:date>2026-01-08T16:37:41.554109</dc:date>
    <dc:format>image/svg+xml</dc:format>
    <dc:creator>
     <cc:Agent>
      <dc:title>Matplotlib v3.10.8, https://matplotlib.org/</dc:title>
     </cc:Agent>
    </dc:creator>
   </cc:Work>
  </rdf:RDF>
 </metadata>
 <defs>
  <style type="text/css">*{stroke-linejoin: round; stroke-linecap: butt}</style>
 </defs>
 <g id="figure_1">
  <g id="patch_1">
   <path d="M 0 336.384688 
L 613.117188 336.384688 
L 613.117188 0 
L 0 0 
z
" style="fill: #ffffff"/>
  </g>
  <g id="axes_1">
   <g id="patch_2">
    <path d="M 47.917188 299.518125 
L 605.917187 299.518125 
L 605.917187 22.318125 
L 47.917188 22.318125 
z
" style="fill: #ffffff"/>
   </g>
   <g id="FillBetweenPolyCollection_1">
    <path d="M 341.550055 211.896598 
L 341.550055 211.896598 
L 346.427677 286.918125 
L 351.305299 268.344174 
L 356.182922 257.989144 
L 361.060544 269.366403 
L 365.938167 263.53375 
L 370.815789 259.038113 
L 375.693411 255.041978 
L 380.571034 254.946046 
L 385.448656 252.069976 
L 390.326278 254.527204 
L 395.203901 253.091902 
L 400.081523 252.67425 
L 404.959146 250.770763 
L 409.836768 249.380576 
L 414.71439 248.02392 
L 419.592013 247.322634 
L 424.469635 246.231015 
L 429.347257 245.9439 
L 434.22488 248.090806 
L 439.102502 247.915593 
L 443.980125 241.76555 
L 448.857747 246.023826 
L 453.735369 247.799361 
L 458.612992 243.488466 
L 463.490614 249.69724 
L 468.368236 249.29253 
L 473.245859 252.028412 
L 478.123481 252.716339 
L 483.001104 254.510821 
L 487.878726 252.64326 
L 492.756348 254.167355 
L 497.633971 252.674874 
L 502.511593 253.09228 
L 507.389215 253.541717 
L 512.266838 253.320302 
L 517.14446 254.850775 
L 522.022083 258.198918 
L 526.899705 257.772979 
L 531.777327 256.394166 
L 536.65495 257.252032 
L 541.532572 257.325625 
L 546.410194 253.746852 
L 551.287817 253.734409 
L 556.165439 252.558815 
L 561.043062 247.478127 
L 565.920684 247.49233 
L 570.798306 244.855014 
L 575.675929 244.626979 
L 580.553551 245.21645 
L 234.242362 253.55775 
L 239.119985 255.153716 
L 243.997607 255.259278 
L 248.875229 253.829365 
L 253.752852 253.10077 
L 258.630474 252.001876 
L 263.508097 246.060226 
L 268.385719 237.77471 
L 273.263341 233.388444 
L 278.140964 225.881651 
L 283.018586 218.770178 
L 287.896208 212.58679 
L 292.773831 207.412626 
L 297.651453 196.359952 
L 302.529076 189.064738 
L 307.406698 178.277706 
L 312.28432 171.704035 
L 317.161943 162.793565 
L 322.039565 144.505683 
L 326.917188 117.597536 
L 331.79481 118.404569 
L 336.672432 123.955958 
L 341.550055 121.42601 
L 346.427677 124.54266 
L 351.305299 124.54539 
L 356.182922 124.648964 
L 361.060544 126.550251 
L 365.938167 126.82188 
L 370.815789 127.360699 
L 375.693411 127.096944 
L 380.571034 130.705672 
L 385.448656 130.013865 
L 390.326278 132.07809 
L 395.203901 132.215931 
L 400.081523 133.275576 
L 404.959146 132.272605 
L 409.836768 131.263807 
L 414.71439 130.429376 
L 419.592013 131.129021 
L 424.469635 130.834225 
L 429.347257 131.290012 
L 434.22488 128.659248 
L 439.102502 128.558658 
L 443.980125 123.887517 
L 448.857747 127.958396 
L 453.735369 129.531153 
L 458.612992 125.78652 
L 463.490614 134.435794 
L 468.368236 133.927022 
L 473.245859 136.171952 
L 73.280824 133.138567 
L 78.158446 133.198289 
L 83.036069 131.729914 
L 87.913691 131.382212 
L 92.791313 134.506752 
L 97.668936 134.573901 
L 102.546558 134.531287 
L 107.424181 133.510829 
L 112.301803 132.336404 
L 117.179425 131.920975 
L 122.057048 129.98655 
L 126.93467 127.319359 
L 131.812292 127.390126 
L 136.689915 127.273429 
L 141.567537 123.06266 
L 146.44516 120.623324 
L 151.322782 120.16238 
L 156.200404 109.350634 
L 161.078027 112.246324 
L 165.955649 109.615938 
L 170.833271 116.0036 
L 175.710894 115.613229 
L 180.588516 113.697841 
L 185.466139 117.318988 
L 190.343761 110.641741 
L 195.221383 112.97914 
L 200.099006 113.148344 
L 204.976628 113.542865 
L 209.85425 113.200401 
L 214.731873 115.747357 
L 219.609495 115.74501 
L 224.487118 115.449959 
L 229.36474 115.41901 
L 234.242362 114.862955 
L 239.119985 114.033027 
L 243.997607 115.117084 
L 248.875229 116.225996 
L 253.752852 114.68252 
L 258.630474 111.24367 
L 263.508097 113.137085 
L 268.385719 104.722305 
L 273.263341 104.728928 
L 278.140964 104.802361 
L 283.018586 100.510871 
L 287.896208 100.728693 
L 292.773831 97.261307 
L 297.651453 96.663447 
L 302.529076 95.647456 
L 307.406698 97.488521 
L 312.28432 95.252549 
L 312.28432 58.858438 
L 312.28432 58.858438 
L 307.406698 58.276227 
L 302.529076 57.049273 
L 297.651453 58.049262 
L 292.773831 58.780474 
L 287.896208 61.862017 
L 283.018586 61.685776 
L 278.140964 61.901605 
L 273.263341 60.103762 
L 268.385719 60.264714 
L 263.508097 59.417673 
L 258.630474 59.393374 
L 253.752852 62.133136 
L 248.875229 65.329076 
L 243.997607 62.884892 
L 239.119985 62.23307 
L 234.242362 63.824504 
L 229.36474 65.031064 
L 224.487118 65.120264 
L 219.609495 66.469322 
L 214.731873 66.631174 
L 209.85425 65.111465 
L 204.976628 66.695456 
L 200.099006 64.297232 
L 195.221383 63.921432 
L 190.343761 59.382441 
L 185.466139 59.232239 
L 180.588516 56.625026 
L 175.710894 59.797255 
L 170.833271 61.620024 
L 165.955649 63.128856 
L 161.078027 62.955976 
L 156.200404 62.559457 
L 151.322782 58.849344 
L 146.44516 55.5883 
L 141.567537 56.521611 
L 136.689915 57.012574 
L 131.812292 57.138601 
L 126.93467 56.963461 
L 122.057048 58.336648 
L 117.179425 60.793461 
L 112.301803 61.797066 
L 107.424181 63.034313 
L 102.546558 66.485299 
L 97.668936 64.198062 
L 92.791313 68.764546 
L 87.913691 68.728295 
L 83.036069 71.894656 
L 78.158446 72.444982 
L 73.280824 71.887478 
L 473.245859 72.663735 
L 468.368236 70.070869 
L 463.490614 70.935425 
L 458.612992 72.363725 
L 453.735369 80.287329 
L 448.857747 78.682379 
L 443.980125 77.061955 
L 439.102502 77.759481 
L 434.22488 78.960201 
L 429.347257 78.630547 
L 424.469635 78.315472 
L 419.592013 74.703003 
L 414.71439 73.951873 
L 409.836768 74.410704 
L 404.959146 79.811717 
L 400.081523 81.273632 
L 395.203901 79.663556 
L 390.326278 79.195453 
L 385.448656 75.744549 
L 380.571034 77.907776 
L 375.693411 76.915259 
L 370.815789 78.448542 
L 365.938167 76.480441 
L 361.060544 76.190266 
L 356.182922 76.7733 
L 351.305299 76.185872 
L 346.427677 76.166873 
L 341.550055 76.818418 
L 336.672432 77.960534 
L 331.79481 77.615862 
L 326.917188 76.779877 
L 322.039565 68.972387 
L 317.161943 65.694598 
L 312.28432 65.910725 
L 307.406698 67.037021 
L 302.529076 67.898204 
L 297.651453 72.226638 
L 292.773831 76.422378 
L 287.896208 83.935609 
L 283.018586 88.651637 
L 278.140964 94.920767 
L 273.263341 101.797139 
L 268.385719 111.671204 
L 263.508097 119.730822 
L 258.630474 124.51819 
L 253.752852 135.903394 
L 248.875229 148.718703 
L 243.997607 156.983314 
L 239.119985 164.091975 
L 234.242362 181.436693 
L 580.553551 197.088851 
L 575.675929 197.102618 
L 570.798306 197.09301 
L 565.920684 198.556962 
L 561.043062 198.780736 
L 556.165439 198.29983 
L 551.287817 192.717571 
L 546.410194 192.720337 
L 541.532572 195.453956 
L 536.65495 195.247399 
L 531.777327 193.19083 
L 526.899705 193.424526 
L 522.022083 193.920273 
L 517.14446 192.617101 
L 512.266838 191.950183 
L 507.389215 192.526276 
L 502.511593 189.154223 
L 497.633971 188.412879 
L 492.756348 190.668329 
L 487.878726 190.078604 
L 483.001104 197.178357 
L 478.123481 193.829259 
L 473.245859 193.708424 
L 468.368236 191.314358 
L 463.490614 192.619291 
L 458.612992 192.779204 
L 453.735369 199.545273 
L 448.857747 198.228928 
L 443.980125 196.965157 
L 439.102502 197.124208 
L 434.22488 198.266836 
L 429.347257 197.088248 
L 424.469635 196.066936 
L 419.592013 195.716333 
L 414.71439 194.738201 
L 409.836768 194.379649 
L 404.959146 198.933037 
L 400.081523 199.848621 
L 395.203901 198.133955 
L 390.326278 196.891063 
L 385.448656 194.1252 
L 380.571034 198.493434 
L 375.693411 195.441081 
L 370.815789 199.292068 
L 365.938167 199.554626 
L 361.060544 199.797754 
L 356.182922 192.926875 
L 351.305299 192.325303 
L 346.427677 199.024939 
L 341.550055 211.896598 
z
" clip-path="url(#p6908b495ce)" style="fill: #1f77b4; fill-opacity: 0.2"/>
   </g>
   <g id="matplotlib.axis_1">
    <g id="xtick_1">
     <g id="line2d_1">
      <path d="M 61.899705 299.518125 
L 61.899705 22.318125 
" clip-path="url(#p6908b495ce)" style="fill: none; stroke: #b0b0b0; stroke-opacity: 0.3; stroke-width: 0.8; stroke-linecap: square"/>
     </g>
     <g id="line2d_2">
      <defs>
       <path id="ma6d70a6420" d="M 0 0 
L 0 3.5 
" style="stroke: #000000; stroke-width: 0.8"/>
      </defs>
      <g>
       <use xlink:href="#ma6d70a6420" x="61.899705" y="299.518125" style="stroke: #000000; stroke-width: 0.8"/>
      </g>
     </g>
     <g id="text_1">
      <!-- 1.85 -->
      <g transform="translate(51.880174 313.356719) scale(0.09 -0.09)">
       <defs>
        <path id="DejaVuSans-31" d="M 794 531 
L 1825 531 
L 1825 4091 
L 703 3866 
L 703 4441 
L 1819 4666 
L 2450 4666 
L 2450 531 
L 3481 531 
L 3481 0 
L 794 0 
L 794 531 
z
" transform="scale(0.015625)"/>
        <path id="DejaVuSans-2e" d="M 684 794 
L 1344 794 
L 1344 0 
L 684 0 
L 684 794 
z
" transform="scale(0.015625)"/>
        <path id="DejaVuSans-38" d="M 2034 2216 
Q 1584 2216 1326 1975 
Q 1069 1734 1069 1313 
Q 1069 891 1326 650 
Q 1584 409 2034 409 
Q 2484 409 2743 651 
Q 3003 894 3003 1313 
Q 3003 1734 2745 1975 
Q 2488 2216 2034 2216 
z
M 1403 2484 
Q 997 2584 770 2862 
Q 544 3141 544 3541 
Q 544 4100 942 4425 
Q 1341 4750 2034 4750 
Q 2731 4750 3128 4425 
Q 3525 4100 3525 3541 
Q 3525 3141 3298 2862 
Q 3072 2584 2669 2484 
Q 3125 2378 3379 2068 
Q 3634 1759 3634 1313 
Q 3634 634 3220 271 
Q 2806 -91 2034 -91 
Q 1263 -91 848 271 
Q 434 634 434 1313 
Q 434 1759 690 2068 
Q 947 2378 1403 2484 
z
M 1172 3481 
Q 1172 3119 1398 2916 
Q 1625 2713 2034 2713 
Q 2441 2713 2670 2916 
Q 2900 3119 2900 3481 
Q 2900 3844 2670 4047 
Q 2441 4250 2034 4250 
Q 1625 4250 1398 4047 
Q 1172 3844 1172 3481 
z
" transform="scale(0.015625)"/>
        <path id="DejaVuSans-35" d="M 691 4666 
L 3169 4666 
L 3169 4134 
L 1269 4134 
L 1269 2991 
Q 1406 3038 1543 3061 
Q 1681 3084 1819 3084 
Q 2600 3084 3056 2656 
Q 3513 2228 3513 1497 
Q 3513 744 3044 326 
Q 2575 -91 1722 -91 
Q 1428 -91 1123 -41 
Q 819 9 494 109 
L 494 744 
Q 775 591 1075 516 
Q 1375 441 1709 441 
Q 2250 441 2565 725 
Q 2881 1009 2881 1497 
Q 2881 1984 2565 2268 
Q 2250 2553 1709 2553 
Q 1456 2553 1204 2497 
Q 953 2441 691 2322 
L 691 4666 
z
" transform="scale(0.015625)"/>
       </defs>
       <use xlink:href="#DejaVuSans-31"/>
       <use xlink:href="#DejaVuSans-2e" transform="translate(63.623047 0)"/>
       <use xlink:href="#DejaVuSans-38" transform="translate(95.410156 0)"/>
       <use xlink:href="#DejaVuSans-35" transform="translate(159.033203 0)"/>
      </g>
     </g>
    </g>
    <g id="xtick_2">
     <g id="line2d_3">
      <path d="M 143.193411 299.518125 
L 143.193411 22.318125 
" clip-path="url(#p6908b495ce)" style="fill: none; stroke: #b0b0b0; stroke-opacity: 0.3; stroke-width: 0.8; stroke-linecap: square"/>
     </g>
     <g id="line2d_4">
      <g>
       <use xlink:href="#ma6d70a6420" x="143.193411" y="299.518125" style="stroke: #000000; stroke-width: 0.8"/>
      </g>
     </g>
     <g id="text_2">
      <!-- 1.90 -->
      <g transform="translate(133.17388 313.356719) scale(0.09 -0.09)">
       <defs>
        <path id="DejaVuSans-39" d="M 703 97 
L 703 672 
Q 941 559 1184 500 
Q 1428 441 1663 441 
Q 2288 441 2617 861 
Q 2947 1281 2994 2138 
Q 2813 1869 2534 1725 
Q 2256 1581 1919 1581 
Q 1219 1581 811 2004 
Q 403 2428 403 3163 
Q 403 3881 828 4315 
Q 1253 4750 1959 4750 
Q 2769 4750 3195 4129 
Q 3622 3509 3622 2328 
Q 3622 1225 3098 567 
Q 2575 -91 1691 -91 
Q 1453 -91 1209 -44 
Q 966 3 703 97 
z
M 1959 2075 
Q 2384 2075 2632 2365 
Q 2881 2656 2881 3163 
Q 2881 3666 2632 3958 
Q 2384 4250 1959 4250 
Q 1534 4250 1286 3958 
Q 1038 3666 1038 3163 
Q 1038 2656 1286 2365 
Q 1534 2075 1959 2075 
z
" transform="scale(0.015625)"/>
        <path id="DejaVuSans-30" d="M 2034 4250 
Q 1547 4250 1301 3770 
Q 1056 3291 1056 2328 
Q 1056 1369 1301 889 
Q 1547 409 2034 409 
Q 2525 409 2770 889 
Q 3016 1369 3016 2328 
Q 3016 3291 2770 3770 
Q 2525 4250 2034 4250 
z
M 2034 4750 
Q 2819 4750 3233 4129 
Q 3647 3509 3647 2328 
Q 3647 1150 3233 529 
Q 2819 -91 2034 -91 
Q 1250 -91 836 529 
Q 422 1150 422 2328 
Q 422 3509 836 4129 
Q 1250 4750 2034 4750 
z
" transform="scale(0.015625)"/>
       </defs>
       <use xlink:href="#DejaVuSans-31"/>
       <use xlink:href="#DejaVuSans-2e" transform="translate(63.623047 0)"/>
       <use xlink:href="#DejaVuSans-39" transform="translate(95.410156 0)"/>
       <use xlink:href="#DejaVuSans-30" transform="translate(159.033203 0)"/>
      </g>
     </g>
    </g>
    <g id="xtick_3">
     <g id="line2d_5">
      <path d="M 224.487118 299.518125 
L 224.487118 22.318125 
" clip-path="url(#p6908b495ce)" style="fill: none; stroke: #b0b0b0; stroke-opacity: 0.3; stroke-width: 0.8; stroke-linecap: square"/>
     </g>
     <g id="line2d_6">
      <g>
       <use xlink:href="#ma6d70a6420" x="224.487118" y="299.518125" style="stroke: #000000; stroke-width: 0.8"/>
      </g>
     </g>
     <g id="text_3">
      <!-- 1.95 -->
      <g transform="translate(214.467586 313.356719) scale(0.09 -0.09)">
       <use xlink:href="#DejaVuSans-31"/>
       <use xlink:href="#DejaVuSans-2e" transform="translate(63.623047 0)"/>
       <use xlink:href="#DejaVuSans-39" transform="translate(95.410156 0)"/>
       <use xlink:href="#DejaVuSans-35" transform="translate(159.033203 0)"/>
      </g>
     </g>
    </g>
    <g id="xtick_4">
     <g id="line2d_7">
      <path d="M 305.780824 299.518125 
L 305.780824 22.318125 
" clip-path="url(#p6908b495ce)" style="fill: none; stroke: #b0b0b0; stroke-opacity: 0.3; stroke-width: 0.8; stroke-linecap: square"/>
     </g>
     <g id="line2d_8">
      <g>
       <use xlink:href="#ma6d70a6420" x="305.780824" y="299.518125" style="stroke: #000000; stroke-width: 0.8"/>
      </g>
     </g>
     <g id="text_4">
      <!-- 2.00 -->
      <g transform="translate(295.761293 313.356719) scale(0.09 -0.09)">
       <defs>
        <path id="DejaVuSans-32" d="M 1228 531 
L 3431 531 
L 3431 0 
L 469 0 
L 469 531 
Q 828 903 1448 1529 
Q 2069 2156 2228 2338 
Q 2531 2678 2651 2914 
Q 2772 3150 2772 3378 
Q 2772 3750 2511 3984 
Q 2250 4219 1831 4219 
Q 1534 4219 1204 4116 
Q 875 4013 500 3803 
L 500 4441 
Q 881 4594 1212 4672 
Q 1544 4750 1819 4750 
Q 2544 4750 2975 4387 
Q 3406 4025 3406 3419 
Q 3406 3131 3298 2873 
Q 3191 2616 2906 2266 
Q 2828 2175 2409 1742 
Q 1991 1309 1228 531 
z
" transform="scale(0.015625)"/>
       </defs>
       <use xlink:href="#DejaVuSans-32"/>
       <use xlink:href="#DejaVuSans-2e" transform="translate(63.623047 0)"/>
       <use xlink:href="#DejaVuSans-30" transform="translate(95.410156 0)"/>
       <use xlink:href="#DejaVuSans-30" transform="translate(159.033203 0)"/>
      </g>
     </g>
    </g>
    <g id="xtick_5">
     <g id="line2d_9">
      <path d="M 387.07453 299.518125 
L 387.07453 22.318125 
" clip-path="url(#p6908b495ce)" style="fill: none; stroke: #b0b0b0; stroke-opacity: 0.3; stroke-width: 0.8; stroke-linecap: square"/>
     </g>
     <g id="line2d_10">
      <g>
       <use xlink:href="#ma6d70a6420" x="387.07453" y="299.518125" style="stroke: #000000; stroke-width: 0.8"/>
      </g>
     </g>
     <g id="text_5">
      <!-- 2.05 -->
      <g transform="translate(377.054999 313.356719) scale(0.09 -0.09)">
       <use xlink:href="#DejaVuSans-32"/>
       <use xlink:href="#DejaVuSans-2e" transform="translate(63.623047 0)"/>
       <use xlink:href="#DejaVuSans-30" transform="translate(95.410156 0)"/>
       <use xlink:href="#DejaVuSans-35" transform="translate(159.033203 0)"/>
      </g>
     </g>
    </g>
    <g id="xtick_6">
     <g id="line2d_11">
      <path d="M 468.368236 299.518125 
L 468.368236 22.318125 
" clip-path="url(#p6908b495ce)" style="fill: none; stroke: #b0b0b0; stroke-opacity: 0.3; stroke-width: 0.8; stroke-linecap: square"/>
     </g>
     <g id="line2d_12">
      <g>
       <use xlink:href="#ma6d70a6420" x="468.368236" y="299.518125" style="stroke: #000000; stroke-width: 0.8"/>
      </g>
     </g>
     <g id="text_6">
      <!-- 2.10 -->
      <g transform="translate(458.348705 313.356719) scale(0.09 -0.09)">
       <use xlink:href="#DejaVuSans-32"/>
       <use xlink:href="#DejaVuSans-2e" transform="translate(63.623047 0)"/>
       <use xlink:href="#DejaVuSans-31" transform="translate(95.410156 0)"/>
       <use xlink:href="#DejaVuSans-30" transform="translate(159.033203 0)"/>
      </g>
     </g>
    </g>
    <g id="xtick_7">
     <g id="line2d_13">
      <path d="M 549.661943 299.518125 
L 549.661943 22.318125 
" clip-path="url(#p6908b495ce)" style="fill: none; stroke: #b0b0b0; stroke-opacity: 0.3; stroke-width: 0.8; stroke-linecap: square"/>
     </g>
     <g id="line2d_14">
      <g>
       <use xlink:href="#ma6d70a6420" x="549.661943" y="299.518125" style="stroke: #000000; stroke-width: 0.8"/>
      </g>
     </g>
     <g id="text_7">
      <!-- 2.15 -->
      <g transform="translate(539.642411 313.356719) scale(0.09 -0.09)">
       <use xlink:href="#DejaVuSans-32"/>
       <use xlink:href="#DejaVuSans-2e" transform="translate(63.623047 0)"/>
       <use xlink:href="#DejaVuSans-31" transform="translate(95.410156 0)"/>
       <use xlink:href="#DejaVuSans-35" transform="translate(159.033203 0)"/>
      </g>
     </g>
    </g>
    <g id="text_8">
     <!-- time_ms -->
     <g transform="translate(305.646094 326.826875) scale(0.1 -0.1)">
      <defs>
       <path id="DejaVuSans-74" d="M 1172 4494 
L 1172 3500 
L 2356 3500 
L 2356 3053 
L 1172 3053 
L 1172 1153 
Q 1172 725 1289 603 
Q 1406 481 1766 481 
L 2356 481 
L 2356 0 
L 1766 0 
Q 1100 0 847 248 
Q 594 497 594 1153 
L 594 3053 
L 172 3053 
L 172 3500 
L 594 3500 
L 594 4494 
L 1172 4494 
z
" transform="scale(0.015625)"/>
       <path id="DejaVuSans-69" d="M 603 3500 
L 1178 3500 
L 1178 0 
L 603 0 
L 603 3500 
z
M 603 4863 
L 1178 4863 
L 1178 4134 
L 603 4134 
L 603 4863 
z
" transform="scale(0.015625)"/>
       <path id="DejaVuSans-6d" d="M 3328 2828 
Q 3544 3216 3844 3400 
Q 4144 3584 4550 3584 
Q 5097 3584 5394 3201 
Q 5691 2819 5691 2113 
L 5691 0 
L 5113 0 
L 5113 2094 
Q 5113 2597 4934 2840 
Q 4756 3084 4391 3084 
Q 3944 3084 3684 2787 
Q 3425 2491 3425 1978 
L 3425 0 
L 2847 0 
L 2847 2094 
Q 2847 2600 2669 2842 
Q 2491 3084 2119 3084 
Q 1678 3084 1418 2786 
Q 1159 2488 1159 1978 
L 1159 0 
L 581 0 
L 581 3500 
L 1159 3500 
L 1159 2956 
Q 1356 3278 1631 3431 
Q 1906 3584 2284 3584 
Q 2666 3584 2933 3390 
Q 3200 3197 3328 2828 
z
" transform="scale(0.015625)"/>
       <path id="DejaVuSans-65" d="M 3597 1894 
L 3597 1613 
L 953 1613 
Q 991 1019 1311 708 
Q 1631 397 2203 397 
Q 2534 397 2845 478 
Q 3156 559 3463 722 
L 3463 178 
Q 3153 47 2828 -22 
Q 2503 -91 2169 -91 
Q 1331 -91 842 396 
Q 353 884 353 1716 
Q 353 2575 817 3079 
Q 1281 3584 2069 3584 
Q 2775 3584 3186 3129 
Q 3597 2675 3597 1894 
z
M 3022 2063 
Q 3016 2534 2758 2815 
Q 2500 3097 2075 3097 
Q 1594 3097 1305 2825 
Q 1016 2553 972 2059 
L 3022 2063 
z
" transform="scale(0.015625)"/>
       <path id="DejaVuSans-5f" d="M 3263 -1063 
L 3263 -1509 
L -63 -1509 
L -63 -1063 
L 3263 -1063 
z
" transform="scale(0.015625)"/>
       <path id="DejaVuSans-73" d="M 2834 3397 
L 2834 2853 
Q 2591 2978 2328 3040 
Q 2066 3103 1784 3103 
Q 1356 3103 1142 2972 
Q 928 2841 928 2578 
Q 928 2378 1081 2264 
Q 1234 2150 1697 2047 
L 1894 2003 
Q 2506 1872 2764 1633 
Q 3022 1394 3022 966 
Q 3022 478 2636 193 
Q 2250 -91 1575 -91 
Q 1294 -91 989 -36 
Q 684 19 347 128 
L 347 722 
Q 666 556 975 473 
Q 1284 391 1588 391 
Q 1994 391 2212 530 
Q 2431 669 2431 922 
Q 2431 1156 2273 1281 
Q 2116 1406 1581 1522 
L 1381 1569 
Q 847 1681 609 1914 
Q 372 2147 372 2553 
Q 372 3047 722 3315 
Q 1072 3584 1716 3584 
Q 2034 3584 2315 3537 
Q 2597 3491 2834 3397 
z
" transform="scale(0.015625)"/>
      </defs>
      <use xlink:href="#DejaVuSans-74"/>
      <use xlink:href="#DejaVuSans-69" transform="translate(39.208984 0)"/>
      <use xlink:href="#DejaVuSans-6d" transform="translate(66.992188 0)"/>
      <use xlink:href="#DejaVuSans-65" transform="translate(164.404297 0)"/>
      <use xlink:href="#DejaVuSans-5f" transform="translate(225.927734 0)"/>
      <use xlink:href="#DejaVuSans-6d" transform="translate(275.927734 0)"/>
      <use xlink:href="#DejaVuSans-73" transform="translate(373.339844 0)"/>
     </g>
    </g>
    <g id="text_9">
     <!-- 1e8 -->
     <g transform="translate(588.926875 325.067031) scale(0.09 -0.09)">
      <use xlink:href="#DejaVuSans-31"/>
      <use xlink:href="#DejaVuSans-65" transform="translate(63.623047 0)"/>
      <use xlink:href="#DejaVuSans-38" transform="translate(125.146484 0)"/>
     </g>
    </g>
   </g>
   <g id="matplotlib.axis_2">
    <g id="ytick_1">
     <g id="line2d_15">
      <path d="M 47.917188 275.434754 
L 605.917187 275.434754 
" clip-path="url(#p6908b495ce)" style="fill: none; stroke: #b0b0b0; stroke-opacity: 0.3; stroke-width: 0.8; stroke-linecap: square"/>
     </g>
     <g id="line2d_16">
      <defs>
       <path id="ma3aa310de8" d="M 0 0 
L -3.5 0 
" style="stroke: #000000; stroke-width: 0.8"/>
      </defs>
      <g>
       <use xlink:href="#ma3aa310de8" x="47.917188" y="275.434754" style="stroke: #000000; stroke-width: 0.8"/>
      </g>
     </g>
     <g id="text_10">
      <!-- 0.54 -->
      <g transform="translate(20.878125 278.854051) scale(0.09 -0.09)">
       <defs>
        <path id="DejaVuSans-34" d="M 2419 4116 
L 825 1625 
L 2419 1625 
L 2419 4116 
z
M 2253 4666 
L 3047 4666 
L 3047 1625 
L 3713 1625 
L 3713 1100 
L 3047 1100 
L 3047 0 
L 2419 0 
L 2419 1100 
L 313 1100 
L 313 1709 
L 2253 4666 
z
" transform="scale(0.015625)"/>
       </defs>
       <use xlink:href="#DejaVuSans-30"/>
       <use xlink:href="#DejaVuSans-2e" transform="translate(63.623047 0)"/>
       <use xlink:href="#DejaVuSans-35" transform="translate(95.410156 0)"/>
       <use xlink:href="#DejaVuSans-34" transform="translate(159.033203 0)"/>
      </g>
     </g>
    </g>
    <g id="ytick_2">
     <g id="line2d_17">
      <path d="M 47.917188 232.367392 
L 605.917187 232.367392 
" clip-path="url(#p6908b495ce)" style="fill: none; stroke: #b0b0b0; stroke-opacity: 0.3; stroke-width: 0.8; stroke-linecap: square"/>
     </g>
     <g id="line2d_18">
      <g>
       <use xlink:href="#ma3aa310de8" x="47.917188" y="232.367392" style="stroke: #000000; stroke-width: 0.8"/>
      </g>
     </g>
     <g id="text_11">
      <!-- 0.56 -->
      <g transform="translate(20.878125 235.786688) scale(0.09 -0.09)">
       <defs>
        <path id="DejaVuSans-36" d="M 2113 2584 
Q 1688 2584 1439 2293 
Q 1191 2003 1191 1497 
Q 1191 994 1439 701 
Q 1688 409 2113 409 
Q 2538 409 2786 701 
Q 3034 994 3034 1497 
Q 3034 2003 2786 2293 
Q 2538 2584 2113 2584 
z
M 3366 4563 
L 3366 3988 
Q 3128 4100 2886 4159 
Q 2644 4219 2406 4219 
Q 1781 4219 1451 3797 
Q 1122 3375 1075 2522 
Q 1259 2794 1537 2939 
Q 1816 3084 2150 3084 
Q 2853 3084 3261 2657 
Q 3669 2231 3669 1497 
Q 3669 778 3244 343 
Q 2819 -91 2113 -91 
Q 1303 -91 875 529 
Q 447 1150 447 2328 
Q 447 3434 972 4092 
Q 1497 4750 2381 4750 
Q 2619 4750 2861 4703 
Q 3103 4656 3366 4563 
z
" transform="scale(0.015625)"/>
       </defs>
       <use xlink:href="#DejaVuSans-30"/>
       <use xlink:href="#DejaVuSans-2e" transform="translate(63.623047 0)"/>
       <use xlink:href="#DejaVuSans-35" transform="translate(95.410156 0)"/>
       <use xlink:href="#DejaVuSans-36" transform="translate(159.033203 0)"/>
      </g>
     </g>
    </g>
    <g id="ytick_3">
     <g id="line2d_19">
      <path d="M 47.917188 189.300029 
L 605.917187 189.300029 
" clip-path="url(#p6908b495ce)" style="fill: none; stroke: #b0b0b0; stroke-opacity: 0.3; stroke-width: 0.8; stroke-linecap: square"/>
     </g>
     <g id="line2d_20">
      <g>
       <use xlink:href="#ma3aa310de8" x="47.917188" y="189.300029" style="stroke: #000000; stroke-width: 0.8"/>
      </g>
     </g>
     <g id="text_12">
      <!-- 0.58 -->
      <g transform="translate(20.878125 192.719326) scale(0.09 -0.09)">
       <use xlink:href="#DejaVuSans-30"/>
       <use xlink:href="#DejaVuSans-2e" transform="translate(63.623047 0)"/>
       <use xlink:href="#DejaVuSans-35" transform="translate(95.410156 0)"/>
       <use xlink:href="#DejaVuSans-38" transform="translate(159.033203 0)"/>
      </g>
     </g>
    </g>
    <g id="ytick_4">
     <g id="line2d_21">
      <path d="M 47.917188 146.232667 
L 605.917187 146.232667 
" clip-path="url(#p6908b495ce)" style="fill: none; stroke: #b0b0b0; stroke-opacity: 0.3; stroke-width: 0.8; stroke-linecap: square"/>
     </g>
     <g id="line2d_22">
      <g>
       <use xlink:href="#ma3aa310de8" x="47.917188" y="146.232667" style="stroke: #000000; stroke-width: 0.8"/>
      </g>
     </g>
     <g id="text_13">
      <!-- 0.60 -->
      <g transform="translate(20.878125 149.651964) scale(0.09 -0.09)">
       <use xlink:href="#DejaVuSans-30"/>
       <use xlink:href="#DejaVuSans-2e" transform="translate(63.623047 0)"/>
       <use xlink:href="#DejaVuSans-36" transform="translate(95.410156 0)"/>
       <use xlink:href="#DejaVuSans-30" transform="translate(159.033203 0)"/>
      </g>
     </g>
    </g>
    <g id="ytick_5">
     <g id="line2d_23">
      <path d="M 47.917188 103.165305 
L 605.917187 103.165305 
" clip-path="url(#p6908b495ce)" style="fill: none; stroke: #b0b0b0; stroke-opacity: 0.3; stroke-width: 0.8; stroke-linecap: square"/>
     </g>
     <g id="line2d_24">
      <g>
       <use xlink:href="#ma3aa310de8" x="47.917188" y="103.165305" style="stroke: #000000; stroke-width: 0.8"/>
      </g>
     </g>
     <g id="text_14">
      <!-- 0.62 -->
      <g transform="translate(20.878125 106.584602) scale(0.09 -0.09)">
       <use xlink:href="#DejaVuSans-30"/>
       <use xlink:href="#DejaVuSans-2e" transform="translate(63.623047 0)"/>
       <use xlink:href="#DejaVuSans-36" transform="translate(95.410156 0)"/>
       <use xlink:href="#DejaVuSans-32" transform="translate(159.033203 0)"/>
      </g>
     </g>
    </g>
    <g id="ytick_6">
     <g id="line2d_25">
      <path d="M 47.917188 60.097943 
L 605.917187 60.097943 
" clip-path="url(#p6908b495ce)" style="fill: none; stroke: #b0b0b0; stroke-opacity: 0.3; stroke-width: 0.8; stroke-linecap: square"/>
     </g>
     <g id="line2d_26">
      <g>
       <use xlink:href="#ma3aa310de8" x="47.917188" y="60.097943" style="stroke: #000000; stroke-width: 0.8"/>
      </g>
     </g>
     <g id="text_15">
      <!-- 0.64 -->
      <g transform="translate(20.878125 63.51724) scale(0.09 -0.09)">
       <use xlink:href="#DejaVuSans-30"/>
       <use xlink:href="#DejaVuSans-2e" transform="translate(63.623047 0)"/>
       <use xlink:href="#DejaVuSans-36" transform="translate(95.410156 0)"/>
       <use xlink:href="#DejaVuSans-34" transform="translate(159.033203 0)"/>
      </g>
     </g>
    </g>
    <g id="text_16">
     <!-- Probability -->
     <g transform="translate(14.798438 187.347031) rotate(-90) scale(0.1 -0.1)">
      <defs>
       <path id="DejaVuSans-50" d="M 1259 4147 
L 1259 2394 
L 2053 2394 
Q 2494 2394 2734 2622 
Q 2975 2850 2975 3272 
Q 2975 3691 2734 3919 
Q 2494 4147 2053 4147 
L 1259 4147 
z
M 628 4666 
L 2053 4666 
Q 2838 4666 3239 4311 
Q 3641 3956 3641 3272 
Q 3641 2581 3239 2228 
Q 2838 1875 2053 1875 
L 1259 1875 
L 1259 0 
L 628 0 
L 628 4666 
z
" transform="scale(0.015625)"/>
       <path id="DejaVuSans-72" d="M 2631 2963 
Q 2534 3019 2420 3045 
Q 2306 3072 2169 3072 
Q 1681 3072 1420 2755 
Q 1159 2438 1159 1844 
L 1159 0 
L 581 0 
L 581 3500 
L 1159 3500 
L 1159 2956 
Q 1341 3275 1631 3429 
Q 1922 3584 2338 3584 
Q 2397 3584 2469 3576 
Q 2541 3569 2628 3553 
L 2631 2963 
z
" transform="scale(0.015625)"/>
       <path id="DejaVuSans-6f" d="M 1959 3097 
Q 1497 3097 1228 2736 
Q 959 2375 959 1747 
Q 959 1119 1226 758 
Q 1494 397 1959 397 
Q 2419 397 2687 759 
Q 2956 1122 2956 1747 
Q 2956 2369 2687 2733 
Q 2419 3097 1959 3097 
z
M 1959 3584 
Q 2709 3584 3137 3096 
Q 3566 2609 3566 1747 
Q 3566 888 3137 398 
Q 2709 -91 1959 -91 
Q 1206 -91 779 398 
Q 353 888 353 1747 
Q 353 2609 779 3096 
Q 1206 3584 1959 3584 
z
" transform="scale(0.015625)"/>
       <path id="DejaVuSans-62" d="M 3116 1747 
Q 3116 2381 2855 2742 
Q 2594 3103 2138 3103 
Q 1681 3103 1420 2742 
Q 1159 2381 1159 1747 
Q 1159 1113 1420 752 
Q 1681 391 2138 391 
Q 2594 391 2855 752 
Q 3116 1113 3116 1747 
z
M 1159 2969 
Q 1341 3281 1617 3432 
Q 1894 3584 2278 3584 
Q 2916 3584 3314 3078 
Q 3713 2572 3713 1747 
Q 3713 922 3314 415 
Q 2916 -91 2278 -91 
Q 1894 -91 1617 61 
Q 1341 213 1159 525 
L 1159 0 
L 581 0 
L 581 4863 
L 1159 4863 
L 1159 2969 
z
" transform="scale(0.015625)"/>
       <path id="DejaVuSans-61" d="M 2194 1759 
Q 1497 1759 1228 1600 
Q 959 1441 959 1056 
Q 959 750 1161 570 
Q 1363 391 1709 391 
Q 2188 391 2477 730 
Q 2766 1069 2766 1631 
L 2766 1759 
L 2194 1759 
z
M 3341 1997 
L 3341 0 
L 2766 0 
L 2766 531 
Q 2569 213 2275 61 
Q 1981 -91 1556 -91 
Q 1019 -91 701 211 
Q 384 513 384 1019 
Q 384 1609 779 1909 
Q 1175 2209 1959 2209 
L 2766 2209 
L 2766 2266 
Q 2766 2663 2505 2880 
Q 2244 3097 1772 3097 
Q 1472 3097 1187 3025 
Q 903 2953 641 2809 
L 641 3341 
Q 956 3463 1253 3523 
Q 1550 3584 1831 3584 
Q 2591 3584 2966 3190 
Q 3341 2797 3341 1997 
z
" transform="scale(0.015625)"/>
       <path id="DejaVuSans-6c" d="M 603 4863 
L 1178 4863 
L 1178 0 
L 603 0 
L 603 4863 
z
" transform="scale(0.015625)"/>
       <path id="DejaVuSans-79" d="M 2059 -325 
Q 1816 -950 1584 -1140 
Q 1353 -1331 966 -1331 
L 506 -1331 
L 506 -850 
L 844 -850 
Q 1081 -850 1212 -737 
Q 1344 -625 1503 -206 
L 1606 56 
L 191 3500 
L 800 3500 
L 1894 763 
L 2988 3500 
L 3597 3500 
L 2059 -325 
z
" transform="scale(0.015625)"/>
      </defs>
      <use xlink:href="#DejaVuSans-50"/>
      <use xlink:href="#DejaVuSans-72" transform="translate(58.552734 0)"/>
      <use xlink:href="#DejaVuSans-6f" transform="translate(97.416016 0)"/>
      <use xlink:href="#DejaVuSans-62" transform="translate(158.597656 0)"/>
      <use xlink:href="#DejaVuSans-61" transform="translate(222.074219 0)"/>
      <use xlink:href="#DejaVuSans-62" transform="translate(283.353516 0)"/>
      <use xlink:href="#DejaVuSans-69" transform="translate(346.830078 0)"/>
      <use xlink:href="#DejaVuSans-6c" transform="translate(374.613281 0)"/>
      <use xlink:href="#DejaVuSans-69" transform="translate(402.396484 0)"/>
      <use xlink:href="#DejaVuSans-74" transform="translate(430.179688 0)"/>
      <use xlink:href="#DejaVuSans-79" transform="translate(469.388672 0)"/>
     </g>
    </g>
   </g>
   <g id="line2d_27">
    <path d="M 341.550055 211.896598 
L 346.427677 274.046466 
L 351.305299 205.061151 
L 356.182922 210.827822 
L 361.060544 271.078355 
L 365.938167 216.354733 
L 370.815789 214.890508 
L 375.693411 197.776605 
L 380.571034 238.545421 
L 385.448656 190.498219 
L 390.326278 251.824589 
L 395.203901 224.554677 
L 400.081523 234.043519 
L 404.959146 206.527944 
L 409.836768 180.275083 
L 414.71439 213.895276 
L 419.592013 223.734259 
L 424.469635 214.850334 
L 429.347257 228.123854 
L 434.22488 254.771008 
L 439.102502 198.718186 
L 443.980125 210.955531 
L 448.857747 260.281619 
L 453.735369 241.746617 
L 458.612992 160.308713 
L 463.490614 276.843357 
L 468.368236 197.794061 
L 473.245859 249.076086 
L 478.123481 246.633058 
L 483.001104 241.934009 
L 487.878726 162.151445 
L 492.756348 245.692889 
L 497.633971 196.564204 
L 502.511593 218.115448 
L 507.389215 218.489976 
L 512.266838 205.920203 
L 517.14446 245.708162 
L 522.022083 261.363487 
L 526.899705 218.906987 
L 531.777327 238.64592 
L 536.65495 227.862532 
L 541.532572 213.757042 
L 546.410194 197.157698 
L 551.287817 241.594521 
L 556.165439 204.375373 
L 561.043062 230.845532 
L 565.920684 195.69835 
L 570.798306 208.063403 
L 575.675929 244.448785 
L 580.553551 247.691053 
L 234.242362 89.042863 
L 239.119985 88.205374 
L 243.997607 126.533216 
L 248.875229 121.170208 
L 253.752852 83.050937 
L 258.630474 81.079212 
L 263.508097 138.417981 
L 268.385719 97.912155 
L 273.263341 76.303666 
L 278.140964 94.814282 
L 283.018586 94.056499 
L 287.896208 104.762876 
L 292.773831 70.28376 
L 297.651453 89.110375 
L 302.529076 88.138888 
L 307.406698 114.363383 
L 312.28432 118.698686 
L 317.161943 116.797427 
L 322.039565 94.347855 
L 326.917188 56.684485 
L 331.79481 105.473041 
L 336.672432 147.165982 
L 341.550055 89.812582 
L 346.427677 145.821252 
L 351.305299 83.268234 
L 356.182922 87.989231 
L 361.060544 151.6005 
L 365.938167 103.530196 
L 370.815789 101.372876 
L 375.693411 76.843895 
L 380.571034 140.068956 
L 385.448656 76.212537 
L 390.326278 125.435047 
L 395.203901 95.169814 
L 400.081523 114.836099 
L 404.959146 89.714522 
L 409.836768 54.600583 
L 414.71439 103.864806 
L 419.592013 108.855596 
L 424.469635 89.861227 
L 429.347257 113.181658 
L 434.22488 124.154876 
L 439.102502 76.799485 
L 443.980125 92.134575 
L 448.857747 140.181263 
L 453.735369 119.766308 
L 458.612992 34.918125 
L 463.490614 175.739938 
L 468.368236 87.639604 
L 473.245859 125.221856 
L 73.280824 101.972531 
L 78.158446 82.384796 
L 83.036069 105.248042 
L 87.913691 60.029177 
L 92.791313 146.444009 
L 97.668936 44.72117 
L 102.546558 77.046817 
L 107.424181 59.15036 
L 112.301803 84.738877 
L 117.179425 75.670897 
L 122.057048 69.269276 
L 126.93467 83.75109 
L 131.812292 79.258557 
L 136.689915 89.707334 
L 141.567537 93.163948 
L 146.44516 86.03984 
L 151.322782 62.919123 
L 156.200404 104.723601 
L 161.078027 120.561697 
L 165.955649 100.646796 
L 170.833271 150.76083 
L 175.710894 60.253406 
L 180.588516 54.371862 
L 185.466139 122.312787 
L 190.343761 81.17355 
L 195.221383 113.485079 
L 200.099006 82.496846 
L 204.976628 87.077813 
L 209.85425 65.474329 
L 214.731873 116.337546 
L 219.609495 67.627285 
L 224.487118 67.310002 
L 229.36474 78.057066 
L 234.242362 72.081184 
L 239.119985 68.950324 
L 243.997607 103.398636 
L 248.875229 98.450073 
L 253.752852 57.329448 
L 258.630474 58.775576 
L 263.508097 119.823937 
L 268.385719 75.083436 
L 273.263341 58.710117 
L 278.140964 73.08463 
L 283.018586 77.2396 
L 287.896208 85.114175 
L 292.773831 47.995782 
L 297.651453 69.206127 
L 302.529076 66.918018 
L 307.406698 96.15452 
L 312.28432 99.799938 
L 312.28432 99.799938 
" clip-path="url(#p6908b495ce)" style="fill: none; stroke: #1f77b4; stroke-opacity: 0.6; stroke-width: 1.5; stroke-linecap: square"/>
   </g>
   <g id="line2d_28">
    <path d="M 341.550055 211.896598 
L 346.427677 242.971532 
L 351.305299 230.334739 
L 356.182922 225.458009 
L 361.060544 234.582078 
L 365.938167 231.544188 
L 370.815789 229.16509 
L 375.693411 225.24153 
L 380.571034 226.71974 
L 385.448656 223.097588 
L 390.326278 225.709133 
L 395.203901 225.612929 
L 400.081523 226.261436 
L 404.959146 224.8519 
L 409.836768 221.880113 
L 414.71439 221.38106 
L 419.592013 221.519484 
L 424.469635 221.148975 
L 429.347257 221.516074 
L 434.22488 223.178821 
L 439.102502 222.5199 
L 443.980125 219.365354 
L 448.857747 222.126377 
L 453.735369 223.672317 
L 458.612992 218.133835 
L 463.490614 221.158266 
L 468.368236 220.303444 
L 473.245859 222.868418 
L 478.123481 223.272799 
L 483.001104 225.844589 
L 487.878726 221.360932 
L 492.756348 222.417842 
L 497.633971 220.543877 
L 502.511593 221.123252 
L 507.389215 223.033996 
L 512.266838 222.635243 
L 517.14446 223.733938 
L 522.022083 226.059596 
L 526.899705 225.598752 
L 531.777327 224.792498 
L 536.65495 226.249715 
L 541.532572 226.389791 
L 546.410194 223.233595 
L 551.287817 223.22599 
L 556.165439 225.429323 
L 561.043062 223.129432 
L 565.920684 223.024646 
L 570.798306 220.974012 
L 575.675929 220.864798 
L 580.553551 221.152651 
L 234.242362 217.497221 
L 239.119985 209.622846 
L 243.997607 206.121296 
L 248.875229 201.274034 
L 253.752852 194.502082 
L 258.630474 188.260033 
L 263.508097 182.895524 
L 268.385719 174.722957 
L 278.140964 160.401209 
L 283.018586 153.710908 
L 287.896208 148.261199 
L 292.773831 141.917502 
L 297.651453 134.293295 
L 307.406698 122.657363 
L 312.28432 118.80738 
L 317.161943 114.244081 
L 322.039565 106.739035 
L 326.917188 97.188707 
L 331.79481 98.010215 
L 336.672432 100.958246 
L 341.550055 99.122214 
L 346.427677 100.354766 
L 351.305299 100.365631 
L 356.182922 100.711132 
L 361.060544 101.370258 
L 365.938167 101.65116 
L 370.815789 102.904621 
L 375.693411 102.006101 
L 380.571034 104.306724 
L 385.448656 102.879207 
L 390.326278 105.636772 
L 395.203901 105.939743 
L 400.081523 107.274604 
L 404.959146 106.042161 
L 409.836768 102.837256 
L 414.71439 102.190625 
L 419.592013 102.916012 
L 424.469635 104.574849 
L 429.347257 104.96028 
L 434.22488 103.809724 
L 439.102502 103.15907 
L 443.980125 100.474736 
L 448.857747 103.320387 
L 453.735369 104.909241 
L 458.612992 99.075122 
L 463.490614 102.685609 
L 468.368236 101.998946 
L 473.245859 104.417844 
L 73.280824 102.513023 
L 78.158446 102.821635 
L 83.036069 101.812285 
L 87.913691 100.055253 
L 92.791313 101.635649 
L 97.668936 99.385981 
L 102.546558 100.508293 
L 107.424181 98.272571 
L 112.301803 97.066735 
L 117.179425 96.357218 
L 122.057048 94.161599 
L 126.93467 92.14141 
L 131.812292 92.264363 
L 136.689915 92.143001 
L 141.567537 89.792136 
L 146.44516 88.105812 
L 151.322782 89.505862 
L 156.200404 85.955045 
L 161.078027 87.60115 
L 165.955649 86.372397 
L 170.833271 88.811812 
L 175.710894 87.705242 
L 180.588516 85.161433 
L 185.466139 88.275614 
L 190.343761 85.012091 
L 195.221383 88.450286 
L 200.099006 88.722788 
L 204.976628 90.119161 
L 209.85425 89.155933 
L 214.731873 91.189266 
L 219.609495 91.107166 
L 224.487118 90.285112 
L 229.36474 90.225037 
L 234.242362 89.343729 
L 239.119985 88.133048 
L 243.997607 89.000988 
L 248.875229 90.777536 
L 253.752852 88.407828 
L 258.630474 85.318522 
L 263.508097 86.277379 
L 268.385719 82.493509 
L 273.263341 82.416345 
L 278.140964 83.351983 
L 283.018586 81.098324 
L 287.896208 81.295355 
L 292.773831 78.02089 
L 297.651453 77.356354 
L 302.529076 76.348365 
L 307.406698 77.882374 
L 312.28432 77.055494 
L 312.28432 77.055494 
" clip-path="url(#p6908b495ce)" style="fill: none; stroke: #ff7f0e; stroke-width: 1.5; stroke-linecap: square"/>
   </g>
   <g id="patch_3">
    <path d="M 47.917188 299.518125 
L 47.917188 22.318125 
" style="fill: none; stroke: #000000; stroke-width: 0.8; stroke-linejoin: miter; stroke-linecap: square"/>
   </g>
   <g id="patch_4">
    <path d="M 605.917187 299.518125 
L 605.917187 22.318125 
" style="fill: none; stroke: #000000; stroke-width: 0.8; stroke-linejoin: miter; stroke-linecap: square"/>
   </g>
   <g id="patch_5">
    <path d="M 47.917188 299.518125 
L 605.917188 299.518125 
" style="fill: none; stroke: #000000; stroke-width: 0.8; stroke-linejoin: miter; stroke-linecap: square"/>
   </g>
   <g id="patch_6">
    <path d="M 47.917188 22.318125 
L 605.917188 22.318125 
" style="fill: none; stroke: #000000; stroke-width: 0.8; stroke-linejoin: miter; stroke-linecap: square"/>
   </g>
   <g id="text_17">
    <!-- rl_down P(Direction) Over Time -->
    <g transform="translate(233.358438 16.318125) scale(0.12 -0.12)">
     <defs>
      <path id="DejaVuSans-64" d="M 2906 2969 
L 2906 4863 
L 3481 4863 
L 3481 0 
L 2906 0 
L 2906 525 
Q 2725 213 2448 61 
Q 2172 -91 1784 -91 
Q 1150 -91 751 415 
Q 353 922 353 1747 
Q 353 2572 751 3078 
Q 1150 3584 1784 3584 
Q 2172 3584 2448 3432 
Q 2725 3281 2906 2969 
z
M 947 1747 
Q 947 1113 1208 752 
Q 1469 391 1925 391 
Q 2381 391 2643 752 
Q 2906 1113 2906 1747 
Q 2906 2381 2643 2742 
Q 2381 3103 1925 3103 
Q 1469 3103 1208 2742 
Q 947 2381 947 1747 
z
" transform="scale(0.015625)"/>
      <path id="DejaVuSans-77" d="M 269 3500 
L 844 3500 
L 1563 769 
L 2278 3500 
L 2956 3500 
L 3675 769 
L 4391 3500 
L 4966 3500 
L 4050 0 
L 3372 0 
L 2619 2869 
L 1863 0 
L 1184 0 
L 269 3500 
z
" transform="scale(0.015625)"/>
      <path id="DejaVuSans-6e" d="M 3513 2113 
L 3513 0 
L 2938 0 
L 2938 2094 
Q 2938 2591 2744 2837 
Q 2550 3084 2163 3084 
Q 1697 3084 1428 2787 
Q 1159 2491 1159 1978 
L 1159 0 
L 581 0 
L 581 3500 
L 1159 3500 
L 1159 2956 
Q 1366 3272 1645 3428 
Q 1925 3584 2291 3584 
Q 2894 3584 3203 3211 
Q 3513 2838 3513 2113 
z
" transform="scale(0.015625)"/>
      <path id="DejaVuSans-20" transform="scale(0.015625)"/>
      <path id="DejaVuSans-28" d="M 1984 4856 
Q 1566 4138 1362 3434 
Q 1159 2731 1159 2009 
Q 1159 1288 1364 580 
Q 1569 -128 1984 -844 
L 1484 -844 
Q 1016 -109 783 600 
Q 550 1309 550 2009 
Q 550 2706 781 3412 
Q 1013 4119 1484 4856 
L 1984 4856 
z
" transform="scale(0.015625)"/>
      <path id="DejaVuSans-44" d="M 1259 4147 
L 1259 519 
L 2022 519 
Q 2988 519 3436 956 
Q 3884 1394 3884 2338 
Q 3884 3275 3436 3711 
Q 2988 4147 2022 4147 
L 1259 4147 
z
M 628 4666 
L 1925 4666 
Q 3281 4666 3915 4102 
Q 4550 3538 4550 2338 
Q 4550 1131 3912 565 
Q 3275 0 1925 0 
L 628 0 
L 628 4666 
z
" transform="scale(0.015625)"/>
      <path id="DejaVuSans-63" d="M 3122 3366 
L 3122 2828 
Q 2878 2963 2633 3030 
Q 2388 3097 2138 3097 
Q 1578 3097 1268 2742 
Q 959 2388 959 1747 
Q 959 1106 1268 751 
Q 1578 397 2138 397 
Q 2388 397 2633 464 
Q 2878 531 3122 666 
L 3122 134 
Q 2881 22 2623 -34 
Q 2366 -91 2075 -91 
Q 1284 -91 818 406 
Q 353 903 353 1747 
Q 353 2603 823 3093 
Q 1294 3584 2113 3584 
Q 2378 3584 2631 3529 
Q 2884 3475 3122 3366 
z
" transform="scale(0.015625)"/>
      <path id="DejaVuSans-29" d="M 513 4856 
L 1013 4856 
Q 1481 4119 1714 3412 
Q 1947 2706 1947 2009 
Q 1947 1309 1714 600 
Q 1481 -109 1013 -844 
L 513 -844 
Q 928 -128 1133 580 
Q 1338 1288 1338 2009 
Q 1338 2731 1133 3434 
Q 928 4138 513 4856 
z
" transform="scale(0.015625)"/>
      <path id="DejaVuSans-4f" d="M 2522 4238 
Q 1834 4238 1429 3725 
Q 1025 3213 1025 2328 
Q 1025 1447 1429 934 
Q 1834 422 2522 422 
Q 3209 422 3611 934 
Q 4013 1447 4013 2328 
Q 4013 3213 3611 3725 
Q 3209 4238 2522 4238 
z
M 2522 4750 
Q 3503 4750 4090 4092 
Q 4678 3434 4678 2328 
Q 4678 1225 4090 567 
Q 3503 -91 2522 -91 
Q 1538 -91 948 565 
Q 359 1222 359 2328 
Q 359 3434 948 4092 
Q 1538 4750 2522 4750 
z
" transform="scale(0.015625)"/>
      <path id="DejaVuSans-76" d="M 191 3500 
L 800 3500 
L 1894 563 
L 2988 3500 
L 3597 3500 
L 2284 0 
L 1503 0 
L 191 3500 
z
" transform="scale(0.015625)"/>
      <path id="DejaVuSans-54" d="M -19 4666 
L 3928 4666 
L 3928 4134 
L 2272 4134 
L 2272 0 
L 1638 0 
L 1638 4134 
L -19 4134 
L -19 4666 
z
" transform="scale(0.015625)"/>
     </defs>
     <use xlink:href="#DejaVuSans-72"/>
     <use xlink:href="#DejaVuSans-6c" transform="translate(41.113281 0)"/>
     <use xlink:href="#DejaVuSans-5f" transform="translate(68.896484 0)"/>
     <use xlink:href="#DejaVuSans-64" transform="translate(118.896484 0)"/>
     <use xlink:href="#DejaVuSans-6f" transform="translate(182.373047 0)"/>
     <use xlink:href="#DejaVuSans-77" transform="translate(243.554688 0)"/>
     <use xlink:href="#DejaVuSans-6e" transform="translate(325.341797 0)"/>
     <use xlink:href="#DejaVuSans-20" transform="translate(388.720703 0)"/>
     <use xlink:href="#DejaVuSans-50" transform="translate(420.507812 0)"/>
     <use xlink:href="#DejaVuSans-28" transform="translate(480.810547 0)"/>
     <use xlink:href="#DejaVuSans-44" transform="translate(519.824219 0)"/>
     <use xlink:href="#DejaVuSans-69" transform="translate(596.826172 0)"/>
     <use xlink:href="#DejaVuSans-72" transform="translate(624.609375 0)"/>
     <use xlink:href="#DejaVuSans-65" transform="translate(663.472656 0)"/>
     <use xlink:href="#DejaVuSans-63" transform="translate(724.996094 0)"/>
     <use xlink:href="#DejaVuSans-74" transform="translate(779.976562 0)"/>
     <use xlink:href="#DejaVuSans-69" transform="translate(819.185547 0)"/>
     <use xlink:href="#DejaVuSans-6f" transform="translate(846.96875 0)"/>
     <use xlink:href="#DejaVuSans-6e" transform="translate(908.150391 0)"/>
     <use xlink:href="#DejaVuSans-29" transform="translate(971.529297 0)"/>
     <use xlink:href="#DejaVuSans-20" transform="translate(1010.542969 0)"/>
     <use xlink:href="#DejaVuSans-4f" transform="translate(1042.330078 0)"/>
     <use xlink:href="#DejaVuSans-76" transform="translate(1121.041016 0)"/>
     <use xlink:href="#DejaVuSans-65" transform="translate(1180.220703 0)"/>
     <use xlink:href="#DejaVuSans-72" transform="translate(1241.744141 0)"/>
     <use xlink:href="#DejaVuSans-20" transform="translate(1282.857422 0)"/>
     <use xlink:href="#DejaVuSans-54" transform="translate(1314.644531 0)"/>
     <use xlink:href="#DejaVuSans-69" transform="translate(1372.603516 0)"/>
     <use xlink:href="#DejaVuSans-6d" transform="translate(1400.386719 0)"/>
     <use xlink:href="#DejaVuSans-65" transform="translate(1497.798828 0)"/>
    </g>
   </g>
   <g id="legend_1">
    <g id="patch_7">
     <path d="M 492.782969 69.649688 
L 599.617188 69.649688 
Q 601.417187 69.649688 601.417187 67.849688 
L 601.417187 28.618125 
Q 601.417187 26.818125 599.617188 26.818125 
L 492.782969 26.818125 
Q 490.982969 26.818125 490.982969 28.618125 
L 490.982969 67.849688 
Q 490.982969 69.649688 492.782969 69.649688 
z
" style="fill: #ffffff; opacity: 0.8; stroke: #cccccc; stroke-linejoin: miter"/>
    </g>
    <g id="line2d_29">
     <path d="M 494.582969 34.106719 
L 503.582969 34.106719 
L 512.582969 34.106719 
" style="fill: none; stroke: #1f77b4; stroke-opacity: 0.6; stroke-width: 1.5; stroke-linecap: square"/>
    </g>
    <g id="text_18">
     <!-- p_direction -->
     <g transform="translate(519.782969 37.256719) scale(0.09 -0.09)">
      <defs>
       <path id="DejaVuSans-70" d="M 1159 525 
L 1159 -1331 
L 581 -1331 
L 581 3500 
L 1159 3500 
L 1159 2969 
Q 1341 3281 1617 3432 
Q 1894 3584 2278 3584 
Q 2916 3584 3314 3078 
Q 3713 2572 3713 1747 
Q 3713 922 3314 415 
Q 2916 -91 2278 -91 
Q 1894 -91 1617 61 
Q 1341 213 1159 525 
z
M 3116 1747 
Q 3116 2381 2855 2742 
Q 2594 3103 2138 3103 
Q 1681 3103 1420 2742 
Q 1159 2381 1159 1747 
Q 1159 1113 1420 752 
Q 1681 391 2138 391 
Q 2594 391 2855 752 
Q 3116 1113 3116 1747 
z
" transform="scale(0.015625)"/>
      </defs>
      <use xlink:href="#DejaVuSans-70"/>
      <use xlink:href="#DejaVuSans-5f" transform="translate(63.476562 0)"/>
      <use xlink:href="#DejaVuSans-64" transform="translate(113.476562 0)"/>
      <use xlink:href="#DejaVuSans-69" transform="translate(176.953125 0)"/>
      <use xlink:href="#DejaVuSans-72" transform="translate(204.736328 0)"/>
      <use xlink:href="#DejaVuSans-65" transform="translate(243.599609 0)"/>
      <use xlink:href="#DejaVuSans-63" transform="translate(305.123047 0)"/>
      <use xlink:href="#DejaVuSans-74" transform="translate(360.103516 0)"/>
      <use xlink:href="#DejaVuSans-69" transform="translate(399.3125 0)"/>
      <use xlink:href="#DejaVuSans-6f" transform="translate(427.095703 0)"/>
      <use xlink:href="#DejaVuSans-6e" transform="translate(488.277344 0)"/>
     </g>
    </g>
    <g id="line2d_30">
     <path d="M 494.582969 47.567344 
L 503.582969 47.567344 
L 512.582969 47.567344 
" style="fill: none; stroke: #ff7f0e; stroke-width: 1.5; stroke-linecap: square"/>
    </g>
    <g id="text_19">
     <!-- p_direction mean -->
     <g transform="translate(519.782969 50.717344) scale(0.09 -0.09)">
      <use xlink:href="#DejaVuSans-70"/>
      <use xlink:href="#DejaVuSans-5f" transform="translate(63.476562 0)"/>
      <use xlink:href="#DejaVuSans-64" transform="translate(113.476562 0)"/>
      <use xlink:href="#DejaVuSans-69" transform="translate(176.953125 0)"/>
      <use xlink:href="#DejaVuSans-72" transform="translate(204.736328 0)"/>
      <use xlink:href="#DejaVuSans-65" transform="translate(243.599609 0)"/>
      <use xlink:href="#DejaVuSans-63" transform="translate(305.123047 0)"/>
      <use xlink:href="#DejaVuSans-74" transform="translate(360.103516 0)"/>
      <use xlink:href="#DejaVuSans-69" transform="translate(399.3125 0)"/>
      <use xlink:href="#DejaVuSans-6f" transform="translate(427.095703 0)"/>
      <use xlink:href="#DejaVuSans-6e" transform="translate(488.277344 0)"/>
      <use xlink:href="#DejaVuSans-20" transform="translate(551.65625 0)"/>
      <use xlink:href="#DejaVuSans-6d" transform="translate(583.443359 0)"/>
      <use xlink:href="#DejaVuSans-65" transform="translate(680.855469 0)"/>
      <use xlink:href="#DejaVuSans-61" transform="translate(742.378906 0)"/>
      <use xlink:href="#DejaVuSans-6e" transform="translate(803.658203 0)"/>
     </g>
    </g>
    <g id="patch_8">
     <path d="M 494.582969 64.177969 
L 512.582969 64.177969 
L 512.582969 57.877969 
L 494.582969 57.877969 
z
" style="fill: #1f77b4; fill-opacity: 0.2"/>
    </g>
    <g id="text_20">
     <!-- mean +/- std -->
     <g transform="translate(519.782969 64.177969) scale(0.09 -0.09)">
      <defs>
       <path id="DejaVuSans-2b" d="M 2944 4013 
L 2944 2272 
L 4684 2272 
L 4684 1741 
L 2944 1741 
L 2944 0 
L 2419 0 
L 2419 1741 
L 678 1741 
L 678 2272 
L 2419 2272 
L 2419 4013 
L 2944 4013 
z
" transform="scale(0.015625)"/>
       <path id="DejaVuSans-2f" d="M 1625 4666 
L 2156 4666 
L 531 -594 
L 0 -594 
L 1625 4666 
z
" transform="scale(0.015625)"/>
       <path id="DejaVuSans-2d" d="M 313 2009 
L 1997 2009 
L 1997 1497 
L 313 1497 
L 313 2009 
z
" transform="scale(0.015625)"/>
      </defs>
      <use xlink:href="#DejaVuSans-6d"/>
      <use xlink:href="#DejaVuSans-65" transform="translate(97.412109 0)"/>
      <use xlink:href="#DejaVuSans-61" transform="translate(158.935547 0)"/>
      <use xlink:href="#DejaVuSans-6e" transform="translate(220.214844 0)"/>
      <use xlink:href="#DejaVuSans-20" transform="translate(283.59375 0)"/>
      <use xlink:href="#DejaVuSans-2b" transform="translate(315.380859 0)"/>
      <use xlink:href="#DejaVuSans-2f" transform="translate(399.169922 0)"/>
      <use xlink:href="#DejaVuSans-2d" transform="translate(432.861328 0)"/>
      <use xlink:href="#DejaVuSans-20" transform="translate(468.945312 0)"/>
      <use xlink:href="#DejaVuSans-73" transform="translate(500.732422 0)"/>
      <use xlink:href="#DejaVuSans-74" transform="translate(552.832031 0)"/>
      <use xlink:href="#DejaVuSans-64" transform="translate(592.041016 0)"/>
     </g>
    </g>
   </g>
  </g>
 </g>
 <defs>
  <clipPath id="p6908b495ce">
   <rect x="47.917188" y="22.318125" width="558" height="277.2"/>
  </clipPath>
 </defs>
</svg>
