<?xml version="1.0" encoding="utf-8" standalone="no"?>
<!DOCTYPE svg PUBLIC "-//W3C//DTD SVG 1.1//EN"
  "http://www.w3.org/Graphics/SVG/1.1/DTD/svg11.dtd">
<svg xmlns:xlink="http://www.w3.org/1999/xlink" width="613.117188pt" height="336.384688pt" viewBox="0 0 613.117188 336.384688" xmlns="http://www.w3.org/2000/svg" version="1.1">
 <metadata>
  <rdf:RDF xmlns:dc="http://purl.org/dc/elements/1.1/" xmlns:cc="http://creativecommons.org/ns#" xmlns:rdf="http://www.w3.org/1999/02/22-rdf-syntax-ns#">
   <cc:Work>
    <dc:type rdf:resource="http://purl.org/dc/dcmitype/StillImage"/>
    <dc:date>2026-01-08T16:37:40.602750</dc:date>
    <dc:format>image/svg+xml</dc:format>
    <dc:creator>
     <cc:Agent>
      <dc:title>Matplotlib v3.10.8, https://matplotlib.org/</dc:title>
     </cc:Agent>
    </dc:creator>
   </cc:Work>
  </rdf:RDF>
 </metadata>
 <defs>
  <style type="text/css">*{stroke-linejoin: round; stroke-linecap: butt}</style>
 </defs>
 <g id="figure_1">
  <g id="patch_1">
   <path d="M 0 336.384688 
L 613.117188 336.384688 
L 613.117188 0 
L 0 0 
z
" style="fill: #ffffff"/>
  </g>
  <g id="axes_1">
   <g id="patch_2">
    <path d="M 47.917188 299.518125 
L 605.917187 299.518125 
L 605.917187 22.318125 
L 47.917188 22.318125 
z
" style="fill: #ffffff"/>
   </g>
   <g id="FillBetweenPolyCollection_1">
    <path d="M 491.142171 203.069851 
L 491.142171 203.069851 
L 492.966893 235.071847 
L 494.791615 232.227717 
L 496.616337 222.350029 
L 498.441059 239.812461 
L 500.265781 233.591334 
L 502.090503 233.463209 
L 503.915225 242.011526 
L 505.739947 238.04228 
L 507.56467 234.566031 
L 509.389392 234.555868 
L 511.214114 236.857005 
L 513.038836 234.374144 
L 514.863558 235.980345 
L 516.68828 234.404804 
L 518.513002 233.422488 
L 520.337724 233.859871 
L 522.162446 232.311036 
L 523.987168 230.850265 
L 525.81189 232.715574 
L 527.636612 232.063814 
L 529.461334 230.421707 
L 531.286056 231.714711 
L 533.110778 231.853492 
L 534.9355 229.671246 
L 536.760222 230.734595 
L 538.584944 229.577112 
L 540.409666 226.936723 
L 542.234388 238.112878 
L 544.05911 238.272083 
L 545.883832 237.402822 
L 547.708554 238.801294 
L 549.533276 240.87876 
L 551.357998 239.159951 
L 553.182721 244.669618 
L 555.007443 244.007687 
L 556.832165 242.205029 
L 558.656887 245.284073 
L 560.481609 245.196666 
L 562.306331 242.540991 
L 564.131053 243.334675 
L 565.955775 243.093456 
L 567.780497 242.322108 
L 569.605219 245.036584 
L 571.429941 242.764476 
L 573.254663 242.345693 
L 575.079385 247.393372 
L 576.904107 244.935221 
L 578.728829 234.906795 
L 580.553551 239.82995 
L 73.280824 239.524963 
L 75.105546 235.277359 
L 76.930268 234.553669 
L 78.75499 233.165215 
L 80.579712 228.091863 
L 82.404434 232.469153 
L 84.229156 234.790235 
L 86.053878 230.394805 
L 87.8786 230.655262 
L 89.703322 229.847399 
L 91.528044 228.250887 
L 93.352766 228.068192 
L 95.177488 226.368173 
L 97.00221 224.370553 
L 98.826932 230.661834 
L 100.651654 228.526672 
L 102.476377 220.33804 
L 104.301099 219.862556 
L 106.125821 220.275093 
L 107.950543 213.263435 
L 109.775265 214.580412 
L 111.599987 214.850111 
L 113.424709 216.593941 
L 115.249431 223.460039 
L 117.074153 225.943261 
L 118.898875 220.520524 
L 120.723597 217.101648 
L 122.548319 217.347272 
L 124.373041 220.541669 
L 126.197763 223.248734 
L 128.022485 224.597622 
L 129.847207 223.249288 
L 131.671929 223.975502 
L 133.496651 226.621799 
L 135.321373 222.558082 
L 137.146095 222.934739 
L 138.970817 223.847618 
L 140.795539 231.472655 
L 142.620261 232.099385 
L 144.444983 231.927376 
L 146.269705 232.531995 
L 148.094428 232.462049 
L 149.91915 231.545205 
L 151.743872 226.560906 
L 153.568594 226.924031 
L 155.393316 227.046679 
L 157.218038 229.051923 
L 159.04276 231.662305 
L 160.867482 229.268271 
L 162.692204 227.818491 
L 149.91915 229.178325 
L 151.743872 229.159771 
L 153.568594 228.553848 
L 155.393316 226.009364 
L 157.218038 221.714233 
L 159.04276 220.866313 
L 160.867482 219.486744 
L 162.692204 209.329222 
L 164.516926 206.301578 
L 166.341648 204.714974 
L 168.16637 199.72165 
L 169.991092 198.004742 
L 171.815814 195.113505 
L 173.640536 190.162339 
L 175.465258 177.227542 
L 177.28998 173.068077 
L 179.114702 164.706553 
L 180.939424 148.213552 
L 182.764146 144.64098 
L 184.588868 140.317822 
L 186.41359 139.580341 
L 188.238312 137.293891 
L 190.063034 135.494404 
L 191.887756 139.479172 
L 193.712479 136.858805 
L 195.537201 131.16219 
L 197.361923 133.039693 
L 199.186645 133.230283 
L 201.011367 139.869885 
L 202.836089 142.024991 
L 204.660811 142.976265 
L 206.485533 144.658801 
L 208.310255 146.082448 
L 210.134977 145.400224 
L 211.959699 147.852804 
L 213.784421 147.508766 
L 215.609143 144.814097 
L 217.433865 144.586015 
L 219.258587 142.83036 
L 221.083309 138.957083 
L 222.908031 139.57688 
L 224.732753 140.533863 
L 226.557475 140.76141 
L 228.382197 140.605014 
L 230.206919 141.9188 
L 232.031641 143.40555 
L 233.856363 147.256047 
L 235.681085 150.3028 
L 237.505808 145.648792 
L 239.33053 148.529579 
L 239.33053 74.871769 
L 239.33053 74.871769 
L 237.505808 75.140977 
L 235.681085 75.435535 
L 233.856363 73.625924 
L 232.031641 73.623049 
L 230.206919 79.37603 
L 228.382197 78.229806 
L 226.557475 78.209738 
L 224.732753 78.166925 
L 222.908031 77.385276 
L 221.083309 75.875485 
L 219.258587 76.424977 
L 217.433865 79.945488 
L 215.609143 74.98926 
L 213.784421 80.720194 
L 211.959699 82.882154 
L 210.134977 81.649959 
L 208.310255 82.641958 
L 206.485533 82.147611 
L 204.660811 79.755771 
L 202.836089 84.970869 
L 201.011367 84.105732 
L 199.186645 81.834126 
L 197.361923 80.774662 
L 195.537201 78.460241 
L 193.712479 80.783822 
L 191.887756 82.049983 
L 190.063034 78.127587 
L 188.238312 78.06263 
L 186.41359 79.062303 
L 184.588868 80.904808 
L 182.764146 79.530426 
L 180.939424 79.529333 
L 179.114702 81.752694 
L 177.28998 80.683572 
L 175.465258 83.315361 
L 173.640536 84.188967 
L 171.815814 86.82047 
L 169.991092 89.341293 
L 168.16637 94.353788 
L 166.341648 100.109826 
L 164.516926 103.670586 
L 162.692204 112.174329 
L 160.867482 119.682234 
L 159.04276 129.478583 
L 157.218038 130.68824 
L 155.393316 134.660915 
L 153.568594 149.437943 
L 151.743872 152.643168 
L 149.91915 156.789763 
L 162.692204 166.672238 
L 160.867482 168.138154 
L 159.04276 171.954444 
L 157.218038 163.223357 
L 155.393316 158.413187 
L 153.568594 156.916143 
L 151.743872 156.99301 
L 149.91915 157.559093 
L 148.094428 159.172314 
L 146.269705 161.144816 
L 144.444983 160.41175 
L 142.620261 162.022874 
L 140.795539 160.424126 
L 138.970817 157.87202 
L 137.146095 153.86407 
L 135.321373 150.910121 
L 133.496651 150.185872 
L 131.671929 150.430265 
L 129.847207 147.004182 
L 128.022485 148.078696 
L 126.197763 146.243354 
L 124.373041 144.198244 
L 122.548319 143.595322 
L 120.723597 146.931921 
L 118.898875 150.596768 
L 117.074153 153.495671 
L 115.249431 153.735784 
L 113.424709 150.827644 
L 111.599987 148.279425 
L 109.775265 143.980864 
L 107.950543 140.981613 
L 106.125821 141.075939 
L 104.301099 139.981554 
L 102.476377 141.016623 
L 100.651654 144.089582 
L 98.826932 148.095856 
L 97.00221 147.736125 
L 95.177488 147.618112 
L 93.352766 151.952612 
L 91.528044 152.037585 
L 89.703322 154.426709 
L 87.8786 156.331528 
L 86.053878 155.859524 
L 84.229156 159.627354 
L 82.404434 156.738863 
L 80.579712 155.164635 
L 78.75499 154.442246 
L 76.930268 158.451157 
L 75.105546 154.757202 
L 73.280824 162.255909 
L 580.553551 167.407466 
L 578.728829 163.602199 
L 576.904107 166.698695 
L 575.079385 169.922399 
L 573.254663 167.80994 
L 571.429941 168.127231 
L 569.605219 170.071472 
L 567.780497 168.521654 
L 565.955775 169.142051 
L 564.131053 169.373189 
L 562.306331 167.169211 
L 560.481609 168.874153 
L 558.656887 169.349386 
L 556.832165 167.256924 
L 555.007443 171.015769 
L 553.182721 172.809859 
L 551.357998 171.777575 
L 549.533276 172.621779 
L 547.708554 178.695287 
L 545.883832 178.767327 
L 544.05911 179.730237 
L 542.234388 180.414787 
L 540.409666 180.905426 
L 538.584944 180.291076 
L 536.760222 182.087995 
L 534.9355 180.085152 
L 533.110778 179.713812 
L 531.286056 177.45848 
L 529.461334 173.318311 
L 527.636612 173.69959 
L 525.81189 175.961776 
L 523.987168 174.536073 
L 522.162446 175.034152 
L 520.337724 175.446494 
L 518.513002 173.769236 
L 516.68828 172.660056 
L 514.863558 172.013722 
L 513.038836 169.63217 
L 511.214114 173.225688 
L 509.389392 170.434539 
L 507.56467 167.667121 
L 505.739947 171.679047 
L 503.915225 173.909226 
L 502.090503 170.182088 
L 500.265781 165.524633 
L 498.441059 165.860585 
L 496.616337 160.514458 
L 494.791615 164.341525 
L 492.966893 197.579176 
L 491.142171 203.069851 
z
" clip-path="url(#p28572d79a6)" style="fill: #1f77b4; fill-opacity: 0.2"/>
   </g>
   <g id="matplotlib.axis_1">
    <g id="xtick_1">
     <g id="line2d_1">
      <path d="M 48.951197 299.518125 
L 48.951197 22.318125 
" clip-path="url(#p28572d79a6)" style="fill: none; stroke: #b0b0b0; stroke-opacity: 0.3; stroke-width: 0.8; stroke-linecap: square"/>
     </g>
     <g id="line2d_2">
      <defs>
       <path id="m45fbc9ca29" d="M 0 0 
L 0 3.5 
" style="stroke: #000000; stroke-width: 0.8"/>
      </defs>
      <g>
       <use xlink:href="#m45fbc9ca29" x="48.951197" y="299.518125" style="stroke: #000000; stroke-width: 0.8"/>
      </g>
     </g>
     <g id="text_1">
      <!-- 1.4 -->
      <g transform="translate(41.79479 313.356719) scale(0.09 -0.09)">
       <defs>
        <path id="DejaVuSans-31" d="M 794 531 
L 1825 531 
L 1825 4091 
L 703 3866 
L 703 4441 
L 1819 4666 
L 2450 4666 
L 2450 531 
L 3481 531 
L 3481 0 
L 794 0 
L 794 531 
z
" transform="scale(0.015625)"/>
        <path id="DejaVuSans-2e" d="M 684 794 
L 1344 794 
L 1344 0 
L 684 0 
L 684 794 
z
" transform="scale(0.015625)"/>
        <path id="DejaVuSans-34" d="M 2419 4116 
L 825 1625 
L 2419 1625 
L 2419 4116 
z
M 2253 4666 
L 3047 4666 
L 3047 1625 
L 3713 1625 
L 3713 1100 
L 3047 1100 
L 3047 0 
L 2419 0 
L 2419 1100 
L 313 1100 
L 313 1709 
L 2253 4666 
z
" transform="scale(0.015625)"/>
       </defs>
       <use xlink:href="#DejaVuSans-31"/>
       <use xlink:href="#DejaVuSans-2e" transform="translate(63.623047 0)"/>
       <use xlink:href="#DejaVuSans-34" transform="translate(95.410156 0)"/>
      </g>
     </g>
    </g>
    <g id="xtick_2">
     <g id="line2d_3">
      <path d="M 170.599333 299.518125 
L 170.599333 22.318125 
" clip-path="url(#p28572d79a6)" style="fill: none; stroke: #b0b0b0; stroke-opacity: 0.3; stroke-width: 0.8; stroke-linecap: square"/>
     </g>
     <g id="line2d_4">
      <g>
       <use xlink:href="#m45fbc9ca29" x="170.599333" y="299.518125" style="stroke: #000000; stroke-width: 0.8"/>
      </g>
     </g>
     <g id="text_2">
      <!-- 1.6 -->
      <g transform="translate(163.442926 313.356719) scale(0.09 -0.09)">
       <defs>
        <path id="DejaVuSans-36" d="M 2113 2584 
Q 1688 2584 1439 2293 
Q 1191 2003 1191 1497 
Q 1191 994 1439 701 
Q 1688 409 2113 409 
Q 2538 409 2786 701 
Q 3034 994 3034 1497 
Q 3034 2003 2786 2293 
Q 2538 2584 2113 2584 
z
M 3366 4563 
L 3366 3988 
Q 3128 4100 2886 4159 
Q 2644 4219 2406 4219 
Q 1781 4219 1451 3797 
Q 1122 3375 1075 2522 
Q 1259 2794 1537 2939 
Q 1816 3084 2150 3084 
Q 2853 3084 3261 2657 
Q 3669 2231 3669 1497 
Q 3669 778 3244 343 
Q 2819 -91 2113 -91 
Q 1303 -91 875 529 
Q 447 1150 447 2328 
Q 447 3434 972 4092 
Q 1497 4750 2381 4750 
Q 2619 4750 2861 4703 
Q 3103 4656 3366 4563 
z
" transform="scale(0.015625)"/>
       </defs>
       <use xlink:href="#DejaVuSans-31"/>
       <use xlink:href="#DejaVuSans-2e" transform="translate(63.623047 0)"/>
       <use xlink:href="#DejaVuSans-36" transform="translate(95.410156 0)"/>
      </g>
     </g>
    </g>
    <g id="xtick_3">
     <g id="line2d_5">
      <path d="M 292.247469 299.518125 
L 292.247469 22.318125 
" clip-path="url(#p28572d79a6)" style="fill: none; stroke: #b0b0b0; stroke-opacity: 0.3; stroke-width: 0.8; stroke-linecap: square"/>
     </g>
     <g id="line2d_6">
      <g>
       <use xlink:href="#m45fbc9ca29" x="292.247469" y="299.518125" style="stroke: #000000; stroke-width: 0.8"/>
      </g>
     </g>
     <g id="text_3">
      <!-- 1.8 -->
      <g transform="translate(285.091062 313.356719) scale(0.09 -0.09)">
       <defs>
        <path id="DejaVuSans-38" d="M 2034 2216 
Q 1584 2216 1326 1975 
Q 1069 1734 1069 1313 
Q 1069 891 1326 650 
Q 1584 409 2034 409 
Q 2484 409 2743 651 
Q 3003 894 3003 1313 
Q 3003 1734 2745 1975 
Q 2488 2216 2034 2216 
z
M 1403 2484 
Q 997 2584 770 2862 
Q 544 3141 544 3541 
Q 544 4100 942 4425 
Q 1341 4750 2034 4750 
Q 2731 4750 3128 4425 
Q 3525 4100 3525 3541 
Q 3525 3141 3298 2862 
Q 3072 2584 2669 2484 
Q 3125 2378 3379 2068 
Q 3634 1759 3634 1313 
Q 3634 634 3220 271 
Q 2806 -91 2034 -91 
Q 1263 -91 848 271 
Q 434 634 434 1313 
Q 434 1759 690 2068 
Q 947 2378 1403 2484 
z
M 1172 3481 
Q 1172 3119 1398 2916 
Q 1625 2713 2034 2713 
Q 2441 2713 2670 2916 
Q 2900 3119 2900 3481 
Q 2900 3844 2670 4047 
Q 2441 4250 2034 4250 
Q 1625 4250 1398 4047 
Q 1172 3844 1172 3481 
z
" transform="scale(0.015625)"/>
       </defs>
       <use xlink:href="#DejaVuSans-31"/>
       <use xlink:href="#DejaVuSans-2e" transform="translate(63.623047 0)"/>
       <use xlink:href="#DejaVuSans-38" transform="translate(95.410156 0)"/>
      </g>
     </g>
    </g>
    <g id="xtick_4">
     <g id="line2d_7">
      <path d="M 413.895605 299.518125 
L 413.895605 22.318125 
" clip-path="url(#p28572d79a6)" style="fill: none; stroke: #b0b0b0; stroke-opacity: 0.3; stroke-width: 0.8; stroke-linecap: square"/>
     </g>
     <g id="line2d_8">
      <g>
       <use xlink:href="#m45fbc9ca29" x="413.895605" y="299.518125" style="stroke: #000000; stroke-width: 0.8"/>
      </g>
     </g>
     <g id="text_4">
      <!-- 2.0 -->
      <g transform="translate(406.739199 313.356719) scale(0.09 -0.09)">
       <defs>
        <path id="DejaVuSans-32" d="M 1228 531 
L 3431 531 
L 3431 0 
L 469 0 
L 469 531 
Q 828 903 1448 1529 
Q 2069 2156 2228 2338 
Q 2531 2678 2651 2914 
Q 2772 3150 2772 3378 
Q 2772 3750 2511 3984 
Q 2250 4219 1831 4219 
Q 1534 4219 1204 4116 
Q 875 4013 500 3803 
L 500 4441 
Q 881 4594 1212 4672 
Q 1544 4750 1819 4750 
Q 2544 4750 2975 4387 
Q 3406 4025 3406 3419 
Q 3406 3131 3298 2873 
Q 3191 2616 2906 2266 
Q 2828 2175 2409 1742 
Q 1991 1309 1228 531 
z
" transform="scale(0.015625)"/>
        <path id="DejaVuSans-30" d="M 2034 4250 
Q 1547 4250 1301 3770 
Q 1056 3291 1056 2328 
Q 1056 1369 1301 889 
Q 1547 409 2034 409 
Q 2525 409 2770 889 
Q 3016 1369 3016 2328 
Q 3016 3291 2770 3770 
Q 2525 4250 2034 4250 
z
M 2034 4750 
Q 2819 4750 3233 4129 
Q 3647 3509 3647 2328 
Q 3647 1150 3233 529 
Q 2819 -91 2034 -91 
Q 1250 -91 836 529 
Q 422 1150 422 2328 
Q 422 3509 836 4129 
Q 1250 4750 2034 4750 
z
" transform="scale(0.015625)"/>
       </defs>
       <use xlink:href="#DejaVuSans-32"/>
       <use xlink:href="#DejaVuSans-2e" transform="translate(63.623047 0)"/>
       <use xlink:href="#DejaVuSans-30" transform="translate(95.410156 0)"/>
      </g>
     </g>
    </g>
    <g id="xtick_5">
     <g id="line2d_9">
      <path d="M 535.543741 299.518125 
L 535.543741 22.318125 
" clip-path="url(#p28572d79a6)" style="fill: none; stroke: #b0b0b0; stroke-opacity: 0.3; stroke-width: 0.8; stroke-linecap: square"/>
     </g>
     <g id="line2d_10">
      <g>
       <use xlink:href="#m45fbc9ca29" x="535.543741" y="299.518125" style="stroke: #000000; stroke-width: 0.8"/>
      </g>
     </g>
     <g id="text_5">
      <!-- 2.2 -->
      <g transform="translate(528.387335 313.356719) scale(0.09 -0.09)">
       <use xlink:href="#DejaVuSans-32"/>
       <use xlink:href="#DejaVuSans-2e" transform="translate(63.623047 0)"/>
       <use xlink:href="#DejaVuSans-32" transform="translate(95.410156 0)"/>
      </g>
     </g>
    </g>
    <g id="text_6">
     <!-- time_ms -->
     <g transform="translate(305.646094 326.826875) scale(0.1 -0.1)">
      <defs>
       <path id="DejaVuSans-74" d="M 1172 4494 
L 1172 3500 
L 2356 3500 
L 2356 3053 
L 1172 3053 
L 1172 1153 
Q 1172 725 1289 603 
Q 1406 481 1766 481 
L 2356 481 
L 2356 0 
L 1766 0 
Q 1100 0 847 248 
Q 594 497 594 1153 
L 594 3053 
L 172 3053 
L 172 3500 
L 594 3500 
L 594 4494 
L 1172 4494 
z
" transform="scale(0.015625)"/>
       <path id="DejaVuSans-69" d="M 603 3500 
L 1178 3500 
L 1178 0 
L 603 0 
L 603 3500 
z
M 603 4863 
L 1178 4863 
L 1178 4134 
L 603 4134 
L 603 4863 
z
" transform="scale(0.015625)"/>
       <path id="DejaVuSans-6d" d="M 3328 2828 
Q 3544 3216 3844 3400 
Q 4144 3584 4550 3584 
Q 5097 3584 5394 3201 
Q 5691 2819 5691 2113 
L 5691 0 
L 5113 0 
L 5113 2094 
Q 5113 2597 4934 2840 
Q 4756 3084 4391 3084 
Q 3944 3084 3684 2787 
Q 3425 2491 3425 1978 
L 3425 0 
L 2847 0 
L 2847 2094 
Q 2847 2600 2669 2842 
Q 2491 3084 2119 3084 
Q 1678 3084 1418 2786 
Q 1159 2488 1159 1978 
L 1159 0 
L 581 0 
L 581 3500 
L 1159 3500 
L 1159 2956 
Q 1356 3278 1631 3431 
Q 1906 3584 2284 3584 
Q 2666 3584 2933 3390 
Q 3200 3197 3328 2828 
z
" transform="scale(0.015625)"/>
       <path id="DejaVuSans-65" d="M 3597 1894 
L 3597 1613 
L 953 1613 
Q 991 1019 1311 708 
Q 1631 397 2203 397 
Q 2534 397 2845 478 
Q 3156 559 3463 722 
L 3463 178 
Q 3153 47 2828 -22 
Q 2503 -91 2169 -91 
Q 1331 -91 842 396 
Q 353 884 353 1716 
Q 353 2575 817 3079 
Q 1281 3584 2069 3584 
Q 2775 3584 3186 3129 
Q 3597 2675 3597 1894 
z
M 3022 2063 
Q 3016 2534 2758 2815 
Q 2500 3097 2075 3097 
Q 1594 3097 1305 2825 
Q 1016 2553 972 2059 
L 3022 2063 
z
" transform="scale(0.015625)"/>
       <path id="DejaVuSans-5f" d="M 3263 -1063 
L 3263 -1509 
L -63 -1509 
L -63 -1063 
L 3263 -1063 
z
" transform="scale(0.015625)"/>
       <path id="DejaVuSans-73" d="M 2834 3397 
L 2834 2853 
Q 2591 2978 2328 3040 
Q 2066 3103 1784 3103 
Q 1356 3103 1142 2972 
Q 928 2841 928 2578 
Q 928 2378 1081 2264 
Q 1234 2150 1697 2047 
L 1894 2003 
Q 2506 1872 2764 1633 
Q 3022 1394 3022 966 
Q 3022 478 2636 193 
Q 2250 -91 1575 -91 
Q 1294 -91 989 -36 
Q 684 19 347 128 
L 347 722 
Q 666 556 975 473 
Q 1284 391 1588 391 
Q 1994 391 2212 530 
Q 2431 669 2431 922 
Q 2431 1156 2273 1281 
Q 2116 1406 1581 1522 
L 1381 1569 
Q 847 1681 609 1914 
Q 372 2147 372 2553 
Q 372 3047 722 3315 
Q 1072 3584 1716 3584 
Q 2034 3584 2315 3537 
Q 2597 3491 2834 3397 
z
" transform="scale(0.015625)"/>
      </defs>
      <use xlink:href="#DejaVuSans-74"/>
      <use xlink:href="#DejaVuSans-69" transform="translate(39.208984 0)"/>
      <use xlink:href="#DejaVuSans-6d" transform="translate(66.992188 0)"/>
      <use xlink:href="#DejaVuSans-65" transform="translate(164.404297 0)"/>
      <use xlink:href="#DejaVuSans-5f" transform="translate(225.927734 0)"/>
      <use xlink:href="#DejaVuSans-6d" transform="translate(275.927734 0)"/>
      <use xlink:href="#DejaVuSans-73" transform="translate(373.339844 0)"/>
     </g>
    </g>
    <g id="text_7">
     <!-- 1e8 -->
     <g transform="translate(588.926875 325.067031) scale(0.09 -0.09)">
      <use xlink:href="#DejaVuSans-31"/>
      <use xlink:href="#DejaVuSans-65" transform="translate(63.623047 0)"/>
      <use xlink:href="#DejaVuSans-38" transform="translate(125.146484 0)"/>
     </g>
    </g>
   </g>
   <g id="matplotlib.axis_2">
    <g id="ytick_1">
     <g id="line2d_11">
      <path d="M 47.917188 279.587368 
L 605.917187 279.587368 
" clip-path="url(#p28572d79a6)" style="fill: none; stroke: #b0b0b0; stroke-opacity: 0.3; stroke-width: 0.8; stroke-linecap: square"/>
     </g>
     <g id="line2d_12">
      <defs>
       <path id="ma94a409209" d="M 0 0 
L -3.5 0 
" style="stroke: #000000; stroke-width: 0.8"/>
      </defs>
      <g>
       <use xlink:href="#ma94a409209" x="47.917188" y="279.587368" style="stroke: #000000; stroke-width: 0.8"/>
      </g>
     </g>
     <g id="text_8">
      <!-- 0.54 -->
      <g transform="translate(20.878125 283.006665) scale(0.09 -0.09)">
       <defs>
        <path id="DejaVuSans-35" d="M 691 4666 
L 3169 4666 
L 3169 4134 
L 1269 4134 
L 1269 2991 
Q 1406 3038 1543 3061 
Q 1681 3084 1819 3084 
Q 2600 3084 3056 2656 
Q 3513 2228 3513 1497 
Q 3513 744 3044 326 
Q 2575 -91 1722 -91 
Q 1428 -91 1123 -41 
Q 819 9 494 109 
L 494 744 
Q 775 591 1075 516 
Q 1375 441 1709 441 
Q 2250 441 2565 725 
Q 2881 1009 2881 1497 
Q 2881 1984 2565 2268 
Q 2250 2553 1709 2553 
Q 1456 2553 1204 2497 
Q 953 2441 691 2322 
L 691 4666 
z
" transform="scale(0.015625)"/>
       </defs>
       <use xlink:href="#DejaVuSans-30"/>
       <use xlink:href="#DejaVuSans-2e" transform="translate(63.623047 0)"/>
       <use xlink:href="#DejaVuSans-35" transform="translate(95.410156 0)"/>
       <use xlink:href="#DejaVuSans-34" transform="translate(159.033203 0)"/>
      </g>
     </g>
    </g>
    <g id="ytick_2">
     <g id="line2d_13">
      <path d="M 47.917188 248.018068 
L 605.917187 248.018068 
" clip-path="url(#p28572d79a6)" style="fill: none; stroke: #b0b0b0; stroke-opacity: 0.3; stroke-width: 0.8; stroke-linecap: square"/>
     </g>
     <g id="line2d_14">
      <g>
       <use xlink:href="#ma94a409209" x="47.917188" y="248.018068" style="stroke: #000000; stroke-width: 0.8"/>
      </g>
     </g>
     <g id="text_9">
      <!-- 0.55 -->
      <g transform="translate(20.878125 251.437365) scale(0.09 -0.09)">
       <use xlink:href="#DejaVuSans-30"/>
       <use xlink:href="#DejaVuSans-2e" transform="translate(63.623047 0)"/>
       <use xlink:href="#DejaVuSans-35" transform="translate(95.410156 0)"/>
       <use xlink:href="#DejaVuSans-35" transform="translate(159.033203 0)"/>
      </g>
     </g>
    </g>
    <g id="ytick_3">
     <g id="line2d_15">
      <path d="M 47.917188 216.448769 
L 605.917187 216.448769 
" clip-path="url(#p28572d79a6)" style="fill: none; stroke: #b0b0b0; stroke-opacity: 0.3; stroke-width: 0.8; stroke-linecap: square"/>
     </g>
     <g id="line2d_16">
      <g>
       <use xlink:href="#ma94a409209" x="47.917188" y="216.448769" style="stroke: #000000; stroke-width: 0.8"/>
      </g>
     </g>
     <g id="text_10">
      <!-- 0.56 -->
      <g transform="translate(20.878125 219.868066) scale(0.09 -0.09)">
       <use xlink:href="#DejaVuSans-30"/>
       <use xlink:href="#DejaVuSans-2e" transform="translate(63.623047 0)"/>
       <use xlink:href="#DejaVuSans-35" transform="translate(95.410156 0)"/>
       <use xlink:href="#DejaVuSans-36" transform="translate(159.033203 0)"/>
      </g>
     </g>
    </g>
    <g id="ytick_4">
     <g id="line2d_17">
      <path d="M 47.917188 184.87947 
L 605.917187 184.87947 
" clip-path="url(#p28572d79a6)" style="fill: none; stroke: #b0b0b0; stroke-opacity: 0.3; stroke-width: 0.8; stroke-linecap: square"/>
     </g>
     <g id="line2d_18">
      <g>
       <use xlink:href="#ma94a409209" x="47.917188" y="184.87947" style="stroke: #000000; stroke-width: 0.8"/>
      </g>
     </g>
     <g id="text_11">
      <!-- 0.57 -->
      <g transform="translate(20.878125 188.298767) scale(0.09 -0.09)">
       <defs>
        <path id="DejaVuSans-37" d="M 525 4666 
L 3525 4666 
L 3525 4397 
L 1831 0 
L 1172 0 
L 2766 4134 
L 525 4134 
L 525 4666 
z
" transform="scale(0.015625)"/>
       </defs>
       <use xlink:href="#DejaVuSans-30"/>
       <use xlink:href="#DejaVuSans-2e" transform="translate(63.623047 0)"/>
       <use xlink:href="#DejaVuSans-35" transform="translate(95.410156 0)"/>
       <use xlink:href="#DejaVuSans-37" transform="translate(159.033203 0)"/>
      </g>
     </g>
    </g>
    <g id="ytick_5">
     <g id="line2d_19">
      <path d="M 47.917188 153.31017 
L 605.917187 153.31017 
" clip-path="url(#p28572d79a6)" style="fill: none; stroke: #b0b0b0; stroke-opacity: 0.3; stroke-width: 0.8; stroke-linecap: square"/>
     </g>
     <g id="line2d_20">
      <g>
       <use xlink:href="#ma94a409209" x="47.917188" y="153.31017" style="stroke: #000000; stroke-width: 0.8"/>
      </g>
     </g>
     <g id="text_12">
      <!-- 0.58 -->
      <g transform="translate(20.878125 156.729467) scale(0.09 -0.09)">
       <use xlink:href="#DejaVuSans-30"/>
       <use xlink:href="#DejaVuSans-2e" transform="translate(63.623047 0)"/>
       <use xlink:href="#DejaVuSans-35" transform="translate(95.410156 0)"/>
       <use xlink:href="#DejaVuSans-38" transform="translate(159.033203 0)"/>
      </g>
     </g>
    </g>
    <g id="ytick_6">
     <g id="line2d_21">
      <path d="M 47.917188 121.740871 
L 605.917187 121.740871 
" clip-path="url(#p28572d79a6)" style="fill: none; stroke: #b0b0b0; stroke-opacity: 0.3; stroke-width: 0.8; stroke-linecap: square"/>
     </g>
     <g id="line2d_22">
      <g>
       <use xlink:href="#ma94a409209" x="47.917188" y="121.740871" style="stroke: #000000; stroke-width: 0.8"/>
      </g>
     </g>
     <g id="text_13">
      <!-- 0.59 -->
      <g transform="translate(20.878125 125.160168) scale(0.09 -0.09)">
       <defs>
        <path id="DejaVuSans-39" d="M 703 97 
L 703 672 
Q 941 559 1184 500 
Q 1428 441 1663 441 
Q 2288 441 2617 861 
Q 2947 1281 2994 2138 
Q 2813 1869 2534 1725 
Q 2256 1581 1919 1581 
Q 1219 1581 811 2004 
Q 403 2428 403 3163 
Q 403 3881 828 4315 
Q 1253 4750 1959 4750 
Q 2769 4750 3195 4129 
Q 3622 3509 3622 2328 
Q 3622 1225 3098 567 
Q 2575 -91 1691 -91 
Q 1453 -91 1209 -44 
Q 966 3 703 97 
z
M 1959 2075 
Q 2384 2075 2632 2365 
Q 2881 2656 2881 3163 
Q 2881 3666 2632 3958 
Q 2384 4250 1959 4250 
Q 1534 4250 1286 3958 
Q 1038 3666 1038 3163 
Q 1038 2656 1286 2365 
Q 1534 2075 1959 2075 
z
" transform="scale(0.015625)"/>
       </defs>
       <use xlink:href="#DejaVuSans-30"/>
       <use xlink:href="#DejaVuSans-2e" transform="translate(63.623047 0)"/>
       <use xlink:href="#DejaVuSans-35" transform="translate(95.410156 0)"/>
       <use xlink:href="#DejaVuSans-39" transform="translate(159.033203 0)"/>
      </g>
     </g>
    </g>
    <g id="ytick_7">
     <g id="line2d_23">
      <path d="M 47.917188 90.171572 
L 605.917187 90.171572 
" clip-path="url(#p28572d79a6)" style="fill: none; stroke: #b0b0b0; stroke-opacity: 0.3; stroke-width: 0.8; stroke-linecap: square"/>
     </g>
     <g id="line2d_24">
      <g>
       <use xlink:href="#ma94a409209" x="47.917188" y="90.171572" style="stroke: #000000; stroke-width: 0.8"/>
      </g>
     </g>
     <g id="text_14">
      <!-- 0.60 -->
      <g transform="translate(20.878125 93.590869) scale(0.09 -0.09)">
       <use xlink:href="#DejaVuSans-30"/>
       <use xlink:href="#DejaVuSans-2e" transform="translate(63.623047 0)"/>
       <use xlink:href="#DejaVuSans-36" transform="translate(95.410156 0)"/>
       <use xlink:href="#DejaVuSans-30" transform="translate(159.033203 0)"/>
      </g>
     </g>
    </g>
    <g id="ytick_8">
     <g id="line2d_25">
      <path d="M 47.917188 58.602272 
L 605.917187 58.602272 
" clip-path="url(#p28572d79a6)" style="fill: none; stroke: #b0b0b0; stroke-opacity: 0.3; stroke-width: 0.8; stroke-linecap: square"/>
     </g>
     <g id="line2d_26">
      <g>
       <use xlink:href="#ma94a409209" x="47.917188" y="58.602272" style="stroke: #000000; stroke-width: 0.8"/>
      </g>
     </g>
     <g id="text_15">
      <!-- 0.61 -->
      <g transform="translate(20.878125 62.021569) scale(0.09 -0.09)">
       <use xlink:href="#DejaVuSans-30"/>
       <use xlink:href="#DejaVuSans-2e" transform="translate(63.623047 0)"/>
       <use xlink:href="#DejaVuSans-36" transform="translate(95.410156 0)"/>
       <use xlink:href="#DejaVuSans-31" transform="translate(159.033203 0)"/>
      </g>
     </g>
    </g>
    <g id="ytick_9">
     <g id="line2d_27">
      <path d="M 47.917188 27.032973 
L 605.917187 27.032973 
" clip-path="url(#p28572d79a6)" style="fill: none; stroke: #b0b0b0; stroke-opacity: 0.3; stroke-width: 0.8; stroke-linecap: square"/>
     </g>
     <g id="line2d_28">
      <g>
       <use xlink:href="#ma94a409209" x="47.917188" y="27.032973" style="stroke: #000000; stroke-width: 0.8"/>
      </g>
     </g>
     <g id="text_16">
      <!-- 0.62 -->
      <g transform="translate(20.878125 30.45227) scale(0.09 -0.09)">
       <use xlink:href="#DejaVuSans-30"/>
       <use xlink:href="#DejaVuSans-2e" transform="translate(63.623047 0)"/>
       <use xlink:href="#DejaVuSans-36" transform="translate(95.410156 0)"/>
       <use xlink:href="#DejaVuSans-32" transform="translate(159.033203 0)"/>
      </g>
     </g>
    </g>
    <g id="text_17">
     <!-- Probability -->
     <g transform="translate(14.798438 187.347031) rotate(-90) scale(0.1 -0.1)">
      <defs>
       <path id="DejaVuSans-50" d="M 1259 4147 
L 1259 2394 
L 2053 2394 
Q 2494 2394 2734 2622 
Q 2975 2850 2975 3272 
Q 2975 3691 2734 3919 
Q 2494 4147 2053 4147 
L 1259 4147 
z
M 628 4666 
L 2053 4666 
Q 2838 4666 3239 4311 
Q 3641 3956 3641 3272 
Q 3641 2581 3239 2228 
Q 2838 1875 2053 1875 
L 1259 1875 
L 1259 0 
L 628 0 
L 628 4666 
z
" transform="scale(0.015625)"/>
       <path id="DejaVuSans-72" d="M 2631 2963 
Q 2534 3019 2420 3045 
Q 2306 3072 2169 3072 
Q 1681 3072 1420 2755 
Q 1159 2438 1159 1844 
L 1159 0 
L 581 0 
L 581 3500 
L 1159 3500 
L 1159 2956 
Q 1341 3275 1631 3429 
Q 1922 3584 2338 3584 
Q 2397 3584 2469 3576 
Q 2541 3569 2628 3553 
L 2631 2963 
z
" transform="scale(0.015625)"/>
       <path id="DejaVuSans-6f" d="M 1959 3097 
Q 1497 3097 1228 2736 
Q 959 2375 959 1747 
Q 959 1119 1226 758 
Q 1494 397 1959 397 
Q 2419 397 2687 759 
Q 2956 1122 2956 1747 
Q 2956 2369 2687 2733 
Q 2419 3097 1959 3097 
z
M 1959 3584 
Q 2709 3584 3137 3096 
Q 3566 2609 3566 1747 
Q 3566 888 3137 398 
Q 2709 -91 1959 -91 
Q 1206 -91 779 398 
Q 353 888 353 1747 
Q 353 2609 779 3096 
Q 1206 3584 1959 3584 
z
" transform="scale(0.015625)"/>
       <path id="DejaVuSans-62" d="M 3116 1747 
Q 3116 2381 2855 2742 
Q 2594 3103 2138 3103 
Q 1681 3103 1420 2742 
Q 1159 2381 1159 1747 
Q 1159 1113 1420 752 
Q 1681 391 2138 391 
Q 2594 391 2855 752 
Q 3116 1113 3116 1747 
z
M 1159 2969 
Q 1341 3281 1617 3432 
Q 1894 3584 2278 3584 
Q 2916 3584 3314 3078 
Q 3713 2572 3713 1747 
Q 3713 922 3314 415 
Q 2916 -91 2278 -91 
Q 1894 -91 1617 61 
Q 1341 213 1159 525 
L 1159 0 
L 581 0 
L 581 4863 
L 1159 4863 
L 1159 2969 
z
" transform="scale(0.015625)"/>
       <path id="DejaVuSans-61" d="M 2194 1759 
Q 1497 1759 1228 1600 
Q 959 1441 959 1056 
Q 959 750 1161 570 
Q 1363 391 1709 391 
Q 2188 391 2477 730 
Q 2766 1069 2766 1631 
L 2766 1759 
L 2194 1759 
z
M 3341 1997 
L 3341 0 
L 2766 0 
L 2766 531 
Q 2569 213 2275 61 
Q 1981 -91 1556 -91 
Q 1019 -91 701 211 
Q 384 513 384 1019 
Q 384 1609 779 1909 
Q 1175 2209 1959 2209 
L 2766 2209 
L 2766 2266 
Q 2766 2663 2505 2880 
Q 2244 3097 1772 3097 
Q 1472 3097 1187 3025 
Q 903 2953 641 2809 
L 641 3341 
Q 956 3463 1253 3523 
Q 1550 3584 1831 3584 
Q 2591 3584 2966 3190 
Q 3341 2797 3341 1997 
z
" transform="scale(0.015625)"/>
       <path id="DejaVuSans-6c" d="M 603 4863 
L 1178 4863 
L 1178 0 
L 603 0 
L 603 4863 
z
" transform="scale(0.015625)"/>
       <path id="DejaVuSans-79" d="M 2059 -325 
Q 1816 -950 1584 -1140 
Q 1353 -1331 966 -1331 
L 506 -1331 
L 506 -850 
L 844 -850 
Q 1081 -850 1212 -737 
Q 1344 -625 1503 -206 
L 1606 56 
L 191 3500 
L 800 3500 
L 1894 763 
L 2988 3500 
L 3597 3500 
L 2059 -325 
z
" transform="scale(0.015625)"/>
      </defs>
      <use xlink:href="#DejaVuSans-50"/>
      <use xlink:href="#DejaVuSans-72" transform="translate(58.552734 0)"/>
      <use xlink:href="#DejaVuSans-6f" transform="translate(97.416016 0)"/>
      <use xlink:href="#DejaVuSans-62" transform="translate(158.597656 0)"/>
      <use xlink:href="#DejaVuSans-61" transform="translate(222.074219 0)"/>
      <use xlink:href="#DejaVuSans-62" transform="translate(283.353516 0)"/>
      <use xlink:href="#DejaVuSans-69" transform="translate(346.830078 0)"/>
      <use xlink:href="#DejaVuSans-6c" transform="translate(374.613281 0)"/>
      <use xlink:href="#DejaVuSans-69" transform="translate(402.396484 0)"/>
      <use xlink:href="#DejaVuSans-74" transform="translate(430.179688 0)"/>
      <use xlink:href="#DejaVuSans-79" transform="translate(469.388672 0)"/>
     </g>
    </g>
   </g>
   <g id="line2d_29">
    <path d="M 491.142171 203.069851 
L 492.966893 229.581173 
L 494.791615 162.20284 
L 496.616337 170.875112 
L 498.441059 248.453639 
L 500.265781 183.165285 
L 502.090503 215.41064 
L 503.915225 250.924469 
L 505.739947 180.062964 
L 507.56467 167.419789 
L 509.389392 216.281481 
L 511.214114 233.048915 
L 513.038836 165.544886 
L 514.863558 229.917428 
L 516.68828 197.027975 
L 518.513002 204.547344 
L 520.337724 221.57031 
L 522.162446 187.002588 
L 523.987168 185.06352 
L 525.81189 235.603291 
L 527.636612 173.930391 
L 529.461334 209.347313 
L 531.286056 216.534566 
L 533.110778 194.816252 
L 534.9355 230.344569 
L 536.760222 213.827209 
L 538.584944 185.86662 
L 540.409666 230.664078 
L 542.234388 286.918125 
L 544.05911 162.166335 
L 545.883832 197.959781 
L 547.708554 246.313232 
L 549.533276 125.584467 
L 551.357998 204.287296 
L 553.182721 262.447482 
L 555.007443 179.987133 
L 556.832165 165.95528 
L 558.656887 238.717655 
L 560.481609 179.437118 
L 564.131053 203.907009 
L 565.955775 204.62374 
L 567.780497 202.617119 
L 569.605219 237.459189 
L 571.429941 188.181083 
L 573.254663 206.466466 
L 575.079385 257.468 
L 576.904107 173.845527 
L 578.728829 155.668905 
L 580.553551 249.450551 
L 73.280824 143.394351 
L 75.105546 128.850117 
L 76.930268 155.287113 
L 78.75499 150.313653 
L 80.579712 218.937844 
L 82.404434 239.502314 
L 84.229156 218.051009 
L 86.053878 157.085055 
L 87.8786 186.761734 
L 89.703322 164.870305 
L 91.528044 164.050647 
L 93.352766 201.947054 
L 95.177488 142.27193 
L 97.00221 218.663119 
L 98.826932 254.69121 
L 100.651654 145.052108 
L 102.476377 144.852086 
L 104.301099 158.73999 
L 106.125821 170.738126 
L 107.950543 178.390718 
L 109.775265 186.556631 
L 111.599987 174.532716 
L 113.424709 198.207598 
L 115.249431 248.056041 
L 117.074153 241.368937 
L 118.898875 156.285907 
L 120.723597 147.213778 
L 122.548319 126.175314 
L 124.373041 224.734914 
L 126.197763 212.392054 
L 128.022485 195.892947 
L 129.847207 177.718583 
L 131.671929 183.794894 
L 133.496651 242.68216 
L 135.321373 221.296526 
L 137.146095 178.358165 
L 138.970817 194.060382 
L 140.795539 260.511424 
L 142.620261 192.992907 
L 144.444983 160.559383 
L 146.269705 199.933472 
L 148.094428 154.108242 
L 151.743872 192.552218 
L 153.568594 244.231532 
L 155.393316 172.482817 
L 157.218038 215.367926 
L 159.04276 239.59 
L 160.867482 162.631674 
L 162.692204 183.235095 
L 149.91915 110.666533 
L 151.743872 136.067101 
L 153.568594 145.68341 
L 155.393316 69.46703 
L 157.218038 138.618466 
L 159.04276 157.782405 
L 160.867482 82.301195 
L 162.692204 83.857153 
L 164.516926 77.679044 
L 166.341648 109.085736 
L 168.16637 92.439858 
L 169.991092 86.814209 
L 171.815814 118.786345 
L 173.640536 116.725532 
L 175.465258 106.147498 
L 177.28998 104.570276 
L 179.114702 142.443916 
L 180.939424 52.426376 
L 182.764146 126.916882 
L 184.588868 153.747337 
L 186.41359 84.866673 
L 188.238312 103.205872 
L 190.063034 128.338113 
L 191.887756 148.538667 
L 193.712479 99.753183 
L 195.537201 77.580444 
L 197.361923 124.22044 
L 199.186645 96.357697 
L 201.011367 166.791121 
L 202.836089 139.288155 
L 204.660811 49.801625 
L 206.485533 127.55797 
L 208.310255 137.966277 
L 210.134977 99.983312 
L 211.959699 142.995247 
L 213.784421 79.510292 
L 215.609143 58.187882 
L 217.433865 99.707835 
L 219.258587 74.155227 
L 221.083309 109.519651 
L 222.908031 106.162551 
L 224.732753 120.59219 
L 226.557475 131.041706 
L 228.382197 147.175392 
L 230.206919 124.353286 
L 232.031641 34.918125 
L 233.856363 162.754171 
L 235.681085 144.921331 
L 237.505808 117.305465 
L 239.33053 165.403949 
L 239.33053 165.403949 
" clip-path="url(#p28572d79a6)" style="fill: none; stroke: #1f77b4; stroke-opacity: 0.6; stroke-width: 1.5; stroke-linecap: square"/>
   </g>
   <g id="line2d_30">
    <path d="M 491.142171 203.069851 
L 492.966893 216.325512 
L 494.791615 198.284621 
L 496.616337 191.432244 
L 498.441059 202.836523 
L 500.265781 199.557983 
L 502.090503 201.822649 
L 503.915225 207.960376 
L 505.739947 204.860664 
L 507.56467 201.116576 
L 509.389392 202.495204 
L 511.214114 205.041346 
L 513.038836 202.003157 
L 514.863558 203.997034 
L 516.68828 203.53243 
L 518.513002 203.595862 
L 520.337724 204.653182 
L 523.987168 202.693169 
L 525.81189 204.338675 
L 527.636612 202.881702 
L 529.461334 201.870009 
L 531.286056 204.586595 
L 533.110778 205.783652 
L 534.9355 204.878199 
L 536.760222 206.411295 
L 538.584944 204.934094 
L 540.409666 203.921074 
L 542.234388 209.263832 
L 544.05911 209.00116 
L 545.883832 208.085075 
L 547.708554 208.748291 
L 549.533276 206.75027 
L 551.357998 205.468763 
L 553.182721 208.739738 
L 555.007443 207.511728 
L 556.832165 204.730976 
L 558.656887 207.31673 
L 560.481609 207.03541 
L 562.306331 204.855101 
L 564.131053 206.353932 
L 565.955775 206.117753 
L 567.780497 205.421881 
L 569.605219 207.554028 
L 571.429941 205.445854 
L 573.254663 205.077816 
L 575.079385 208.657886 
L 576.904107 205.816958 
L 578.728829 199.254497 
L 580.553551 203.618708 
L 73.280824 200.890436 
L 75.105546 195.017281 
L 76.930268 196.502413 
L 78.75499 193.803731 
L 80.579712 191.628249 
L 82.404434 194.604008 
L 84.229156 197.208794 
L 86.053878 193.127164 
L 87.8786 193.493395 
L 89.703322 192.137054 
L 91.528044 190.144236 
L 93.352766 190.010402 
L 95.177488 186.993142 
L 97.00221 186.053339 
L 98.826932 189.378845 
L 100.651654 186.308127 
L 102.476377 180.677332 
L 104.301099 179.922055 
L 106.125821 180.675516 
L 107.950543 177.122524 
L 113.424709 183.710792 
L 115.249431 188.597912 
L 117.074153 189.719466 
L 118.898875 185.558646 
L 120.723597 182.016784 
L 122.548319 180.471297 
L 124.373041 182.369956 
L 126.197763 184.746044 
L 128.022485 186.338159 
L 129.847207 185.126735 
L 131.671929 187.202883 
L 133.496651 188.403836 
L 135.321373 186.734101 
L 137.146095 188.399404 
L 138.970817 190.859819 
L 140.795539 195.948391 
L 142.620261 197.06113 
L 144.444983 196.169563 
L 146.269705 196.838405 
L 148.094428 195.817181 
L 149.91915 194.552149 
L 151.743872 191.776958 
L 153.568594 191.920087 
L 155.393316 192.729933 
L 157.218038 196.13764 
L 159.04276 201.808375 
L 160.867482 198.703213 
L 162.692204 197.245365 
L 149.91915 192.984044 
L 151.743872 190.90147 
L 153.568594 188.995896 
L 155.393316 180.335139 
L 157.218038 176.201236 
L 159.04276 175.172448 
L 160.867482 169.584489 
L 162.692204 160.751775 
L 164.516926 154.986082 
L 166.341648 152.4124 
L 168.16637 147.037719 
L 169.991092 143.673017 
L 171.815814 140.966987 
L 173.640536 137.175653 
L 175.465258 130.271451 
L 177.28998 126.875824 
L 179.114702 123.229624 
L 180.939424 113.871443 
L 182.764146 112.085703 
L 184.588868 110.611315 
L 186.41359 109.321322 
L 188.238312 107.678261 
L 190.063034 106.810996 
L 191.887756 110.764578 
L 193.712479 108.821313 
L 195.537201 104.811215 
L 197.361923 106.907178 
L 199.186645 107.532205 
L 201.011367 111.987809 
L 202.836089 113.49793 
L 204.660811 111.366018 
L 206.485533 113.403206 
L 208.310255 114.362203 
L 210.134977 113.525092 
L 211.959699 115.367479 
L 213.784421 114.11448 
L 215.609143 109.901678 
L 217.433865 112.265751 
L 219.258587 109.627668 
L 221.083309 107.416284 
L 222.908031 108.481078 
L 224.732753 109.350394 
L 226.557475 109.485574 
L 228.382197 109.41741 
L 230.206919 110.647415 
L 232.031641 108.514299 
L 233.856363 110.440986 
L 235.681085 112.869167 
L 237.505808 110.394885 
L 239.33053 111.700674 
L 239.33053 111.700674 
" clip-path="url(#p28572d79a6)" style="fill: none; stroke: #ff7f0e; stroke-width: 1.5; stroke-linecap: square"/>
   </g>
   <g id="patch_3">
    <path d="M 47.917188 299.518125 
L 47.917188 22.318125 
" style="fill: none; stroke: #000000; stroke-width: 0.8; stroke-linejoin: miter; stroke-linecap: square"/>
   </g>
   <g id="patch_4">
    <path d="M 605.917187 299.518125 
L 605.917187 22.318125 
" style="fill: none; stroke: #000000; stroke-width: 0.8; stroke-linejoin: miter; stroke-linecap: square"/>
   </g>
   <g id="patch_5">
    <path d="M 47.917187 299.518125 
L 605.917187 299.518125 
" style="fill: none; stroke: #000000; stroke-width: 0.8; stroke-linejoin: miter; stroke-linecap: square"/>
   </g>
   <g id="patch_6">
    <path d="M 47.917187 22.318125 
L 605.917187 22.318125 
" style="fill: none; stroke: #000000; stroke-width: 0.8; stroke-linejoin: miter; stroke-linecap: square"/>
   </g>
   <g id="text_18">
    <!-- rl_up P(Direction) Over Time -->
    <g transform="translate(241.936563 16.318125) scale(0.12 -0.12)">
     <defs>
      <path id="DejaVuSans-75" d="M 544 1381 
L 544 3500 
L 1119 3500 
L 1119 1403 
Q 1119 906 1312 657 
Q 1506 409 1894 409 
Q 2359 409 2629 706 
Q 2900 1003 2900 1516 
L 2900 3500 
L 3475 3500 
L 3475 0 
L 2900 0 
L 2900 538 
Q 2691 219 2414 64 
Q 2138 -91 1772 -91 
Q 1169 -91 856 284 
Q 544 659 544 1381 
z
M 1991 3584 
L 1991 3584 
z
" transform="scale(0.015625)"/>
      <path id="DejaVuSans-70" d="M 1159 525 
L 1159 -1331 
L 581 -1331 
L 581 3500 
L 1159 3500 
L 1159 2969 
Q 1341 3281 1617 3432 
Q 1894 3584 2278 3584 
Q 2916 3584 3314 3078 
Q 3713 2572 3713 1747 
Q 3713 922 3314 415 
Q 2916 -91 2278 -91 
Q 1894 -91 1617 61 
Q 1341 213 1159 525 
z
M 3116 1747 
Q 3116 2381 2855 2742 
Q 2594 3103 2138 3103 
Q 1681 3103 1420 2742 
Q 1159 2381 1159 1747 
Q 1159 1113 1420 752 
Q 1681 391 2138 391 
Q 2594 391 2855 752 
Q 3116 1113 3116 1747 
z
" transform="scale(0.015625)"/>
      <path id="DejaVuSans-20" transform="scale(0.015625)"/>
      <path id="DejaVuSans-28" d="M 1984 4856 
Q 1566 4138 1362 3434 
Q 1159 2731 1159 2009 
Q 1159 1288 1364 580 
Q 1569 -128 1984 -844 
L 1484 -844 
Q 1016 -109 783 600 
Q 550 1309 550 2009 
Q 550 2706 781 3412 
Q 1013 4119 1484 4856 
L 1984 4856 
z
" transform="scale(0.015625)"/>
      <path id="DejaVuSans-44" d="M 1259 4147 
L 1259 519 
L 2022 519 
Q 2988 519 3436 956 
Q 3884 1394 3884 2338 
Q 3884 3275 3436 3711 
Q 2988 4147 2022 4147 
L 1259 4147 
z
M 628 4666 
L 1925 4666 
Q 3281 4666 3915 4102 
Q 4550 3538 4550 2338 
Q 4550 1131 3912 565 
Q 3275 0 1925 0 
L 628 0 
L 628 4666 
z
" transform="scale(0.015625)"/>
      <path id="DejaVuSans-63" d="M 3122 3366 
L 3122 2828 
Q 2878 2963 2633 3030 
Q 2388 3097 2138 3097 
Q 1578 3097 1268 2742 
Q 959 2388 959 1747 
Q 959 1106 1268 751 
Q 1578 397 2138 397 
Q 2388 397 2633 464 
Q 2878 531 3122 666 
L 3122 134 
Q 2881 22 2623 -34 
Q 2366 -91 2075 -91 
Q 1284 -91 818 406 
Q 353 903 353 1747 
Q 353 2603 823 3093 
Q 1294 3584 2113 3584 
Q 2378 3584 2631 3529 
Q 2884 3475 3122 3366 
z
" transform="scale(0.015625)"/>
      <path id="DejaVuSans-6e" d="M 3513 2113 
L 3513 0 
L 2938 0 
L 2938 2094 
Q 2938 2591 2744 2837 
Q 2550 3084 2163 3084 
Q 1697 3084 1428 2787 
Q 1159 2491 1159 1978 
L 1159 0 
L 581 0 
L 581 3500 
L 1159 3500 
L 1159 2956 
Q 1366 3272 1645 3428 
Q 1925 3584 2291 3584 
Q 2894 3584 3203 3211 
Q 3513 2838 3513 2113 
z
" transform="scale(0.015625)"/>
      <path id="DejaVuSans-29" d="M 513 4856 
L 1013 4856 
Q 1481 4119 1714 3412 
Q 1947 2706 1947 2009 
Q 1947 1309 1714 600 
Q 1481 -109 1013 -844 
L 513 -844 
Q 928 -128 1133 580 
Q 1338 1288 1338 2009 
Q 1338 2731 1133 3434 
Q 928 4138 513 4856 
z
" transform="scale(0.015625)"/>
      <path id="DejaVuSans-4f" d="M 2522 4238 
Q 1834 4238 1429 3725 
Q 1025 3213 1025 2328 
Q 1025 1447 1429 934 
Q 1834 422 2522 422 
Q 3209 422 3611 934 
Q 4013 1447 4013 2328 
Q 4013 3213 3611 3725 
Q 3209 4238 2522 4238 
z
M 2522 4750 
Q 3503 4750 4090 4092 
Q 4678 3434 4678 2328 
Q 4678 1225 4090 567 
Q 3503 -91 2522 -91 
Q 1538 -91 948 565 
Q 359 1222 359 2328 
Q 359 3434 948 4092 
Q 1538 4750 2522 4750 
z
" transform="scale(0.015625)"/>
      <path id="DejaVuSans-76" d="M 191 3500 
L 800 3500 
L 1894 563 
L 2988 3500 
L 3597 3500 
L 2284 0 
L 1503 0 
L 191 3500 
z
" transform="scale(0.015625)"/>
      <path id="DejaVuSans-54" d="M -19 4666 
L 3928 4666 
L 3928 4134 
L 2272 4134 
L 2272 0 
L 1638 0 
L 1638 4134 
L -19 4134 
L -19 4666 
z
" transform="scale(0.015625)"/>
     </defs>
     <use xlink:href="#DejaVuSans-72"/>
     <use xlink:href="#DejaVuSans-6c" transform="translate(41.113281 0)"/>
     <use xlink:href="#DejaVuSans-5f" transform="translate(68.896484 0)"/>
     <use xlink:href="#DejaVuSans-75" transform="translate(118.896484 0)"/>
     <use xlink:href="#DejaVuSans-70" transform="translate(182.275391 0)"/>
     <use xlink:href="#DejaVuSans-20" transform="translate(245.751953 0)"/>
     <use xlink:href="#DejaVuSans-50" transform="translate(277.539062 0)"/>
     <use xlink:href="#DejaVuSans-28" transform="translate(337.841797 0)"/>
     <use xlink:href="#DejaVuSans-44" transform="translate(376.855469 0)"/>
     <use xlink:href="#DejaVuSans-69" transform="translate(453.857422 0)"/>
     <use xlink:href="#DejaVuSans-72" transform="translate(481.640625 0)"/>
     <use xlink:href="#DejaVuSans-65" transform="translate(520.503906 0)"/>
     <use xlink:href="#DejaVuSans-63" transform="translate(582.027344 0)"/>
     <use xlink:href="#DejaVuSans-74" transform="translate(637.007812 0)"/>
     <use xlink:href="#DejaVuSans-69" transform="translate(676.216797 0)"/>
     <use xlink:href="#DejaVuSans-6f" transform="translate(704 0)"/>
     <use xlink:href="#DejaVuSans-6e" transform="translate(765.181641 0)"/>
     <use xlink:href="#DejaVuSans-29" transform="translate(828.560547 0)"/>
     <use xlink:href="#DejaVuSans-20" transform="translate(867.574219 0)"/>
     <use xlink:href="#DejaVuSans-4f" transform="translate(899.361328 0)"/>
     <use xlink:href="#DejaVuSans-76" transform="translate(978.072266 0)"/>
     <use xlink:href="#DejaVuSans-65" transform="translate(1037.251953 0)"/>
     <use xlink:href="#DejaVuSans-72" transform="translate(1098.775391 0)"/>
     <use xlink:href="#DejaVuSans-20" transform="translate(1139.888672 0)"/>
     <use xlink:href="#DejaVuSans-54" transform="translate(1171.675781 0)"/>
     <use xlink:href="#DejaVuSans-69" transform="translate(1229.634766 0)"/>
     <use xlink:href="#DejaVuSans-6d" transform="translate(1257.417969 0)"/>
     <use xlink:href="#DejaVuSans-65" transform="translate(1354.830078 0)"/>
    </g>
   </g>
   <g id="legend_1">
    <g id="patch_7">
     <path d="M 492.782969 69.649688 
L 599.617188 69.649688 
Q 601.417187 69.649688 601.417187 67.849688 
L 601.417187 28.618125 
Q 601.417187 26.818125 599.617188 26.818125 
L 492.782969 26.818125 
Q 490.982969 26.818125 490.982969 28.618125 
L 490.982969 67.849688 
Q 490.982969 69.649688 492.782969 69.649688 
z
" style="fill: #ffffff; opacity: 0.8; stroke: #cccccc; stroke-linejoin: miter"/>
    </g>
    <g id="line2d_31">
     <path d="M 494.582969 34.106719 
L 503.582969 34.106719 
L 512.582969 34.106719 
" style="fill: none; stroke: #1f77b4; stroke-opacity: 0.6; stroke-width: 1.5; stroke-linecap: square"/>
    </g>
    <g id="text_19">
     <!-- p_direction -->
     <g transform="translate(519.782969 37.256719) scale(0.09 -0.09)">
      <defs>
       <path id="DejaVuSans-64" d="M 2906 2969 
L 2906 4863 
L 3481 4863 
L 3481 0 
L 2906 0 
L 2906 525 
Q 2725 213 2448 61 
Q 2172 -91 1784 -91 
Q 1150 -91 751 415 
Q 353 922 353 1747 
Q 353 2572 751 3078 
Q 1150 3584 1784 3584 
Q 2172 3584 2448 3432 
Q 2725 3281 2906 2969 
z
M 947 1747 
Q 947 1113 1208 752 
Q 1469 391 1925 391 
Q 2381 391 2643 752 
Q 2906 1113 2906 1747 
Q 2906 2381 2643 2742 
Q 2381 3103 1925 3103 
Q 1469 3103 1208 2742 
Q 947 2381 947 1747 
z
" transform="scale(0.015625)"/>
      </defs>
      <use xlink:href="#DejaVuSans-70"/>
      <use xlink:href="#DejaVuSans-5f" transform="translate(63.476562 0)"/>
      <use xlink:href="#DejaVuSans-64" transform="translate(113.476562 0)"/>
      <use xlink:href="#DejaVuSans-69" transform="translate(176.953125 0)"/>
      <use xlink:href="#DejaVuSans-72" transform="translate(204.736328 0)"/>
      <use xlink:href="#DejaVuSans-65" transform="translate(243.599609 0)"/>
      <use xlink:href="#DejaVuSans-63" transform="translate(305.123047 0)"/>
      <use xlink:href="#DejaVuSans-74" transform="translate(360.103516 0)"/>
      <use xlink:href="#DejaVuSans-69" transform="translate(399.3125 0)"/>
      <use xlink:href="#DejaVuSans-6f" transform="translate(427.095703 0)"/>
      <use xlink:href="#DejaVuSans-6e" transform="translate(488.277344 0)"/>
     </g>
    </g>
    <g id="line2d_32">
     <path d="M 494.582969 47.567344 
L 503.582969 47.567344 
L 512.582969 47.567344 
" style="fill: none; stroke: #ff7f0e; stroke-width: 1.5; stroke-linecap: square"/>
    </g>
    <g id="text_20">
     <!-- p_direction mean -->
     <g transform="translate(519.782969 50.717344) scale(0.09 -0.09)">
      <use xlink:href="#DejaVuSans-70"/>
      <use xlink:href="#DejaVuSans-5f" transform="translate(63.476562 0)"/>
      <use xlink:href="#DejaVuSans-64" transform="translate(113.476562 0)"/>
      <use xlink:href="#DejaVuSans-69" transform="translate(176.953125 0)"/>
      <use xlink:href="#DejaVuSans-72" transform="translate(204.736328 0)"/>
      <use xlink:href="#DejaVuSans-65" transform="translate(243.599609 0)"/>
      <use xlink:href="#DejaVuSans-63" transform="translate(305.123047 0)"/>
      <use xlink:href="#DejaVuSans-74" transform="translate(360.103516 0)"/>
      <use xlink:href="#DejaVuSans-69" transform="translate(399.3125 0)"/>
      <use xlink:href="#DejaVuSans-6f" transform="translate(427.095703 0)"/>
      <use xlink:href="#DejaVuSans-6e" transform="translate(488.277344 0)"/>
      <use xlink:href="#DejaVuSans-20" transform="translate(551.65625 0)"/>
      <use xlink:href="#DejaVuSans-6d" transform="translate(583.443359 0)"/>
      <use xlink:href="#DejaVuSans-65" transform="translate(680.855469 0)"/>
      <use xlink:href="#DejaVuSans-61" transform="translate(742.378906 0)"/>
      <use xlink:href="#DejaVuSans-6e" transform="translate(803.658203 0)"/>
     </g>
    </g>
    <g id="patch_8">
     <path d="M 494.582969 64.177969 
L 512.582969 64.177969 
L 512.582969 57.877969 
L 494.582969 57.877969 
z
" style="fill: #1f77b4; fill-opacity: 0.2"/>
    </g>
    <g id="text_21">
     <!-- mean +/- std -->
     <g transform="translate(519.782969 64.177969) scale(0.09 -0.09)">
      <defs>
       <path id="DejaVuSans-2b" d="M 2944 4013 
L 2944 2272 
L 4684 2272 
L 4684 1741 
L 2944 1741 
L 2944 0 
L 2419 0 
L 2419 1741 
L 678 1741 
L 678 2272 
L 2419 2272 
L 2419 4013 
L 2944 4013 
z
" transform="scale(0.015625)"/>
       <path id="DejaVuSans-2f" d="M 1625 4666 
L 2156 4666 
L 531 -594 
L 0 -594 
L 1625 4666 
z
" transform="scale(0.015625)"/>
       <path id="DejaVuSans-2d" d="M 313 2009 
L 1997 2009 
L 1997 1497 
L 313 1497 
L 313 2009 
z
" transform="scale(0.015625)"/>
      </defs>
      <use xlink:href="#DejaVuSans-6d"/>
      <use xlink:href="#DejaVuSans-65" transform="translate(97.412109 0)"/>
      <use xlink:href="#DejaVuSans-61" transform="translate(158.935547 0)"/>
      <use xlink:href="#DejaVuSans-6e" transform="translate(220.214844 0)"/>
      <use xlink:href="#DejaVuSans-20" transform="translate(283.59375 0)"/>
      <use xlink:href="#DejaVuSans-2b" transform="translate(315.380859 0)"/>
      <use xlink:href="#DejaVuSans-2f" transform="translate(399.169922 0)"/>
      <use xlink:href="#DejaVuSans-2d" transform="translate(432.861328 0)"/>
      <use xlink:href="#DejaVuSans-20" transform="translate(468.945312 0)"/>
      <use xlink:href="#DejaVuSans-73" transform="translate(500.732422 0)"/>
      <use xlink:href="#DejaVuSans-74" transform="translate(552.832031 0)"/>
      <use xlink:href="#DejaVuSans-64" transform="translate(592.041016 0)"/>
     </g>
    </g>
   </g>
  </g>
 </g>
 <defs>
  <clipPath id="p28572d79a6">
   <rect x="47.917188" y="22.318125" width="558" height="277.2"/>
  </clipPath>
 </defs>
</svg>
