<?xml version="1.0" encoding="utf-8" standalone="no"?>
<!DOCTYPE svg PUBLIC "-//W3C//DTD SVG 1.1//EN"
  "http://www.w3.org/Graphics/SVG/1.1/DTD/svg11.dtd">
<svg xmlns:xlink="http://www.w3.org/1999/xlink" width="614.932656pt" height="336.384688pt" viewBox="0 0 614.932656 336.384688" xmlns="http://www.w3.org/2000/svg" version="1.1">
 <metadata>
  <rdf:RDF xmlns:dc="http://purl.org/dc/elements/1.1/" xmlns:cc="http://creativecommons.org/ns#" xmlns:rdf="http://www.w3.org/1999/02/22-rdf-syntax-ns#">
   <cc:Work>
    <dc:type rdf:resource="http://purl.org/dc/dcmitype/StillImage"/>
    <dc:date>2026-01-08T16:37:37.747790</dc:date>
    <dc:format>image/svg+xml</dc:format>
    <dc:creator>
     <cc:Agent>
      <dc:title>Matplotlib v3.10.8, https://matplotlib.org/</dc:title>
     </cc:Agent>
    </dc:creator>
   </cc:Work>
  </rdf:RDF>
 </metadata>
 <defs>
  <style type="text/css">*{stroke-linejoin: round; stroke-linecap: butt}</style>
 </defs>
 <g id="figure_1">
  <g id="patch_1">
   <path d="M 0 336.384688 
L 614.932656 336.384688 
L 614.932656 0 
L 0 0 
z
" style="fill: #ffffff"/>
  </g>
  <g id="axes_1">
   <g id="patch_2">
    <path d="M 49.732656 299.518125 
L 607.732656 299.518125 
L 607.732656 22.318125 
L 49.732656 22.318125 
z
" style="fill: #ffffff"/>
   </g>
   <g id="FillBetweenPolyCollection_1">
    <path d="M 75.096293 78.53903 
L 75.096293 78.53903 
L 79.546053 78.53903 
L 83.995814 78.53903 
L 88.445575 209.401743 
L 92.895336 243.901091 
L 97.345096 226.803189 
L 101.794857 213.53078 
L 106.244618 234.274238 
L 110.694379 248.048246 
L 115.14414 257.74178 
L 119.5939 248.970863 
L 124.043661 256.901937 
L 128.493422 249.605034 
L 132.943183 242.924237 
L 137.392943 236.81182 
L 141.842704 231.212196 
L 146.292465 226.07075 
L 150.742226 233.920219 
L 155.191986 229.295612 
L 159.641747 224.993684 
L 164.091508 236.032252 
L 168.541269 236.032252 
L 172.991029 246.1162 
L 177.44079 236.032252 
L 181.890551 224.993684 
L 186.340312 224.993684 
L 190.790073 224.993684 
L 195.239833 212.919742 
L 199.689594 212.919742 
L 204.139355 212.919742 
L 208.589116 212.919742 
L 213.038876 199.676316 
L 217.488637 212.919742 
L 221.938398 224.993684 
L 226.388159 236.032252 
L 230.837919 236.032252 
L 235.28768 246.1162 
L 239.737441 236.032252 
L 244.187202 246.1162 
L 248.636962 246.1162 
L 253.086723 236.032252 
L 257.536484 236.032252 
L 261.986245 236.032252 
L 266.436006 246.1162 
L 270.885766 255.289046 
L 275.335527 255.289046 
L 279.785288 263.564562 
L 284.235049 270.928975 
L 288.684809 263.564562 
L 293.13457 263.564562 
L 297.584331 270.928975 
L 302.034092 277.33877 
L 306.483852 277.33877 
L 310.933613 277.33877 
L 315.383374 270.928975 
L 319.833135 270.928975 
L 324.282895 263.564562 
L 328.732656 270.928975 
L 333.182417 263.564562 
L 337.632178 270.928975 
L 342.081939 270.928975 
L 346.531699 270.928975 
L 350.98146 263.564562 
L 355.431221 263.564562 
L 359.880982 255.289046 
L 364.330742 255.289046 
L 368.780503 255.289046 
L 373.230264 255.289046 
L 377.680025 263.564562 
L 382.129785 255.289046 
L 386.579546 255.289046 
L 391.029307 246.1162 
L 395.479068 246.1162 
L 399.928828 246.1162 
L 404.378589 255.289046 
L 408.82835 255.289046 
L 413.278111 255.289046 
L 417.727872 255.289046 
L 422.177632 263.564562 
L 426.627393 263.564562 
L 431.077154 270.928975 
L 435.526915 277.33877 
L 439.976675 282.71319 
L 444.426436 277.33877 
L 448.876197 282.71319 
L 453.325958 286.918125 
L 457.775718 282.71319 
L 462.225479 277.33877 
L 466.67524 270.928975 
L 471.125001 270.928975 
L 475.574762 270.928975 
L 480.024522 277.33877 
L 484.474283 277.33877 
L 488.924044 277.33877 
L 493.373805 270.928975 
L 497.823565 270.928975 
L 502.273326 270.928975 
L 506.723087 263.564562 
L 511.172848 263.564562 
L 515.622608 255.289046 
L 520.072369 255.289046 
L 524.52213 255.289046 
L 528.971891 255.289046 
L 533.421651 263.564562 
L 537.871412 263.564562 
L 542.321173 255.289046 
L 546.770934 255.289046 
L 551.220695 255.289046 
L 555.670455 263.564562 
L 560.120216 263.564562 
L 564.569977 263.564562 
L 569.019738 255.289046 
L 573.469498 246.1162 
L 577.919259 236.032252 
L 582.36902 246.1162 
L 582.36902 67.997116 
L 582.36902 67.997116 
L 577.919259 60.632702 
L 573.469498 67.997116 
L 569.019738 76.272631 
L 564.569977 85.445478 
L 560.120216 85.445478 
L 555.670455 85.445478 
L 551.220695 76.272631 
L 546.770934 76.272631 
L 542.321173 76.272631 
L 537.871412 85.445478 
L 533.421651 85.445478 
L 528.971891 76.272631 
L 524.52213 76.272631 
L 520.072369 76.272631 
L 515.622608 76.272631 
L 511.172848 85.445478 
L 506.723087 85.445478 
L 502.273326 95.529426 
L 497.823565 95.529426 
L 493.373805 95.529426 
L 488.924044 106.567993 
L 484.474283 106.567993 
L 480.024522 106.567993 
L 475.574762 95.529426 
L 471.125001 95.529426 
L 466.67524 95.529426 
L 462.225479 106.567993 
L 457.775718 118.641935 
L 453.325958 131.885362 
L 448.876197 118.641935 
L 444.426436 106.567993 
L 439.976675 118.641935 
L 435.526915 106.567993 
L 431.077154 95.529426 
L 426.627393 85.445478 
L 422.177632 85.445478 
L 417.727872 76.272631 
L 413.278111 76.272631 
L 408.82835 76.272631 
L 404.378589 76.272631 
L 399.928828 67.997116 
L 395.479068 67.997116 
L 391.029307 67.997116 
L 386.579546 76.272631 
L 382.129785 76.272631 
L 377.680025 85.445478 
L 373.230264 76.272631 
L 368.780503 76.272631 
L 364.330742 76.272631 
L 359.880982 76.272631 
L 355.431221 85.445478 
L 350.98146 85.445478 
L 346.531699 95.529426 
L 342.081939 95.529426 
L 337.632178 95.529426 
L 333.182417 85.445478 
L 328.732656 95.529426 
L 324.282895 85.445478 
L 319.833135 95.529426 
L 315.383374 95.529426 
L 310.933613 106.567993 
L 306.483852 106.567993 
L 302.034092 106.567993 
L 297.584331 95.529426 
L 293.13457 85.445478 
L 288.684809 85.445478 
L 284.235049 95.529426 
L 279.785288 85.445478 
L 275.335527 76.272631 
L 270.885766 76.272631 
L 266.436006 67.997116 
L 261.986245 60.632702 
L 257.536484 60.632702 
L 253.086723 60.632702 
L 248.636962 67.997116 
L 244.187202 67.997116 
L 239.737441 60.632702 
L 235.28768 67.997116 
L 230.837919 60.632702 
L 226.388159 60.632702 
L 221.938398 54.222908 
L 217.488637 48.848488 
L 213.038876 44.643553 
L 208.589116 48.848488 
L 204.139355 48.848488 
L 199.689594 48.848488 
L 195.239833 48.848488 
L 190.790073 54.222908 
L 186.340312 54.222908 
L 181.890551 54.222908 
L 177.44079 60.632702 
L 172.991029 67.997116 
L 168.541269 60.632702 
L 164.091508 60.632702 
L 159.641747 54.222908 
L 155.191986 56.349324 
L 150.742226 58.867321 
L 146.292465 54.172217 
L 141.842704 56.728577 
L 137.392943 59.853133 
L 132.943183 63.711209 
L 128.493422 68.534826 
L 124.043661 74.659741 
L 119.5939 66.728667 
L 115.14414 73.819897 
L 110.694379 64.126363 
L 106.244618 53.666535 
L 101.794857 43.252204 
L 97.345096 46.597283 
L 92.895336 52.763863 
L 88.445575 34.918125 
L 83.995814 78.53903 
L 79.546053 78.53903 
L 75.096293 78.53903 
z
" clip-path="url(#p4cc4df8633)" style="fill: #1f77b4; fill-opacity: 0.2"/>
   </g>
   <g id="matplotlib.axis_1">
    <g id="xtick_1">
     <g id="line2d_1">
      <path d="M 72.129785 299.518125 
L 72.129785 22.318125 
" clip-path="url(#p4cc4df8633)" style="fill: none; stroke: #b0b0b0; stroke-opacity: 0.3; stroke-width: 0.8; stroke-linecap: square"/>
     </g>
     <g id="line2d_2">
      <defs>
       <path id="mdd691446ea" d="M 0 0 
L 0 3.5 
" style="stroke: #000000; stroke-width: 0.8"/>
      </defs>
      <g>
       <use xlink:href="#mdd691446ea" x="72.129785" y="299.518125" style="stroke: #000000; stroke-width: 0.8"/>
      </g>
     </g>
     <g id="text_1">
      <!-- 2.05 -->
      <g transform="translate(62.110254 313.356719) scale(0.09 -0.09)">
       <defs>
        <path id="DejaVuSans-32" d="M 1228 531 
L 3431 531 
L 3431 0 
L 469 0 
L 469 531 
Q 828 903 1448 1529 
Q 2069 2156 2228 2338 
Q 2531 2678 2651 2914 
Q 2772 3150 2772 3378 
Q 2772 3750 2511 3984 
Q 2250 4219 1831 4219 
Q 1534 4219 1204 4116 
Q 875 4013 500 3803 
L 500 4441 
Q 881 4594 1212 4672 
Q 1544 4750 1819 4750 
Q 2544 4750 2975 4387 
Q 3406 4025 3406 3419 
Q 3406 3131 3298 2873 
Q 3191 2616 2906 2266 
Q 2828 2175 2409 1742 
Q 1991 1309 1228 531 
z
" transform="scale(0.015625)"/>
        <path id="DejaVuSans-2e" d="M 684 794 
L 1344 794 
L 1344 0 
L 684 0 
L 684 794 
z
" transform="scale(0.015625)"/>
        <path id="DejaVuSans-30" d="M 2034 4250 
Q 1547 4250 1301 3770 
Q 1056 3291 1056 2328 
Q 1056 1369 1301 889 
Q 1547 409 2034 409 
Q 2525 409 2770 889 
Q 3016 1369 3016 2328 
Q 3016 3291 2770 3770 
Q 2525 4250 2034 4250 
z
M 2034 4750 
Q 2819 4750 3233 4129 
Q 3647 3509 3647 2328 
Q 3647 1150 3233 529 
Q 2819 -91 2034 -91 
Q 1250 -91 836 529 
Q 422 1150 422 2328 
Q 422 3509 836 4129 
Q 1250 4750 2034 4750 
z
" transform="scale(0.015625)"/>
        <path id="DejaVuSans-35" d="M 691 4666 
L 3169 4666 
L 3169 4134 
L 1269 4134 
L 1269 2991 
Q 1406 3038 1543 3061 
Q 1681 3084 1819 3084 
Q 2600 3084 3056 2656 
Q 3513 2228 3513 1497 
Q 3513 744 3044 326 
Q 2575 -91 1722 -91 
Q 1428 -91 1123 -41 
Q 819 9 494 109 
L 494 744 
Q 775 591 1075 516 
Q 1375 441 1709 441 
Q 2250 441 2565 725 
Q 2881 1009 2881 1497 
Q 2881 1984 2565 2268 
Q 2250 2553 1709 2553 
Q 1456 2553 1204 2497 
Q 953 2441 691 2322 
L 691 4666 
z
" transform="scale(0.015625)"/>
       </defs>
       <use xlink:href="#DejaVuSans-32"/>
       <use xlink:href="#DejaVuSans-2e" transform="translate(63.623047 0)"/>
       <use xlink:href="#DejaVuSans-30" transform="translate(95.410156 0)"/>
       <use xlink:href="#DejaVuSans-35" transform="translate(159.033203 0)"/>
      </g>
     </g>
    </g>
    <g id="xtick_2">
     <g id="line2d_3">
      <path d="M 146.292465 299.518125 
L 146.292465 22.318125 
" clip-path="url(#p4cc4df8633)" style="fill: none; stroke: #b0b0b0; stroke-opacity: 0.3; stroke-width: 0.8; stroke-linecap: square"/>
     </g>
     <g id="line2d_4">
      <g>
       <use xlink:href="#mdd691446ea" x="146.292465" y="299.518125" style="stroke: #000000; stroke-width: 0.8"/>
      </g>
     </g>
     <g id="text_2">
      <!-- 2.10 -->
      <g transform="translate(136.272934 313.356719) scale(0.09 -0.09)">
       <defs>
        <path id="DejaVuSans-31" d="M 794 531 
L 1825 531 
L 1825 4091 
L 703 3866 
L 703 4441 
L 1819 4666 
L 2450 4666 
L 2450 531 
L 3481 531 
L 3481 0 
L 794 0 
L 794 531 
z
" transform="scale(0.015625)"/>
       </defs>
       <use xlink:href="#DejaVuSans-32"/>
       <use xlink:href="#DejaVuSans-2e" transform="translate(63.623047 0)"/>
       <use xlink:href="#DejaVuSans-31" transform="translate(95.410156 0)"/>
       <use xlink:href="#DejaVuSans-30" transform="translate(159.033203 0)"/>
      </g>
     </g>
    </g>
    <g id="xtick_3">
     <g id="line2d_5">
      <path d="M 220.455144 299.518125 
L 220.455144 22.318125 
" clip-path="url(#p4cc4df8633)" style="fill: none; stroke: #b0b0b0; stroke-opacity: 0.3; stroke-width: 0.8; stroke-linecap: square"/>
     </g>
     <g id="line2d_6">
      <g>
       <use xlink:href="#mdd691446ea" x="220.455144" y="299.518125" style="stroke: #000000; stroke-width: 0.8"/>
      </g>
     </g>
     <g id="text_3">
      <!-- 2.15 -->
      <g transform="translate(210.435613 313.356719) scale(0.09 -0.09)">
       <use xlink:href="#DejaVuSans-32"/>
       <use xlink:href="#DejaVuSans-2e" transform="translate(63.623047 0)"/>
       <use xlink:href="#DejaVuSans-31" transform="translate(95.410156 0)"/>
       <use xlink:href="#DejaVuSans-35" transform="translate(159.033203 0)"/>
      </g>
     </g>
    </g>
    <g id="xtick_4">
     <g id="line2d_7">
      <path d="M 294.617824 299.518125 
L 294.617824 22.318125 
" clip-path="url(#p4cc4df8633)" style="fill: none; stroke: #b0b0b0; stroke-opacity: 0.3; stroke-width: 0.8; stroke-linecap: square"/>
     </g>
     <g id="line2d_8">
      <g>
       <use xlink:href="#mdd691446ea" x="294.617824" y="299.518125" style="stroke: #000000; stroke-width: 0.8"/>
      </g>
     </g>
     <g id="text_4">
      <!-- 2.20 -->
      <g transform="translate(284.598292 313.356719) scale(0.09 -0.09)">
       <use xlink:href="#DejaVuSans-32"/>
       <use xlink:href="#DejaVuSans-2e" transform="translate(63.623047 0)"/>
       <use xlink:href="#DejaVuSans-32" transform="translate(95.410156 0)"/>
       <use xlink:href="#DejaVuSans-30" transform="translate(159.033203 0)"/>
      </g>
     </g>
    </g>
    <g id="xtick_5">
     <g id="line2d_9">
      <path d="M 368.780503 299.518125 
L 368.780503 22.318125 
" clip-path="url(#p4cc4df8633)" style="fill: none; stroke: #b0b0b0; stroke-opacity: 0.3; stroke-width: 0.8; stroke-linecap: square"/>
     </g>
     <g id="line2d_10">
      <g>
       <use xlink:href="#mdd691446ea" x="368.780503" y="299.518125" style="stroke: #000000; stroke-width: 0.8"/>
      </g>
     </g>
     <g id="text_5">
      <!-- 2.25 -->
      <g transform="translate(358.760972 313.356719) scale(0.09 -0.09)">
       <use xlink:href="#DejaVuSans-32"/>
       <use xlink:href="#DejaVuSans-2e" transform="translate(63.623047 0)"/>
       <use xlink:href="#DejaVuSans-32" transform="translate(95.410156 0)"/>
       <use xlink:href="#DejaVuSans-35" transform="translate(159.033203 0)"/>
      </g>
     </g>
    </g>
    <g id="xtick_6">
     <g id="line2d_11">
      <path d="M 442.943183 299.518125 
L 442.943183 22.318125 
" clip-path="url(#p4cc4df8633)" style="fill: none; stroke: #b0b0b0; stroke-opacity: 0.3; stroke-width: 0.8; stroke-linecap: square"/>
     </g>
     <g id="line2d_12">
      <g>
       <use xlink:href="#mdd691446ea" x="442.943183" y="299.518125" style="stroke: #000000; stroke-width: 0.8"/>
      </g>
     </g>
     <g id="text_6">
      <!-- 2.30 -->
      <g transform="translate(432.923651 313.356719) scale(0.09 -0.09)">
       <defs>
        <path id="DejaVuSans-33" d="M 2597 2516 
Q 3050 2419 3304 2112 
Q 3559 1806 3559 1356 
Q 3559 666 3084 287 
Q 2609 -91 1734 -91 
Q 1441 -91 1130 -33 
Q 819 25 488 141 
L 488 750 
Q 750 597 1062 519 
Q 1375 441 1716 441 
Q 2309 441 2620 675 
Q 2931 909 2931 1356 
Q 2931 1769 2642 2001 
Q 2353 2234 1838 2234 
L 1294 2234 
L 1294 2753 
L 1863 2753 
Q 2328 2753 2575 2939 
Q 2822 3125 2822 3475 
Q 2822 3834 2567 4026 
Q 2313 4219 1838 4219 
Q 1578 4219 1281 4162 
Q 984 4106 628 3988 
L 628 4550 
Q 988 4650 1302 4700 
Q 1616 4750 1894 4750 
Q 2613 4750 3031 4423 
Q 3450 4097 3450 3541 
Q 3450 3153 3228 2886 
Q 3006 2619 2597 2516 
z
" transform="scale(0.015625)"/>
       </defs>
       <use xlink:href="#DejaVuSans-32"/>
       <use xlink:href="#DejaVuSans-2e" transform="translate(63.623047 0)"/>
       <use xlink:href="#DejaVuSans-33" transform="translate(95.410156 0)"/>
       <use xlink:href="#DejaVuSans-30" transform="translate(159.033203 0)"/>
      </g>
     </g>
    </g>
    <g id="xtick_7">
     <g id="line2d_13">
      <path d="M 517.105862 299.518125 
L 517.105862 22.318125 
" clip-path="url(#p4cc4df8633)" style="fill: none; stroke: #b0b0b0; stroke-opacity: 0.3; stroke-width: 0.8; stroke-linecap: square"/>
     </g>
     <g id="line2d_14">
      <g>
       <use xlink:href="#mdd691446ea" x="517.105862" y="299.518125" style="stroke: #000000; stroke-width: 0.8"/>
      </g>
     </g>
     <g id="text_7">
      <!-- 2.35 -->
      <g transform="translate(507.086331 313.356719) scale(0.09 -0.09)">
       <use xlink:href="#DejaVuSans-32"/>
       <use xlink:href="#DejaVuSans-2e" transform="translate(63.623047 0)"/>
       <use xlink:href="#DejaVuSans-33" transform="translate(95.410156 0)"/>
       <use xlink:href="#DejaVuSans-35" transform="translate(159.033203 0)"/>
      </g>
     </g>
    </g>
    <g id="xtick_8">
     <g id="line2d_15">
      <path d="M 591.268541 299.518125 
L 591.268541 22.318125 
" clip-path="url(#p4cc4df8633)" style="fill: none; stroke: #b0b0b0; stroke-opacity: 0.3; stroke-width: 0.8; stroke-linecap: square"/>
     </g>
     <g id="line2d_16">
      <g>
       <use xlink:href="#mdd691446ea" x="591.268541" y="299.518125" style="stroke: #000000; stroke-width: 0.8"/>
      </g>
     </g>
     <g id="text_8">
      <!-- 2.40 -->
      <g transform="translate(581.24901 313.356719) scale(0.09 -0.09)">
       <defs>
        <path id="DejaVuSans-34" d="M 2419 4116 
L 825 1625 
L 2419 1625 
L 2419 4116 
z
M 2253 4666 
L 3047 4666 
L 3047 1625 
L 3713 1625 
L 3713 1100 
L 3047 1100 
L 3047 0 
L 2419 0 
L 2419 1100 
L 313 1100 
L 313 1709 
L 2253 4666 
z
" transform="scale(0.015625)"/>
       </defs>
       <use xlink:href="#DejaVuSans-32"/>
       <use xlink:href="#DejaVuSans-2e" transform="translate(63.623047 0)"/>
       <use xlink:href="#DejaVuSans-34" transform="translate(95.410156 0)"/>
       <use xlink:href="#DejaVuSans-30" transform="translate(159.033203 0)"/>
      </g>
     </g>
    </g>
    <g id="text_9">
     <!-- open_time_ms -->
     <g transform="translate(292.482656 326.826875) scale(0.1 -0.1)">
      <defs>
       <path id="DejaVuSans-6f" d="M 1959 3097 
Q 1497 3097 1228 2736 
Q 959 2375 959 1747 
Q 959 1119 1226 758 
Q 1494 397 1959 397 
Q 2419 397 2687 759 
Q 2956 1122 2956 1747 
Q 2956 2369 2687 2733 
Q 2419 3097 1959 3097 
z
M 1959 3584 
Q 2709 3584 3137 3096 
Q 3566 2609 3566 1747 
Q 3566 888 3137 398 
Q 2709 -91 1959 -91 
Q 1206 -91 779 398 
Q 353 888 353 1747 
Q 353 2609 779 3096 
Q 1206 3584 1959 3584 
z
" transform="scale(0.015625)"/>
       <path id="DejaVuSans-70" d="M 1159 525 
L 1159 -1331 
L 581 -1331 
L 581 3500 
L 1159 3500 
L 1159 2969 
Q 1341 3281 1617 3432 
Q 1894 3584 2278 3584 
Q 2916 3584 3314 3078 
Q 3713 2572 3713 1747 
Q 3713 922 3314 415 
Q 2916 -91 2278 -91 
Q 1894 -91 1617 61 
Q 1341 213 1159 525 
z
M 3116 1747 
Q 3116 2381 2855 2742 
Q 2594 3103 2138 3103 
Q 1681 3103 1420 2742 
Q 1159 2381 1159 1747 
Q 1159 1113 1420 752 
Q 1681 391 2138 391 
Q 2594 391 2855 752 
Q 3116 1113 3116 1747 
z
" transform="scale(0.015625)"/>
       <path id="DejaVuSans-65" d="M 3597 1894 
L 3597 1613 
L 953 1613 
Q 991 1019 1311 708 
Q 1631 397 2203 397 
Q 2534 397 2845 478 
Q 3156 559 3463 722 
L 3463 178 
Q 3153 47 2828 -22 
Q 2503 -91 2169 -91 
Q 1331 -91 842 396 
Q 353 884 353 1716 
Q 353 2575 817 3079 
Q 1281 3584 2069 3584 
Q 2775 3584 3186 3129 
Q 3597 2675 3597 1894 
z
M 3022 2063 
Q 3016 2534 2758 2815 
Q 2500 3097 2075 3097 
Q 1594 3097 1305 2825 
Q 1016 2553 972 2059 
L 3022 2063 
z
" transform="scale(0.015625)"/>
       <path id="DejaVuSans-6e" d="M 3513 2113 
L 3513 0 
L 2938 0 
L 2938 2094 
Q 2938 2591 2744 2837 
Q 2550 3084 2163 3084 
Q 1697 3084 1428 2787 
Q 1159 2491 1159 1978 
L 1159 0 
L 581 0 
L 581 3500 
L 1159 3500 
L 1159 2956 
Q 1366 3272 1645 3428 
Q 1925 3584 2291 3584 
Q 2894 3584 3203 3211 
Q 3513 2838 3513 2113 
z
" transform="scale(0.015625)"/>
       <path id="DejaVuSans-5f" d="M 3263 -1063 
L 3263 -1509 
L -63 -1509 
L -63 -1063 
L 3263 -1063 
z
" transform="scale(0.015625)"/>
       <path id="DejaVuSans-74" d="M 1172 4494 
L 1172 3500 
L 2356 3500 
L 2356 3053 
L 1172 3053 
L 1172 1153 
Q 1172 725 1289 603 
Q 1406 481 1766 481 
L 2356 481 
L 2356 0 
L 1766 0 
Q 1100 0 847 248 
Q 594 497 594 1153 
L 594 3053 
L 172 3053 
L 172 3500 
L 594 3500 
L 594 4494 
L 1172 4494 
z
" transform="scale(0.015625)"/>
       <path id="DejaVuSans-69" d="M 603 3500 
L 1178 3500 
L 1178 0 
L 603 0 
L 603 3500 
z
M 603 4863 
L 1178 4863 
L 1178 4134 
L 603 4134 
L 603 4863 
z
" transform="scale(0.015625)"/>
       <path id="DejaVuSans-6d" d="M 3328 2828 
Q 3544 3216 3844 3400 
Q 4144 3584 4550 3584 
Q 5097 3584 5394 3201 
Q 5691 2819 5691 2113 
L 5691 0 
L 5113 0 
L 5113 2094 
Q 5113 2597 4934 2840 
Q 4756 3084 4391 3084 
Q 3944 3084 3684 2787 
Q 3425 2491 3425 1978 
L 3425 0 
L 2847 0 
L 2847 2094 
Q 2847 2600 2669 2842 
Q 2491 3084 2119 3084 
Q 1678 3084 1418 2786 
Q 1159 2488 1159 1978 
L 1159 0 
L 581 0 
L 581 3500 
L 1159 3500 
L 1159 2956 
Q 1356 3278 1631 3431 
Q 1906 3584 2284 3584 
Q 2666 3584 2933 3390 
Q 3200 3197 3328 2828 
z
" transform="scale(0.015625)"/>
       <path id="DejaVuSans-73" d="M 2834 3397 
L 2834 2853 
Q 2591 2978 2328 3040 
Q 2066 3103 1784 3103 
Q 1356 3103 1142 2972 
Q 928 2841 928 2578 
Q 928 2378 1081 2264 
Q 1234 2150 1697 2047 
L 1894 2003 
Q 2506 1872 2764 1633 
Q 3022 1394 3022 966 
Q 3022 478 2636 193 
Q 2250 -91 1575 -91 
Q 1294 -91 989 -36 
Q 684 19 347 128 
L 347 722 
Q 666 556 975 473 
Q 1284 391 1588 391 
Q 1994 391 2212 530 
Q 2431 669 2431 922 
Q 2431 1156 2273 1281 
Q 2116 1406 1581 1522 
L 1381 1569 
Q 847 1681 609 1914 
Q 372 2147 372 2553 
Q 372 3047 722 3315 
Q 1072 3584 1716 3584 
Q 2034 3584 2315 3537 
Q 2597 3491 2834 3397 
z
" transform="scale(0.015625)"/>
      </defs>
      <use xlink:href="#DejaVuSans-6f"/>
      <use xlink:href="#DejaVuSans-70" transform="translate(61.181641 0)"/>
      <use xlink:href="#DejaVuSans-65" transform="translate(124.658203 0)"/>
      <use xlink:href="#DejaVuSans-6e" transform="translate(186.181641 0)"/>
      <use xlink:href="#DejaVuSans-5f" transform="translate(249.560547 0)"/>
      <use xlink:href="#DejaVuSans-74" transform="translate(299.560547 0)"/>
      <use xlink:href="#DejaVuSans-69" transform="translate(338.769531 0)"/>
      <use xlink:href="#DejaVuSans-6d" transform="translate(366.552734 0)"/>
      <use xlink:href="#DejaVuSans-65" transform="translate(463.964844 0)"/>
      <use xlink:href="#DejaVuSans-5f" transform="translate(525.488281 0)"/>
      <use xlink:href="#DejaVuSans-6d" transform="translate(575.488281 0)"/>
      <use xlink:href="#DejaVuSans-73" transform="translate(672.900391 0)"/>
     </g>
    </g>
    <g id="text_10">
     <!-- 1e8 -->
     <g transform="translate(590.742344 325.067031) scale(0.09 -0.09)">
      <defs>
       <path id="DejaVuSans-38" d="M 2034 2216 
Q 1584 2216 1326 1975 
Q 1069 1734 1069 1313 
Q 1069 891 1326 650 
Q 1584 409 2034 409 
Q 2484 409 2743 651 
Q 3003 894 3003 1313 
Q 3003 1734 2745 1975 
Q 2488 2216 2034 2216 
z
M 1403 2484 
Q 997 2584 770 2862 
Q 544 3141 544 3541 
Q 544 4100 942 4425 
Q 1341 4750 2034 4750 
Q 2731 4750 3128 4425 
Q 3525 4100 3525 3541 
Q 3525 3141 3298 2862 
Q 3072 2584 2669 2484 
Q 3125 2378 3379 2068 
Q 3634 1759 3634 1313 
Q 3634 634 3220 271 
Q 2806 -91 2034 -91 
Q 1263 -91 848 271 
Q 434 634 434 1313 
Q 434 1759 690 2068 
Q 947 2378 1403 2484 
z
M 1172 3481 
Q 1172 3119 1398 2916 
Q 1625 2713 2034 2713 
Q 2441 2713 2670 2916 
Q 2900 3119 2900 3481 
Q 2900 3844 2670 4047 
Q 2441 4250 2034 4250 
Q 1625 4250 1398 4047 
Q 1172 3844 1172 3481 
z
" transform="scale(0.015625)"/>
      </defs>
      <use xlink:href="#DejaVuSans-31"/>
      <use xlink:href="#DejaVuSans-65" transform="translate(63.623047 0)"/>
      <use xlink:href="#DejaVuSans-38" transform="translate(125.146484 0)"/>
     </g>
    </g>
   </g>
   <g id="matplotlib.axis_2">
    <g id="ytick_1">
     <g id="line2d_17">
      <path d="M 49.732656 287.919372 
L 607.732656 287.919372 
" clip-path="url(#p4cc4df8633)" style="fill: none; stroke: #b0b0b0; stroke-opacity: 0.3; stroke-width: 0.8; stroke-linecap: square"/>
     </g>
     <g id="line2d_18">
      <defs>
       <path id="mb23d3d9f39" d="M 0 0 
L -3.5 0 
" style="stroke: #000000; stroke-width: 0.8"/>
      </defs>
      <g>
       <use xlink:href="#mb23d3d9f39" x="49.732656" y="287.919372" style="stroke: #000000; stroke-width: 0.8"/>
      </g>
     </g>
     <g id="text_11">
      <!-- −0.2 -->
      <g transform="translate(20.878125 291.338668) scale(0.09 -0.09)">
       <defs>
        <path id="DejaVuSans-2212" d="M 678 2272 
L 4684 2272 
L 4684 1741 
L 678 1741 
L 678 2272 
z
" transform="scale(0.015625)"/>
       </defs>
       <use xlink:href="#DejaVuSans-2212"/>
       <use xlink:href="#DejaVuSans-30" transform="translate(83.789062 0)"/>
       <use xlink:href="#DejaVuSans-2e" transform="translate(147.412109 0)"/>
       <use xlink:href="#DejaVuSans-32" transform="translate(179.199219 0)"/>
      </g>
     </g>
    </g>
    <g id="ytick_2">
     <g id="line2d_19">
      <path d="M 49.732656 253.022648 
L 607.732656 253.022648 
" clip-path="url(#p4cc4df8633)" style="fill: none; stroke: #b0b0b0; stroke-opacity: 0.3; stroke-width: 0.8; stroke-linecap: square"/>
     </g>
     <g id="line2d_20">
      <g>
       <use xlink:href="#mb23d3d9f39" x="49.732656" y="253.022648" style="stroke: #000000; stroke-width: 0.8"/>
      </g>
     </g>
     <g id="text_12">
      <!-- 0.0 -->
      <g transform="translate(28.419844 256.441945) scale(0.09 -0.09)">
       <use xlink:href="#DejaVuSans-30"/>
       <use xlink:href="#DejaVuSans-2e" transform="translate(63.623047 0)"/>
       <use xlink:href="#DejaVuSans-30" transform="translate(95.410156 0)"/>
      </g>
     </g>
    </g>
    <g id="ytick_3">
     <g id="line2d_21">
      <path d="M 49.732656 218.125924 
L 607.732656 218.125924 
" clip-path="url(#p4cc4df8633)" style="fill: none; stroke: #b0b0b0; stroke-opacity: 0.3; stroke-width: 0.8; stroke-linecap: square"/>
     </g>
     <g id="line2d_22">
      <g>
       <use xlink:href="#mb23d3d9f39" x="49.732656" y="218.125924" style="stroke: #000000; stroke-width: 0.8"/>
      </g>
     </g>
     <g id="text_13">
      <!-- 0.2 -->
      <g transform="translate(28.419844 221.545221) scale(0.09 -0.09)">
       <use xlink:href="#DejaVuSans-30"/>
       <use xlink:href="#DejaVuSans-2e" transform="translate(63.623047 0)"/>
       <use xlink:href="#DejaVuSans-32" transform="translate(95.410156 0)"/>
      </g>
     </g>
    </g>
    <g id="ytick_4">
     <g id="line2d_23">
      <path d="M 49.732656 183.229201 
L 607.732656 183.229201 
" clip-path="url(#p4cc4df8633)" style="fill: none; stroke: #b0b0b0; stroke-opacity: 0.3; stroke-width: 0.8; stroke-linecap: square"/>
     </g>
     <g id="line2d_24">
      <g>
       <use xlink:href="#mb23d3d9f39" x="49.732656" y="183.229201" style="stroke: #000000; stroke-width: 0.8"/>
      </g>
     </g>
     <g id="text_14">
      <!-- 0.4 -->
      <g transform="translate(28.419844 186.648497) scale(0.09 -0.09)">
       <use xlink:href="#DejaVuSans-30"/>
       <use xlink:href="#DejaVuSans-2e" transform="translate(63.623047 0)"/>
       <use xlink:href="#DejaVuSans-34" transform="translate(95.410156 0)"/>
      </g>
     </g>
    </g>
    <g id="ytick_5">
     <g id="line2d_25">
      <path d="M 49.732656 148.332477 
L 607.732656 148.332477 
" clip-path="url(#p4cc4df8633)" style="fill: none; stroke: #b0b0b0; stroke-opacity: 0.3; stroke-width: 0.8; stroke-linecap: square"/>
     </g>
     <g id="line2d_26">
      <g>
       <use xlink:href="#mb23d3d9f39" x="49.732656" y="148.332477" style="stroke: #000000; stroke-width: 0.8"/>
      </g>
     </g>
     <g id="text_15">
      <!-- 0.6 -->
      <g transform="translate(28.419844 151.751774) scale(0.09 -0.09)">
       <defs>
        <path id="DejaVuSans-36" d="M 2113 2584 
Q 1688 2584 1439 2293 
Q 1191 2003 1191 1497 
Q 1191 994 1439 701 
Q 1688 409 2113 409 
Q 2538 409 2786 701 
Q 3034 994 3034 1497 
Q 3034 2003 2786 2293 
Q 2538 2584 2113 2584 
z
M 3366 4563 
L 3366 3988 
Q 3128 4100 2886 4159 
Q 2644 4219 2406 4219 
Q 1781 4219 1451 3797 
Q 1122 3375 1075 2522 
Q 1259 2794 1537 2939 
Q 1816 3084 2150 3084 
Q 2853 3084 3261 2657 
Q 3669 2231 3669 1497 
Q 3669 778 3244 343 
Q 2819 -91 2113 -91 
Q 1303 -91 875 529 
Q 447 1150 447 2328 
Q 447 3434 972 4092 
Q 1497 4750 2381 4750 
Q 2619 4750 2861 4703 
Q 3103 4656 3366 4563 
z
" transform="scale(0.015625)"/>
       </defs>
       <use xlink:href="#DejaVuSans-30"/>
       <use xlink:href="#DejaVuSans-2e" transform="translate(63.623047 0)"/>
       <use xlink:href="#DejaVuSans-36" transform="translate(95.410156 0)"/>
      </g>
     </g>
    </g>
    <g id="ytick_6">
     <g id="line2d_27">
      <path d="M 49.732656 113.435753 
L 607.732656 113.435753 
" clip-path="url(#p4cc4df8633)" style="fill: none; stroke: #b0b0b0; stroke-opacity: 0.3; stroke-width: 0.8; stroke-linecap: square"/>
     </g>
     <g id="line2d_28">
      <g>
       <use xlink:href="#mb23d3d9f39" x="49.732656" y="113.435753" style="stroke: #000000; stroke-width: 0.8"/>
      </g>
     </g>
     <g id="text_16">
      <!-- 0.8 -->
      <g transform="translate(28.419844 116.85505) scale(0.09 -0.09)">
       <use xlink:href="#DejaVuSans-30"/>
       <use xlink:href="#DejaVuSans-2e" transform="translate(63.623047 0)"/>
       <use xlink:href="#DejaVuSans-38" transform="translate(95.410156 0)"/>
      </g>
     </g>
    </g>
    <g id="ytick_7">
     <g id="line2d_29">
      <path d="M 49.732656 78.53903 
L 607.732656 78.53903 
" clip-path="url(#p4cc4df8633)" style="fill: none; stroke: #b0b0b0; stroke-opacity: 0.3; stroke-width: 0.8; stroke-linecap: square"/>
     </g>
     <g id="line2d_30">
      <g>
       <use xlink:href="#mb23d3d9f39" x="49.732656" y="78.53903" style="stroke: #000000; stroke-width: 0.8"/>
      </g>
     </g>
     <g id="text_17">
      <!-- 1.0 -->
      <g transform="translate(28.419844 81.958326) scale(0.09 -0.09)">
       <use xlink:href="#DejaVuSans-31"/>
       <use xlink:href="#DejaVuSans-2e" transform="translate(63.623047 0)"/>
       <use xlink:href="#DejaVuSans-30" transform="translate(95.410156 0)"/>
      </g>
     </g>
    </g>
    <g id="ytick_8">
     <g id="line2d_31">
      <path d="M 49.732656 43.642306 
L 607.732656 43.642306 
" clip-path="url(#p4cc4df8633)" style="fill: none; stroke: #b0b0b0; stroke-opacity: 0.3; stroke-width: 0.8; stroke-linecap: square"/>
     </g>
     <g id="line2d_32">
      <g>
       <use xlink:href="#mb23d3d9f39" x="49.732656" y="43.642306" style="stroke: #000000; stroke-width: 0.8"/>
      </g>
     </g>
     <g id="text_18">
      <!-- 1.2 -->
      <g transform="translate(28.419844 47.061603) scale(0.09 -0.09)">
       <use xlink:href="#DejaVuSans-31"/>
       <use xlink:href="#DejaVuSans-2e" transform="translate(63.623047 0)"/>
       <use xlink:href="#DejaVuSans-32" transform="translate(95.410156 0)"/>
      </g>
     </g>
    </g>
    <g id="text_19">
     <!-- Accuracy -->
     <g transform="translate(14.798438 183.74625) rotate(-90) scale(0.1 -0.1)">
      <defs>
       <path id="DejaVuSans-41" d="M 2188 4044 
L 1331 1722 
L 3047 1722 
L 2188 4044 
z
M 1831 4666 
L 2547 4666 
L 4325 0 
L 3669 0 
L 3244 1197 
L 1141 1197 
L 716 0 
L 50 0 
L 1831 4666 
z
" transform="scale(0.015625)"/>
       <path id="DejaVuSans-63" d="M 3122 3366 
L 3122 2828 
Q 2878 2963 2633 3030 
Q 2388 3097 2138 3097 
Q 1578 3097 1268 2742 
Q 959 2388 959 1747 
Q 959 1106 1268 751 
Q 1578 397 2138 397 
Q 2388 397 2633 464 
Q 2878 531 3122 666 
L 3122 134 
Q 2881 22 2623 -34 
Q 2366 -91 2075 -91 
Q 1284 -91 818 406 
Q 353 903 353 1747 
Q 353 2603 823 3093 
Q 1294 3584 2113 3584 
Q 2378 3584 2631 3529 
Q 2884 3475 3122 3366 
z
" transform="scale(0.015625)"/>
       <path id="DejaVuSans-75" d="M 544 1381 
L 544 3500 
L 1119 3500 
L 1119 1403 
Q 1119 906 1312 657 
Q 1506 409 1894 409 
Q 2359 409 2629 706 
Q 2900 1003 2900 1516 
L 2900 3500 
L 3475 3500 
L 3475 0 
L 2900 0 
L 2900 538 
Q 2691 219 2414 64 
Q 2138 -91 1772 -91 
Q 1169 -91 856 284 
Q 544 659 544 1381 
z
M 1991 3584 
L 1991 3584 
z
" transform="scale(0.015625)"/>
       <path id="DejaVuSans-72" d="M 2631 2963 
Q 2534 3019 2420 3045 
Q 2306 3072 2169 3072 
Q 1681 3072 1420 2755 
Q 1159 2438 1159 1844 
L 1159 0 
L 581 0 
L 581 3500 
L 1159 3500 
L 1159 2956 
Q 1341 3275 1631 3429 
Q 1922 3584 2338 3584 
Q 2397 3584 2469 3576 
Q 2541 3569 2628 3553 
L 2631 2963 
z
" transform="scale(0.015625)"/>
       <path id="DejaVuSans-61" d="M 2194 1759 
Q 1497 1759 1228 1600 
Q 959 1441 959 1056 
Q 959 750 1161 570 
Q 1363 391 1709 391 
Q 2188 391 2477 730 
Q 2766 1069 2766 1631 
L 2766 1759 
L 2194 1759 
z
M 3341 1997 
L 3341 0 
L 2766 0 
L 2766 531 
Q 2569 213 2275 61 
Q 1981 -91 1556 -91 
Q 1019 -91 701 211 
Q 384 513 384 1019 
Q 384 1609 779 1909 
Q 1175 2209 1959 2209 
L 2766 2209 
L 2766 2266 
Q 2766 2663 2505 2880 
Q 2244 3097 1772 3097 
Q 1472 3097 1187 3025 
Q 903 2953 641 2809 
L 641 3341 
Q 956 3463 1253 3523 
Q 1550 3584 1831 3584 
Q 2591 3584 2966 3190 
Q 3341 2797 3341 1997 
z
" transform="scale(0.015625)"/>
       <path id="DejaVuSans-79" d="M 2059 -325 
Q 1816 -950 1584 -1140 
Q 1353 -1331 966 -1331 
L 506 -1331 
L 506 -850 
L 844 -850 
Q 1081 -850 1212 -737 
Q 1344 -625 1503 -206 
L 1606 56 
L 191 3500 
L 800 3500 
L 1894 763 
L 2988 3500 
L 3597 3500 
L 2059 -325 
z
" transform="scale(0.015625)"/>
      </defs>
      <use xlink:href="#DejaVuSans-41"/>
      <use xlink:href="#DejaVuSans-63" transform="translate(66.658203 0)"/>
      <use xlink:href="#DejaVuSans-63" transform="translate(121.638672 0)"/>
      <use xlink:href="#DejaVuSans-75" transform="translate(176.619141 0)"/>
      <use xlink:href="#DejaVuSans-72" transform="translate(239.998047 0)"/>
      <use xlink:href="#DejaVuSans-61" transform="translate(281.111328 0)"/>
      <use xlink:href="#DejaVuSans-63" transform="translate(342.390625 0)"/>
      <use xlink:href="#DejaVuSans-79" transform="translate(397.371094 0)"/>
     </g>
    </g>
   </g>
   <g id="line2d_33">
    <path d="M 75.096293 78.53903 
L 79.546053 78.53903 
L 83.995814 78.53903 
L 88.445575 253.022648 
L 92.895336 253.022648 
L 97.345096 78.53903 
L 101.794857 78.53903 
L 106.244618 253.022648 
L 110.694379 253.022648 
L 115.14414 253.022648 
L 119.5939 78.53903 
L 124.043661 253.022648 
L 128.493422 78.53903 
L 132.943183 78.53903 
L 137.392943 78.53903 
L 141.842704 78.53903 
L 146.292465 78.53903 
L 150.742226 253.022648 
L 155.191986 78.53903 
L 159.641747 78.53903 
L 164.091508 253.022648 
L 168.541269 78.53903 
L 172.991029 253.022648 
L 177.44079 78.53903 
L 181.890551 78.53903 
L 186.340312 78.53903 
L 190.790073 78.53903 
L 195.239833 78.53903 
L 199.689594 253.022648 
L 204.139355 253.022648 
L 208.589116 78.53903 
L 213.038876 78.53903 
L 217.488637 253.022648 
L 221.938398 253.022648 
L 226.388159 253.022648 
L 230.837919 78.53903 
L 235.28768 253.022648 
L 239.737441 78.53903 
L 244.187202 253.022648 
L 248.636962 78.53903 
L 253.086723 78.53903 
L 257.536484 78.53903 
L 261.986245 253.022648 
L 266.436006 253.022648 
L 270.885766 253.022648 
L 275.335527 78.53903 
L 279.785288 253.022648 
L 284.235049 253.022648 
L 288.684809 78.53903 
L 293.13457 253.022648 
L 297.584331 253.022648 
L 302.034092 253.022648 
L 306.483852 253.022648 
L 310.933613 253.022648 
L 315.383374 78.53903 
L 319.833135 78.53903 
L 324.282895 78.53903 
L 328.732656 253.022648 
L 333.182417 78.53903 
L 337.632178 253.022648 
L 342.081939 78.53903 
L 346.531699 78.53903 
L 350.98146 78.53903 
L 355.431221 253.022648 
L 359.880982 78.53903 
L 364.330742 78.53903 
L 368.780503 253.022648 
L 373.230264 253.022648 
L 377.680025 253.022648 
L 382.129785 78.53903 
L 386.579546 253.022648 
L 391.029307 78.53903 
L 395.479068 253.022648 
L 399.928828 253.022648 
L 404.378589 253.022648 
L 408.82835 78.53903 
L 413.278111 78.53903 
L 417.727872 253.022648 
L 422.177632 253.022648 
L 426.627393 253.022648 
L 431.077154 253.022648 
L 435.526915 253.022648 
L 439.976675 253.022648 
L 444.426436 78.53903 
L 448.876197 253.022648 
L 453.325958 253.022648 
L 457.775718 78.53903 
L 462.225479 78.53903 
L 466.67524 78.53903 
L 471.125001 78.53903 
L 475.574762 253.022648 
L 480.024522 253.022648 
L 484.474283 253.022648 
L 488.924044 253.022648 
L 493.373805 78.53903 
L 497.823565 78.53903 
L 502.273326 78.53903 
L 506.723087 78.53903 
L 511.172848 253.022648 
L 515.622608 78.53903 
L 520.072369 253.022648 
L 524.52213 253.022648 
L 528.971891 253.022648 
L 533.421651 253.022648 
L 537.871412 253.022648 
L 542.321173 78.53903 
L 546.770934 78.53903 
L 551.220695 78.53903 
L 555.670455 253.022648 
L 560.120216 78.53903 
L 564.569977 253.022648 
L 569.019738 78.53903 
L 573.469498 78.53903 
L 577.919259 78.53903 
L 582.36902 253.022648 
" clip-path="url(#p4cc4df8633)" style="fill: none; stroke: #1f77b4; stroke-opacity: 0.6; stroke-width: 1.5; stroke-linecap: square"/>
   </g>
   <g id="line2d_34">
    <path d="M 75.096293 78.53903 
L 79.546053 78.53903 
L 83.995814 78.53903 
L 88.445575 122.159934 
L 92.895336 148.332477 
L 97.345096 136.700236 
L 101.794857 128.391492 
L 106.244618 143.970386 
L 110.694379 156.087304 
L 115.14414 165.780839 
L 119.5939 157.849765 
L 124.043661 165.780839 
L 128.493422 159.06993 
L 132.943183 153.317723 
L 137.392943 148.332477 
L 141.842704 143.970386 
L 146.292465 140.121483 
L 150.742226 146.39377 
L 155.191986 142.822468 
L 159.641747 139.608296 
L 164.091508 148.332477 
L 168.541269 148.332477 
L 172.991029 157.056658 
L 177.44079 148.332477 
L 181.890551 139.608296 
L 186.340312 139.608296 
L 190.790073 139.608296 
L 195.239833 130.884115 
L 199.689594 130.884115 
L 204.139355 130.884115 
L 208.589116 130.884115 
L 213.038876 122.159934 
L 217.488637 130.884115 
L 221.938398 139.608296 
L 226.388159 148.332477 
L 230.837919 148.332477 
L 235.28768 157.056658 
L 239.737441 148.332477 
L 244.187202 157.056658 
L 248.636962 157.056658 
L 253.086723 148.332477 
L 257.536484 148.332477 
L 261.986245 148.332477 
L 266.436006 157.056658 
L 270.885766 165.780839 
L 275.335527 165.780839 
L 279.785288 174.50502 
L 284.235049 183.229201 
L 288.684809 174.50502 
L 293.13457 174.50502 
L 297.584331 183.229201 
L 302.034092 191.953382 
L 306.483852 191.953382 
L 310.933613 191.953382 
L 315.383374 183.229201 
L 319.833135 183.229201 
L 324.282895 174.50502 
L 328.732656 183.229201 
L 333.182417 174.50502 
L 337.632178 183.229201 
L 342.081939 183.229201 
L 346.531699 183.229201 
L 350.98146 174.50502 
L 355.431221 174.50502 
L 359.880982 165.780839 
L 364.330742 165.780839 
L 368.780503 165.780839 
L 373.230264 165.780839 
L 377.680025 174.50502 
L 382.129785 165.780839 
L 386.579546 165.780839 
L 391.029307 157.056658 
L 395.479068 157.056658 
L 399.928828 157.056658 
L 404.378589 165.780839 
L 408.82835 165.780839 
L 413.278111 165.780839 
L 417.727872 165.780839 
L 422.177632 174.50502 
L 426.627393 174.50502 
L 431.077154 183.229201 
L 435.526915 191.953382 
L 439.976675 200.677562 
L 444.426436 191.953382 
L 448.876197 200.677562 
L 453.325958 209.401743 
L 457.775718 200.677562 
L 462.225479 191.953382 
L 466.67524 183.229201 
L 471.125001 183.229201 
L 475.574762 183.229201 
L 480.024522 191.953382 
L 484.474283 191.953382 
L 488.924044 191.953382 
L 493.373805 183.229201 
L 497.823565 183.229201 
L 502.273326 183.229201 
L 506.723087 174.50502 
L 511.172848 174.50502 
L 515.622608 165.780839 
L 520.072369 165.780839 
L 524.52213 165.780839 
L 528.971891 165.780839 
L 533.421651 174.50502 
L 537.871412 174.50502 
L 542.321173 165.780839 
L 546.770934 165.780839 
L 551.220695 165.780839 
L 555.670455 174.50502 
L 560.120216 174.50502 
L 564.569977 174.50502 
L 569.019738 165.780839 
L 573.469498 157.056658 
L 577.919259 148.332477 
L 582.36902 157.056658 
" clip-path="url(#p4cc4df8633)" style="fill: none; stroke: #ff7f0e; stroke-width: 1.5; stroke-linecap: square"/>
   </g>
   <g id="patch_3">
    <path d="M 49.732656 299.518125 
L 49.732656 22.318125 
" style="fill: none; stroke: #000000; stroke-width: 0.8; stroke-linejoin: miter; stroke-linecap: square"/>
   </g>
   <g id="patch_4">
    <path d="M 607.732656 299.518125 
L 607.732656 22.318125 
" style="fill: none; stroke: #000000; stroke-width: 0.8; stroke-linejoin: miter; stroke-linecap: square"/>
   </g>
   <g id="patch_5">
    <path d="M 49.732656 299.518125 
L 607.732656 299.518125 
" style="fill: none; stroke: #000000; stroke-width: 0.8; stroke-linejoin: miter; stroke-linecap: square"/>
   </g>
   <g id="patch_6">
    <path d="M 49.732656 22.318125 
L 607.732656 22.318125 
" style="fill: none; stroke: #000000; stroke-width: 0.8; stroke-linejoin: miter; stroke-linecap: square"/>
   </g>
   <g id="text_20">
    <!-- supervised_up Accuracy Over Time -->
    <g transform="translate(223.153281 16.318125) scale(0.12 -0.12)">
     <defs>
      <path id="DejaVuSans-76" d="M 191 3500 
L 800 3500 
L 1894 563 
L 2988 3500 
L 3597 3500 
L 2284 0 
L 1503 0 
L 191 3500 
z
" transform="scale(0.015625)"/>
      <path id="DejaVuSans-64" d="M 2906 2969 
L 2906 4863 
L 3481 4863 
L 3481 0 
L 2906 0 
L 2906 525 
Q 2725 213 2448 61 
Q 2172 -91 1784 -91 
Q 1150 -91 751 415 
Q 353 922 353 1747 
Q 353 2572 751 3078 
Q 1150 3584 1784 3584 
Q 2172 3584 2448 3432 
Q 2725 3281 2906 2969 
z
M 947 1747 
Q 947 1113 1208 752 
Q 1469 391 1925 391 
Q 2381 391 2643 752 
Q 2906 1113 2906 1747 
Q 2906 2381 2643 2742 
Q 2381 3103 1925 3103 
Q 1469 3103 1208 2742 
Q 947 2381 947 1747 
z
" transform="scale(0.015625)"/>
      <path id="DejaVuSans-20" transform="scale(0.015625)"/>
      <path id="DejaVuSans-4f" d="M 2522 4238 
Q 1834 4238 1429 3725 
Q 1025 3213 1025 2328 
Q 1025 1447 1429 934 
Q 1834 422 2522 422 
Q 3209 422 3611 934 
Q 4013 1447 4013 2328 
Q 4013 3213 3611 3725 
Q 3209 4238 2522 4238 
z
M 2522 4750 
Q 3503 4750 4090 4092 
Q 4678 3434 4678 2328 
Q 4678 1225 4090 567 
Q 3503 -91 2522 -91 
Q 1538 -91 948 565 
Q 359 1222 359 2328 
Q 359 3434 948 4092 
Q 1538 4750 2522 4750 
z
" transform="scale(0.015625)"/>
      <path id="DejaVuSans-54" d="M -19 4666 
L 3928 4666 
L 3928 4134 
L 2272 4134 
L 2272 0 
L 1638 0 
L 1638 4134 
L -19 4134 
L -19 4666 
z
" transform="scale(0.015625)"/>
     </defs>
     <use xlink:href="#DejaVuSans-73"/>
     <use xlink:href="#DejaVuSans-75" transform="translate(52.099609 0)"/>
     <use xlink:href="#DejaVuSans-70" transform="translate(115.478516 0)"/>
     <use xlink:href="#DejaVuSans-65" transform="translate(178.955078 0)"/>
     <use xlink:href="#DejaVuSans-72" transform="translate(240.478516 0)"/>
     <use xlink:href="#DejaVuSans-76" transform="translate(281.591797 0)"/>
     <use xlink:href="#DejaVuSans-69" transform="translate(340.771484 0)"/>
     <use xlink:href="#DejaVuSans-73" transform="translate(368.554688 0)"/>
     <use xlink:href="#DejaVuSans-65" transform="translate(420.654297 0)"/>
     <use xlink:href="#DejaVuSans-64" transform="translate(482.177734 0)"/>
     <use xlink:href="#DejaVuSans-5f" transform="translate(545.654297 0)"/>
     <use xlink:href="#DejaVuSans-75" transform="translate(595.654297 0)"/>
     <use xlink:href="#DejaVuSans-70" transform="translate(659.033203 0)"/>
     <use xlink:href="#DejaVuSans-20" transform="translate(722.509766 0)"/>
     <use xlink:href="#DejaVuSans-41" transform="translate(754.296875 0)"/>
     <use xlink:href="#DejaVuSans-63" transform="translate(820.955078 0)"/>
     <use xlink:href="#DejaVuSans-63" transform="translate(875.935547 0)"/>
     <use xlink:href="#DejaVuSans-75" transform="translate(930.916016 0)"/>
     <use xlink:href="#DejaVuSans-72" transform="translate(994.294922 0)"/>
     <use xlink:href="#DejaVuSans-61" transform="translate(1035.408203 0)"/>
     <use xlink:href="#DejaVuSans-63" transform="translate(1096.6875 0)"/>
     <use xlink:href="#DejaVuSans-79" transform="translate(1151.667969 0)"/>
     <use xlink:href="#DejaVuSans-20" transform="translate(1210.847656 0)"/>
     <use xlink:href="#DejaVuSans-4f" transform="translate(1242.634766 0)"/>
     <use xlink:href="#DejaVuSans-76" transform="translate(1321.345703 0)"/>
     <use xlink:href="#DejaVuSans-65" transform="translate(1380.525391 0)"/>
     <use xlink:href="#DejaVuSans-72" transform="translate(1442.048828 0)"/>
     <use xlink:href="#DejaVuSans-20" transform="translate(1483.162109 0)"/>
     <use xlink:href="#DejaVuSans-54" transform="translate(1514.949219 0)"/>
     <use xlink:href="#DejaVuSans-69" transform="translate(1572.908203 0)"/>
     <use xlink:href="#DejaVuSans-6d" transform="translate(1600.691406 0)"/>
     <use xlink:href="#DejaVuSans-65" transform="translate(1698.103516 0)"/>
    </g>
   </g>
   <g id="legend_1">
    <g id="patch_7">
     <path d="M 279.837344 69.149063 
L 377.627969 69.149063 
Q 379.427969 69.149063 379.427969 67.349063 
L 379.427969 28.618125 
Q 379.427969 26.818125 377.627969 26.818125 
L 279.837344 26.818125 
Q 278.037344 26.818125 278.037344 28.618125 
L 278.037344 67.349063 
Q 278.037344 69.149063 279.837344 69.149063 
z
" style="fill: #ffffff; opacity: 0.8; stroke: #cccccc; stroke-linejoin: miter"/>
    </g>
    <g id="line2d_35">
     <path d="M 281.637344 34.106719 
L 290.637344 34.106719 
L 299.637344 34.106719 
" style="fill: none; stroke: #1f77b4; stroke-opacity: 0.6; stroke-width: 1.5; stroke-linecap: square"/>
    </g>
    <g id="text_21">
     <!-- accuracy -->
     <g transform="translate(306.837344 37.256719) scale(0.09 -0.09)">
      <use xlink:href="#DejaVuSans-61"/>
      <use xlink:href="#DejaVuSans-63" transform="translate(61.279297 0)"/>
      <use xlink:href="#DejaVuSans-63" transform="translate(116.259766 0)"/>
      <use xlink:href="#DejaVuSans-75" transform="translate(171.240234 0)"/>
      <use xlink:href="#DejaVuSans-72" transform="translate(234.619141 0)"/>
      <use xlink:href="#DejaVuSans-61" transform="translate(275.732422 0)"/>
      <use xlink:href="#DejaVuSans-63" transform="translate(337.011719 0)"/>
      <use xlink:href="#DejaVuSans-79" transform="translate(391.992188 0)"/>
     </g>
    </g>
    <g id="line2d_36">
     <path d="M 281.637344 47.317031 
L 290.637344 47.317031 
L 299.637344 47.317031 
" style="fill: none; stroke: #ff7f0e; stroke-width: 1.5; stroke-linecap: square"/>
    </g>
    <g id="text_22">
     <!-- accuracy mean -->
     <g transform="translate(306.837344 50.467031) scale(0.09 -0.09)">
      <use xlink:href="#DejaVuSans-61"/>
      <use xlink:href="#DejaVuSans-63" transform="translate(61.279297 0)"/>
      <use xlink:href="#DejaVuSans-63" transform="translate(116.259766 0)"/>
      <use xlink:href="#DejaVuSans-75" transform="translate(171.240234 0)"/>
      <use xlink:href="#DejaVuSans-72" transform="translate(234.619141 0)"/>
      <use xlink:href="#DejaVuSans-61" transform="translate(275.732422 0)"/>
      <use xlink:href="#DejaVuSans-63" transform="translate(337.011719 0)"/>
      <use xlink:href="#DejaVuSans-79" transform="translate(391.992188 0)"/>
      <use xlink:href="#DejaVuSans-20" transform="translate(451.171875 0)"/>
      <use xlink:href="#DejaVuSans-6d" transform="translate(482.958984 0)"/>
      <use xlink:href="#DejaVuSans-65" transform="translate(580.371094 0)"/>
      <use xlink:href="#DejaVuSans-61" transform="translate(641.894531 0)"/>
      <use xlink:href="#DejaVuSans-6e" transform="translate(703.173828 0)"/>
     </g>
    </g>
    <g id="patch_8">
     <path d="M 281.637344 63.677344 
L 299.637344 63.677344 
L 299.637344 57.377344 
L 281.637344 57.377344 
z
" style="fill: #1f77b4; fill-opacity: 0.2"/>
    </g>
    <g id="text_23">
     <!-- mean +/- std -->
     <g transform="translate(306.837344 63.677344) scale(0.09 -0.09)">
      <defs>
       <path id="DejaVuSans-2b" d="M 2944 4013 
L 2944 2272 
L 4684 2272 
L 4684 1741 
L 2944 1741 
L 2944 0 
L 2419 0 
L 2419 1741 
L 678 1741 
L 678 2272 
L 2419 2272 
L 2419 4013 
L 2944 4013 
z
" transform="scale(0.015625)"/>
       <path id="DejaVuSans-2f" d="M 1625 4666 
L 2156 4666 
L 531 -594 
L 0 -594 
L 1625 4666 
z
" transform="scale(0.015625)"/>
       <path id="DejaVuSans-2d" d="M 313 2009 
L 1997 2009 
L 1997 1497 
L 313 1497 
L 313 2009 
z
" transform="scale(0.015625)"/>
      </defs>
      <use xlink:href="#DejaVuSans-6d"/>
      <use xlink:href="#DejaVuSans-65" transform="translate(97.412109 0)"/>
      <use xlink:href="#DejaVuSans-61" transform="translate(158.935547 0)"/>
      <use xlink:href="#DejaVuSans-6e" transform="translate(220.214844 0)"/>
      <use xlink:href="#DejaVuSans-20" transform="translate(283.59375 0)"/>
      <use xlink:href="#DejaVuSans-2b" transform="translate(315.380859 0)"/>
      <use xlink:href="#DejaVuSans-2f" transform="translate(399.169922 0)"/>
      <use xlink:href="#DejaVuSans-2d" transform="translate(432.861328 0)"/>
      <use xlink:href="#DejaVuSans-20" transform="translate(468.945312 0)"/>
      <use xlink:href="#DejaVuSans-73" transform="translate(500.732422 0)"/>
      <use xlink:href="#DejaVuSans-74" transform="translate(552.832031 0)"/>
      <use xlink:href="#DejaVuSans-64" transform="translate(592.041016 0)"/>
     </g>
    </g>
   </g>
  </g>
 </g>
 <defs>
  <clipPath id="p4cc4df8633">
   <rect x="49.732656" y="22.318125" width="558" height="277.2"/>
  </clipPath>
 </defs>
</svg>
