<?xml version="1.0" encoding="utf-8" standalone="no"?>
<!DOCTYPE svg PUBLIC "-//W3C//DTD SVG 1.1//EN"
  "http://www.w3.org/Graphics/SVG/1.1/DTD/svg11.dtd">
<svg xmlns:xlink="http://www.w3.org/1999/xlink" width="613.117188pt" height="336.384688pt" viewBox="0 0 613.117188 336.384688" xmlns="http://www.w3.org/2000/svg" version="1.1">
 <metadata>
  <rdf:RDF xmlns:dc="http://purl.org/dc/elements/1.1/" xmlns:cc="http://creativecommons.org/ns#" xmlns:rdf="http://www.w3.org/1999/02/22-rdf-syntax-ns#">
   <cc:Work>
    <dc:type rdf:resource="http://purl.org/dc/dcmitype/StillImage"/>
    <dc:date>2026-01-08T16:37:37.544059</dc:date>
    <dc:format>image/svg+xml</dc:format>
    <dc:creator>
     <cc:Agent>
      <dc:title>Matplotlib v3.10.8, https://matplotlib.org/</dc:title>
     </cc:Agent>
    </dc:creator>
   </cc:Work>
  </rdf:RDF>
 </metadata>
 <defs>
  <style type="text/css">*{stroke-linejoin: round; stroke-linecap: butt}</style>
 </defs>
 <g id="figure_1">
  <g id="patch_1">
   <path d="M 0 336.384688 
L 613.117188 336.384688 
L 613.117188 0 
L 0 0 
z
" style="fill: #ffffff"/>
  </g>
  <g id="axes_1">
   <g id="patch_2">
    <path d="M 47.917188 299.518125 
L 605.917187 299.518125 
L 605.917187 22.318125 
L 47.917188 22.318125 
z
" style="fill: #ffffff"/>
   </g>
   <g id="FillBetweenPolyCollection_1">
    <path d="M 73.280824 200.739609 
L 73.280824 200.739609 
L 77.730585 216.566735 
L 82.180345 210.238514 
L 86.630106 199.784236 
L 91.079867 198.604737 
L 95.529628 189.151786 
L 99.979388 184.252032 
L 104.429149 185.701251 
L 108.87891 184.503513 
L 113.328671 217.360119 
L 117.778432 214.616282 
L 122.228192 209.753112 
L 126.677953 205.602281 
L 131.127714 210.923025 
L 135.577475 209.498661 
L 140.027235 211.11304 
L 144.476996 207.964318 
L 148.926757 206.2721 
L 153.376518 203.368221 
L 157.826278 203.369795 
L 162.276039 198.889749 
L 166.7258 203.528783 
L 171.175561 199.854882 
L 175.625321 197.864486 
L 180.075082 198.746515 
L 184.524843 203.283716 
L 188.974604 206.058438 
L 193.424365 204.310878 
L 197.874125 209.369487 
L 202.323886 192.25605 
L 206.773647 190.154231 
L 211.223408 190.13619 
L 215.673168 206.675769 
L 220.122929 207.972417 
L 224.57269 206.812578 
L 229.022451 201.739375 
L 233.472211 201.694494 
L 237.921972 205.32492 
L 242.371733 209.346382 
L 246.821494 222.474332 
L 251.271254 222.272876 
L 255.721015 218.18987 
L 260.170776 218.245924 
L 264.620537 220.480354 
L 269.070298 220.585689 
L 273.520058 218.989979 
L 277.969819 215.90387 
L 282.41958 215.620841 
L 286.869341 212.093332 
L 291.319101 212.814391 
L 295.768862 214.921884 
L 300.218623 221.845637 
L 304.668384 208.832249 
L 309.118144 201.119982 
L 313.567905 201.572848 
L 318.017666 201.527469 
L 322.467427 202.104508 
L 326.917188 198.510139 
L 331.366948 194.113571 
L 335.816709 172.89412 
L 340.26647 172.921736 
L 344.716231 172.489285 
L 349.165991 179.189046 
L 353.615752 182.810274 
L 358.065513 181.817618 
L 362.515274 183.505362 
L 366.965034 186.167823 
L 371.414795 186.003168 
L 375.864556 183.671769 
L 380.314317 181.465231 
L 384.764077 181.198744 
L 389.213838 171.594165 
L 393.663599 171.964096 
L 398.11336 178.828801 
L 402.563121 180.402982 
L 407.012881 180.417624 
L 411.462642 181.449206 
L 415.912403 182.762427 
L 420.362164 182.936375 
L 424.811924 182.944567 
L 429.261685 182.747657 
L 433.711446 188.140556 
L 438.161207 182.168732 
L 442.610967 189.030297 
L 447.060728 191.565537 
L 451.510489 190.452748 
L 455.96025 189.155799 
L 460.41001 189.340438 
L 464.859771 190.060179 
L 469.309532 190.229117 
L 473.759293 190.98291 
L 478.209054 193.5546 
L 482.658814 198.491781 
L 487.108575 194.12446 
L 491.558336 190.835424 
L 496.008097 193.097002 
L 500.457857 196.923562 
L 504.907618 200.714945 
L 509.357379 202.471902 
L 513.80714 203.331522 
L 518.2569 203.372413 
L 522.706661 198.894403 
L 527.156422 198.83387 
L 531.606183 188.311051 
L 536.055943 186.441877 
L 540.505704 182.860301 
L 544.955465 189.266239 
L 549.405226 188.943924 
L 553.854987 186.966126 
L 558.304747 194.145608 
L 562.754508 191.073426 
L 567.204269 196.384278 
L 571.65403 189.10213 
L 576.10379 187.58013 
L 580.553551 187.563327 
L 580.553551 97.124115 
L 580.553551 97.124115 
L 576.10379 97.3473 
L 571.65403 88.828227 
L 567.204269 92.01233 
L 562.754508 92.474665 
L 558.304747 95.313551 
L 553.854987 92.808229 
L 549.405226 95.986533 
L 544.955465 97.277662 
L 540.505704 87.652298 
L 536.055943 91.501944 
L 531.606183 92.529469 
L 527.156422 91.601838 
L 522.706661 92.098837 
L 518.2569 99.681793 
L 513.80714 95.186137 
L 509.357379 92.259113 
L 504.907618 90.156935 
L 500.457857 89.100327 
L 496.008097 88.558655 
L 491.558336 83.951623 
L 487.108575 87.196329 
L 482.658814 99.080318 
L 478.209054 98.641852 
L 473.759293 97.01574 
L 469.309532 96.819912 
L 464.859771 95.461701 
L 460.41001 94.960905 
L 455.96025 89.837603 
L 451.510489 100.00311 
L 447.060728 100.145783 
L 442.610967 96.47622 
L 438.161207 98.775593 
L 433.711446 102.044665 
L 429.261685 98.550573 
L 424.811924 103.896188 
L 420.362164 104.823152 
L 415.912403 103.574713 
L 411.462642 100.949204 
L 407.012881 100.30626 
L 402.563121 100.398536 
L 398.11336 99.991686 
L 393.663599 98.876994 
L 389.213838 98.791191 
L 384.764077 98.2052 
L 380.314317 98.255377 
L 375.864556 89.467232 
L 371.414795 90.242782 
L 366.965034 95.361085 
L 362.515274 92.238393 
L 358.065513 92.154678 
L 353.615752 94.396183 
L 349.165991 94.689249 
L 344.716231 93.258777 
L 340.26647 94.484871 
L 335.816709 94.456903 
L 331.366948 90.904015 
L 326.917188 94.612049 
L 322.467427 98.431007 
L 318.017666 91.999501 
L 313.567905 93.890251 
L 309.118144 93.44116 
L 304.668384 96.100433 
L 300.218623 95.57904 
L 295.768862 89.211163 
L 291.319101 86.635088 
L 286.869341 89.170376 
L 282.41958 89.685402 
L 277.969819 90.345078 
L 273.520058 94.76293 
L 269.070298 95.502758 
L 264.620537 95.273657 
L 260.170776 90.538189 
L 255.721015 85.183177 
L 251.271254 88.460414 
L 246.821494 88.839481 
L 242.371733 90.42112 
L 237.921972 86.831851 
L 233.472211 76.759303 
L 229.022451 79.124506 
L 224.57269 82.837917 
L 220.122929 83.718275 
L 215.673168 83.885299 
L 211.223408 84.588493 
L 206.773647 84.889819 
L 202.323886 86.764513 
L 197.874125 93.011138 
L 193.424365 91.966031 
L 188.974604 93.606262 
L 184.524843 91.706109 
L 180.075082 87.365075 
L 175.625321 81.867115 
L 171.175561 85.284342 
L 166.7258 93.549938 
L 162.276039 90.894397 
L 157.826278 92.590234 
L 153.376518 90.120756 
L 148.926757 90.951878 
L 144.476996 101.218974 
L 140.027235 105.484662 
L 135.577475 102.122217 
L 131.127714 99.583302 
L 126.677953 95.567837 
L 122.228192 96.316868 
L 117.778432 102.0732 
L 113.328671 98.746779 
L 108.87891 103.02392 
L 104.429149 99.051612 
L 99.979388 93.289584 
L 95.529628 89.565715 
L 91.079867 95.034591 
L 86.630106 132.01993 
L 82.180345 129.628962 
L 77.730585 108.492359 
L 73.280824 200.739609 
z
" clip-path="url(#p47999d32c3)" style="fill: #1f77b4; fill-opacity: 0.2"/>
   </g>
   <g id="matplotlib.axis_1">
    <g id="xtick_1">
     <g id="line2d_1">
      <path d="M 70.314317 299.518125 
L 70.314317 22.318125 
" clip-path="url(#p47999d32c3)" style="fill: none; stroke: #b0b0b0; stroke-opacity: 0.3; stroke-width: 0.8; stroke-linecap: square"/>
     </g>
     <g id="line2d_2">
      <defs>
       <path id="m72843f886b" d="M 0 0 
L 0 3.5 
" style="stroke: #000000; stroke-width: 0.8"/>
      </defs>
      <g>
       <use xlink:href="#m72843f886b" x="70.314317" y="299.518125" style="stroke: #000000; stroke-width: 0.8"/>
      </g>
     </g>
     <g id="text_1">
      <!-- 2.05 -->
      <g transform="translate(60.294785 313.356719) scale(0.09 -0.09)">
       <defs>
        <path id="DejaVuSans-32" d="M 1228 531 
L 3431 531 
L 3431 0 
L 469 0 
L 469 531 
Q 828 903 1448 1529 
Q 2069 2156 2228 2338 
Q 2531 2678 2651 2914 
Q 2772 3150 2772 3378 
Q 2772 3750 2511 3984 
Q 2250 4219 1831 4219 
Q 1534 4219 1204 4116 
Q 875 4013 500 3803 
L 500 4441 
Q 881 4594 1212 4672 
Q 1544 4750 1819 4750 
Q 2544 4750 2975 4387 
Q 3406 4025 3406 3419 
Q 3406 3131 3298 2873 
Q 3191 2616 2906 2266 
Q 2828 2175 2409 1742 
Q 1991 1309 1228 531 
z
" transform="scale(0.015625)"/>
        <path id="DejaVuSans-2e" d="M 684 794 
L 1344 794 
L 1344 0 
L 684 0 
L 684 794 
z
" transform="scale(0.015625)"/>
        <path id="DejaVuSans-30" d="M 2034 4250 
Q 1547 4250 1301 3770 
Q 1056 3291 1056 2328 
Q 1056 1369 1301 889 
Q 1547 409 2034 409 
Q 2525 409 2770 889 
Q 3016 1369 3016 2328 
Q 3016 3291 2770 3770 
Q 2525 4250 2034 4250 
z
M 2034 4750 
Q 2819 4750 3233 4129 
Q 3647 3509 3647 2328 
Q 3647 1150 3233 529 
Q 2819 -91 2034 -91 
Q 1250 -91 836 529 
Q 422 1150 422 2328 
Q 422 3509 836 4129 
Q 1250 4750 2034 4750 
z
" transform="scale(0.015625)"/>
        <path id="DejaVuSans-35" d="M 691 4666 
L 3169 4666 
L 3169 4134 
L 1269 4134 
L 1269 2991 
Q 1406 3038 1543 3061 
Q 1681 3084 1819 3084 
Q 2600 3084 3056 2656 
Q 3513 2228 3513 1497 
Q 3513 744 3044 326 
Q 2575 -91 1722 -91 
Q 1428 -91 1123 -41 
Q 819 9 494 109 
L 494 744 
Q 775 591 1075 516 
Q 1375 441 1709 441 
Q 2250 441 2565 725 
Q 2881 1009 2881 1497 
Q 2881 1984 2565 2268 
Q 2250 2553 1709 2553 
Q 1456 2553 1204 2497 
Q 953 2441 691 2322 
L 691 4666 
z
" transform="scale(0.015625)"/>
       </defs>
       <use xlink:href="#DejaVuSans-32"/>
       <use xlink:href="#DejaVuSans-2e" transform="translate(63.623047 0)"/>
       <use xlink:href="#DejaVuSans-30" transform="translate(95.410156 0)"/>
       <use xlink:href="#DejaVuSans-35" transform="translate(159.033203 0)"/>
      </g>
     </g>
    </g>
    <g id="xtick_2">
     <g id="line2d_3">
      <path d="M 144.476996 299.518125 
L 144.476996 22.318125 
" clip-path="url(#p47999d32c3)" style="fill: none; stroke: #b0b0b0; stroke-opacity: 0.3; stroke-width: 0.8; stroke-linecap: square"/>
     </g>
     <g id="line2d_4">
      <g>
       <use xlink:href="#m72843f886b" x="144.476996" y="299.518125" style="stroke: #000000; stroke-width: 0.8"/>
      </g>
     </g>
     <g id="text_2">
      <!-- 2.10 -->
      <g transform="translate(134.457465 313.356719) scale(0.09 -0.09)">
       <defs>
        <path id="DejaVuSans-31" d="M 794 531 
L 1825 531 
L 1825 4091 
L 703 3866 
L 703 4441 
L 1819 4666 
L 2450 4666 
L 2450 531 
L 3481 531 
L 3481 0 
L 794 0 
L 794 531 
z
" transform="scale(0.015625)"/>
       </defs>
       <use xlink:href="#DejaVuSans-32"/>
       <use xlink:href="#DejaVuSans-2e" transform="translate(63.623047 0)"/>
       <use xlink:href="#DejaVuSans-31" transform="translate(95.410156 0)"/>
       <use xlink:href="#DejaVuSans-30" transform="translate(159.033203 0)"/>
      </g>
     </g>
    </g>
    <g id="xtick_3">
     <g id="line2d_5">
      <path d="M 218.639676 299.518125 
L 218.639676 22.318125 
" clip-path="url(#p47999d32c3)" style="fill: none; stroke: #b0b0b0; stroke-opacity: 0.3; stroke-width: 0.8; stroke-linecap: square"/>
     </g>
     <g id="line2d_6">
      <g>
       <use xlink:href="#m72843f886b" x="218.639676" y="299.518125" style="stroke: #000000; stroke-width: 0.8"/>
      </g>
     </g>
     <g id="text_3">
      <!-- 2.15 -->
      <g transform="translate(208.620144 313.356719) scale(0.09 -0.09)">
       <use xlink:href="#DejaVuSans-32"/>
       <use xlink:href="#DejaVuSans-2e" transform="translate(63.623047 0)"/>
       <use xlink:href="#DejaVuSans-31" transform="translate(95.410156 0)"/>
       <use xlink:href="#DejaVuSans-35" transform="translate(159.033203 0)"/>
      </g>
     </g>
    </g>
    <g id="xtick_4">
     <g id="line2d_7">
      <path d="M 292.802355 299.518125 
L 292.802355 22.318125 
" clip-path="url(#p47999d32c3)" style="fill: none; stroke: #b0b0b0; stroke-opacity: 0.3; stroke-width: 0.8; stroke-linecap: square"/>
     </g>
     <g id="line2d_8">
      <g>
       <use xlink:href="#m72843f886b" x="292.802355" y="299.518125" style="stroke: #000000; stroke-width: 0.8"/>
      </g>
     </g>
     <g id="text_4">
      <!-- 2.20 -->
      <g transform="translate(282.782824 313.356719) scale(0.09 -0.09)">
       <use xlink:href="#DejaVuSans-32"/>
       <use xlink:href="#DejaVuSans-2e" transform="translate(63.623047 0)"/>
       <use xlink:href="#DejaVuSans-32" transform="translate(95.410156 0)"/>
       <use xlink:href="#DejaVuSans-30" transform="translate(159.033203 0)"/>
      </g>
     </g>
    </g>
    <g id="xtick_5">
     <g id="line2d_9">
      <path d="M 366.965034 299.518125 
L 366.965034 22.318125 
" clip-path="url(#p47999d32c3)" style="fill: none; stroke: #b0b0b0; stroke-opacity: 0.3; stroke-width: 0.8; stroke-linecap: square"/>
     </g>
     <g id="line2d_10">
      <g>
       <use xlink:href="#m72843f886b" x="366.965034" y="299.518125" style="stroke: #000000; stroke-width: 0.8"/>
      </g>
     </g>
     <g id="text_5">
      <!-- 2.25 -->
      <g transform="translate(356.945503 313.356719) scale(0.09 -0.09)">
       <use xlink:href="#DejaVuSans-32"/>
       <use xlink:href="#DejaVuSans-2e" transform="translate(63.623047 0)"/>
       <use xlink:href="#DejaVuSans-32" transform="translate(95.410156 0)"/>
       <use xlink:href="#DejaVuSans-35" transform="translate(159.033203 0)"/>
      </g>
     </g>
    </g>
    <g id="xtick_6">
     <g id="line2d_11">
      <path d="M 441.127714 299.518125 
L 441.127714 22.318125 
" clip-path="url(#p47999d32c3)" style="fill: none; stroke: #b0b0b0; stroke-opacity: 0.3; stroke-width: 0.8; stroke-linecap: square"/>
     </g>
     <g id="line2d_12">
      <g>
       <use xlink:href="#m72843f886b" x="441.127714" y="299.518125" style="stroke: #000000; stroke-width: 0.8"/>
      </g>
     </g>
     <g id="text_6">
      <!-- 2.30 -->
      <g transform="translate(431.108183 313.356719) scale(0.09 -0.09)">
       <defs>
        <path id="DejaVuSans-33" d="M 2597 2516 
Q 3050 2419 3304 2112 
Q 3559 1806 3559 1356 
Q 3559 666 3084 287 
Q 2609 -91 1734 -91 
Q 1441 -91 1130 -33 
Q 819 25 488 141 
L 488 750 
Q 750 597 1062 519 
Q 1375 441 1716 441 
Q 2309 441 2620 675 
Q 2931 909 2931 1356 
Q 2931 1769 2642 2001 
Q 2353 2234 1838 2234 
L 1294 2234 
L 1294 2753 
L 1863 2753 
Q 2328 2753 2575 2939 
Q 2822 3125 2822 3475 
Q 2822 3834 2567 4026 
Q 2313 4219 1838 4219 
Q 1578 4219 1281 4162 
Q 984 4106 628 3988 
L 628 4550 
Q 988 4650 1302 4700 
Q 1616 4750 1894 4750 
Q 2613 4750 3031 4423 
Q 3450 4097 3450 3541 
Q 3450 3153 3228 2886 
Q 3006 2619 2597 2516 
z
" transform="scale(0.015625)"/>
       </defs>
       <use xlink:href="#DejaVuSans-32"/>
       <use xlink:href="#DejaVuSans-2e" transform="translate(63.623047 0)"/>
       <use xlink:href="#DejaVuSans-33" transform="translate(95.410156 0)"/>
       <use xlink:href="#DejaVuSans-30" transform="translate(159.033203 0)"/>
      </g>
     </g>
    </g>
    <g id="xtick_7">
     <g id="line2d_13">
      <path d="M 515.290393 299.518125 
L 515.290393 22.318125 
" clip-path="url(#p47999d32c3)" style="fill: none; stroke: #b0b0b0; stroke-opacity: 0.3; stroke-width: 0.8; stroke-linecap: square"/>
     </g>
     <g id="line2d_14">
      <g>
       <use xlink:href="#m72843f886b" x="515.290393" y="299.518125" style="stroke: #000000; stroke-width: 0.8"/>
      </g>
     </g>
     <g id="text_7">
      <!-- 2.35 -->
      <g transform="translate(505.270862 313.356719) scale(0.09 -0.09)">
       <use xlink:href="#DejaVuSans-32"/>
       <use xlink:href="#DejaVuSans-2e" transform="translate(63.623047 0)"/>
       <use xlink:href="#DejaVuSans-33" transform="translate(95.410156 0)"/>
       <use xlink:href="#DejaVuSans-35" transform="translate(159.033203 0)"/>
      </g>
     </g>
    </g>
    <g id="xtick_8">
     <g id="line2d_15">
      <path d="M 589.453073 299.518125 
L 589.453073 22.318125 
" clip-path="url(#p47999d32c3)" style="fill: none; stroke: #b0b0b0; stroke-opacity: 0.3; stroke-width: 0.8; stroke-linecap: square"/>
     </g>
     <g id="line2d_16">
      <g>
       <use xlink:href="#m72843f886b" x="589.453073" y="299.518125" style="stroke: #000000; stroke-width: 0.8"/>
      </g>
     </g>
     <g id="text_8">
      <!-- 2.40 -->
      <g transform="translate(579.433541 313.356719) scale(0.09 -0.09)">
       <defs>
        <path id="DejaVuSans-34" d="M 2419 4116 
L 825 1625 
L 2419 1625 
L 2419 4116 
z
M 2253 4666 
L 3047 4666 
L 3047 1625 
L 3713 1625 
L 3713 1100 
L 3047 1100 
L 3047 0 
L 2419 0 
L 2419 1100 
L 313 1100 
L 313 1709 
L 2253 4666 
z
" transform="scale(0.015625)"/>
       </defs>
       <use xlink:href="#DejaVuSans-32"/>
       <use xlink:href="#DejaVuSans-2e" transform="translate(63.623047 0)"/>
       <use xlink:href="#DejaVuSans-34" transform="translate(95.410156 0)"/>
       <use xlink:href="#DejaVuSans-30" transform="translate(159.033203 0)"/>
      </g>
     </g>
    </g>
    <g id="text_9">
     <!-- open_time_ms -->
     <g transform="translate(290.667188 326.826875) scale(0.1 -0.1)">
      <defs>
       <path id="DejaVuSans-6f" d="M 1959 3097 
Q 1497 3097 1228 2736 
Q 959 2375 959 1747 
Q 959 1119 1226 758 
Q 1494 397 1959 397 
Q 2419 397 2687 759 
Q 2956 1122 2956 1747 
Q 2956 2369 2687 2733 
Q 2419 3097 1959 3097 
z
M 1959 3584 
Q 2709 3584 3137 3096 
Q 3566 2609 3566 1747 
Q 3566 888 3137 398 
Q 2709 -91 1959 -91 
Q 1206 -91 779 398 
Q 353 888 353 1747 
Q 353 2609 779 3096 
Q 1206 3584 1959 3584 
z
" transform="scale(0.015625)"/>
       <path id="DejaVuSans-70" d="M 1159 525 
L 1159 -1331 
L 581 -1331 
L 581 3500 
L 1159 3500 
L 1159 2969 
Q 1341 3281 1617 3432 
Q 1894 3584 2278 3584 
Q 2916 3584 3314 3078 
Q 3713 2572 3713 1747 
Q 3713 922 3314 415 
Q 2916 -91 2278 -91 
Q 1894 -91 1617 61 
Q 1341 213 1159 525 
z
M 3116 1747 
Q 3116 2381 2855 2742 
Q 2594 3103 2138 3103 
Q 1681 3103 1420 2742 
Q 1159 2381 1159 1747 
Q 1159 1113 1420 752 
Q 1681 391 2138 391 
Q 2594 391 2855 752 
Q 3116 1113 3116 1747 
z
" transform="scale(0.015625)"/>
       <path id="DejaVuSans-65" d="M 3597 1894 
L 3597 1613 
L 953 1613 
Q 991 1019 1311 708 
Q 1631 397 2203 397 
Q 2534 397 2845 478 
Q 3156 559 3463 722 
L 3463 178 
Q 3153 47 2828 -22 
Q 2503 -91 2169 -91 
Q 1331 -91 842 396 
Q 353 884 353 1716 
Q 353 2575 817 3079 
Q 1281 3584 2069 3584 
Q 2775 3584 3186 3129 
Q 3597 2675 3597 1894 
z
M 3022 2063 
Q 3016 2534 2758 2815 
Q 2500 3097 2075 3097 
Q 1594 3097 1305 2825 
Q 1016 2553 972 2059 
L 3022 2063 
z
" transform="scale(0.015625)"/>
       <path id="DejaVuSans-6e" d="M 3513 2113 
L 3513 0 
L 2938 0 
L 2938 2094 
Q 2938 2591 2744 2837 
Q 2550 3084 2163 3084 
Q 1697 3084 1428 2787 
Q 1159 2491 1159 1978 
L 1159 0 
L 581 0 
L 581 3500 
L 1159 3500 
L 1159 2956 
Q 1366 3272 1645 3428 
Q 1925 3584 2291 3584 
Q 2894 3584 3203 3211 
Q 3513 2838 3513 2113 
z
" transform="scale(0.015625)"/>
       <path id="DejaVuSans-5f" d="M 3263 -1063 
L 3263 -1509 
L -63 -1509 
L -63 -1063 
L 3263 -1063 
z
" transform="scale(0.015625)"/>
       <path id="DejaVuSans-74" d="M 1172 4494 
L 1172 3500 
L 2356 3500 
L 2356 3053 
L 1172 3053 
L 1172 1153 
Q 1172 725 1289 603 
Q 1406 481 1766 481 
L 2356 481 
L 2356 0 
L 1766 0 
Q 1100 0 847 248 
Q 594 497 594 1153 
L 594 3053 
L 172 3053 
L 172 3500 
L 594 3500 
L 594 4494 
L 1172 4494 
z
" transform="scale(0.015625)"/>
       <path id="DejaVuSans-69" d="M 603 3500 
L 1178 3500 
L 1178 0 
L 603 0 
L 603 3500 
z
M 603 4863 
L 1178 4863 
L 1178 4134 
L 603 4134 
L 603 4863 
z
" transform="scale(0.015625)"/>
       <path id="DejaVuSans-6d" d="M 3328 2828 
Q 3544 3216 3844 3400 
Q 4144 3584 4550 3584 
Q 5097 3584 5394 3201 
Q 5691 2819 5691 2113 
L 5691 0 
L 5113 0 
L 5113 2094 
Q 5113 2597 4934 2840 
Q 4756 3084 4391 3084 
Q 3944 3084 3684 2787 
Q 3425 2491 3425 1978 
L 3425 0 
L 2847 0 
L 2847 2094 
Q 2847 2600 2669 2842 
Q 2491 3084 2119 3084 
Q 1678 3084 1418 2786 
Q 1159 2488 1159 1978 
L 1159 0 
L 581 0 
L 581 3500 
L 1159 3500 
L 1159 2956 
Q 1356 3278 1631 3431 
Q 1906 3584 2284 3584 
Q 2666 3584 2933 3390 
Q 3200 3197 3328 2828 
z
" transform="scale(0.015625)"/>
       <path id="DejaVuSans-73" d="M 2834 3397 
L 2834 2853 
Q 2591 2978 2328 3040 
Q 2066 3103 1784 3103 
Q 1356 3103 1142 2972 
Q 928 2841 928 2578 
Q 928 2378 1081 2264 
Q 1234 2150 1697 2047 
L 1894 2003 
Q 2506 1872 2764 1633 
Q 3022 1394 3022 966 
Q 3022 478 2636 193 
Q 2250 -91 1575 -91 
Q 1294 -91 989 -36 
Q 684 19 347 128 
L 347 722 
Q 666 556 975 473 
Q 1284 391 1588 391 
Q 1994 391 2212 530 
Q 2431 669 2431 922 
Q 2431 1156 2273 1281 
Q 2116 1406 1581 1522 
L 1381 1569 
Q 847 1681 609 1914 
Q 372 2147 372 2553 
Q 372 3047 722 3315 
Q 1072 3584 1716 3584 
Q 2034 3584 2315 3537 
Q 2597 3491 2834 3397 
z
" transform="scale(0.015625)"/>
      </defs>
      <use xlink:href="#DejaVuSans-6f"/>
      <use xlink:href="#DejaVuSans-70" transform="translate(61.181641 0)"/>
      <use xlink:href="#DejaVuSans-65" transform="translate(124.658203 0)"/>
      <use xlink:href="#DejaVuSans-6e" transform="translate(186.181641 0)"/>
      <use xlink:href="#DejaVuSans-5f" transform="translate(249.560547 0)"/>
      <use xlink:href="#DejaVuSans-74" transform="translate(299.560547 0)"/>
      <use xlink:href="#DejaVuSans-69" transform="translate(338.769531 0)"/>
      <use xlink:href="#DejaVuSans-6d" transform="translate(366.552734 0)"/>
      <use xlink:href="#DejaVuSans-65" transform="translate(463.964844 0)"/>
      <use xlink:href="#DejaVuSans-5f" transform="translate(525.488281 0)"/>
      <use xlink:href="#DejaVuSans-6d" transform="translate(575.488281 0)"/>
      <use xlink:href="#DejaVuSans-73" transform="translate(672.900391 0)"/>
     </g>
    </g>
    <g id="text_10">
     <!-- 1e8 -->
     <g transform="translate(588.926875 325.067031) scale(0.09 -0.09)">
      <defs>
       <path id="DejaVuSans-38" d="M 2034 2216 
Q 1584 2216 1326 1975 
Q 1069 1734 1069 1313 
Q 1069 891 1326 650 
Q 1584 409 2034 409 
Q 2484 409 2743 651 
Q 3003 894 3003 1313 
Q 3003 1734 2745 1975 
Q 2488 2216 2034 2216 
z
M 1403 2484 
Q 997 2584 770 2862 
Q 544 3141 544 3541 
Q 544 4100 942 4425 
Q 1341 4750 2034 4750 
Q 2731 4750 3128 4425 
Q 3525 4100 3525 3541 
Q 3525 3141 3298 2862 
Q 3072 2584 2669 2484 
Q 3125 2378 3379 2068 
Q 3634 1759 3634 1313 
Q 3634 634 3220 271 
Q 2806 -91 2034 -91 
Q 1263 -91 848 271 
Q 434 634 434 1313 
Q 434 1759 690 2068 
Q 947 2378 1403 2484 
z
M 1172 3481 
Q 1172 3119 1398 2916 
Q 1625 2713 2034 2713 
Q 2441 2713 2670 2916 
Q 2900 3119 2900 3481 
Q 2900 3844 2670 4047 
Q 2441 4250 2034 4250 
Q 1625 4250 1398 4047 
Q 1172 3844 1172 3481 
z
" transform="scale(0.015625)"/>
      </defs>
      <use xlink:href="#DejaVuSans-31"/>
      <use xlink:href="#DejaVuSans-65" transform="translate(63.623047 0)"/>
      <use xlink:href="#DejaVuSans-38" transform="translate(125.146484 0)"/>
     </g>
    </g>
   </g>
   <g id="matplotlib.axis_2">
    <g id="ytick_1">
     <g id="line2d_17">
      <path d="M 47.917188 299.310049 
L 605.917187 299.310049 
" clip-path="url(#p47999d32c3)" style="fill: none; stroke: #b0b0b0; stroke-opacity: 0.3; stroke-width: 0.8; stroke-linecap: square"/>
     </g>
     <g id="line2d_18">
      <defs>
       <path id="m2349bc0539" d="M 0 0 
L -3.5 0 
" style="stroke: #000000; stroke-width: 0.8"/>
      </defs>
      <g>
       <use xlink:href="#m2349bc0539" x="47.917188" y="299.310049" style="stroke: #000000; stroke-width: 0.8"/>
      </g>
     </g>
     <g id="text_11">
      <!-- 0.46 -->
      <g transform="translate(20.878125 302.729346) scale(0.09 -0.09)">
       <defs>
        <path id="DejaVuSans-36" d="M 2113 2584 
Q 1688 2584 1439 2293 
Q 1191 2003 1191 1497 
Q 1191 994 1439 701 
Q 1688 409 2113 409 
Q 2538 409 2786 701 
Q 3034 994 3034 1497 
Q 3034 2003 2786 2293 
Q 2538 2584 2113 2584 
z
M 3366 4563 
L 3366 3988 
Q 3128 4100 2886 4159 
Q 2644 4219 2406 4219 
Q 1781 4219 1451 3797 
Q 1122 3375 1075 2522 
Q 1259 2794 1537 2939 
Q 1816 3084 2150 3084 
Q 2853 3084 3261 2657 
Q 3669 2231 3669 1497 
Q 3669 778 3244 343 
Q 2819 -91 2113 -91 
Q 1303 -91 875 529 
Q 447 1150 447 2328 
Q 447 3434 972 4092 
Q 1497 4750 2381 4750 
Q 2619 4750 2861 4703 
Q 3103 4656 3366 4563 
z
" transform="scale(0.015625)"/>
       </defs>
       <use xlink:href="#DejaVuSans-30"/>
       <use xlink:href="#DejaVuSans-2e" transform="translate(63.623047 0)"/>
       <use xlink:href="#DejaVuSans-34" transform="translate(95.410156 0)"/>
       <use xlink:href="#DejaVuSans-36" transform="translate(159.033203 0)"/>
      </g>
     </g>
    </g>
    <g id="ytick_2">
     <g id="line2d_19">
      <path d="M 47.917188 247.50117 
L 605.917187 247.50117 
" clip-path="url(#p47999d32c3)" style="fill: none; stroke: #b0b0b0; stroke-opacity: 0.3; stroke-width: 0.8; stroke-linecap: square"/>
     </g>
     <g id="line2d_20">
      <g>
       <use xlink:href="#m2349bc0539" x="47.917188" y="247.50117" style="stroke: #000000; stroke-width: 0.8"/>
      </g>
     </g>
     <g id="text_12">
      <!-- 0.47 -->
      <g transform="translate(20.878125 250.920466) scale(0.09 -0.09)">
       <defs>
        <path id="DejaVuSans-37" d="M 525 4666 
L 3525 4666 
L 3525 4397 
L 1831 0 
L 1172 0 
L 2766 4134 
L 525 4134 
L 525 4666 
z
" transform="scale(0.015625)"/>
       </defs>
       <use xlink:href="#DejaVuSans-30"/>
       <use xlink:href="#DejaVuSans-2e" transform="translate(63.623047 0)"/>
       <use xlink:href="#DejaVuSans-34" transform="translate(95.410156 0)"/>
       <use xlink:href="#DejaVuSans-37" transform="translate(159.033203 0)"/>
      </g>
     </g>
    </g>
    <g id="ytick_3">
     <g id="line2d_21">
      <path d="M 47.917188 195.69229 
L 605.917187 195.69229 
" clip-path="url(#p47999d32c3)" style="fill: none; stroke: #b0b0b0; stroke-opacity: 0.3; stroke-width: 0.8; stroke-linecap: square"/>
     </g>
     <g id="line2d_22">
      <g>
       <use xlink:href="#m2349bc0539" x="47.917188" y="195.69229" style="stroke: #000000; stroke-width: 0.8"/>
      </g>
     </g>
     <g id="text_13">
      <!-- 0.48 -->
      <g transform="translate(20.878125 199.111587) scale(0.09 -0.09)">
       <use xlink:href="#DejaVuSans-30"/>
       <use xlink:href="#DejaVuSans-2e" transform="translate(63.623047 0)"/>
       <use xlink:href="#DejaVuSans-34" transform="translate(95.410156 0)"/>
       <use xlink:href="#DejaVuSans-38" transform="translate(159.033203 0)"/>
      </g>
     </g>
    </g>
    <g id="ytick_4">
     <g id="line2d_23">
      <path d="M 47.917188 143.883411 
L 605.917187 143.883411 
" clip-path="url(#p47999d32c3)" style="fill: none; stroke: #b0b0b0; stroke-opacity: 0.3; stroke-width: 0.8; stroke-linecap: square"/>
     </g>
     <g id="line2d_24">
      <g>
       <use xlink:href="#m2349bc0539" x="47.917188" y="143.883411" style="stroke: #000000; stroke-width: 0.8"/>
      </g>
     </g>
     <g id="text_14">
      <!-- 0.49 -->
      <g transform="translate(20.878125 147.302707) scale(0.09 -0.09)">
       <defs>
        <path id="DejaVuSans-39" d="M 703 97 
L 703 672 
Q 941 559 1184 500 
Q 1428 441 1663 441 
Q 2288 441 2617 861 
Q 2947 1281 2994 2138 
Q 2813 1869 2534 1725 
Q 2256 1581 1919 1581 
Q 1219 1581 811 2004 
Q 403 2428 403 3163 
Q 403 3881 828 4315 
Q 1253 4750 1959 4750 
Q 2769 4750 3195 4129 
Q 3622 3509 3622 2328 
Q 3622 1225 3098 567 
Q 2575 -91 1691 -91 
Q 1453 -91 1209 -44 
Q 966 3 703 97 
z
M 1959 2075 
Q 2384 2075 2632 2365 
Q 2881 2656 2881 3163 
Q 2881 3666 2632 3958 
Q 2384 4250 1959 4250 
Q 1534 4250 1286 3958 
Q 1038 3666 1038 3163 
Q 1038 2656 1286 2365 
Q 1534 2075 1959 2075 
z
" transform="scale(0.015625)"/>
       </defs>
       <use xlink:href="#DejaVuSans-30"/>
       <use xlink:href="#DejaVuSans-2e" transform="translate(63.623047 0)"/>
       <use xlink:href="#DejaVuSans-34" transform="translate(95.410156 0)"/>
       <use xlink:href="#DejaVuSans-39" transform="translate(159.033203 0)"/>
      </g>
     </g>
    </g>
    <g id="ytick_5">
     <g id="line2d_25">
      <path d="M 47.917188 92.074531 
L 605.917187 92.074531 
" clip-path="url(#p47999d32c3)" style="fill: none; stroke: #b0b0b0; stroke-opacity: 0.3; stroke-width: 0.8; stroke-linecap: square"/>
     </g>
     <g id="line2d_26">
      <g>
       <use xlink:href="#m2349bc0539" x="47.917188" y="92.074531" style="stroke: #000000; stroke-width: 0.8"/>
      </g>
     </g>
     <g id="text_15">
      <!-- 0.50 -->
      <g transform="translate(20.878125 95.493828) scale(0.09 -0.09)">
       <use xlink:href="#DejaVuSans-30"/>
       <use xlink:href="#DejaVuSans-2e" transform="translate(63.623047 0)"/>
       <use xlink:href="#DejaVuSans-35" transform="translate(95.410156 0)"/>
       <use xlink:href="#DejaVuSans-30" transform="translate(159.033203 0)"/>
      </g>
     </g>
    </g>
    <g id="ytick_6">
     <g id="line2d_27">
      <path d="M 47.917188 40.265652 
L 605.917187 40.265652 
" clip-path="url(#p47999d32c3)" style="fill: none; stroke: #b0b0b0; stroke-opacity: 0.3; stroke-width: 0.8; stroke-linecap: square"/>
     </g>
     <g id="line2d_28">
      <g>
       <use xlink:href="#m2349bc0539" x="47.917188" y="40.265652" style="stroke: #000000; stroke-width: 0.8"/>
      </g>
     </g>
     <g id="text_16">
      <!-- 0.51 -->
      <g transform="translate(20.878125 43.684948) scale(0.09 -0.09)">
       <use xlink:href="#DejaVuSans-30"/>
       <use xlink:href="#DejaVuSans-2e" transform="translate(63.623047 0)"/>
       <use xlink:href="#DejaVuSans-35" transform="translate(95.410156 0)"/>
       <use xlink:href="#DejaVuSans-31" transform="translate(159.033203 0)"/>
      </g>
     </g>
    </g>
    <g id="text_17">
     <!-- Probability -->
     <g transform="translate(14.798438 187.347031) rotate(-90) scale(0.1 -0.1)">
      <defs>
       <path id="DejaVuSans-50" d="M 1259 4147 
L 1259 2394 
L 2053 2394 
Q 2494 2394 2734 2622 
Q 2975 2850 2975 3272 
Q 2975 3691 2734 3919 
Q 2494 4147 2053 4147 
L 1259 4147 
z
M 628 4666 
L 2053 4666 
Q 2838 4666 3239 4311 
Q 3641 3956 3641 3272 
Q 3641 2581 3239 2228 
Q 2838 1875 2053 1875 
L 1259 1875 
L 1259 0 
L 628 0 
L 628 4666 
z
" transform="scale(0.015625)"/>
       <path id="DejaVuSans-72" d="M 2631 2963 
Q 2534 3019 2420 3045 
Q 2306 3072 2169 3072 
Q 1681 3072 1420 2755 
Q 1159 2438 1159 1844 
L 1159 0 
L 581 0 
L 581 3500 
L 1159 3500 
L 1159 2956 
Q 1341 3275 1631 3429 
Q 1922 3584 2338 3584 
Q 2397 3584 2469 3576 
Q 2541 3569 2628 3553 
L 2631 2963 
z
" transform="scale(0.015625)"/>
       <path id="DejaVuSans-62" d="M 3116 1747 
Q 3116 2381 2855 2742 
Q 2594 3103 2138 3103 
Q 1681 3103 1420 2742 
Q 1159 2381 1159 1747 
Q 1159 1113 1420 752 
Q 1681 391 2138 391 
Q 2594 391 2855 752 
Q 3116 1113 3116 1747 
z
M 1159 2969 
Q 1341 3281 1617 3432 
Q 1894 3584 2278 3584 
Q 2916 3584 3314 3078 
Q 3713 2572 3713 1747 
Q 3713 922 3314 415 
Q 2916 -91 2278 -91 
Q 1894 -91 1617 61 
Q 1341 213 1159 525 
L 1159 0 
L 581 0 
L 581 4863 
L 1159 4863 
L 1159 2969 
z
" transform="scale(0.015625)"/>
       <path id="DejaVuSans-61" d="M 2194 1759 
Q 1497 1759 1228 1600 
Q 959 1441 959 1056 
Q 959 750 1161 570 
Q 1363 391 1709 391 
Q 2188 391 2477 730 
Q 2766 1069 2766 1631 
L 2766 1759 
L 2194 1759 
z
M 3341 1997 
L 3341 0 
L 2766 0 
L 2766 531 
Q 2569 213 2275 61 
Q 1981 -91 1556 -91 
Q 1019 -91 701 211 
Q 384 513 384 1019 
Q 384 1609 779 1909 
Q 1175 2209 1959 2209 
L 2766 2209 
L 2766 2266 
Q 2766 2663 2505 2880 
Q 2244 3097 1772 3097 
Q 1472 3097 1187 3025 
Q 903 2953 641 2809 
L 641 3341 
Q 956 3463 1253 3523 
Q 1550 3584 1831 3584 
Q 2591 3584 2966 3190 
Q 3341 2797 3341 1997 
z
" transform="scale(0.015625)"/>
       <path id="DejaVuSans-6c" d="M 603 4863 
L 1178 4863 
L 1178 0 
L 603 0 
L 603 4863 
z
" transform="scale(0.015625)"/>
       <path id="DejaVuSans-79" d="M 2059 -325 
Q 1816 -950 1584 -1140 
Q 1353 -1331 966 -1331 
L 506 -1331 
L 506 -850 
L 844 -850 
Q 1081 -850 1212 -737 
Q 1344 -625 1503 -206 
L 1606 56 
L 191 3500 
L 800 3500 
L 1894 763 
L 2988 3500 
L 3597 3500 
L 2059 -325 
z
" transform="scale(0.015625)"/>
      </defs>
      <use xlink:href="#DejaVuSans-50"/>
      <use xlink:href="#DejaVuSans-72" transform="translate(58.552734 0)"/>
      <use xlink:href="#DejaVuSans-6f" transform="translate(97.416016 0)"/>
      <use xlink:href="#DejaVuSans-62" transform="translate(158.597656 0)"/>
      <use xlink:href="#DejaVuSans-61" transform="translate(222.074219 0)"/>
      <use xlink:href="#DejaVuSans-62" transform="translate(283.353516 0)"/>
      <use xlink:href="#DejaVuSans-69" transform="translate(346.830078 0)"/>
      <use xlink:href="#DejaVuSans-6c" transform="translate(374.613281 0)"/>
      <use xlink:href="#DejaVuSans-69" transform="translate(402.396484 0)"/>
      <use xlink:href="#DejaVuSans-74" transform="translate(430.179688 0)"/>
      <use xlink:href="#DejaVuSans-79" transform="translate(469.388672 0)"/>
     </g>
    </g>
   </g>
   <g id="line2d_29">
    <path d="M 73.280824 200.739609 
L 77.730585 124.319484 
L 82.180345 184.742121 
L 86.630106 153.807118 
L 91.079867 70.489989 
L 95.529628 102.054182 
L 99.979388 135.243152 
L 104.429149 167.615796 
L 108.87891 154.861996 
L 113.328671 286.661045 
L 117.778432 161.257656 
L 122.228192 94.627731 
L 126.677953 121.185886 
L 131.127714 215.938527 
L 135.577475 163.612294 
L 140.027235 195.625026 
L 144.476996 95.276376 
L 148.926757 46.957814 
L 153.376518 113.129473 
L 157.826278 171.455014 
L 162.276039 138.980773 
L 166.7258 197.265244 
L 171.175561 65.347151 
L 175.625321 99.730887 
L 180.075082 134.289871 
L 184.524843 190.836542 
L 188.974604 181.991904 
L 193.424365 133.737882 
L 197.874125 215.899154 
L 202.323886 53.060418 
L 206.773647 121.492529 
L 211.223408 91.43407 
L 215.673168 279.549729 
L 220.122929 227.234768 
L 224.57269 143.210321 
L 229.022451 107.758891 
L 233.472211 71.175536 
L 237.921972 183.987556 
L 242.371733 189.236777 
L 246.821494 286.918125 
L 251.271254 133.175548 
L 255.721015 123.662811 
L 260.170776 119.457813 
L 264.620537 169.429871 
L 269.070298 137.634229 
L 273.520058 167.481157 
L 277.969819 106.952292 
L 282.41958 124.310838 
L 286.869341 175.473802 
L 291.319101 34.918125 
L 295.768862 168.328209 
L 300.218623 224.350375 
L 304.668384 154.629775 
L 309.118144 123.519371 
L 313.567905 152.229897 
L 318.017666 88.39759 
L 322.467427 141.260989 
L 326.917188 109.854287 
L 331.366948 108.190754 
L 335.816709 110.252491 
L 340.26647 133.731397 
L 344.716231 107.077358 
L 349.165991 200.760144 
L 353.615752 202.711483 
L 358.065513 105.29262 
L 362.515274 185.195755 
L 366.965034 164.803818 
L 371.414795 71.481253 
L 375.864556 144.404315 
L 380.314317 100.734195 
L 384.764077 165.161569 
L 389.213838 134.164496 
L 393.663599 159.187119 
L 398.11336 203.313344 
L 402.563121 172.0402 
L 407.012881 87.621254 
L 411.462642 158.006248 
L 415.912403 149.241591 
L 420.362164 122.414621 
L 424.811924 101.064771 
L 429.261685 78.306152 
L 433.711446 195.947264 
L 438.161207 108.351179 
L 442.610967 248.333405 
L 447.060728 167.340651 
L 451.510489 172.641134 
L 455.96025 50.179267 
L 460.41001 124.560661 
L 464.859771 156.609678 
L 469.309532 116.005682 
L 473.759293 174.657785 
L 478.209054 176.14252 
L 482.658814 212.943582 
L 487.108575 40.800242 
L 491.558336 106.702778 
L 496.008097 156.307358 
L 500.457857 201.688566 
L 504.907618 197.721503 
L 509.357379 161.00598 
L 513.80714 138.93121 
L 518.2569 123.671612 
L 522.706661 75.33761 
L 527.156422 102.775859 
L 531.606183 152.38152 
L 536.055943 138.373663 
L 540.505704 98.328913 
L 544.955465 210.492288 
L 549.405226 108.426218 
L 553.854987 105.048664 
L 558.304747 212.85372 
L 562.754508 115.547107 
L 567.204269 224.627682 
L 571.65403 108.28108 
L 576.10379 110.770975 
L 580.553551 104.3029 
" clip-path="url(#p47999d32c3)" style="fill: none; stroke: #1f77b4; stroke-opacity: 0.6; stroke-width: 1.5; stroke-linecap: square"/>
   </g>
   <g id="line2d_30">
    <path d="M 73.280824 200.739609 
L 77.730585 162.529547 
L 82.180345 169.933738 
L 86.630106 165.902083 
L 91.079867 146.819664 
L 95.529628 139.358751 
L 99.979388 138.770808 
L 104.429149 142.376431 
L 108.87891 143.763716 
L 113.328671 158.053449 
L 117.778432 158.344741 
L 122.228192 153.03499 
L 126.677953 150.585059 
L 131.127714 155.253164 
L 135.577475 155.810439 
L 140.027235 158.298851 
L 144.476996 154.591646 
L 148.926757 148.611989 
L 153.376518 146.744488 
L 157.826278 147.980014 
L 162.276039 144.892073 
L 166.7258 148.539361 
L 171.175561 142.569612 
L 175.625321 139.865801 
L 180.075082 143.055795 
L 184.524843 147.494913 
L 188.974604 149.83235 
L 193.424365 148.138455 
L 197.874125 151.190312 
L 202.323886 139.510281 
L 206.773647 137.522025 
L 211.223408 137.362342 
L 215.673168 145.280534 
L 220.122929 145.845346 
L 224.57269 144.825247 
L 229.022451 140.43194 
L 233.472211 139.226898 
L 237.921972 146.078386 
L 242.371733 149.883751 
L 246.821494 155.656906 
L 251.271254 155.366645 
L 255.721015 151.686523 
L 260.170776 154.392057 
L 264.620537 157.877006 
L 269.070298 158.044224 
L 273.520058 156.876454 
L 277.969819 153.124474 
L 282.41958 152.653122 
L 286.869341 150.631854 
L 291.319101 149.724739 
L 295.768862 152.066523 
L 300.218623 158.712339 
L 304.668384 152.466341 
L 309.118144 147.280571 
L 313.567905 147.73155 
L 318.017666 146.763485 
L 322.467427 150.267758 
L 326.917188 146.561094 
L 331.366948 142.508793 
L 335.816709 133.675511 
L 340.26647 133.703304 
L 344.716231 132.874031 
L 349.165991 136.939148 
L 353.615752 138.603228 
L 358.065513 136.986148 
L 362.515274 137.871878 
L 366.965034 140.764454 
L 371.414795 138.122975 
L 375.864556 136.5695 
L 380.314317 139.860304 
L 384.764077 139.701972 
L 389.213838 135.192678 
L 393.663599 135.420545 
L 398.11336 139.410244 
L 402.563121 140.400759 
L 407.012881 140.361942 
L 411.462642 141.199205 
L 415.912403 143.16857 
L 420.362164 143.879764 
L 424.811924 143.420378 
L 429.261685 140.649115 
L 433.711446 145.092611 
L 438.161207 140.472162 
L 442.610967 142.753258 
L 447.060728 145.85566 
L 451.510489 145.227929 
L 455.96025 139.496701 
L 460.41001 142.150672 
L 464.859771 142.76094 
L 469.309532 143.524514 
L 473.759293 143.999325 
L 478.209054 146.098226 
L 482.658814 148.786049 
L 487.108575 140.660394 
L 491.558336 137.393523 
L 496.008097 140.827828 
L 500.457857 143.011944 
L 504.907618 145.43594 
L 509.357379 147.365508 
L 513.80714 149.25883 
L 518.2569 151.527103 
L 522.706661 145.49662 
L 527.156422 145.217854 
L 531.606183 140.42026 
L 536.055943 138.97191 
L 540.505704 135.256299 
L 544.955465 143.27195 
L 549.405226 142.465228 
L 553.854987 139.887178 
L 558.304747 144.729579 
L 562.754508 141.774046 
L 567.204269 144.198304 
L 571.65403 138.965179 
L 576.10379 142.463715 
L 580.553551 142.343721 
" clip-path="url(#p47999d32c3)" style="fill: none; stroke: #ff7f0e; stroke-width: 1.5; stroke-linecap: square"/>
   </g>
   <g id="patch_3">
    <path d="M 47.917188 299.518125 
L 47.917188 22.318125 
" style="fill: none; stroke: #000000; stroke-width: 0.8; stroke-linejoin: miter; stroke-linecap: square"/>
   </g>
   <g id="patch_4">
    <path d="M 605.917187 299.518125 
L 605.917187 22.318125 
" style="fill: none; stroke: #000000; stroke-width: 0.8; stroke-linejoin: miter; stroke-linecap: square"/>
   </g>
   <g id="patch_5">
    <path d="M 47.917188 299.518125 
L 605.917188 299.518125 
" style="fill: none; stroke: #000000; stroke-width: 0.8; stroke-linejoin: miter; stroke-linecap: square"/>
   </g>
   <g id="patch_6">
    <path d="M 47.917188 22.318125 
L 605.917188 22.318125 
" style="fill: none; stroke: #000000; stroke-width: 0.8; stroke-linejoin: miter; stroke-linecap: square"/>
   </g>
   <g id="text_18">
    <!-- supervised_up Probability Over Time -->
    <g transform="translate(217.016875 16.318125) scale(0.12 -0.12)">
     <defs>
      <path id="DejaVuSans-75" d="M 544 1381 
L 544 3500 
L 1119 3500 
L 1119 1403 
Q 1119 906 1312 657 
Q 1506 409 1894 409 
Q 2359 409 2629 706 
Q 2900 1003 2900 1516 
L 2900 3500 
L 3475 3500 
L 3475 0 
L 2900 0 
L 2900 538 
Q 2691 219 2414 64 
Q 2138 -91 1772 -91 
Q 1169 -91 856 284 
Q 544 659 544 1381 
z
M 1991 3584 
L 1991 3584 
z
" transform="scale(0.015625)"/>
      <path id="DejaVuSans-76" d="M 191 3500 
L 800 3500 
L 1894 563 
L 2988 3500 
L 3597 3500 
L 2284 0 
L 1503 0 
L 191 3500 
z
" transform="scale(0.015625)"/>
      <path id="DejaVuSans-64" d="M 2906 2969 
L 2906 4863 
L 3481 4863 
L 3481 0 
L 2906 0 
L 2906 525 
Q 2725 213 2448 61 
Q 2172 -91 1784 -91 
Q 1150 -91 751 415 
Q 353 922 353 1747 
Q 353 2572 751 3078 
Q 1150 3584 1784 3584 
Q 2172 3584 2448 3432 
Q 2725 3281 2906 2969 
z
M 947 1747 
Q 947 1113 1208 752 
Q 1469 391 1925 391 
Q 2381 391 2643 752 
Q 2906 1113 2906 1747 
Q 2906 2381 2643 2742 
Q 2381 3103 1925 3103 
Q 1469 3103 1208 2742 
Q 947 2381 947 1747 
z
" transform="scale(0.015625)"/>
      <path id="DejaVuSans-20" transform="scale(0.015625)"/>
      <path id="DejaVuSans-4f" d="M 2522 4238 
Q 1834 4238 1429 3725 
Q 1025 3213 1025 2328 
Q 1025 1447 1429 934 
Q 1834 422 2522 422 
Q 3209 422 3611 934 
Q 4013 1447 4013 2328 
Q 4013 3213 3611 3725 
Q 3209 4238 2522 4238 
z
M 2522 4750 
Q 3503 4750 4090 4092 
Q 4678 3434 4678 2328 
Q 4678 1225 4090 567 
Q 3503 -91 2522 -91 
Q 1538 -91 948 565 
Q 359 1222 359 2328 
Q 359 3434 948 4092 
Q 1538 4750 2522 4750 
z
" transform="scale(0.015625)"/>
      <path id="DejaVuSans-54" d="M -19 4666 
L 3928 4666 
L 3928 4134 
L 2272 4134 
L 2272 0 
L 1638 0 
L 1638 4134 
L -19 4134 
L -19 4666 
z
" transform="scale(0.015625)"/>
     </defs>
     <use xlink:href="#DejaVuSans-73"/>
     <use xlink:href="#DejaVuSans-75" transform="translate(52.099609 0)"/>
     <use xlink:href="#DejaVuSans-70" transform="translate(115.478516 0)"/>
     <use xlink:href="#DejaVuSans-65" transform="translate(178.955078 0)"/>
     <use xlink:href="#DejaVuSans-72" transform="translate(240.478516 0)"/>
     <use xlink:href="#DejaVuSans-76" transform="translate(281.591797 0)"/>
     <use xlink:href="#DejaVuSans-69" transform="translate(340.771484 0)"/>
     <use xlink:href="#DejaVuSans-73" transform="translate(368.554688 0)"/>
     <use xlink:href="#DejaVuSans-65" transform="translate(420.654297 0)"/>
     <use xlink:href="#DejaVuSans-64" transform="translate(482.177734 0)"/>
     <use xlink:href="#DejaVuSans-5f" transform="translate(545.654297 0)"/>
     <use xlink:href="#DejaVuSans-75" transform="translate(595.654297 0)"/>
     <use xlink:href="#DejaVuSans-70" transform="translate(659.033203 0)"/>
     <use xlink:href="#DejaVuSans-20" transform="translate(722.509766 0)"/>
     <use xlink:href="#DejaVuSans-50" transform="translate(754.296875 0)"/>
     <use xlink:href="#DejaVuSans-72" transform="translate(812.849609 0)"/>
     <use xlink:href="#DejaVuSans-6f" transform="translate(851.712891 0)"/>
     <use xlink:href="#DejaVuSans-62" transform="translate(912.894531 0)"/>
     <use xlink:href="#DejaVuSans-61" transform="translate(976.371094 0)"/>
     <use xlink:href="#DejaVuSans-62" transform="translate(1037.650391 0)"/>
     <use xlink:href="#DejaVuSans-69" transform="translate(1101.126953 0)"/>
     <use xlink:href="#DejaVuSans-6c" transform="translate(1128.910156 0)"/>
     <use xlink:href="#DejaVuSans-69" transform="translate(1156.693359 0)"/>
     <use xlink:href="#DejaVuSans-74" transform="translate(1184.476562 0)"/>
     <use xlink:href="#DejaVuSans-79" transform="translate(1223.685547 0)"/>
     <use xlink:href="#DejaVuSans-20" transform="translate(1282.865234 0)"/>
     <use xlink:href="#DejaVuSans-4f" transform="translate(1314.652344 0)"/>
     <use xlink:href="#DejaVuSans-76" transform="translate(1393.363281 0)"/>
     <use xlink:href="#DejaVuSans-65" transform="translate(1452.542969 0)"/>
     <use xlink:href="#DejaVuSans-72" transform="translate(1514.066406 0)"/>
     <use xlink:href="#DejaVuSans-20" transform="translate(1555.179688 0)"/>
     <use xlink:href="#DejaVuSans-54" transform="translate(1586.966797 0)"/>
     <use xlink:href="#DejaVuSans-69" transform="translate(1644.925781 0)"/>
     <use xlink:href="#DejaVuSans-6d" transform="translate(1672.708984 0)"/>
     <use xlink:href="#DejaVuSans-65" transform="translate(1770.121094 0)"/>
    </g>
   </g>
   <g id="legend_1">
    <g id="patch_7">
     <path d="M 511.822187 69.149063 
L 599.617188 69.149063 
Q 601.417187 69.149063 601.417187 67.349063 
L 601.417187 28.618125 
Q 601.417187 26.818125 599.617188 26.818125 
L 511.822187 26.818125 
Q 510.022187 26.818125 510.022187 28.618125 
L 510.022187 67.349063 
Q 510.022187 69.149063 511.822187 69.149063 
z
" style="fill: #ffffff; opacity: 0.8; stroke: #cccccc; stroke-linejoin: miter"/>
    </g>
    <g id="line2d_31">
     <path d="M 513.622187 34.106719 
L 522.622187 34.106719 
L 531.622187 34.106719 
" style="fill: none; stroke: #1f77b4; stroke-opacity: 0.6; stroke-width: 1.5; stroke-linecap: square"/>
    </g>
    <g id="text_19">
     <!-- prob -->
     <g transform="translate(538.822188 37.256719) scale(0.09 -0.09)">
      <use xlink:href="#DejaVuSans-70"/>
      <use xlink:href="#DejaVuSans-72" transform="translate(63.476562 0)"/>
      <use xlink:href="#DejaVuSans-6f" transform="translate(102.339844 0)"/>
      <use xlink:href="#DejaVuSans-62" transform="translate(163.521484 0)"/>
     </g>
    </g>
    <g id="line2d_32">
     <path d="M 513.622187 47.317031 
L 522.622187 47.317031 
L 531.622187 47.317031 
" style="fill: none; stroke: #ff7f0e; stroke-width: 1.5; stroke-linecap: square"/>
    </g>
    <g id="text_20">
     <!-- prob mean -->
     <g transform="translate(538.822188 50.467031) scale(0.09 -0.09)">
      <use xlink:href="#DejaVuSans-70"/>
      <use xlink:href="#DejaVuSans-72" transform="translate(63.476562 0)"/>
      <use xlink:href="#DejaVuSans-6f" transform="translate(102.339844 0)"/>
      <use xlink:href="#DejaVuSans-62" transform="translate(163.521484 0)"/>
      <use xlink:href="#DejaVuSans-20" transform="translate(226.998047 0)"/>
      <use xlink:href="#DejaVuSans-6d" transform="translate(258.785156 0)"/>
      <use xlink:href="#DejaVuSans-65" transform="translate(356.197266 0)"/>
      <use xlink:href="#DejaVuSans-61" transform="translate(417.720703 0)"/>
      <use xlink:href="#DejaVuSans-6e" transform="translate(479 0)"/>
     </g>
    </g>
    <g id="patch_8">
     <path d="M 513.622187 63.677344 
L 531.622187 63.677344 
L 531.622187 57.377344 
L 513.622187 57.377344 
z
" style="fill: #1f77b4; fill-opacity: 0.2"/>
    </g>
    <g id="text_21">
     <!-- mean +/- std -->
     <g transform="translate(538.822188 63.677344) scale(0.09 -0.09)">
      <defs>
       <path id="DejaVuSans-2b" d="M 2944 4013 
L 2944 2272 
L 4684 2272 
L 4684 1741 
L 2944 1741 
L 2944 0 
L 2419 0 
L 2419 1741 
L 678 1741 
L 678 2272 
L 2419 2272 
L 2419 4013 
L 2944 4013 
z
" transform="scale(0.015625)"/>
       <path id="DejaVuSans-2f" d="M 1625 4666 
L 2156 4666 
L 531 -594 
L 0 -594 
L 1625 4666 
z
" transform="scale(0.015625)"/>
       <path id="DejaVuSans-2d" d="M 313 2009 
L 1997 2009 
L 1997 1497 
L 313 1497 
L 313 2009 
z
" transform="scale(0.015625)"/>
      </defs>
      <use xlink:href="#DejaVuSans-6d"/>
      <use xlink:href="#DejaVuSans-65" transform="translate(97.412109 0)"/>
      <use xlink:href="#DejaVuSans-61" transform="translate(158.935547 0)"/>
      <use xlink:href="#DejaVuSans-6e" transform="translate(220.214844 0)"/>
      <use xlink:href="#DejaVuSans-20" transform="translate(283.59375 0)"/>
      <use xlink:href="#DejaVuSans-2b" transform="translate(315.380859 0)"/>
      <use xlink:href="#DejaVuSans-2f" transform="translate(399.169922 0)"/>
      <use xlink:href="#DejaVuSans-2d" transform="translate(432.861328 0)"/>
      <use xlink:href="#DejaVuSans-20" transform="translate(468.945312 0)"/>
      <use xlink:href="#DejaVuSans-73" transform="translate(500.732422 0)"/>
      <use xlink:href="#DejaVuSans-74" transform="translate(552.832031 0)"/>
      <use xlink:href="#DejaVuSans-64" transform="translate(592.041016 0)"/>
     </g>
    </g>
   </g>
  </g>
 </g>
 <defs>
  <clipPath id="p47999d32c3">
   <rect x="47.917188" y="22.318125" width="558" height="277.2"/>
  </clipPath>
 </defs>
</svg>
