<?xml version="1.0" encoding="utf-8" standalone="no"?>
<!DOCTYPE svg PUBLIC "-//W3C//DTD SVG 1.1//EN"
  "http://www.w3.org/Graphics/SVG/1.1/DTD/svg11.dtd">
<svg xmlns:xlink="http://www.w3.org/1999/xlink" width="621.709375pt" height="336.106563pt" viewBox="0 0 621.709375 336.106563" xmlns="http://www.w3.org/2000/svg" version="1.1">
 <metadata>
  <rdf:RDF xmlns:dc="http://purl.org/dc/elements/1.1/" xmlns:cc="http://creativecommons.org/ns#" xmlns:rdf="http://www.w3.org/1999/02/22-rdf-syntax-ns#">
   <cc:Work>
    <dc:type rdf:resource="http://purl.org/dc/dcmitype/StillImage"/>
    <dc:date>2026-01-07T23:14:16.219810</dc:date>
    <dc:format>image/svg+xml</dc:format>
    <dc:creator>
     <cc:Agent>
      <dc:title>Matplotlib v3.10.8, https://matplotlib.org/</dc:title>
     </cc:Agent>
    </dc:creator>
   </cc:Work>
  </rdf:RDF>
 </metadata>
 <defs>
  <style type="text/css">*{stroke-linejoin: round; stroke-linecap: butt}</style>
 </defs>
 <g id="figure_1">
  <g id="patch_1">
   <path d="M 0 336.106563 
L 621.709375 336.106563 
L 621.709375 0 
L 0 0 
z
" style="fill: #ffffff"/>
  </g>
  <g id="axes_1">
   <g id="patch_2">
    <path d="M 56.509375 299.518125 
L 614.509375 299.518125 
L 614.509375 22.318125 
L 56.509375 22.318125 
z
" style="fill: #ffffff"/>
   </g>
   <g id="FillBetweenPolyCollection_1">
    <path d="M 81.873011 231.146238 
L 81.873011 231.146238 
L 82.88959 233.942757 
L 83.906169 230.470946 
L 84.922747 227.266014 
L 85.939326 225.419657 
L 86.955904 224.921347 
L 87.972483 224.017265 
L 88.989062 223.402487 
L 90.00564 222.706636 
L 91.022219 223.919356 
L 92.038797 223.263228 
L 93.055376 222.711914 
L 94.071955 222.232233 
L 95.088533 221.725076 
L 96.105112 221.253941 
L 97.121691 220.808974 
L 98.138269 220.591762 
L 99.154848 220.207444 
L 100.171426 219.780111 
L 101.188005 219.477644 
L 102.204584 216.775285 
L 103.221162 216.733961 
L 104.237741 217.072408 
L 105.254319 217.687731 
L 106.270898 220.969909 
L 107.287477 224.577708 
L 108.304055 228.766672 
L 109.320634 234.061588 
L 110.337212 241.290342 
L 111.353791 246.490825 
L 112.37037 250.725848 
L 113.386948 254.858237 
L 114.403527 259.388871 
L 115.420106 263.56078 
L 116.436684 266.476885 
L 117.453263 269.514134 
L 118.469841 271.366753 
L 119.48642 272.147034 
L 120.502999 272.667453 
L 121.519577 272.797406 
L 122.536156 272.435676 
L 123.552734 272.170668 
L 124.569313 270.811333 
L 125.585892 269.334305 
L 126.60247 269.360159 
L 127.619049 270.049442 
L 128.635628 273.110328 
L 129.652206 275.552496 
L 130.668785 276.300065 
L 131.685363 278.032725 
L 132.701942 278.754156 
L 133.718521 278.737819 
L 134.735099 278.247107 
L 135.751678 277.587945 
L 136.768256 277.376492 
L 137.784835 277.006378 
L 138.801414 276.86891 
L 139.817992 276.87111 
L 140.834571 277.270294 
L 141.851149 277.388709 
L 142.867728 277.723794 
L 143.884307 277.757686 
L 144.900885 277.716335 
L 145.917464 277.820047 
L 146.934043 277.678944 
L 147.950621 277.491722 
L 148.9672 275.107283 
L 149.983778 272.790251 
L 151.000357 270.898699 
L 152.016936 267.407464 
L 153.033514 265.642197 
L 154.050093 265.234257 
L 155.066671 264.920771 
L 156.08325 265.110574 
L 157.099829 266.062744 
L 158.116407 267.656578 
L 159.132986 267.571864 
L 160.149564 267.799522 
L 161.166143 266.775297 
L 162.182722 265.57706 
L 163.1993 263.549482 
L 164.215879 262.400632 
L 165.232458 260.373306 
L 166.249036 258.180336 
L 167.265615 256.306667 
L 168.282193 253.067336 
L 169.298772 250.608502 
L 170.315351 247.906602 
L 171.331929 245.560444 
L 172.348508 241.608701 
L 173.365086 239.240568 
L 174.381665 236.964784 
L 175.398244 234.233475 
L 176.414822 232.190656 
L 177.431401 231.415522 
L 178.447979 231.722724 
L 179.464558 230.936972 
L 180.481137 230.646455 
L 181.497715 230.49697 
L 182.514294 230.283366 
L 183.530873 229.498789 
L 184.547451 229.38036 
L 185.56403 228.27701 
L 186.580608 227.663439 
L 187.597187 227.655142 
L 188.613766 227.33695 
L 189.630344 227.582274 
L 190.646923 224.931106 
L 191.663501 222.741543 
L 192.68008 223.629666 
L 193.696659 224.127138 
L 194.713237 223.701012 
L 195.729816 222.544027 
L 196.746394 222.054601 
L 197.762973 222.034851 
L 198.779552 222.328771 
L 199.79613 222.173724 
L 200.812709 223.413654 
L 201.829288 223.559481 
L 202.845866 223.308715 
L 203.862445 222.520705 
L 204.879023 221.782547 
L 205.895602 221.286861 
L 206.912181 220.733615 
L 207.928759 219.991539 
L 208.945338 217.888702 
L 209.961916 214.762563 
L 210.978495 213.168979 
L 211.995074 210.642626 
L 213.011652 205.822169 
L 214.028231 203.154508 
L 215.04481 202.415395 
L 216.061388 203.226441 
L 217.077967 204.684724 
L 218.094545 205.047851 
L 219.111124 203.518412 
L 220.127703 202.800966 
L 221.144281 202.727907 
L 222.16086 202.958104 
L 223.177438 202.914941 
L 224.194017 202.855415 
L 225.210596 202.546586 
L 226.227174 202.297712 
L 227.243753 202.334484 
L 228.260331 203.001286 
L 229.27691 204.532161 
L 230.293489 205.376828 
L 231.310067 206.667266 
L 232.326646 210.020227 
L 233.343225 213.284466 
L 234.359803 215.339531 
L 235.376382 215.35422 
L 236.39296 215.55196 
L 237.409539 215.782357 
L 238.426118 217.035303 
L 239.442696 217.117644 
L 240.459275 217.276763 
L 241.475853 217.346914 
L 242.492432 218.087687 
L 243.509011 218.314925 
L 244.525589 218.863737 
L 245.542168 219.286729 
L 246.558746 219.528135 
L 247.575325 219.149449 
L 248.591904 218.047435 
L 249.608482 216.360422 
L 250.625061 214.696373 
L 251.64164 212.448429 
L 252.658218 208.190903 
L 253.674797 203.146152 
L 254.691375 198.357718 
L 255.707954 194.321908 
L 256.724533 190.351028 
L 257.741111 184.986728 
L 258.75769 177.335818 
L 259.774268 171.795694 
L 260.790847 166.372284 
L 261.807426 164.067254 
L 262.824004 164.352057 
L 263.840583 163.564849 
L 264.857161 163.217508 
L 265.87374 162.99602 
L 266.890319 163.527014 
L 267.906897 163.673604 
L 268.923476 164.05423 
L 269.940055 164.733913 
L 270.956633 165.749323 
L 271.973212 167.662624 
L 272.98979 168.571014 
L 274.006369 170.345 
L 275.022948 172.879583 
L 276.039526 176.956672 
L 277.056105 178.944483 
L 278.072683 180.702057 
L 279.089262 183.547616 
L 280.105841 186.011194 
L 281.122419 190.278212 
L 282.138998 192.128122 
L 283.155576 195.106786 
L 284.172155 197.647498 
L 285.188734 198.868295 
L 286.205312 201.341685 
L 287.221891 203.345446 
L 288.23847 203.86918 
L 289.255048 203.951824 
L 290.271627 203.888039 
L 291.288205 203.511202 
L 292.304784 203.406411 
L 293.321363 203.284761 
L 294.337941 203.283002 
L 295.35452 203.524172 
L 296.371098 203.029136 
L 297.387677 203.074142 
L 298.404256 203.05677 
L 299.420834 202.798491 
L 300.437413 202.484641 
L 301.453992 200.669533 
L 302.47057 200.534773 
L 303.487149 198.729319 
L 304.503727 196.883952 
L 305.520306 195.638309 
L 306.536885 192.105276 
L 307.553463 188.5693 
L 308.570042 187.163023 
L 309.58662 185.984593 
L 310.603199 186.192062 
L 311.619778 188.191408 
L 312.636356 192.292901 
L 313.652935 198.732621 
L 314.669513 205.184003 
L 315.686092 209.755343 
L 316.702671 212.036441 
L 317.719249 214.235873 
L 318.735828 215.477585 
L 319.752407 216.502501 
L 320.768985 219.160832 
L 321.785564 221.922449 
L 322.802142 223.556981 
L 323.818721 225.566908 
L 324.8353 226.602305 
L 325.851878 226.891965 
L 326.868457 227.235364 
L 327.885035 228.067696 
L 328.901614 230.016106 
L 329.918193 231.22998 
L 330.934771 233.08206 
L 331.95135 233.873734 
L 332.967928 233.995538 
L 333.984507 233.605395 
L 335.001086 232.365614 
L 336.017664 231.807313 
L 337.034243 231.979821 
L 338.050822 232.616355 
L 339.0674 232.920762 
L 340.083979 233.504285 
L 341.100557 234.210654 
L 342.117136 234.349313 
L 343.133715 233.977816 
L 344.150293 232.88349 
L 345.166872 232.102326 
L 346.18345 231.178926 
L 347.200029 228.99839 
L 348.216608 225.324033 
L 349.233186 220.423644 
L 350.249765 214.8405 
L 351.266343 207.863199 
L 352.282922 201.288463 
L 353.299501 195.963651 
L 354.316079 189.68714 
L 355.332658 183.69594 
L 356.349237 178.167645 
L 357.365815 173.007198 
L 358.382394 170.250641 
L 359.398972 167.195783 
L 360.415551 165.033147 
L 361.43213 164.76469 
L 362.448708 164.976237 
L 363.465287 164.613968 
L 364.481865 164.433848 
L 365.498444 165.127843 
L 366.515023 165.186207 
L 367.531601 165.117156 
L 368.54818 165.018431 
L 369.564758 165.009502 
L 370.581337 165.113938 
L 371.597916 165.449904 
L 372.614494 165.317937 
L 373.631073 165.359859 
L 374.647652 165.300354 
L 375.66423 165.212729 
L 376.680809 165.199557 
L 377.697387 165.172601 
L 378.713966 163.803031 
L 379.730545 161.405757 
L 380.747123 159.937302 
L 381.763702 158.465041 
L 382.78028 157.318301 
L 383.796859 157.579363 
L 384.813438 158.726787 
L 385.830016 160.390531 
L 386.846595 162.540089 
L 387.863174 165.618352 
L 388.879752 167.915457 
L 389.896331 167.916638 
L 390.912909 168.139335 
L 391.929488 167.926823 
L 392.946067 168.312928 
L 393.962645 168.521706 
L 394.979224 169.783127 
L 395.995802 172.336198 
L 397.012381 174.054016 
L 398.02896 175.553006 
L 399.045538 175.81094 
L 400.062117 176.20532 
L 401.078695 176.560573 
L 402.095274 176.812623 
L 403.111853 176.874455 
L 404.128431 176.580601 
L 405.14501 176.064988 
L 406.161589 175.195343 
L 407.178167 174.289975 
L 408.194746 172.391743 
L 409.211324 170.837825 
L 410.227903 170.8902 
L 411.244482 171.502491 
L 412.26106 172.605979 
L 413.277639 172.175087 
L 414.294217 171.863949 
L 415.310796 170.607618 
L 416.327375 167.553053 
L 417.343953 164.94786 
L 418.360532 161.696933 
L 419.37711 160.455194 
L 420.393689 158.622809 
L 421.410268 156.300583 
L 422.426846 156.17049 
L 423.443425 155.434646 
L 424.460004 154.293091 
L 425.476582 152.586772 
L 426.493161 149.987159 
L 427.509739 148.265568 
L 428.526318 146.292177 
L 429.542897 142.90122 
L 430.559475 138.90907 
L 431.576054 137.429906 
L 432.592632 136.789388 
L 433.609211 135.364653 
L 434.62579 132.751467 
L 435.642368 128.719662 
L 436.658947 125.043863 
L 437.675525 119.690751 
L 438.692104 117.087978 
L 439.708683 115.169432 
L 440.725261 115.944236 
L 441.74184 116.822853 
L 442.758419 117.279754 
L 443.774997 116.936029 
L 444.791576 116.861385 
L 445.808154 117.234331 
L 446.824733 117.068143 
L 447.841312 117.562106 
L 448.85789 117.61977 
L 449.874469 117.695759 
L 450.891047 117.698109 
L 451.907626 117.644873 
L 452.924205 117.313127 
L 453.940783 114.794157 
L 454.957362 113.156253 
L 455.97394 112.248637 
L 456.990519 110.93975 
L 458.007098 110.423474 
L 459.023676 110.207013 
L 460.040255 110.029557 
L 461.056834 107.416497 
L 462.073412 104.261024 
L 463.089991 101.478405 
L 464.106569 100.494128 
L 465.123148 100.609493 
L 466.139727 100.411484 
L 467.156305 100.647358 
L 468.172884 100.052609 
L 469.189462 99.957198 
L 470.206041 99.118682 
L 471.22262 98.742709 
L 472.239198 98.15479 
L 473.255777 97.64768 
L 474.272356 95.790977 
L 475.288934 94.299213 
L 476.305513 92.319582 
L 477.322091 90.803046 
L 478.33867 89.285738 
L 479.355249 88.984036 
L 480.371827 88.030355 
L 481.388406 87.961748 
L 482.404984 88.215163 
L 483.421563 89.504119 
L 484.438142 89.8489 
L 485.45472 88.672661 
L 486.471299 88.560498 
L 487.487877 88.431502 
L 488.504456 88.493839 
L 489.521035 88.453931 
L 490.537613 88.461107 
L 491.554192 88.329026 
L 492.570771 88.401055 
L 493.587349 88.471728 
L 494.603928 88.70184 
L 495.620506 88.477704 
L 496.637085 88.065834 
L 497.653664 87.64135 
L 498.670242 87.661074 
L 499.686821 86.378585 
L 500.703399 86.09414 
L 501.719978 85.010112 
L 502.736557 83.707156 
L 503.753135 80.987468 
L 504.769714 78.286773 
L 505.786292 77.269729 
L 506.802871 76.365608 
L 507.81945 75.333285 
L 508.836028 74.703604 
L 509.852607 73.99133 
L 510.869186 73.496991 
L 511.885764 73.832736 
L 512.902343 74.629091 
L 513.918921 75.638229 
L 514.9355 75.99636 
L 515.952079 79.320035 
L 516.968657 81.344692 
L 517.985236 80.820745 
L 519.001814 82.563604 
L 520.018393 83.175447 
L 521.034972 84.402515 
L 522.05155 85.863325 
L 523.068129 87.098831 
L 524.084707 89.49494 
L 525.101286 90.582107 
L 526.117865 90.798088 
L 527.134443 90.504777 
L 528.151022 90.734787 
L 529.167601 92.30937 
L 530.184179 94.397717 
L 531.200758 95.134702 
L 532.217336 98.188586 
L 533.233915 101.359026 
L 534.250494 104.102244 
L 535.267072 105.442698 
L 536.283651 105.057156 
L 537.300229 105.460564 
L 538.316808 106.611714 
L 539.333387 107.185693 
L 540.349965 107.628323 
L 541.366544 108.324976 
L 542.383122 108.448104 
L 543.399701 108.433494 
L 544.41628 108.548987 
L 545.432858 108.624264 
L 546.449437 108.794994 
L 547.466016 108.84726 
L 548.482594 108.925749 
L 549.499173 108.927033 
L 550.515751 108.310442 
L 551.53233 108.120291 
L 552.548909 106.496295 
L 553.565487 103.980377 
L 554.582066 101.917304 
L 555.598644 100.686891 
L 556.615223 100.160127 
L 557.631802 99.124837 
L 558.64838 97.175157 
L 559.664959 95.891097 
L 560.681538 93.984103 
L 561.698116 91.235796 
L 562.714695 89.778505 
L 563.731273 89.720951 
L 564.747852 89.627221 
L 565.764431 89.510365 
L 566.781009 89.303907 
L 567.797588 87.89336 
L 568.814166 86.182738 
L 569.830745 82.766435 
L 570.847324 82.063658 
L 571.863902 81.603294 
L 572.880481 82.441182 
L 573.897059 83.06705 
L 574.913638 82.44189 
L 575.930217 82.298139 
L 576.946795 85.496647 
L 577.963374 86.514154 
L 578.979953 88.832439 
L 579.996531 90.620231 
L 581.01311 92.282494 
L 582.029688 94.724036 
L 583.046267 95.919934 
L 584.062846 96.80086 
L 585.079424 97.9421 
L 586.096003 99.794201 
L 587.112581 100.693902 
L 588.12916 101.034249 
L 589.145739 100.724039 
L 589.145739 76.025027 
L 589.145739 76.025027 
L 588.12916 72.493753 
L 587.112581 70.778216 
L 586.096003 69.008368 
L 585.079424 65.904035 
L 584.062846 63.889452 
L 583.046267 61.939116 
L 582.029688 60.308646 
L 581.01311 59.837602 
L 579.996531 59.8094 
L 578.979953 59.134116 
L 577.963374 59.125954 
L 576.946795 59.169385 
L 575.930217 59.72663 
L 574.913638 59.687137 
L 573.897059 59.456389 
L 572.880481 59.32562 
L 571.863902 59.087217 
L 570.847324 59.652774 
L 569.830745 61.10457 
L 568.814166 60.833468 
L 567.797588 62.651148 
L 566.781009 63.577148 
L 565.764431 64.150977 
L 564.747852 66.51674 
L 563.731273 68.021259 
L 562.714695 70.088604 
L 561.698116 72.156584 
L 560.681538 72.650603 
L 559.664959 72.860647 
L 558.64838 74.549941 
L 557.631802 75.565579 
L 556.615223 76.240231 
L 555.598644 77.517288 
L 554.582066 77.713583 
L 553.565487 77.440992 
L 552.548909 78.979066 
L 551.53233 81.361174 
L 550.515751 83.280678 
L 549.499173 85.09502 
L 548.482594 85.094469 
L 547.466016 84.706631 
L 546.449437 84.309692 
L 545.432858 84.970426 
L 544.41628 85.419621 
L 543.399701 87.202632 
L 542.383122 87.146927 
L 541.366544 85.591653 
L 540.349965 83.229852 
L 539.333387 80.187321 
L 538.316808 79.496751 
L 537.300229 77.285517 
L 536.283651 77.084149 
L 535.267072 77.269954 
L 534.250494 76.426137 
L 533.233915 76.175259 
L 532.217336 76.200899 
L 531.200758 75.360332 
L 530.184179 72.722305 
L 529.167601 70.895715 
L 528.151022 67.441883 
L 527.134443 63.802954 
L 526.117865 58.445715 
L 525.101286 54.52399 
L 524.084707 51.7791 
L 523.068129 49.098404 
L 522.05155 46.198305 
L 521.034972 43.521763 
L 520.018393 41.913486 
L 519.001814 41.27122 
L 517.985236 41.025545 
L 516.968657 41.118655 
L 515.952079 41.324453 
L 514.9355 42.000843 
L 513.918921 42.060696 
L 512.902343 42.234246 
L 511.885764 42.383115 
L 510.869186 42.354735 
L 509.852607 42.525944 
L 508.836028 42.685056 
L 507.81945 43.407146 
L 506.802871 44.545985 
L 505.786292 47.413055 
L 504.769714 50.127712 
L 503.753135 52.010746 
L 502.736557 54.419792 
L 501.719978 58.110592 
L 500.703399 62.432718 
L 499.686821 66.121458 
L 498.670242 68.589134 
L 497.653664 69.151731 
L 496.637085 69.403765 
L 495.620506 69.839161 
L 494.603928 70.348438 
L 493.587349 69.286791 
L 492.570771 69.136555 
L 491.554192 69.009021 
L 490.537613 69.684536 
L 489.521035 69.868717 
L 488.504456 69.135638 
L 487.487877 69.532423 
L 486.471299 70.10653 
L 485.45472 70.458447 
L 484.438142 70.917687 
L 483.421563 70.912484 
L 482.404984 70.833506 
L 481.388406 70.833098 
L 480.371827 70.815939 
L 479.355249 70.700818 
L 478.33867 70.629181 
L 477.322091 71.463709 
L 476.305513 71.42349 
L 475.288934 71.418794 
L 474.272356 71.869237 
L 473.255777 73.623084 
L 472.239198 74.659805 
L 471.22262 75.74562 
L 470.206041 76.638142 
L 469.189462 78.598685 
L 468.172884 81.647326 
L 467.156305 84.686713 
L 466.139727 85.601811 
L 465.123148 85.11607 
L 464.106569 84.882689 
L 463.089991 85.463315 
L 462.073412 86.304085 
L 461.056834 86.615962 
L 460.040255 86.762339 
L 459.023676 87.009362 
L 458.007098 87.271391 
L 456.990519 87.726637 
L 455.97394 88.014116 
L 454.957362 88.198317 
L 453.940783 88.554886 
L 452.924205 88.532977 
L 451.907626 89.527651 
L 450.891047 89.876438 
L 449.874469 89.981182 
L 448.85789 88.682797 
L 447.841312 87.339122 
L 446.824733 86.024813 
L 445.808154 87.25801 
L 444.791576 89.445393 
L 443.774997 90.218771 
L 442.758419 90.466159 
L 441.74184 90.425717 
L 440.725261 90.463056 
L 439.708683 90.534307 
L 438.692104 91.003968 
L 437.675525 91.338935 
L 436.658947 90.494028 
L 435.642368 90.030535 
L 434.62579 89.765875 
L 433.609211 89.810314 
L 432.592632 89.802432 
L 431.576054 90.649766 
L 430.559475 92.483915 
L 429.542897 94.926622 
L 428.526318 98.573714 
L 427.509739 103.09923 
L 426.493161 107.674602 
L 425.476582 111.052724 
L 424.460004 115.747075 
L 423.443425 120.381767 
L 422.426846 123.647707 
L 421.410268 126.578324 
L 420.393689 129.83349 
L 419.37711 133.479149 
L 418.360532 136.321032 
L 417.343953 138.012911 
L 416.327375 138.205213 
L 415.310796 138.655633 
L 414.294217 139.253097 
L 413.277639 139.904696 
L 412.26106 140.993878 
L 411.244482 145.537729 
L 410.227903 148.873895 
L 409.211324 147.986404 
L 408.194746 148.510922 
L 407.178167 149.75825 
L 406.161589 151.075472 
L 405.14501 151.722506 
L 404.128431 152.409097 
L 403.111853 153.140012 
L 402.095274 153.72041 
L 401.078695 154.549145 
L 400.062117 154.133479 
L 399.045538 152.354579 
L 398.02896 151.231405 
L 397.012381 148.968944 
L 395.995802 147.365696 
L 394.979224 145.884734 
L 393.962645 144.639212 
L 392.946067 143.421354 
L 391.929488 142.671722 
L 390.912909 142.911935 
L 389.896331 142.616484 
L 388.879752 142.136738 
L 387.863174 141.593164 
L 386.846595 141.777731 
L 385.830016 141.729817 
L 384.813438 142.27179 
L 383.796859 142.633991 
L 382.78028 142.721496 
L 381.763702 142.606908 
L 380.747123 142.832601 
L 379.730545 142.455297 
L 378.713966 142.722819 
L 377.697387 143.177902 
L 376.680809 143.866225 
L 375.66423 144.085635 
L 374.647652 145.002348 
L 373.631073 144.510306 
L 372.614494 144.840748 
L 371.597916 145.375657 
L 370.581337 144.373976 
L 369.564758 143.885612 
L 368.54818 144.749919 
L 367.531601 143.704934 
L 366.515023 143.833641 
L 365.498444 143.574864 
L 364.481865 143.052863 
L 363.465287 143.075321 
L 362.448708 143.062126 
L 361.43213 143.049488 
L 360.415551 143.025197 
L 359.398972 142.232152 
L 358.382394 141.101876 
L 357.365815 140.513212 
L 356.349237 140.556477 
L 355.332658 141.03917 
L 354.316079 141.359756 
L 353.299501 143.165397 
L 352.282922 145.444355 
L 351.266343 146.913777 
L 350.249765 149.732593 
L 349.233186 153.36106 
L 348.216608 157.18627 
L 347.200029 163.145004 
L 346.18345 167.814195 
L 345.166872 173.642735 
L 344.150293 179.796121 
L 343.133715 184.645404 
L 342.117136 189.215334 
L 341.100557 195.440576 
L 340.083979 201.641116 
L 339.0674 204.237651 
L 338.050822 205.619428 
L 337.034243 208.515256 
L 336.017664 209.992371 
L 335.001086 211.433254 
L 333.984507 212.183789 
L 332.967928 212.470391 
L 331.95135 211.890344 
L 330.934771 209.288222 
L 329.918193 206.276751 
L 328.901614 202.141784 
L 327.885035 199.164869 
L 326.868457 193.282837 
L 325.851878 188.219738 
L 324.8353 183.561236 
L 323.818721 178.846123 
L 322.802142 175.409132 
L 321.785564 171.508445 
L 320.768985 169.089815 
L 319.752407 168.191319 
L 318.735828 167.541747 
L 317.719249 166.350576 
L 316.702671 164.892645 
L 315.686092 164.057667 
L 314.669513 163.183296 
L 313.652935 164.144556 
L 312.636356 165.531204 
L 311.619778 166.5813 
L 310.603199 166.954504 
L 309.58662 167.009319 
L 308.570042 166.85323 
L 307.553463 166.548026 
L 306.536885 167.013409 
L 305.520306 167.822428 
L 304.503727 169.676307 
L 303.487149 172.102724 
L 302.47057 173.976254 
L 301.453992 177.103585 
L 300.437413 178.988669 
L 299.420834 179.336891 
L 298.404256 179.592685 
L 297.387677 179.992404 
L 296.371098 180.871392 
L 295.35452 181.767231 
L 294.337941 183.52069 
L 293.321363 183.510938 
L 292.304784 183.092644 
L 291.288205 182.437796 
L 290.271627 180.711751 
L 289.255048 178.270809 
L 288.23847 175.157141 
L 287.221891 171.547928 
L 286.205312 169.053766 
L 285.188734 165.820462 
L 284.172155 162.88671 
L 283.155576 160.685241 
L 282.138998 159.432428 
L 281.122419 157.43242 
L 280.105841 156.353576 
L 279.089262 154.523512 
L 278.072683 153.059491 
L 277.056105 151.861952 
L 276.039526 151.062869 
L 275.022948 151.88921 
L 274.006369 152.61798 
L 272.98979 152.943032 
L 271.973212 153.101038 
L 270.956633 153.394983 
L 269.940055 153.295753 
L 268.923476 151.685762 
L 267.906897 150.541468 
L 266.890319 149.785074 
L 265.87374 149.435121 
L 264.857161 149.709696 
L 263.840583 150.007485 
L 262.824004 150.173811 
L 261.807426 150.067864 
L 260.790847 149.926862 
L 259.774268 148.561208 
L 258.75769 148.10785 
L 257.741111 147.216291 
L 256.724533 147.739858 
L 255.707954 148.898886 
L 254.691375 149.687208 
L 253.674797 150.108796 
L 252.658218 151.114099 
L 251.64164 152.498512 
L 250.625061 154.794076 
L 249.608482 157.386922 
L 248.591904 161.937583 
L 247.575325 166.574829 
L 246.558746 171.333249 
L 245.542168 175.202975 
L 244.525589 178.274086 
L 243.509011 180.818908 
L 242.492432 181.659152 
L 241.475853 183.718297 
L 240.459275 184.13452 
L 239.442696 183.559856 
L 238.426118 183.482193 
L 237.409539 183.26658 
L 236.39296 183.237552 
L 235.376382 183.160619 
L 234.359803 183.15923 
L 233.343225 182.876217 
L 232.326646 181.4467 
L 231.310067 180.557466 
L 230.293489 178.932276 
L 229.27691 178.292744 
L 228.260331 177.745799 
L 227.243753 177.705288 
L 226.227174 177.700927 
L 225.210596 177.886314 
L 224.194017 178.326315 
L 223.177438 178.686308 
L 222.16086 180.333629 
L 221.144281 181.879636 
L 220.127703 181.437515 
L 219.111124 181.956519 
L 218.094545 181.770066 
L 217.077967 181.718556 
L 216.061388 181.653735 
L 215.04481 181.557629 
L 214.028231 181.28446 
L 213.011652 180.782349 
L 211.995074 181.240567 
L 210.978495 182.679793 
L 209.961916 184.974675 
L 208.945338 186.147134 
L 207.928759 187.768143 
L 206.912181 188.489153 
L 205.895602 189.060876 
L 204.879023 189.972882 
L 203.862445 191.26956 
L 202.845866 193.660867 
L 201.829288 195.344607 
L 200.812709 197.657151 
L 199.79613 201.852048 
L 198.779552 202.760915 
L 197.762973 202.009096 
L 196.746394 202.762958 
L 195.729816 204.823066 
L 194.713237 206.95734 
L 193.696659 207.105635 
L 192.68008 206.209301 
L 191.663501 206.44102 
L 190.646923 205.899965 
L 189.630344 205.650518 
L 188.613766 205.661739 
L 187.597187 205.689893 
L 186.580608 205.712046 
L 185.56403 206.371459 
L 184.547451 207.349445 
L 183.530873 207.619479 
L 182.514294 208.0221 
L 181.497715 208.804378 
L 180.481137 209.868566 
L 179.464558 211.268838 
L 178.447979 212.336773 
L 177.431401 213.965037 
L 176.414822 215.770248 
L 175.398244 215.946087 
L 174.381665 215.423609 
L 173.365086 215.719069 
L 172.348508 217.951441 
L 171.331929 217.780997 
L 170.315351 217.618312 
L 169.298772 217.341999 
L 168.282193 218.142235 
L 167.265615 218.924256 
L 166.249036 221.705321 
L 165.232458 223.473537 
L 164.215879 224.873472 
L 163.1993 227.850314 
L 162.182722 229.689115 
L 161.166143 233.006498 
L 160.149564 236.757266 
L 159.132986 239.758972 
L 158.116407 242.2912 
L 157.099829 248.380225 
L 156.08325 250.916914 
L 155.066671 252.731847 
L 154.050093 253.591275 
L 153.033514 254.988527 
L 152.016936 255.557944 
L 151.000357 254.463581 
L 149.983778 254.697534 
L 148.9672 254.538419 
L 147.950621 254.90025 
L 146.934043 255.017686 
L 145.917464 255.41929 
L 144.900885 254.990937 
L 143.884307 253.148134 
L 142.867728 252.800595 
L 141.851149 252.292311 
L 140.834571 252.103967 
L 139.817992 251.165966 
L 138.801414 251.221978 
L 137.784835 251.620752 
L 136.768256 251.976717 
L 135.751678 253.295019 
L 134.735099 253.98145 
L 133.718521 254.41991 
L 132.701942 254.43751 
L 131.685363 254.049133 
L 130.668785 254.231751 
L 129.652206 254.277483 
L 128.635628 254.088796 
L 127.619049 253.383439 
L 126.60247 251.45722 
L 125.585892 248.831449 
L 124.569313 243.506864 
L 123.552734 239.024557 
L 122.536156 235.107718 
L 121.519577 229.198655 
L 120.502999 222.842329 
L 119.48642 218.145198 
L 118.469841 213.784893 
L 117.453263 209.350896 
L 116.436684 206.019345 
L 115.420106 203.514131 
L 114.403527 201.00371 
L 113.386948 198.896909 
L 112.37037 197.652832 
L 111.353791 196.672373 
L 110.337212 197.252657 
L 109.320634 197.811138 
L 108.304055 198.789888 
L 107.287477 199.597709 
L 106.270898 200.687386 
L 105.254319 201.633284 
L 104.237741 201.558529 
L 103.221162 201.370248 
L 102.204584 201.367402 
L 101.188005 201.487517 
L 100.171426 202.746797 
L 99.154848 203.501736 
L 98.138269 204.547131 
L 97.121691 206.140042 
L 96.105112 206.868673 
L 95.088533 206.984107 
L 94.071955 207.847066 
L 93.055376 208.996168 
L 92.038797 209.043292 
L 91.022219 209.206404 
L 90.00564 208.496271 
L 88.989062 210.072265 
L 87.972483 209.628457 
L 86.955904 209.226532 
L 85.939326 207.989373 
L 84.922747 207.4046 
L 83.906169 207.816077 
L 82.88959 214.846929 
L 81.873011 231.146238 
z
" clip-path="url(#pecb830461a)" style="fill: #1f77b4; fill-opacity: 0.2"/>
   </g>
   <g id="matplotlib.axis_1">
    <g id="xtick_1">
     <g id="line2d_1">
      <path d="M 81.873011 299.518125 
L 81.873011 22.318125 
" clip-path="url(#pecb830461a)" style="fill: none; stroke: #b0b0b0; stroke-opacity: 0.3; stroke-width: 0.8; stroke-linecap: square"/>
     </g>
     <g id="line2d_2">
      <defs>
       <path id="m85f9c15dfc" d="M 0 0 
L 0 3.5 
" style="stroke: #000000; stroke-width: 0.8"/>
      </defs>
      <g>
       <use xlink:href="#m85f9c15dfc" x="81.873011" y="299.518125" style="stroke: #000000; stroke-width: 0.8"/>
      </g>
     </g>
     <g id="text_1">
      <!-- 0.0 -->
      <g transform="translate(74.716605 313.356719) scale(0.09 -0.09)">
       <defs>
        <path id="DejaVuSans-30" d="M 2034 4250 
Q 1547 4250 1301 3770 
Q 1056 3291 1056 2328 
Q 1056 1369 1301 889 
Q 1547 409 2034 409 
Q 2525 409 2770 889 
Q 3016 1369 3016 2328 
Q 3016 3291 2770 3770 
Q 2525 4250 2034 4250 
z
M 2034 4750 
Q 2819 4750 3233 4129 
Q 3647 3509 3647 2328 
Q 3647 1150 3233 529 
Q 2819 -91 2034 -91 
Q 1250 -91 836 529 
Q 422 1150 422 2328 
Q 422 3509 836 4129 
Q 1250 4750 2034 4750 
z
" transform="scale(0.015625)"/>
        <path id="DejaVuSans-2e" d="M 684 794 
L 1344 794 
L 1344 0 
L 684 0 
L 684 794 
z
" transform="scale(0.015625)"/>
       </defs>
       <use xlink:href="#DejaVuSans-30"/>
       <use xlink:href="#DejaVuSans-2e" transform="translate(63.623047 0)"/>
       <use xlink:href="#DejaVuSans-30" transform="translate(95.410156 0)"/>
      </g>
     </g>
    </g>
    <g id="xtick_2">
     <g id="line2d_3">
      <path d="M 149.644919 299.518125 
L 149.644919 22.318125 
" clip-path="url(#pecb830461a)" style="fill: none; stroke: #b0b0b0; stroke-opacity: 0.3; stroke-width: 0.8; stroke-linecap: square"/>
     </g>
     <g id="line2d_4">
      <g>
       <use xlink:href="#m85f9c15dfc" x="149.644919" y="299.518125" style="stroke: #000000; stroke-width: 0.8"/>
      </g>
     </g>
     <g id="text_2">
      <!-- 0.2 -->
      <g transform="translate(142.488513 313.356719) scale(0.09 -0.09)">
       <defs>
        <path id="DejaVuSans-32" d="M 1228 531 
L 3431 531 
L 3431 0 
L 469 0 
L 469 531 
Q 828 903 1448 1529 
Q 2069 2156 2228 2338 
Q 2531 2678 2651 2914 
Q 2772 3150 2772 3378 
Q 2772 3750 2511 3984 
Q 2250 4219 1831 4219 
Q 1534 4219 1204 4116 
Q 875 4013 500 3803 
L 500 4441 
Q 881 4594 1212 4672 
Q 1544 4750 1819 4750 
Q 2544 4750 2975 4387 
Q 3406 4025 3406 3419 
Q 3406 3131 3298 2873 
Q 3191 2616 2906 2266 
Q 2828 2175 2409 1742 
Q 1991 1309 1228 531 
z
" transform="scale(0.015625)"/>
       </defs>
       <use xlink:href="#DejaVuSans-30"/>
       <use xlink:href="#DejaVuSans-2e" transform="translate(63.623047 0)"/>
       <use xlink:href="#DejaVuSans-32" transform="translate(95.410156 0)"/>
      </g>
     </g>
    </g>
    <g id="xtick_3">
     <g id="line2d_5">
      <path d="M 217.416826 299.518125 
L 217.416826 22.318125 
" clip-path="url(#pecb830461a)" style="fill: none; stroke: #b0b0b0; stroke-opacity: 0.3; stroke-width: 0.8; stroke-linecap: square"/>
     </g>
     <g id="line2d_6">
      <g>
       <use xlink:href="#m85f9c15dfc" x="217.416826" y="299.518125" style="stroke: #000000; stroke-width: 0.8"/>
      </g>
     </g>
     <g id="text_3">
      <!-- 0.4 -->
      <g transform="translate(210.26042 313.356719) scale(0.09 -0.09)">
       <defs>
        <path id="DejaVuSans-34" d="M 2419 4116 
L 825 1625 
L 2419 1625 
L 2419 4116 
z
M 2253 4666 
L 3047 4666 
L 3047 1625 
L 3713 1625 
L 3713 1100 
L 3047 1100 
L 3047 0 
L 2419 0 
L 2419 1100 
L 313 1100 
L 313 1709 
L 2253 4666 
z
" transform="scale(0.015625)"/>
       </defs>
       <use xlink:href="#DejaVuSans-30"/>
       <use xlink:href="#DejaVuSans-2e" transform="translate(63.623047 0)"/>
       <use xlink:href="#DejaVuSans-34" transform="translate(95.410156 0)"/>
      </g>
     </g>
    </g>
    <g id="xtick_4">
     <g id="line2d_7">
      <path d="M 285.188734 299.518125 
L 285.188734 22.318125 
" clip-path="url(#pecb830461a)" style="fill: none; stroke: #b0b0b0; stroke-opacity: 0.3; stroke-width: 0.8; stroke-linecap: square"/>
     </g>
     <g id="line2d_8">
      <g>
       <use xlink:href="#m85f9c15dfc" x="285.188734" y="299.518125" style="stroke: #000000; stroke-width: 0.8"/>
      </g>
     </g>
     <g id="text_4">
      <!-- 0.6 -->
      <g transform="translate(278.032327 313.356719) scale(0.09 -0.09)">
       <defs>
        <path id="DejaVuSans-36" d="M 2113 2584 
Q 1688 2584 1439 2293 
Q 1191 2003 1191 1497 
Q 1191 994 1439 701 
Q 1688 409 2113 409 
Q 2538 409 2786 701 
Q 3034 994 3034 1497 
Q 3034 2003 2786 2293 
Q 2538 2584 2113 2584 
z
M 3366 4563 
L 3366 3988 
Q 3128 4100 2886 4159 
Q 2644 4219 2406 4219 
Q 1781 4219 1451 3797 
Q 1122 3375 1075 2522 
Q 1259 2794 1537 2939 
Q 1816 3084 2150 3084 
Q 2853 3084 3261 2657 
Q 3669 2231 3669 1497 
Q 3669 778 3244 343 
Q 2819 -91 2113 -91 
Q 1303 -91 875 529 
Q 447 1150 447 2328 
Q 447 3434 972 4092 
Q 1497 4750 2381 4750 
Q 2619 4750 2861 4703 
Q 3103 4656 3366 4563 
z
" transform="scale(0.015625)"/>
       </defs>
       <use xlink:href="#DejaVuSans-30"/>
       <use xlink:href="#DejaVuSans-2e" transform="translate(63.623047 0)"/>
       <use xlink:href="#DejaVuSans-36" transform="translate(95.410156 0)"/>
      </g>
     </g>
    </g>
    <g id="xtick_5">
     <g id="line2d_9">
      <path d="M 352.960641 299.518125 
L 352.960641 22.318125 
" clip-path="url(#pecb830461a)" style="fill: none; stroke: #b0b0b0; stroke-opacity: 0.3; stroke-width: 0.8; stroke-linecap: square"/>
     </g>
     <g id="line2d_10">
      <g>
       <use xlink:href="#m85f9c15dfc" x="352.960641" y="299.518125" style="stroke: #000000; stroke-width: 0.8"/>
      </g>
     </g>
     <g id="text_5">
      <!-- 0.8 -->
      <g transform="translate(345.804235 313.356719) scale(0.09 -0.09)">
       <defs>
        <path id="DejaVuSans-38" d="M 2034 2216 
Q 1584 2216 1326 1975 
Q 1069 1734 1069 1313 
Q 1069 891 1326 650 
Q 1584 409 2034 409 
Q 2484 409 2743 651 
Q 3003 894 3003 1313 
Q 3003 1734 2745 1975 
Q 2488 2216 2034 2216 
z
M 1403 2484 
Q 997 2584 770 2862 
Q 544 3141 544 3541 
Q 544 4100 942 4425 
Q 1341 4750 2034 4750 
Q 2731 4750 3128 4425 
Q 3525 4100 3525 3541 
Q 3525 3141 3298 2862 
Q 3072 2584 2669 2484 
Q 3125 2378 3379 2068 
Q 3634 1759 3634 1313 
Q 3634 634 3220 271 
Q 2806 -91 2034 -91 
Q 1263 -91 848 271 
Q 434 634 434 1313 
Q 434 1759 690 2068 
Q 947 2378 1403 2484 
z
M 1172 3481 
Q 1172 3119 1398 2916 
Q 1625 2713 2034 2713 
Q 2441 2713 2670 2916 
Q 2900 3119 2900 3481 
Q 2900 3844 2670 4047 
Q 2441 4250 2034 4250 
Q 1625 4250 1398 4047 
Q 1172 3844 1172 3481 
z
" transform="scale(0.015625)"/>
       </defs>
       <use xlink:href="#DejaVuSans-30"/>
       <use xlink:href="#DejaVuSans-2e" transform="translate(63.623047 0)"/>
       <use xlink:href="#DejaVuSans-38" transform="translate(95.410156 0)"/>
      </g>
     </g>
    </g>
    <g id="xtick_6">
     <g id="line2d_11">
      <path d="M 420.732549 299.518125 
L 420.732549 22.318125 
" clip-path="url(#pecb830461a)" style="fill: none; stroke: #b0b0b0; stroke-opacity: 0.3; stroke-width: 0.8; stroke-linecap: square"/>
     </g>
     <g id="line2d_12">
      <g>
       <use xlink:href="#m85f9c15dfc" x="420.732549" y="299.518125" style="stroke: #000000; stroke-width: 0.8"/>
      </g>
     </g>
     <g id="text_6">
      <!-- 1.0 -->
      <g transform="translate(413.576142 313.356719) scale(0.09 -0.09)">
       <defs>
        <path id="DejaVuSans-31" d="M 794 531 
L 1825 531 
L 1825 4091 
L 703 3866 
L 703 4441 
L 1819 4666 
L 2450 4666 
L 2450 531 
L 3481 531 
L 3481 0 
L 794 0 
L 794 531 
z
" transform="scale(0.015625)"/>
       </defs>
       <use xlink:href="#DejaVuSans-31"/>
       <use xlink:href="#DejaVuSans-2e" transform="translate(63.623047 0)"/>
       <use xlink:href="#DejaVuSans-30" transform="translate(95.410156 0)"/>
      </g>
     </g>
    </g>
    <g id="xtick_7">
     <g id="line2d_13">
      <path d="M 488.504456 299.518125 
L 488.504456 22.318125 
" clip-path="url(#pecb830461a)" style="fill: none; stroke: #b0b0b0; stroke-opacity: 0.3; stroke-width: 0.8; stroke-linecap: square"/>
     </g>
     <g id="line2d_14">
      <g>
       <use xlink:href="#m85f9c15dfc" x="488.504456" y="299.518125" style="stroke: #000000; stroke-width: 0.8"/>
      </g>
     </g>
     <g id="text_7">
      <!-- 1.2 -->
      <g transform="translate(481.34805 313.356719) scale(0.09 -0.09)">
       <use xlink:href="#DejaVuSans-31"/>
       <use xlink:href="#DejaVuSans-2e" transform="translate(63.623047 0)"/>
       <use xlink:href="#DejaVuSans-32" transform="translate(95.410156 0)"/>
      </g>
     </g>
    </g>
    <g id="xtick_8">
     <g id="line2d_15">
      <path d="M 556.276364 299.518125 
L 556.276364 22.318125 
" clip-path="url(#pecb830461a)" style="fill: none; stroke: #b0b0b0; stroke-opacity: 0.3; stroke-width: 0.8; stroke-linecap: square"/>
     </g>
     <g id="line2d_16">
      <g>
       <use xlink:href="#m85f9c15dfc" x="556.276364" y="299.518125" style="stroke: #000000; stroke-width: 0.8"/>
      </g>
     </g>
     <g id="text_8">
      <!-- 1.4 -->
      <g transform="translate(549.119957 313.356719) scale(0.09 -0.09)">
       <use xlink:href="#DejaVuSans-31"/>
       <use xlink:href="#DejaVuSans-2e" transform="translate(63.623047 0)"/>
       <use xlink:href="#DejaVuSans-34" transform="translate(95.410156 0)"/>
      </g>
     </g>
    </g>
    <g id="text_9">
     <!-- Time (ms) -->
     <g transform="translate(310.310156 326.826875) scale(0.1 -0.1)">
      <defs>
       <path id="DejaVuSans-54" d="M -19 4666 
L 3928 4666 
L 3928 4134 
L 2272 4134 
L 2272 0 
L 1638 0 
L 1638 4134 
L -19 4134 
L -19 4666 
z
" transform="scale(0.015625)"/>
       <path id="DejaVuSans-69" d="M 603 3500 
L 1178 3500 
L 1178 0 
L 603 0 
L 603 3500 
z
M 603 4863 
L 1178 4863 
L 1178 4134 
L 603 4134 
L 603 4863 
z
" transform="scale(0.015625)"/>
       <path id="DejaVuSans-6d" d="M 3328 2828 
Q 3544 3216 3844 3400 
Q 4144 3584 4550 3584 
Q 5097 3584 5394 3201 
Q 5691 2819 5691 2113 
L 5691 0 
L 5113 0 
L 5113 2094 
Q 5113 2597 4934 2840 
Q 4756 3084 4391 3084 
Q 3944 3084 3684 2787 
Q 3425 2491 3425 1978 
L 3425 0 
L 2847 0 
L 2847 2094 
Q 2847 2600 2669 2842 
Q 2491 3084 2119 3084 
Q 1678 3084 1418 2786 
Q 1159 2488 1159 1978 
L 1159 0 
L 581 0 
L 581 3500 
L 1159 3500 
L 1159 2956 
Q 1356 3278 1631 3431 
Q 1906 3584 2284 3584 
Q 2666 3584 2933 3390 
Q 3200 3197 3328 2828 
z
" transform="scale(0.015625)"/>
       <path id="DejaVuSans-65" d="M 3597 1894 
L 3597 1613 
L 953 1613 
Q 991 1019 1311 708 
Q 1631 397 2203 397 
Q 2534 397 2845 478 
Q 3156 559 3463 722 
L 3463 178 
Q 3153 47 2828 -22 
Q 2503 -91 2169 -91 
Q 1331 -91 842 396 
Q 353 884 353 1716 
Q 353 2575 817 3079 
Q 1281 3584 2069 3584 
Q 2775 3584 3186 3129 
Q 3597 2675 3597 1894 
z
M 3022 2063 
Q 3016 2534 2758 2815 
Q 2500 3097 2075 3097 
Q 1594 3097 1305 2825 
Q 1016 2553 972 2059 
L 3022 2063 
z
" transform="scale(0.015625)"/>
       <path id="DejaVuSans-20" transform="scale(0.015625)"/>
       <path id="DejaVuSans-28" d="M 1984 4856 
Q 1566 4138 1362 3434 
Q 1159 2731 1159 2009 
Q 1159 1288 1364 580 
Q 1569 -128 1984 -844 
L 1484 -844 
Q 1016 -109 783 600 
Q 550 1309 550 2009 
Q 550 2706 781 3412 
Q 1013 4119 1484 4856 
L 1984 4856 
z
" transform="scale(0.015625)"/>
       <path id="DejaVuSans-73" d="M 2834 3397 
L 2834 2853 
Q 2591 2978 2328 3040 
Q 2066 3103 1784 3103 
Q 1356 3103 1142 2972 
Q 928 2841 928 2578 
Q 928 2378 1081 2264 
Q 1234 2150 1697 2047 
L 1894 2003 
Q 2506 1872 2764 1633 
Q 3022 1394 3022 966 
Q 3022 478 2636 193 
Q 2250 -91 1575 -91 
Q 1294 -91 989 -36 
Q 684 19 347 128 
L 347 722 
Q 666 556 975 473 
Q 1284 391 1588 391 
Q 1994 391 2212 530 
Q 2431 669 2431 922 
Q 2431 1156 2273 1281 
Q 2116 1406 1581 1522 
L 1381 1569 
Q 847 1681 609 1914 
Q 372 2147 372 2553 
Q 372 3047 722 3315 
Q 1072 3584 1716 3584 
Q 2034 3584 2315 3537 
Q 2597 3491 2834 3397 
z
" transform="scale(0.015625)"/>
       <path id="DejaVuSans-29" d="M 513 4856 
L 1013 4856 
Q 1481 4119 1714 3412 
Q 1947 2706 1947 2009 
Q 1947 1309 1714 600 
Q 1481 -109 1013 -844 
L 513 -844 
Q 928 -128 1133 580 
Q 1338 1288 1338 2009 
Q 1338 2731 1133 3434 
Q 928 4138 513 4856 
z
" transform="scale(0.015625)"/>
      </defs>
      <use xlink:href="#DejaVuSans-54"/>
      <use xlink:href="#DejaVuSans-69" transform="translate(57.958984 0)"/>
      <use xlink:href="#DejaVuSans-6d" transform="translate(85.742188 0)"/>
      <use xlink:href="#DejaVuSans-65" transform="translate(183.154297 0)"/>
      <use xlink:href="#DejaVuSans-20" transform="translate(244.677734 0)"/>
      <use xlink:href="#DejaVuSans-28" transform="translate(276.464844 0)"/>
      <use xlink:href="#DejaVuSans-6d" transform="translate(315.478516 0)"/>
      <use xlink:href="#DejaVuSans-73" transform="translate(412.890625 0)"/>
      <use xlink:href="#DejaVuSans-29" transform="translate(464.990234 0)"/>
     </g>
    </g>
    <g id="text_10">
     <!-- 1e8 -->
     <g transform="translate(597.519063 325.067031) scale(0.09 -0.09)">
      <use xlink:href="#DejaVuSans-31"/>
      <use xlink:href="#DejaVuSans-65" transform="translate(63.623047 0)"/>
      <use xlink:href="#DejaVuSans-38" transform="translate(125.146484 0)"/>
     </g>
    </g>
   </g>
   <g id="matplotlib.axis_2">
    <g id="ytick_1">
     <g id="line2d_17">
      <path d="M 56.509375 276.447896 
L 614.509375 276.447896 
" clip-path="url(#pecb830461a)" style="fill: none; stroke: #b0b0b0; stroke-opacity: 0.3; stroke-width: 0.8; stroke-linecap: square"/>
     </g>
     <g id="line2d_18">
      <defs>
       <path id="m6f7c09f6bc" d="M 0 0 
L -3.5 0 
" style="stroke: #000000; stroke-width: 0.8"/>
      </defs>
      <g>
       <use xlink:href="#m6f7c09f6bc" x="56.509375" y="276.447896" style="stroke: #000000; stroke-width: 0.8"/>
      </g>
     </g>
     <g id="text_11">
      <!-- 19950 -->
      <g transform="translate(20.878125 279.867192) scale(0.09 -0.09)">
       <defs>
        <path id="DejaVuSans-39" d="M 703 97 
L 703 672 
Q 941 559 1184 500 
Q 1428 441 1663 441 
Q 2288 441 2617 861 
Q 2947 1281 2994 2138 
Q 2813 1869 2534 1725 
Q 2256 1581 1919 1581 
Q 1219 1581 811 2004 
Q 403 2428 403 3163 
Q 403 3881 828 4315 
Q 1253 4750 1959 4750 
Q 2769 4750 3195 4129 
Q 3622 3509 3622 2328 
Q 3622 1225 3098 567 
Q 2575 -91 1691 -91 
Q 1453 -91 1209 -44 
Q 966 3 703 97 
z
M 1959 2075 
Q 2384 2075 2632 2365 
Q 2881 2656 2881 3163 
Q 2881 3666 2632 3958 
Q 2384 4250 1959 4250 
Q 1534 4250 1286 3958 
Q 1038 3666 1038 3163 
Q 1038 2656 1286 2365 
Q 1534 2075 1959 2075 
z
" transform="scale(0.015625)"/>
        <path id="DejaVuSans-35" d="M 691 4666 
L 3169 4666 
L 3169 4134 
L 1269 4134 
L 1269 2991 
Q 1406 3038 1543 3061 
Q 1681 3084 1819 3084 
Q 2600 3084 3056 2656 
Q 3513 2228 3513 1497 
Q 3513 744 3044 326 
Q 2575 -91 1722 -91 
Q 1428 -91 1123 -41 
Q 819 9 494 109 
L 494 744 
Q 775 591 1075 516 
Q 1375 441 1709 441 
Q 2250 441 2565 725 
Q 2881 1009 2881 1497 
Q 2881 1984 2565 2268 
Q 2250 2553 1709 2553 
Q 1456 2553 1204 2497 
Q 953 2441 691 2322 
L 691 4666 
z
" transform="scale(0.015625)"/>
       </defs>
       <use xlink:href="#DejaVuSans-31"/>
       <use xlink:href="#DejaVuSans-39" transform="translate(63.623047 0)"/>
       <use xlink:href="#DejaVuSans-39" transform="translate(127.246094 0)"/>
       <use xlink:href="#DejaVuSans-35" transform="translate(190.869141 0)"/>
       <use xlink:href="#DejaVuSans-30" transform="translate(254.492188 0)"/>
      </g>
     </g>
    </g>
    <g id="ytick_2">
     <g id="line2d_19">
      <path d="M 56.509375 231.161091 
L 614.509375 231.161091 
" clip-path="url(#pecb830461a)" style="fill: none; stroke: #b0b0b0; stroke-opacity: 0.3; stroke-width: 0.8; stroke-linecap: square"/>
     </g>
     <g id="line2d_20">
      <g>
       <use xlink:href="#m6f7c09f6bc" x="56.509375" y="231.161091" style="stroke: #000000; stroke-width: 0.8"/>
      </g>
     </g>
     <g id="text_12">
      <!-- 20000 -->
      <g transform="translate(20.878125 234.580388) scale(0.09 -0.09)">
       <use xlink:href="#DejaVuSans-32"/>
       <use xlink:href="#DejaVuSans-30" transform="translate(63.623047 0)"/>
       <use xlink:href="#DejaVuSans-30" transform="translate(127.246094 0)"/>
       <use xlink:href="#DejaVuSans-30" transform="translate(190.869141 0)"/>
       <use xlink:href="#DejaVuSans-30" transform="translate(254.492188 0)"/>
      </g>
     </g>
    </g>
    <g id="ytick_3">
     <g id="line2d_21">
      <path d="M 56.509375 185.874287 
L 614.509375 185.874287 
" clip-path="url(#pecb830461a)" style="fill: none; stroke: #b0b0b0; stroke-opacity: 0.3; stroke-width: 0.8; stroke-linecap: square"/>
     </g>
     <g id="line2d_22">
      <g>
       <use xlink:href="#m6f7c09f6bc" x="56.509375" y="185.874287" style="stroke: #000000; stroke-width: 0.8"/>
      </g>
     </g>
     <g id="text_13">
      <!-- 20050 -->
      <g transform="translate(20.878125 189.293583) scale(0.09 -0.09)">
       <use xlink:href="#DejaVuSans-32"/>
       <use xlink:href="#DejaVuSans-30" transform="translate(63.623047 0)"/>
       <use xlink:href="#DejaVuSans-30" transform="translate(127.246094 0)"/>
       <use xlink:href="#DejaVuSans-35" transform="translate(190.869141 0)"/>
       <use xlink:href="#DejaVuSans-30" transform="translate(254.492188 0)"/>
      </g>
     </g>
    </g>
    <g id="ytick_4">
     <g id="line2d_23">
      <path d="M 56.509375 140.587482 
L 614.509375 140.587482 
" clip-path="url(#pecb830461a)" style="fill: none; stroke: #b0b0b0; stroke-opacity: 0.3; stroke-width: 0.8; stroke-linecap: square"/>
     </g>
     <g id="line2d_24">
      <g>
       <use xlink:href="#m6f7c09f6bc" x="56.509375" y="140.587482" style="stroke: #000000; stroke-width: 0.8"/>
      </g>
     </g>
     <g id="text_14">
      <!-- 20100 -->
      <g transform="translate(20.878125 144.006779) scale(0.09 -0.09)">
       <use xlink:href="#DejaVuSans-32"/>
       <use xlink:href="#DejaVuSans-30" transform="translate(63.623047 0)"/>
       <use xlink:href="#DejaVuSans-31" transform="translate(127.246094 0)"/>
       <use xlink:href="#DejaVuSans-30" transform="translate(190.869141 0)"/>
       <use xlink:href="#DejaVuSans-30" transform="translate(254.492188 0)"/>
      </g>
     </g>
    </g>
    <g id="ytick_5">
     <g id="line2d_25">
      <path d="M 56.509375 95.300678 
L 614.509375 95.300678 
" clip-path="url(#pecb830461a)" style="fill: none; stroke: #b0b0b0; stroke-opacity: 0.3; stroke-width: 0.8; stroke-linecap: square"/>
     </g>
     <g id="line2d_26">
      <g>
       <use xlink:href="#m6f7c09f6bc" x="56.509375" y="95.300678" style="stroke: #000000; stroke-width: 0.8"/>
      </g>
     </g>
     <g id="text_15">
      <!-- 20150 -->
      <g transform="translate(20.878125 98.719975) scale(0.09 -0.09)">
       <use xlink:href="#DejaVuSans-32"/>
       <use xlink:href="#DejaVuSans-30" transform="translate(63.623047 0)"/>
       <use xlink:href="#DejaVuSans-31" transform="translate(127.246094 0)"/>
       <use xlink:href="#DejaVuSans-35" transform="translate(190.869141 0)"/>
       <use xlink:href="#DejaVuSans-30" transform="translate(254.492188 0)"/>
      </g>
     </g>
    </g>
    <g id="ytick_6">
     <g id="line2d_27">
      <path d="M 56.509375 50.013873 
L 614.509375 50.013873 
" clip-path="url(#pecb830461a)" style="fill: none; stroke: #b0b0b0; stroke-opacity: 0.3; stroke-width: 0.8; stroke-linecap: square"/>
     </g>
     <g id="line2d_28">
      <g>
       <use xlink:href="#m6f7c09f6bc" x="56.509375" y="50.013873" style="stroke: #000000; stroke-width: 0.8"/>
      </g>
     </g>
     <g id="text_16">
      <!-- 20200 -->
      <g transform="translate(20.878125 53.43317) scale(0.09 -0.09)">
       <use xlink:href="#DejaVuSans-32"/>
       <use xlink:href="#DejaVuSans-30" transform="translate(63.623047 0)"/>
       <use xlink:href="#DejaVuSans-32" transform="translate(127.246094 0)"/>
       <use xlink:href="#DejaVuSans-30" transform="translate(190.869141 0)"/>
       <use xlink:href="#DejaVuSans-30" transform="translate(254.492188 0)"/>
      </g>
     </g>
    </g>
    <g id="text_17">
     <!-- Close -->
     <g transform="translate(14.798438 174.539219) rotate(-90) scale(0.1 -0.1)">
      <defs>
       <path id="DejaVuSans-43" d="M 4122 4306 
L 4122 3641 
Q 3803 3938 3442 4084 
Q 3081 4231 2675 4231 
Q 1875 4231 1450 3742 
Q 1025 3253 1025 2328 
Q 1025 1406 1450 917 
Q 1875 428 2675 428 
Q 3081 428 3442 575 
Q 3803 722 4122 1019 
L 4122 359 
Q 3791 134 3420 21 
Q 3050 -91 2638 -91 
Q 1578 -91 968 557 
Q 359 1206 359 2328 
Q 359 3453 968 4101 
Q 1578 4750 2638 4750 
Q 3056 4750 3426 4639 
Q 3797 4528 4122 4306 
z
" transform="scale(0.015625)"/>
       <path id="DejaVuSans-6c" d="M 603 4863 
L 1178 4863 
L 1178 0 
L 603 0 
L 603 4863 
z
" transform="scale(0.015625)"/>
       <path id="DejaVuSans-6f" d="M 1959 3097 
Q 1497 3097 1228 2736 
Q 959 2375 959 1747 
Q 959 1119 1226 758 
Q 1494 397 1959 397 
Q 2419 397 2687 759 
Q 2956 1122 2956 1747 
Q 2956 2369 2687 2733 
Q 2419 3097 1959 3097 
z
M 1959 3584 
Q 2709 3584 3137 3096 
Q 3566 2609 3566 1747 
Q 3566 888 3137 398 
Q 2709 -91 1959 -91 
Q 1206 -91 779 398 
Q 353 888 353 1747 
Q 353 2609 779 3096 
Q 1206 3584 1959 3584 
z
" transform="scale(0.015625)"/>
      </defs>
      <use xlink:href="#DejaVuSans-43"/>
      <use xlink:href="#DejaVuSans-6c" transform="translate(69.824219 0)"/>
      <use xlink:href="#DejaVuSans-6f" transform="translate(97.607422 0)"/>
      <use xlink:href="#DejaVuSans-73" transform="translate(158.789062 0)"/>
      <use xlink:href="#DejaVuSans-65" transform="translate(210.888672 0)"/>
     </g>
    </g>
   </g>
   <g id="line2d_29">
    <path d="M 81.873011 231.146238 
L 82.88959 217.643448 
L 83.906169 208.640849 
L 84.922747 211.910692 
L 85.939326 214.181347 
L 86.955904 218.921063 
L 87.972483 215.316391 
L 88.989062 216.138981 
L 90.00564 206.514075 
L 91.022219 225.21572 
L 92.038797 212.057057 
L 93.055376 212.562631 
L 94.071955 205.26695 
L 95.088533 205.448838 
L 96.105112 209.955331 
L 97.121691 204.672514 
L 98.138269 198.088467 
L 99.154848 199.702031 
L 100.171426 200.623006 
L 101.188005 195.64598 
L 102.204584 202.921496 
L 103.221162 217.258666 
L 104.237741 213.908138 
L 105.254319 218.811466 
L 106.270898 237.54415 
L 107.287477 244.102289 
L 108.304055 249.127811 
L 109.320634 259.300641 
L 110.337212 273.216807 
L 111.353791 271.41771 
L 112.37037 264.211881 
L 113.386948 266.327291 
L 114.403527 271.6413 
L 115.420106 272.272127 
L 116.436684 264.168525 
L 117.453263 268.360519 
L 118.469841 260.954624 
L 119.48642 251.107891 
L 120.502999 252.798502 
L 121.519577 260.508774 
L 122.536156 258.394825 
L 123.552734 253.77698 
L 124.569313 245.137852 
L 125.585892 257.287031 
L 127.619049 270.257304 
L 128.635628 286.790248 
L 129.652206 285.60918 
L 130.668785 280.235183 
L 131.685363 286.918125 
L 132.701942 275.309966 
L 133.718521 265.987926 
L 135.751678 258.816203 
L 136.768256 248.870968 
L 137.784835 261.099731 
L 139.817992 250.569764 
L 140.834571 266.170353 
L 141.851149 263.576369 
L 142.867728 266.828511 
L 143.884307 257.591301 
L 144.900885 263.152368 
L 145.917464 262.607677 
L 146.934043 258.633343 
L 147.950621 267.210732 
L 148.9672 259.327545 
L 149.983778 264.030005 
L 151.000357 258.980127 
L 152.016936 262.949413 
L 153.033514 251.963131 
L 154.050093 247.935998 
L 155.066671 250.62044 
L 156.08325 242.564901 
L 157.099829 233.025777 
L 158.116407 216.147817 
L 159.132986 229.422793 
L 160.149564 222.829281 
L 161.166143 218.420421 
L 162.182722 218.420169 
L 163.1993 228.164723 
L 164.215879 216.334376 
L 165.232458 228.879765 
L 166.249036 222.995819 
L 167.265615 212.085997 
L 168.282193 226.997218 
L 169.298772 226.736838 
L 170.315351 239.774137 
L 171.331929 237.145401 
L 172.348508 225.136424 
L 173.365086 205.958077 
L 174.381665 222.223556 
L 175.398244 228.532138 
L 176.414822 220.378308 
L 177.431401 207.222331 
L 178.447979 202.937197 
L 179.464558 210.885932 
L 180.481137 205.921378 
L 181.497715 206.283699 
L 182.514294 208.461345 
L 183.530873 216.292744 
L 184.547451 212.449747 
L 185.56403 208.066404 
L 186.580608 210.265978 
L 187.597187 211.781498 
L 188.613766 223.533758 
L 189.630344 229.07787 
L 190.646923 215.756926 
L 191.663501 220.660318 
L 192.68008 231.700467 
L 193.696659 219.896129 
L 194.713237 216.479349 
L 195.729816 195.619557 
L 196.746394 194.882966 
L 197.762973 199.486214 
L 198.779552 213.394575 
L 199.79613 200.246795 
L 200.812709 176.371712 
L 201.829288 184.616523 
L 202.845866 189.116291 
L 203.862445 184.499575 
L 204.879023 192.101389 
L 205.895602 193.989475 
L 206.912181 199.0163 
L 207.928759 197.150635 
L 208.945338 186.295297 
L 209.961916 186.09189 
L 210.978495 176.872265 
L 211.995074 181.004524 
L 213.011652 178.913717 
L 214.028231 198.240625 
L 215.04481 211.819916 
L 216.061388 204.691077 
L 217.077967 210.114003 
L 218.094545 203.632592 
L 219.111124 199.964712 
L 220.127703 187.882296 
L 222.16086 171.458421 
L 223.177438 172.211453 
L 224.194017 180.304378 
L 225.210596 184.613098 
L 226.227174 189.646862 
L 227.243753 199.42763 
L 228.260331 204.223764 
L 229.27691 207.073502 
L 230.293489 200.933874 
L 231.310067 206.028541 
L 232.326646 223.42648 
L 233.343225 225.851279 
L 234.359803 221.621412 
L 235.376382 211.980694 
L 236.39296 207.43781 
L 238.426118 218.318172 
L 239.442696 201.564767 
L 240.459275 195.220125 
L 242.492432 158.27469 
L 243.509011 166.081399 
L 244.525589 160.34427 
L 245.542168 158.13191 
L 246.558746 153.363665 
L 247.575325 148.056569 
L 248.591904 146.831172 
L 249.608482 144.696761 
L 250.625061 158.364912 
L 251.64164 160.593475 
L 252.658218 167.007087 
L 253.674797 165.350732 
L 254.691375 169.521194 
L 255.707954 163.739376 
L 256.724533 156.138725 
L 257.741111 153.82958 
L 258.75769 150.724659 
L 259.774268 150.697113 
L 260.790847 154.64256 
L 261.807426 154.961328 
L 262.824004 162.182191 
L 263.840583 156.546063 
L 264.857161 153.892959 
L 265.87374 153.171281 
L 266.890319 162.173145 
L 267.906897 157.086406 
L 269.940055 167.593502 
L 270.956633 169.51131 
L 271.973212 176.787043 
L 272.98979 174.51092 
L 274.006369 179.840073 
L 275.022948 187.579327 
L 276.039526 196.246855 
L 277.056105 184.007661 
L 278.072683 183.380714 
L 279.089262 193.820456 
L 280.105841 193.633535 
L 281.122419 208.101188 
L 282.138998 193.460503 
L 283.155576 204.496957 
L 284.172155 203.967886 
L 285.188734 195.438438 
L 286.205312 210.238219 
L 287.221891 207.152381 
L 288.23847 198.415874 
L 289.255048 194.043482 
L 290.271627 191.365083 
L 291.288205 183.003387 
L 292.304784 182.287611 
L 293.321363 177.477351 
L 294.337941 179.920015 
L 295.35452 172.456432 
L 296.371098 182.338109 
L 297.387677 175.667844 
L 298.404256 179.20979 
L 299.420834 188.679731 
L 300.437413 187.012811 
L 301.453992 171.099277 
L 302.47057 160.839596 
L 303.487149 167.707109 
L 304.503727 161.250053 
L 305.520306 164.443213 
L 306.536885 166.817703 
L 307.553463 167.138794 
L 308.570042 187.405145 
L 309.58662 183.820073 
L 310.603199 192.891624 
L 311.619778 199.264807 
L 312.636356 212.801577 
L 313.652935 228.008064 
L 314.669513 234.821244 
L 315.686092 226.913536 
L 316.702671 213.498875 
L 317.719249 212.24147 
L 318.735828 203.53862 
L 319.752407 205.424609 
L 320.768985 222.581089 
L 321.785564 222.901741 
L 322.802142 216.191782 
L 323.818721 222.176291 
L 324.8353 218.755157 
L 325.851878 213.92483 
L 326.868457 220.882676 
L 327.885035 234.282446 
L 328.901614 236.658388 
L 329.918193 237.308478 
L 330.934771 241.527144 
L 331.95135 233.202764 
L 332.967928 219.820088 
L 333.984507 221.240612 
L 335.001086 214.918081 
L 336.017664 206.921696 
L 337.034243 200.452799 
L 338.050822 189.648546 
L 339.0674 192.764909 
L 340.083979 185.29449 
L 341.100557 167.639382 
L 342.117136 162.035909 
L 343.133715 166.777512 
L 344.150293 162.740202 
L 345.166872 149.409654 
L 346.18345 146.405437 
L 347.200029 152.385402 
L 348.216608 137.951536 
L 349.233186 149.402397 
L 350.249765 145.192368 
L 351.266343 143.56597 
L 352.282922 152.761184 
L 353.299501 143.782391 
L 354.316079 140.419089 
L 355.332658 151.800219 
L 356.349237 146.811819 
L 357.365815 148.415684 
L 358.382394 167.96961 
L 359.398972 173.519095 
L 360.415551 171.598588 
L 361.43213 165.197719 
L 363.465287 163.28677 
L 364.481865 160.714424 
L 365.498444 161.569613 
L 366.515023 149.57685 
L 367.531601 150.407812 
L 368.54818 147.414141 
L 369.564758 140.670032 
L 370.581337 151.120369 
L 371.597916 156.942444 
L 372.614494 146.092421 
L 373.631073 140.897202 
L 374.647652 144.744448 
L 375.66423 141.75685 
L 376.680809 144.485998 
L 377.697387 141.262891 
L 378.713966 149.72308 
L 379.730545 146.871133 
L 380.747123 160.687079 
L 381.763702 148.218178 
L 382.78028 153.956232 
L 383.796859 165.022345 
L 384.813438 168.566643 
L 385.830016 172.787331 
L 386.846595 171.551575 
L 387.863174 179.344769 
L 388.879752 175.820931 
L 389.896331 145.479309 
L 390.912909 156.30184 
L 391.929488 152.415194 
L 392.946067 157.449792 
L 393.962645 155.163561 
L 394.979224 169.813874 
L 395.995802 182.097183 
L 397.012381 177.696658 
L 398.02896 178.877407 
L 399.045538 163.534156 
L 400.062117 168.603928 
L 401.078695 168.396269 
L 402.095274 142.451328 
L 404.128431 154.774663 
L 405.14501 156.544595 
L 406.161589 157.620546 
L 407.178167 149.325672 
L 408.194746 147.889177 
L 409.211324 155.036573 
L 410.227903 154.877967 
L 411.244482 129.063083 
L 412.26106 118.011572 
L 413.277639 142.249044 
L 414.294217 145.536195 
L 415.310796 151.275923 
L 416.327375 147.047333 
L 417.343953 149.72171 
L 418.360532 129.449341 
L 419.37711 122.69794 
L 420.393689 113.823484 
L 421.410268 112.622351 
L 422.426846 111.844224 
L 423.443425 108.752743 
L 424.460004 97.01218 
L 425.476582 92.5379 
L 426.493161 97.843203 
L 427.509739 86.356042 
L 428.526318 82.900105 
L 429.542897 84.656082 
L 431.576054 95.929941 
L 432.592632 103.133066 
L 433.609211 128.080507 
L 434.62579 118.959948 
L 435.642368 113.604469 
L 436.658947 114.924274 
L 437.675525 104.63966 
L 438.692104 100.071944 
L 439.708683 98.815873 
L 440.725261 120.858999 
L 441.74184 121.035142 
L 442.758419 116.817649 
L 445.808154 74.393522 
L 446.824733 83.849353 
L 447.841312 104.438766 
L 448.85789 96.913494 
L 449.874469 98.39982 
L 450.891047 89.505467 
L 451.907626 91.909701 
L 452.924205 89.868867 
L 453.940783 103.109892 
L 454.957362 99.015216 
L 455.97394 102.68631 
L 458.007098 94.924435 
L 459.023676 95.287049 
L 460.040255 94.57108 
L 461.056834 93.264635 
L 462.073412 86.361633 
L 463.089991 80.583762 
L 464.106569 87.19259 
L 465.123148 92.019428 
L 466.139727 77.270838 
L 467.156305 77.057111 
L 468.172884 68.097405 
L 469.189462 65.472974 
L 470.206041 70.409233 
L 471.22262 76.820517 
L 472.239198 75.172362 
L 473.255777 74.430558 
L 474.272356 67.004389 
L 475.288934 79.593144 
L 476.305513 82.936955 
L 477.322091 84.197445 
L 478.33867 71.406076 
L 479.355249 92.986409 
L 480.371827 86.185479 
L 481.388406 92.750154 
L 482.404984 88.899863 
L 483.421563 94.263098 
L 484.438142 90.692436 
L 485.45472 75.66464 
L 486.471299 72.63003 
L 487.487877 70.026083 
L 488.504456 64.752924 
L 489.521035 72.404685 
L 490.537613 68.639181 
L 491.554192 68.744551 
L 492.570771 77.167998 
L 493.587349 76.639652 
L 494.603928 79.92198 
L 495.620506 72.259008 
L 496.637085 74.464304 
L 497.653664 77.432258 
L 499.686821 55.484756 
L 500.703399 46.453633 
L 501.719978 38.688611 
L 502.736557 38.962303 
L 503.753135 42.975755 
L 504.769714 44.855146 
L 505.786292 38.347636 
L 506.802871 34.918125 
L 507.81945 48.314457 
L 508.836028 51.235211 
L 509.852607 63.690829 
L 510.869186 61.983692 
L 512.902343 83.64285 
L 513.918921 84.995541 
L 514.9355 82.904754 
L 515.952079 98.731862 
L 516.968657 92.65289 
L 517.985236 71.261692 
L 519.001814 85.862687 
L 520.018393 68.025855 
L 521.034972 74.807068 
L 522.05155 80.062141 
L 523.068129 80.318353 
L 524.084707 93.743808 
L 525.101286 83.175702 
L 526.117865 79.724705 
L 527.134443 85.557398 
L 528.151022 87.003849 
L 529.167601 101.519364 
L 530.184179 102.840197 
L 531.200758 95.733813 
L 532.217336 111.33032 
L 533.233915 115.090842 
L 534.250494 114.936508 
L 535.267072 104.747472 
L 536.283651 93.018391 
L 538.316808 104.885523 
L 539.333387 98.508168 
L 540.349965 102.87747 
L 541.366544 105.391605 
L 542.383122 96.846165 
L 543.399701 80.729299 
L 544.41628 77.068642 
L 545.432858 79.436514 
L 546.449437 74.824664 
L 547.466016 90.049454 
L 548.482594 91.667106 
L 549.499173 101.537727 
L 550.515751 78.530861 
L 551.53233 74.637273 
L 552.548909 71.269271 
L 553.565487 74.550921 
L 554.582066 97.031696 
L 555.598644 90.48039 
L 556.615223 74.980178 
L 557.631802 81.601228 
L 559.664959 68.774639 
L 560.681538 81.707082 
L 561.698116 72.96835 
L 562.714695 61.593458 
L 563.731273 59.480309 
L 564.747852 61.086143 
L 565.764431 54.610328 
L 566.781009 67.021791 
L 567.797588 66.683986 
L 568.814166 56.384085 
L 569.830745 70.085718 
L 570.847324 56.985132 
L 571.863902 64.378057 
L 572.880481 82.032183 
L 573.897059 82.117292 
L 574.913638 93.087573 
L 575.930217 89.437813 
L 576.946795 101.392812 
L 577.963374 91.34198 
L 578.979953 98.496819 
L 579.996531 93.405402 
L 581.01311 98.611728 
L 582.029688 102.094211 
L 583.046267 89.857133 
L 584.062846 87.792934 
L 585.079424 92.644371 
L 586.096003 104.174674 
L 587.112581 93.717278 
L 588.12916 87.242826 
L 589.145739 88.594731 
L 589.145739 88.594731 
" clip-path="url(#pecb830461a)" style="fill: none; stroke: #1f77b4; stroke-opacity: 0.6; stroke-width: 1.5; stroke-linecap: square"/>
   </g>
   <g id="line2d_30">
    <path d="M 81.873011 231.146238 
L 82.88959 224.394843 
L 83.906169 219.143512 
L 84.922747 217.335307 
L 85.939326 216.704515 
L 86.955904 217.07394 
L 87.972483 216.822861 
L 88.989062 216.737376 
L 90.00564 215.601454 
L 91.022219 216.56288 
L 93.055376 215.854041 
L 95.088533 214.354591 
L 96.105112 214.061307 
L 97.121691 213.474508 
L 98.138269 212.569447 
L 101.188005 210.48258 
L 102.204584 209.071343 
L 103.221162 209.052104 
L 105.254319 209.660507 
L 107.287477 212.087709 
L 108.304055 213.77828 
L 109.320634 215.936363 
L 110.337212 219.271499 
L 111.353791 221.581599 
L 113.386948 226.877573 
L 115.420106 233.537455 
L 116.436684 236.248115 
L 118.469841 242.575823 
L 120.502999 247.754891 
L 121.519577 250.99803 
L 122.536156 253.771697 
L 123.552734 255.597613 
L 124.569313 257.159098 
L 125.585892 259.082877 
L 127.619049 261.71644 
L 128.635628 263.599562 
L 129.652206 264.914989 
L 130.668785 265.265908 
L 131.685363 266.040929 
L 132.701942 266.595833 
L 133.718521 266.578865 
L 134.735099 266.114278 
L 136.768256 264.676604 
L 138.801414 264.045444 
L 139.817992 264.018538 
L 140.834571 264.68713 
L 141.851149 264.84051 
L 142.867728 265.262194 
L 143.884307 265.45291 
L 144.900885 266.353636 
L 145.917464 266.619669 
L 146.934043 266.348315 
L 147.950621 266.195986 
L 148.9672 264.822851 
L 152.016936 261.482704 
L 153.033514 260.315362 
L 154.050093 259.412766 
L 155.066671 258.826309 
L 157.099829 257.221485 
L 158.116407 254.973889 
L 160.149564 252.278394 
L 162.182722 247.633087 
L 166.249036 239.942829 
L 167.265615 237.615461 
L 168.282193 235.604786 
L 169.298772 233.97525 
L 171.331929 231.670721 
L 172.348508 229.780071 
L 173.365086 227.479819 
L 174.381665 226.194196 
L 176.414822 223.980452 
L 177.431401 222.690279 
L 178.447979 222.029748 
L 180.481137 220.25751 
L 183.530873 218.559134 
L 184.547451 218.364903 
L 185.56403 217.324235 
L 186.580608 216.687743 
L 187.597187 216.672518 
L 188.613766 216.499345 
L 189.630344 216.616396 
L 190.646923 215.415536 
L 191.663501 214.591282 
L 192.68008 214.919484 
L 193.696659 215.616386 
L 194.713237 215.329176 
L 195.729816 213.683547 
L 196.746394 212.40878 
L 197.762973 212.021974 
L 198.779552 212.544843 
L 199.79613 212.012886 
L 200.812709 210.535403 
L 202.845866 208.484791 
L 203.862445 206.895133 
L 204.879023 205.877715 
L 205.895602 205.173868 
L 206.912181 204.611384 
L 207.928759 203.879841 
L 208.945338 202.017918 
L 210.978495 197.924386 
L 211.995074 195.941596 
L 213.011652 193.302259 
L 214.028231 192.219484 
L 215.04481 191.986512 
L 216.061388 192.440088 
L 217.077967 193.20164 
L 218.094545 193.408959 
L 220.127703 192.119241 
L 221.144281 192.303772 
L 222.16086 191.645866 
L 223.177438 190.800625 
L 224.194017 190.590865 
L 225.210596 190.21645 
L 226.227174 189.99932 
L 227.243753 190.019886 
L 228.260331 190.373542 
L 229.27691 191.412453 
L 230.293489 192.154552 
L 231.310067 193.612366 
L 233.343225 198.080342 
L 234.359803 199.249381 
L 235.376382 199.25742 
L 237.409539 199.524469 
L 238.426118 200.258748 
L 239.442696 200.33875 
L 240.459275 200.705642 
L 241.475853 200.532606 
L 242.492432 199.873419 
L 243.509011 199.566916 
L 244.525589 198.568911 
L 245.542168 197.244852 
L 246.558746 195.430692 
L 248.591904 189.992509 
L 249.608482 186.873672 
L 251.64164 182.473471 
L 254.691375 174.022463 
L 256.724533 169.045443 
L 257.741111 166.10151 
L 258.75769 162.721834 
L 259.774268 160.178451 
L 260.790847 158.149573 
L 261.807426 157.067559 
L 262.824004 157.262934 
L 263.840583 156.786167 
L 265.87374 156.21557 
L 267.906897 157.107536 
L 268.923476 157.869996 
L 269.940055 159.014833 
L 270.956633 159.572153 
L 271.973212 160.381831 
L 272.98979 160.757023 
L 274.006369 161.48149 
L 275.022948 162.384396 
L 276.039526 164.00977 
L 278.072683 166.880774 
L 280.105841 171.182385 
L 281.122419 173.855316 
L 283.155576 177.896013 
L 284.172155 180.267104 
L 285.188734 182.344378 
L 286.205312 185.197725 
L 288.23847 189.513161 
L 289.255048 191.111316 
L 290.271627 192.299895 
L 291.288205 192.974499 
L 292.304784 193.249527 
L 293.321363 193.397849 
L 294.337941 193.401846 
L 296.371098 191.950264 
L 297.387677 191.533273 
L 299.420834 191.067691 
L 300.437413 190.736655 
L 304.503727 183.28013 
L 305.520306 181.730368 
L 307.553463 177.558663 
L 309.58662 176.496956 
L 310.603199 176.573283 
L 311.619778 177.386354 
L 312.636356 178.912053 
L 314.669513 184.18365 
L 315.686092 186.906505 
L 316.702671 188.464543 
L 317.719249 190.293225 
L 318.735828 191.509666 
L 319.752407 192.34691 
L 320.768985 194.125324 
L 322.802142 199.483056 
L 326.868457 210.2591 
L 327.885035 213.616283 
L 330.934771 221.185141 
L 331.95135 222.882039 
L 332.967928 223.232965 
L 333.984507 222.894592 
L 336.017664 220.899842 
L 337.034243 220.247538 
L 338.050822 219.117892 
L 339.0674 218.579206 
L 340.083979 217.5727 
L 344.150293 206.339806 
L 347.200029 196.071697 
L 349.233186 186.892352 
L 352.282922 173.366409 
L 355.332658 162.367555 
L 356.349237 159.362061 
L 357.365815 156.760205 
L 359.398972 154.713968 
L 360.415551 154.029172 
L 361.43213 153.907089 
L 362.448708 154.019182 
L 364.481865 153.743356 
L 365.498444 154.351354 
L 366.515023 154.509924 
L 367.531601 154.411045 
L 368.54818 154.884175 
L 369.564758 154.447557 
L 370.581337 154.743957 
L 371.597916 155.41278 
L 372.614494 155.079342 
L 373.631073 154.935083 
L 374.647652 155.151351 
L 375.66423 154.649182 
L 376.680809 154.532891 
L 377.697387 154.175252 
L 378.713966 153.262925 
L 379.730545 151.930527 
L 380.747123 151.384952 
L 381.763702 150.535975 
L 382.78028 150.019898 
L 383.796859 150.106677 
L 384.813438 150.499288 
L 385.830016 151.060174 
L 386.846595 152.15891 
L 388.879752 155.026098 
L 390.912909 155.525635 
L 391.929488 155.299272 
L 392.946067 155.867141 
L 393.962645 156.580459 
L 394.979224 157.83393 
L 395.995802 159.850947 
L 397.012381 161.51148 
L 398.02896 163.392206 
L 399.045538 164.08276 
L 400.062117 165.169399 
L 401.078695 165.554859 
L 403.111853 165.007233 
L 405.14501 163.893747 
L 406.161589 163.135408 
L 407.178167 162.024112 
L 408.194746 160.451333 
L 409.211324 159.412115 
L 410.227903 159.882048 
L 411.244482 158.52011 
L 412.26106 156.799929 
L 413.277639 156.039891 
L 414.294217 155.558523 
L 415.310796 154.631625 
L 416.327375 152.879133 
L 417.343953 151.480386 
L 418.360532 149.008982 
L 419.37711 146.967171 
L 421.410268 141.439453 
L 422.426846 139.909098 
L 423.443425 137.908207 
L 425.476582 131.819748 
L 427.509739 125.682399 
L 430.559475 115.696493 
L 431.576054 114.039836 
L 433.609211 112.587483 
L 434.62579 111.258671 
L 435.642368 109.375098 
L 436.658947 107.768945 
L 437.675525 105.514843 
L 438.692104 104.045973 
L 439.708683 102.85187 
L 442.758419 103.872956 
L 443.774997 103.5774 
L 444.791576 103.153389 
L 445.808154 102.24617 
L 446.824733 101.546478 
L 447.841312 102.450614 
L 449.874469 103.83847 
L 450.891047 103.787274 
L 451.907626 103.586262 
L 452.924205 102.923052 
L 453.940783 101.674521 
L 454.957362 100.677285 
L 455.97394 100.131377 
L 456.990519 99.333194 
L 458.007098 98.847432 
L 460.040255 98.395948 
L 461.056834 97.01623 
L 463.089991 93.47086 
L 464.106569 92.688408 
L 466.139727 93.006647 
L 467.156305 92.667035 
L 468.172884 90.849967 
L 470.206041 87.878412 
L 471.22262 87.244164 
L 473.255777 85.635382 
L 474.272356 83.830107 
L 476.305513 81.871536 
L 477.322091 81.133377 
L 478.33867 79.957459 
L 479.355249 79.842427 
L 480.371827 79.423147 
L 481.388406 79.397423 
L 482.404984 79.524335 
L 483.421563 80.208301 
L 484.438142 80.383294 
L 485.45472 79.565554 
L 486.471299 79.333514 
L 487.487877 78.981963 
L 488.504456 78.814738 
L 489.521035 79.161324 
L 490.537613 79.072821 
L 491.554192 78.669023 
L 493.587349 78.87926 
L 494.603928 79.525139 
L 498.670242 78.125104 
L 500.703399 74.263429 
L 502.736557 69.063474 
L 504.769714 64.207242 
L 506.802871 60.455797 
L 507.81945 59.370216 
L 508.836028 58.69433 
L 510.869186 57.925863 
L 511.885764 58.107926 
L 514.9355 58.998601 
L 515.952079 60.322244 
L 516.968657 61.231673 
L 517.985236 60.923145 
L 519.001814 61.917412 
L 520.018393 62.544467 
L 521.034972 63.962139 
L 523.068129 68.098618 
L 524.084707 70.63702 
L 526.117865 74.621902 
L 527.134443 77.153865 
L 528.151022 79.088335 
L 529.167601 81.602542 
L 530.184179 83.560011 
L 531.200758 85.247517 
L 532.217336 87.194742 
L 534.250494 90.26419 
L 535.267072 91.356326 
L 536.283651 91.070653 
L 537.300229 91.373041 
L 538.316808 93.054233 
L 539.333387 93.686507 
L 541.366544 96.958314 
L 542.383122 97.797515 
L 543.399701 97.818063 
L 544.41628 96.984304 
L 546.449437 96.552343 
L 548.482594 97.010109 
L 549.499173 97.011027 
L 551.53233 94.740733 
L 553.565487 90.710684 
L 554.582066 89.815444 
L 555.598644 89.10209 
L 557.631802 87.345208 
L 559.664959 84.375872 
L 560.681538 83.317353 
L 562.714695 79.933555 
L 563.731273 78.871105 
L 564.747852 78.07198 
L 565.764431 76.830671 
L 566.781009 76.440527 
L 567.797588 75.272254 
L 569.830745 71.935503 
L 570.847324 70.858216 
L 571.863902 70.345255 
L 572.880481 70.883401 
L 573.897059 71.26172 
L 574.913638 71.064513 
L 575.930217 71.012385 
L 576.946795 72.333016 
L 577.963374 72.820054 
L 579.996531 75.214816 
L 581.01311 76.060048 
L 585.079424 81.923067 
L 586.096003 84.401285 
L 587.112581 85.736059 
L 588.12916 86.764001 
L 589.145739 88.374533 
L 589.145739 88.374533 
" clip-path="url(#pecb830461a)" style="fill: none; stroke: #ff7f0e; stroke-width: 1.5; stroke-linecap: square"/>
   </g>
   <g id="patch_3">
    <path d="M 56.509375 299.518125 
L 56.509375 22.318125 
" style="fill: none; stroke: #000000; stroke-width: 0.8; stroke-linejoin: miter; stroke-linecap: square"/>
   </g>
   <g id="patch_4">
    <path d="M 614.509375 299.518125 
L 614.509375 22.318125 
" style="fill: none; stroke: #000000; stroke-width: 0.8; stroke-linejoin: miter; stroke-linecap: square"/>
   </g>
   <g id="patch_5">
    <path d="M 56.509375 299.518125 
L 614.509375 299.518125 
" style="fill: none; stroke: #000000; stroke-width: 0.8; stroke-linejoin: miter; stroke-linecap: square"/>
   </g>
   <g id="patch_6">
    <path d="M 56.509375 22.318125 
L 614.509375 22.318125 
" style="fill: none; stroke: #000000; stroke-width: 0.8; stroke-linejoin: miter; stroke-linecap: square"/>
   </g>
   <g id="text_18">
    <!-- Close Price -->
    <g transform="translate(302.62 16.318125) scale(0.12 -0.12)">
     <defs>
      <path id="DejaVuSans-50" d="M 1259 4147 
L 1259 2394 
L 2053 2394 
Q 2494 2394 2734 2622 
Q 2975 2850 2975 3272 
Q 2975 3691 2734 3919 
Q 2494 4147 2053 4147 
L 1259 4147 
z
M 628 4666 
L 2053 4666 
Q 2838 4666 3239 4311 
Q 3641 3956 3641 3272 
Q 3641 2581 3239 2228 
Q 2838 1875 2053 1875 
L 1259 1875 
L 1259 0 
L 628 0 
L 628 4666 
z
" transform="scale(0.015625)"/>
      <path id="DejaVuSans-72" d="M 2631 2963 
Q 2534 3019 2420 3045 
Q 2306 3072 2169 3072 
Q 1681 3072 1420 2755 
Q 1159 2438 1159 1844 
L 1159 0 
L 581 0 
L 581 3500 
L 1159 3500 
L 1159 2956 
Q 1341 3275 1631 3429 
Q 1922 3584 2338 3584 
Q 2397 3584 2469 3576 
Q 2541 3569 2628 3553 
L 2631 2963 
z
" transform="scale(0.015625)"/>
      <path id="DejaVuSans-63" d="M 3122 3366 
L 3122 2828 
Q 2878 2963 2633 3030 
Q 2388 3097 2138 3097 
Q 1578 3097 1268 2742 
Q 959 2388 959 1747 
Q 959 1106 1268 751 
Q 1578 397 2138 397 
Q 2388 397 2633 464 
Q 2878 531 3122 666 
L 3122 134 
Q 2881 22 2623 -34 
Q 2366 -91 2075 -91 
Q 1284 -91 818 406 
Q 353 903 353 1747 
Q 353 2603 823 3093 
Q 1294 3584 2113 3584 
Q 2378 3584 2631 3529 
Q 2884 3475 3122 3366 
z
" transform="scale(0.015625)"/>
     </defs>
     <use xlink:href="#DejaVuSans-43"/>
     <use xlink:href="#DejaVuSans-6c" transform="translate(69.824219 0)"/>
     <use xlink:href="#DejaVuSans-6f" transform="translate(97.607422 0)"/>
     <use xlink:href="#DejaVuSans-73" transform="translate(158.789062 0)"/>
     <use xlink:href="#DejaVuSans-65" transform="translate(210.888672 0)"/>
     <use xlink:href="#DejaVuSans-20" transform="translate(272.412109 0)"/>
     <use xlink:href="#DejaVuSans-50" transform="translate(304.199219 0)"/>
     <use xlink:href="#DejaVuSans-72" transform="translate(362.751953 0)"/>
     <use xlink:href="#DejaVuSans-69" transform="translate(403.865234 0)"/>
     <use xlink:href="#DejaVuSans-63" transform="translate(431.648438 0)"/>
     <use xlink:href="#DejaVuSans-65" transform="translate(486.628906 0)"/>
    </g>
   </g>
   <g id="legend_1">
    <g id="patch_7">
     <path d="M 62.809375 69.149063 
L 150.604375 69.149063 
Q 152.404375 69.149063 152.404375 67.349063 
L 152.404375 28.618125 
Q 152.404375 26.818125 150.604375 26.818125 
L 62.809375 26.818125 
Q 61.009375 26.818125 61.009375 28.618125 
L 61.009375 67.349063 
Q 61.009375 69.149063 62.809375 69.149063 
z
" style="fill: #ffffff; opacity: 0.8; stroke: #cccccc; stroke-linejoin: miter"/>
    </g>
    <g id="line2d_31">
     <path d="M 64.609375 34.106719 
L 73.609375 34.106719 
L 82.609375 34.106719 
" style="fill: none; stroke: #1f77b4; stroke-opacity: 0.6; stroke-width: 1.5; stroke-linecap: square"/>
    </g>
    <g id="text_19">
     <!-- close -->
     <g transform="translate(89.809375 37.256719) scale(0.09 -0.09)">
      <use xlink:href="#DejaVuSans-63"/>
      <use xlink:href="#DejaVuSans-6c" transform="translate(54.980469 0)"/>
      <use xlink:href="#DejaVuSans-6f" transform="translate(82.763672 0)"/>
      <use xlink:href="#DejaVuSans-73" transform="translate(143.945312 0)"/>
      <use xlink:href="#DejaVuSans-65" transform="translate(196.044922 0)"/>
     </g>
    </g>
    <g id="line2d_32">
     <path d="M 64.609375 47.317031 
L 73.609375 47.317031 
L 82.609375 47.317031 
" style="fill: none; stroke: #ff7f0e; stroke-width: 1.5; stroke-linecap: square"/>
    </g>
    <g id="text_20">
     <!-- close mean -->
     <g transform="translate(89.809375 50.467031) scale(0.09 -0.09)">
      <defs>
       <path id="DejaVuSans-61" d="M 2194 1759 
Q 1497 1759 1228 1600 
Q 959 1441 959 1056 
Q 959 750 1161 570 
Q 1363 391 1709 391 
Q 2188 391 2477 730 
Q 2766 1069 2766 1631 
L 2766 1759 
L 2194 1759 
z
M 3341 1997 
L 3341 0 
L 2766 0 
L 2766 531 
Q 2569 213 2275 61 
Q 1981 -91 1556 -91 
Q 1019 -91 701 211 
Q 384 513 384 1019 
Q 384 1609 779 1909 
Q 1175 2209 1959 2209 
L 2766 2209 
L 2766 2266 
Q 2766 2663 2505 2880 
Q 2244 3097 1772 3097 
Q 1472 3097 1187 3025 
Q 903 2953 641 2809 
L 641 3341 
Q 956 3463 1253 3523 
Q 1550 3584 1831 3584 
Q 2591 3584 2966 3190 
Q 3341 2797 3341 1997 
z
" transform="scale(0.015625)"/>
       <path id="DejaVuSans-6e" d="M 3513 2113 
L 3513 0 
L 2938 0 
L 2938 2094 
Q 2938 2591 2744 2837 
Q 2550 3084 2163 3084 
Q 1697 3084 1428 2787 
Q 1159 2491 1159 1978 
L 1159 0 
L 581 0 
L 581 3500 
L 1159 3500 
L 1159 2956 
Q 1366 3272 1645 3428 
Q 1925 3584 2291 3584 
Q 2894 3584 3203 3211 
Q 3513 2838 3513 2113 
z
" transform="scale(0.015625)"/>
      </defs>
      <use xlink:href="#DejaVuSans-63"/>
      <use xlink:href="#DejaVuSans-6c" transform="translate(54.980469 0)"/>
      <use xlink:href="#DejaVuSans-6f" transform="translate(82.763672 0)"/>
      <use xlink:href="#DejaVuSans-73" transform="translate(143.945312 0)"/>
      <use xlink:href="#DejaVuSans-65" transform="translate(196.044922 0)"/>
      <use xlink:href="#DejaVuSans-20" transform="translate(257.568359 0)"/>
      <use xlink:href="#DejaVuSans-6d" transform="translate(289.355469 0)"/>
      <use xlink:href="#DejaVuSans-65" transform="translate(386.767578 0)"/>
      <use xlink:href="#DejaVuSans-61" transform="translate(448.291016 0)"/>
      <use xlink:href="#DejaVuSans-6e" transform="translate(509.570312 0)"/>
     </g>
    </g>
    <g id="patch_8">
     <path d="M 64.609375 63.677344 
L 82.609375 63.677344 
L 82.609375 57.377344 
L 64.609375 57.377344 
z
" style="fill: #1f77b4; fill-opacity: 0.2"/>
    </g>
    <g id="text_21">
     <!-- mean +/- std -->
     <g transform="translate(89.809375 63.677344) scale(0.09 -0.09)">
      <defs>
       <path id="DejaVuSans-2b" d="M 2944 4013 
L 2944 2272 
L 4684 2272 
L 4684 1741 
L 2944 1741 
L 2944 0 
L 2419 0 
L 2419 1741 
L 678 1741 
L 678 2272 
L 2419 2272 
L 2419 4013 
L 2944 4013 
z
" transform="scale(0.015625)"/>
       <path id="DejaVuSans-2f" d="M 1625 4666 
L 2156 4666 
L 531 -594 
L 0 -594 
L 1625 4666 
z
" transform="scale(0.015625)"/>
       <path id="DejaVuSans-2d" d="M 313 2009 
L 1997 2009 
L 1997 1497 
L 313 1497 
L 313 2009 
z
" transform="scale(0.015625)"/>
       <path id="DejaVuSans-74" d="M 1172 4494 
L 1172 3500 
L 2356 3500 
L 2356 3053 
L 1172 3053 
L 1172 1153 
Q 1172 725 1289 603 
Q 1406 481 1766 481 
L 2356 481 
L 2356 0 
L 1766 0 
Q 1100 0 847 248 
Q 594 497 594 1153 
L 594 3053 
L 172 3053 
L 172 3500 
L 594 3500 
L 594 4494 
L 1172 4494 
z
" transform="scale(0.015625)"/>
       <path id="DejaVuSans-64" d="M 2906 2969 
L 2906 4863 
L 3481 4863 
L 3481 0 
L 2906 0 
L 2906 525 
Q 2725 213 2448 61 
Q 2172 -91 1784 -91 
Q 1150 -91 751 415 
Q 353 922 353 1747 
Q 353 2572 751 3078 
Q 1150 3584 1784 3584 
Q 2172 3584 2448 3432 
Q 2725 3281 2906 2969 
z
M 947 1747 
Q 947 1113 1208 752 
Q 1469 391 1925 391 
Q 2381 391 2643 752 
Q 2906 1113 2906 1747 
Q 2906 2381 2643 2742 
Q 2381 3103 1925 3103 
Q 1469 3103 1208 2742 
Q 947 2381 947 1747 
z
" transform="scale(0.015625)"/>
      </defs>
      <use xlink:href="#DejaVuSans-6d"/>
      <use xlink:href="#DejaVuSans-65" transform="translate(97.412109 0)"/>
      <use xlink:href="#DejaVuSans-61" transform="translate(158.935547 0)"/>
      <use xlink:href="#DejaVuSans-6e" transform="translate(220.214844 0)"/>
      <use xlink:href="#DejaVuSans-20" transform="translate(283.59375 0)"/>
      <use xlink:href="#DejaVuSans-2b" transform="translate(315.380859 0)"/>
      <use xlink:href="#DejaVuSans-2f" transform="translate(399.169922 0)"/>
      <use xlink:href="#DejaVuSans-2d" transform="translate(432.861328 0)"/>
      <use xlink:href="#DejaVuSans-20" transform="translate(468.945312 0)"/>
      <use xlink:href="#DejaVuSans-73" transform="translate(500.732422 0)"/>
      <use xlink:href="#DejaVuSans-74" transform="translate(552.832031 0)"/>
      <use xlink:href="#DejaVuSans-64" transform="translate(592.041016 0)"/>
     </g>
    </g>
   </g>
  </g>
 </g>
 <defs>
  <clipPath id="pecb830461a">
   <rect x="56.509375" y="22.318125" width="558" height="277.2"/>
  </clipPath>
 </defs>
</svg>
