<?xml version="1.0" encoding="utf-8" standalone="no"?>
<!DOCTYPE svg PUBLIC "-//W3C//DTD SVG 1.1//EN"
  "http://www.w3.org/Graphics/SVG/1.1/DTD/svg11.dtd">
<svg xmlns:xlink="http://www.w3.org/1999/xlink" width="624.569687pt" height="336.106563pt" viewBox="0 0 624.569687 336.106563" xmlns="http://www.w3.org/2000/svg" version="1.1">
 <metadata>
  <rdf:RDF xmlns:dc="http://purl.org/dc/elements/1.1/" xmlns:cc="http://creativecommons.org/ns#" xmlns:rdf="http://www.w3.org/1999/02/22-rdf-syntax-ns#">
   <cc:Work>
    <dc:type rdf:resource="http://purl.org/dc/dcmitype/StillImage"/>
    <dc:date>2026-01-07T23:14:16.620362</dc:date>
    <dc:format>image/svg+xml</dc:format>
    <dc:creator>
     <cc:Agent>
      <dc:title>Matplotlib v3.10.8, https://matplotlib.org/</dc:title>
     </cc:Agent>
    </dc:creator>
   </cc:Work>
  </rdf:RDF>
 </metadata>
 <defs>
  <style type="text/css">*{stroke-linejoin: round; stroke-linecap: butt}</style>
 </defs>
 <g id="figure_1">
  <g id="patch_1">
   <path d="M 0 336.106563 
L 624.569687 336.106563 
L 624.569687 0 
L 0 0 
z
" style="fill: #ffffff"/>
  </g>
  <g id="axes_1">
   <g id="patch_2">
    <path d="M 59.369688 299.518125 
L 617.369688 299.518125 
L 617.369688 22.318125 
L 59.369688 22.318125 
z
" style="fill: #ffffff"/>
   </g>
   <g id="FillBetweenPolyCollection_1">
    <path d="M 84.733324 151.837778 
L 84.733324 151.837778 
L 85.751944 230.360264 
L 86.770564 220.978705 
L 87.789184 219.757974 
L 88.807804 218.838622 
L 89.826424 222.39611 
L 90.845043 227.38646 
L 91.863663 229.817688 
L 92.882283 227.603972 
L 93.900903 226.188529 
L 94.919523 223.168667 
L 95.938143 220.475836 
L 96.956763 218.119769 
L 97.975383 215.96131 
L 98.994003 214.057922 
L 100.012623 212.271478 
L 101.031243 210.628036 
L 102.049863 209.417113 
L 103.068483 217.093463 
L 104.087103 224.930283 
L 105.105723 227.413123 
L 106.124342 228.246126 
L 107.142962 230.27258 
L 108.161582 229.08784 
L 109.180202 228.157893 
L 110.198822 227.214865 
L 111.217442 225.180578 
L 112.236062 223.11672 
L 113.254682 225.475988 
L 114.273302 225.32569 
L 115.291922 225.824924 
L 116.310542 226.918045 
L 117.329162 227.65077 
L 118.347782 228.98995 
L 119.366402 230.308496 
L 120.385022 230.508662 
L 121.403641 230.418501 
L 122.422261 234.327136 
L 123.440881 231.174091 
L 124.459501 226.648362 
L 125.478121 228.491125 
L 126.496741 229.709367 
L 127.515361 228.372012 
L 128.533981 228.082015 
L 129.552601 228.002623 
L 130.571221 228.329634 
L 131.589841 228.002559 
L 132.608461 227.797184 
L 133.627081 226.797441 
L 134.645701 227.587227 
L 135.664321 228.618092 
L 136.682941 228.104965 
L 137.70156 227.388952 
L 138.72018 225.726032 
L 139.7388 223.834964 
L 140.75742 223.899903 
L 141.77604 223.993531 
L 142.79466 217.732859 
L 143.81328 213.430024 
L 144.8319 207.691762 
L 145.85052 201.405484 
L 146.86914 193.495647 
L 147.88776 191.359413 
L 148.90638 190.187672 
L 149.925 190.780235 
L 150.94362 192.481951 
L 151.96224 192.821048 
L 152.980859 200.329038 
L 153.999479 206.110742 
L 155.018099 209.598604 
L 156.036719 213.86931 
L 157.055339 218.606383 
L 158.073959 221.87158 
L 159.092579 223.927627 
L 160.111199 224.971189 
L 161.129819 224.239539 
L 162.148439 223.298038 
L 163.167059 222.927982 
L 164.185679 222.865801 
L 165.204299 222.977345 
L 166.222919 223.377966 
L 167.241539 225.038682 
L 168.260158 225.913327 
L 169.278778 225.949267 
L 170.297398 224.638099 
L 171.316018 223.185282 
L 172.334638 221.32383 
L 173.353258 215.086967 
L 174.371878 208.726665 
L 175.390498 204.585798 
L 176.409118 198.662359 
L 177.427738 189.831655 
L 178.446358 181.00505 
L 179.464978 172.513807 
L 180.483598 162.923354 
L 181.502218 159.121387 
L 182.520838 154.555483 
L 183.539457 149.528749 
L 184.558077 143.287885 
L 185.576697 144.108578 
L 186.595317 153.522693 
L 187.613937 165.300852 
L 188.632557 176.370077 
L 189.651177 192.535834 
L 190.669797 203.45841 
L 191.688417 213.215428 
L 192.707037 218.580546 
L 193.725657 223.361889 
L 194.744277 227.24768 
L 195.762897 229.538947 
L 196.781517 231.111017 
L 197.800137 230.8438 
L 198.818757 230.354066 
L 199.837376 229.455857 
L 200.855996 229.372922 
L 201.874616 229.160648 
L 202.893236 230.492414 
L 203.911856 231.729512 
L 204.930476 231.951259 
L 205.949096 230.273135 
L 206.967716 225.185555 
L 207.986336 218.552526 
L 209.004956 210.668922 
L 210.023576 196.654167 
L 211.042196 185.042213 
L 212.060816 171.969449 
L 213.079436 173.258944 
L 214.098056 176.594427 
L 215.116675 182.567138 
L 216.135295 182.64348 
L 217.153915 181.256099 
L 218.172535 182.857871 
L 219.191155 184.326082 
L 220.209775 185.485838 
L 221.228395 187.92561 
L 222.247015 189.0509 
L 223.265635 190.073401 
L 224.284255 190.134049 
L 225.302875 190.297102 
L 226.321495 193.135959 
L 227.340115 198.40524 
L 228.358735 203.554776 
L 229.377355 206.57542 
L 230.395974 209.184043 
L 231.414594 211.877019 
L 232.433214 216.594506 
L 233.451834 219.112766 
L 234.470454 219.566816 
L 235.489074 219.688912 
L 236.507694 223.307043 
L 237.526314 224.613202 
L 238.544934 225.549387 
L 239.563554 226.834017 
L 240.582174 227.748074 
L 241.600794 227.793422 
L 242.619414 227.484878 
L 243.638034 228.340669 
L 244.656654 227.893809 
L 245.675273 227.571849 
L 246.693893 227.397913 
L 247.712513 224.674544 
L 248.731133 222.004644 
L 249.749753 220.322446 
L 250.768373 219.10027 
L 251.786993 218.566236 
L 252.805613 213.963151 
L 253.824233 207.340034 
L 254.842853 205.947375 
L 255.861473 205.675471 
L 256.880093 208.347725 
L 257.898713 212.934555 
L 258.917333 216.700283 
L 259.935953 220.319037 
L 260.954572 223.611774 
L 261.973192 228.466215 
L 262.991812 238.055177 
L 264.010432 246.15082 
L 265.029052 253.470312 
L 266.047672 259.008628 
L 267.066292 264.517868 
L 268.084912 269.668014 
L 269.103532 272.634087 
L 270.122152 274.79103 
L 271.140772 276.870897 
L 272.159392 278.566743 
L 273.178012 275.112277 
L 274.196632 272.219495 
L 275.215252 272.613096 
L 276.233872 273.866982 
L 277.252491 275.150374 
L 278.271111 276.141363 
L 279.289731 276.548434 
L 280.308351 276.628632 
L 281.326971 277.179517 
L 282.345591 277.713118 
L 283.364211 277.867454 
L 284.382831 280.374322 
L 285.401451 280.861533 
L 286.420071 279.970091 
L 287.438691 277.417128 
L 288.457311 273.661669 
L 289.475931 268.704132 
L 290.494551 263.868585 
L 291.513171 258.098273 
L 292.53179 252.017515 
L 293.55041 245.400256 
L 294.56903 240.127627 
L 295.58765 236.106232 
L 296.60627 230.012569 
L 297.62489 223.424756 
L 298.64351 220.155627 
L 299.66213 222.842744 
L 300.68075 224.498074 
L 301.69937 224.703157 
L 302.71799 225.025275 
L 303.73661 224.689416 
L 304.75523 225.551592 
L 305.77385 226.053174 
L 306.79247 226.453522 
L 307.811089 226.809129 
L 308.829709 227.147023 
L 309.848329 228.013832 
L 310.866949 227.744732 
L 311.885569 227.52744 
L 312.904189 227.595126 
L 313.922809 227.746455 
L 314.941429 227.908068 
L 315.960049 225.578094 
L 316.978669 225.04476 
L 317.997289 222.582971 
L 319.015909 216.394662 
L 320.034529 209.60085 
L 321.053149 201.188142 
L 322.071769 195.414791 
L 323.090388 188.932659 
L 324.109008 186.017229 
L 325.127628 183.926973 
L 326.146248 183.515079 
L 327.164868 183.839395 
L 328.183488 184.368898 
L 329.202108 185.417918 
L 330.220728 183.598975 
L 331.239348 187.529854 
L 332.257968 190.931615 
L 333.276588 199.649822 
L 334.295208 203.620325 
L 335.313828 203.500644 
L 336.332448 204.940904 
L 337.351068 203.525996 
L 338.369687 204.35434 
L 339.388307 206.253116 
L 340.406927 212.232289 
L 341.425547 217.579084 
L 342.444167 222.956708 
L 343.462787 226.250395 
L 344.481407 228.337398 
L 345.500027 228.516332 
L 346.518647 230.451391 
L 347.537267 231.374293 
L 348.555887 232.034839 
L 349.574507 232.006121 
L 350.593127 231.677547 
L 351.611747 233.229072 
L 352.630367 234.040425 
L 353.648987 231.045712 
L 354.667606 229.701149 
L 355.686226 229.570179 
L 356.704846 229.15607 
L 357.723466 228.834371 
L 358.742086 228.658883 
L 359.760706 228.184058 
L 360.779326 224.169249 
L 361.797946 219.979459 
L 362.816566 214.750551 
L 363.835186 209.38307 
L 364.853806 203.532192 
L 365.872426 200.163913 
L 366.891046 194.838901 
L 367.909666 192.859321 
L 368.928286 188.319129 
L 369.946905 187.346849 
L 370.965525 203.905868 
L 371.984145 219.595034 
L 373.002765 225.198968 
L 374.021385 228.916788 
L 375.040005 231.174163 
L 376.058625 233.183022 
L 377.077245 234.621295 
L 378.095865 236.006972 
L 379.114485 238.706862 
L 380.133105 241.076875 
L 381.151725 242.011345 
L 382.170345 243.368864 
L 383.188965 243.78106 
L 384.207585 243.364145 
L 385.226204 243.222639 
L 386.244824 243.224454 
L 387.263444 243.227927 
L 388.282064 243.027996 
L 389.300684 243.011655 
L 390.319304 243.011036 
L 391.337924 236.280257 
L 392.356544 237.240983 
L 393.375164 237.748928 
L 394.393784 235.108957 
L 395.412404 232.791585 
L 396.431024 229.304422 
L 397.449644 226.232866 
L 398.468264 222.55194 
L 399.486884 215.897354 
L 400.505503 208.13264 
L 401.524123 201.330121 
L 402.542743 195.534267 
L 403.561363 192.217272 
L 404.579983 186.838087 
L 405.598603 179.366955 
L 406.617223 172.090092 
L 407.635843 164.961642 
L 408.654463 157.971502 
L 409.673083 150.591347 
L 410.691703 142.011457 
L 411.710323 134.244445 
L 412.728943 138.879344 
L 413.747563 138.961397 
L 414.766183 141.885309 
L 415.784803 141.634678 
L 416.803422 140.702011 
L 417.822042 140.566079 
L 418.840662 140.566046 
L 419.859282 140.57506 
L 420.877902 141.217057 
L 421.896522 141.429034 
L 422.915142 134.871295 
L 423.933762 126.377342 
L 424.952382 127.410081 
L 425.971002 141.024172 
L 426.989622 152.731247 
L 428.008242 165.735576 
L 429.026862 173.067785 
L 430.045482 180.988651 
L 431.064102 194.598286 
L 432.082721 205.303834 
L 433.101341 213.687307 
L 434.119961 222.580272 
L 435.138581 227.928555 
L 436.157201 228.973623 
L 437.175821 230.179046 
L 438.194441 231.11888 
L 439.213061 231.878075 
L 440.231681 232.593797 
L 441.250301 231.64805 
L 442.268921 230.113982 
L 443.287541 227.803274 
L 444.306161 227.943294 
L 445.324781 228.300164 
L 446.343401 225.205395 
L 447.36202 221.694737 
L 448.38064 215.368976 
L 449.39926 210.679267 
L 450.41788 205.40541 
L 451.4365 192.724139 
L 452.45512 179.15646 
L 453.47374 165.565388 
L 454.49236 151.871901 
L 455.51098 138.413054 
L 456.5296 136.997049 
L 457.54822 136.181782 
L 458.56684 139.255281 
L 459.58546 142.39538 
L 460.60408 156.142187 
L 461.6227 169.615252 
L 462.641319 181.542884 
L 463.659939 196.51741 
L 464.678559 208.415225 
L 465.697179 218.473493 
L 466.715799 231.321955 
L 467.734419 242.504056 
L 468.753039 249.3332 
L 469.771659 255.777993 
L 470.790279 260.023843 
L 471.808899 262.923793 
L 472.827519 263.211854 
L 473.846139 264.100162 
L 474.864759 264.378325 
L 475.883379 263.748445 
L 476.901999 260.935843 
L 477.920618 257.475735 
L 478.939238 256.545115 
L 479.957858 254.480064 
L 480.976478 254.163233 
L 481.995098 256.356415 
L 483.013718 257.314358 
L 484.032338 255.034364 
L 485.050958 252.678791 
L 486.069578 249.932908 
L 487.088198 241.334316 
L 488.106818 233.111969 
L 489.125438 228.539419 
L 490.144058 223.298112 
L 491.162678 218.386988 
L 492.181298 216.933813 
L 493.199918 217.133636 
L 494.218537 220.261215 
L 495.237157 220.613348 
L 496.255777 221.445497 
L 497.274397 221.415313 
L 498.293017 227.873743 
L 499.311637 231.195853 
L 500.330257 234.495462 
L 501.348877 236.353447 
L 502.367497 240.277652 
L 503.386117 243.127217 
L 504.404737 245.364392 
L 505.423357 249.240297 
L 506.441977 251.567158 
L 507.460597 253.794638 
L 508.479217 254.553433 
L 509.497836 254.471139 
L 510.516456 250.24539 
L 511.535076 245.313299 
L 512.553696 245.688379 
L 513.572316 245.531129 
L 514.590936 244.736789 
L 515.609556 244.70408 
L 516.628176 244.367479 
L 517.646796 244.133278 
L 518.665416 240.691328 
L 519.684036 236.733993 
L 520.702656 239.461007 
L 521.721276 242.298396 
L 522.739896 245.072957 
L 523.758516 245.627297 
L 524.777135 244.115616 
L 525.795755 238.591124 
L 526.814375 233.561838 
L 527.832995 227.31676 
L 528.851615 219.299797 
L 529.870235 209.426979 
L 530.888855 205.525776 
L 531.907475 200.409619 
L 532.926095 201.206082 
L 533.944715 198.774599 
L 534.963335 193.133185 
L 535.981955 188.326844 
L 537.000575 184.985449 
L 538.019195 182.457101 
L 539.037815 177.371057 
L 540.056434 173.384916 
L 541.075054 175.790557 
L 542.093674 180.406841 
L 543.112294 184.351974 
L 544.130914 188.340461 
L 545.149534 195.211697 
L 546.168154 198.686484 
L 547.186774 200.732233 
L 548.205394 200.346689 
L 549.224014 201.942068 
L 550.242634 197.520069 
L 551.261254 197.483379 
L 552.279874 196.741222 
L 553.298494 197.777648 
L 554.317114 197.855678 
L 555.335734 198.292023 
L 556.354353 197.736928 
L 557.372973 197.989509 
L 558.391593 197.201717 
L 559.410213 198.214012 
L 560.428833 197.122939 
L 561.447453 195.69881 
L 562.466073 192.052476 
L 563.484693 188.68789 
L 564.503313 184.123676 
L 565.521933 174.995861 
L 566.540553 168.608383 
L 567.559173 167.089598 
L 568.577793 165.125335 
L 569.596413 160.175439 
L 570.615033 161.450371 
L 571.633652 160.875371 
L 572.652272 158.928847 
L 573.670892 162.029989 
L 574.689512 164.484008 
L 575.708132 165.30109 
L 576.726752 164.950194 
L 577.745372 165.947373 
L 578.763992 167.025253 
L 579.782612 166.838801 
L 580.801232 166.391174 
L 581.819852 166.063944 
L 582.838472 166.153194 
L 583.857092 169.681501 
L 584.875712 172.947849 
L 585.894332 175.605858 
L 586.912951 177.393821 
L 587.931571 179.508916 
L 588.950191 179.654338 
L 589.968811 180.589309 
L 590.987431 181.65543 
L 592.006051 184.684018 
L 592.006051 129.776561 
L 592.006051 129.776561 
L 590.987431 130.057473 
L 589.968811 130.180042 
L 588.950191 130.141403 
L 587.931571 130.141345 
L 586.912951 130.492143 
L 585.894332 124.065178 
L 584.875712 118.173451 
L 583.857092 114.530127 
L 582.838472 112.061711 
L 581.819852 106.962409 
L 580.801232 100.502791 
L 579.782612 96.222591 
L 578.763992 88.284077 
L 577.745372 84.054607 
L 576.726752 81.032972 
L 575.708132 81.219015 
L 574.689512 80.396216 
L 573.670892 78.85994 
L 572.652272 77.212488 
L 571.633652 77.234072 
L 570.615033 77.135091 
L 569.596413 77.365113 
L 568.577793 76.042943 
L 567.559173 75.647794 
L 566.540553 75.386063 
L 565.521933 78.047562 
L 564.503313 80.819612 
L 563.484693 83.73394 
L 562.466073 86.270124 
L 561.447453 91.738445 
L 560.428833 98.804616 
L 559.410213 106.324854 
L 558.391593 117.897721 
L 557.372973 127.673786 
L 556.354353 137.649993 
L 555.335734 139.820247 
L 554.317114 145.20325 
L 553.298494 153.141803 
L 552.279874 163.765263 
L 551.261254 160.380383 
L 550.242634 156.554033 
L 549.224014 143.395749 
L 548.205394 132.817632 
L 547.186774 118.915989 
L 546.168154 108.928266 
L 545.149534 102.390616 
L 544.130914 95.317425 
L 543.112294 87.813721 
L 542.093674 81.402792 
L 541.075054 78.431147 
L 540.056434 76.934412 
L 539.037815 76.71781 
L 538.019195 76.428829 
L 537.000575 76.144003 
L 535.981955 75.792515 
L 534.963335 75.739262 
L 533.944715 75.769654 
L 532.926095 75.688074 
L 531.907475 75.699757 
L 530.888855 77.1518 
L 529.870235 78.791051 
L 528.851615 84.838944 
L 527.832995 91.670167 
L 526.814375 102.943558 
L 525.795755 113.911852 
L 524.777135 123.610158 
L 523.758516 136.019821 
L 522.739896 151.585068 
L 521.721276 170.010597 
L 520.702656 185.928328 
L 519.684036 202.638835 
L 518.665416 204.606291 
L 517.646796 205.991607 
L 516.628176 207.310684 
L 515.609556 208.278311 
L 514.590936 208.483557 
L 513.572316 209.177969 
L 512.553696 209.853285 
L 511.535076 212.378974 
L 510.516456 201.441834 
L 509.497836 190.683228 
L 508.479217 179.2856 
L 507.460597 169.355848 
L 506.441977 162.673334 
L 505.423357 155.664791 
L 504.404737 149.259517 
L 503.386117 144.065177 
L 502.367497 139.137286 
L 501.348877 135.334698 
L 500.330257 135.079281 
L 499.311637 135.46284 
L 498.293017 135.940788 
L 497.274397 136.035787 
L 496.255777 136.035205 
L 495.237157 136.04779 
L 494.218537 136.024471 
L 493.199918 136.179326 
L 492.181298 136.191786 
L 491.162678 136.055818 
L 490.144058 139.350929 
L 489.125438 144.747669 
L 488.106818 150.928995 
L 487.088198 157.229934 
L 486.069578 162.37853 
L 485.050958 170.228462 
L 484.032338 178.917927 
L 483.013718 188.42847 
L 481.995098 199.308089 
L 480.976478 210.37428 
L 479.957858 211.808729 
L 478.939238 203.048275 
L 477.920618 195.166202 
L 476.901999 184.956041 
L 475.883379 170.101567 
L 474.864759 158.533227 
L 473.846139 148.314127 
L 472.827519 139.491982 
L 471.808899 123.320718 
L 470.790279 108.675418 
L 469.771659 95.932257 
L 468.753039 88.954173 
L 467.734419 84.014569 
L 466.715799 81.180241 
L 465.697179 80.418868 
L 464.678559 75.073164 
L 463.659939 71.12822 
L 462.641319 69.26655 
L 461.6227 70.727841 
L 460.60408 73.90234 
L 459.58546 78.546317 
L 458.56684 78.91956 
L 457.54822 79.344862 
L 456.5296 79.44971 
L 455.51098 80.497392 
L 454.49236 77.69875 
L 453.47374 76.098106 
L 452.45512 75.536615 
L 451.4365 81.482315 
L 450.41788 89.02794 
L 449.39926 98.988323 
L 448.38064 104.474211 
L 447.36202 108.780388 
L 446.343401 112.17587 
L 445.324781 114.824521 
L 444.306161 116.944721 
L 443.287541 117.610167 
L 442.268921 110.432055 
L 441.250301 99.647611 
L 440.231681 88.629481 
L 439.213061 82.797598 
L 438.194441 76.880301 
L 437.175821 71.373174 
L 436.157201 66.33836 
L 435.138581 61.668009 
L 434.119961 59.466442 
L 433.101341 53.944431 
L 432.082721 53.189054 
L 431.064102 53.178379 
L 430.045482 54.079641 
L 429.026862 53.750373 
L 428.008242 53.843459 
L 426.989622 55.062402 
L 425.971002 54.742795 
L 424.952382 56.684288 
L 423.933762 55.939876 
L 422.915142 55.341499 
L 421.896522 60.89608 
L 420.877902 62.08199 
L 419.859282 66.529436 
L 418.840662 66.071393 
L 417.822042 66.361807 
L 416.803422 67.753129 
L 415.784803 70.364775 
L 414.766183 72.523612 
L 413.747563 70.812351 
L 412.728943 70.18525 
L 411.710323 66.883572 
L 410.691703 64.387976 
L 409.673083 62.653209 
L 408.654463 61.938131 
L 407.635843 61.540353 
L 406.617223 62.851111 
L 405.598603 66.586233 
L 404.579983 70.464485 
L 403.561363 74.828431 
L 402.542743 74.846128 
L 401.524123 75.029758 
L 400.505503 84.410737 
L 399.486884 92.120972 
L 398.468264 101.602024 
L 397.449644 111.854131 
L 396.431024 121.290391 
L 395.412404 128.542849 
L 394.393784 138.578236 
L 393.375164 150.226679 
L 392.356544 167.168479 
L 391.337924 189.991682 
L 390.319304 190.840833 
L 389.300684 189.451768 
L 388.282064 188.392755 
L 387.263444 189.060772 
L 386.244824 188.761605 
L 385.226204 188.343673 
L 384.207585 185.362606 
L 383.188965 182.77127 
L 382.170345 179.798412 
L 381.151725 175.912789 
L 380.133105 171.388777 
L 379.114485 168.170842 
L 378.095865 164.673948 
L 377.077245 162.077546 
L 376.058625 159.64927 
L 375.040005 157.144753 
L 374.021385 154.926345 
L 373.002765 153.940185 
L 371.984145 151.045165 
L 370.965525 153.440383 
L 369.946905 161.328671 
L 368.928286 161.261834 
L 367.909666 160.008562 
L 366.891046 159.265735 
L 365.872426 157.907777 
L 364.853806 157.681779 
L 363.835186 158.051661 
L 362.816566 159.694438 
L 361.797946 160.94152 
L 360.779326 163.121031 
L 359.760706 166.71673 
L 358.742086 168.322536 
L 357.723466 170.023604 
L 356.704846 171.95461 
L 355.686226 174.245139 
L 354.667606 176.287393 
L 353.648987 179.520571 
L 352.630367 181.448593 
L 351.611747 186.246379 
L 350.593127 192.025082 
L 349.574507 190.717871 
L 348.555887 191.025401 
L 347.537267 187.663141 
L 346.518647 183.930549 
L 345.500027 179.309264 
L 344.481407 171.119718 
L 343.462787 162.347151 
L 342.444167 154.642796 
L 341.425547 150.878847 
L 340.406927 147.173623 
L 339.388307 141.835091 
L 338.369687 136.871805 
L 337.351068 136.391716 
L 336.332448 136.472693 
L 335.313828 136.004201 
L 334.295208 136.027754 
L 333.276588 135.703235 
L 332.257968 134.062718 
L 331.239348 132.258178 
L 330.220728 129.931883 
L 329.202108 129.916108 
L 328.183488 130.069319 
L 327.164868 129.955832 
L 326.146248 129.852688 
L 325.127628 130.039307 
L 324.109008 132.255172 
L 323.090388 135.918243 
L 322.071769 139.270173 
L 321.053149 141.011877 
L 320.034529 142.784654 
L 319.015909 148.173254 
L 317.997289 154.289351 
L 316.978669 156.163681 
L 315.960049 156.304195 
L 314.941429 157.99301 
L 313.922809 157.804196 
L 312.904189 156.859045 
L 311.885569 157.108696 
L 310.866949 156.116774 
L 309.848329 155.167944 
L 308.829709 150.861946 
L 307.811089 144.249237 
L 306.79247 141.066173 
L 305.77385 139.057342 
L 304.75523 137.04143 
L 303.73661 135.203372 
L 302.71799 135.379466 
L 301.69937 135.371827 
L 300.68075 135.367378 
L 299.66213 135.630162 
L 298.64351 135.997611 
L 297.62489 134.952046 
L 296.60627 133.808492 
L 295.58765 133.215201 
L 294.56903 133.151365 
L 293.55041 134.34819 
L 292.53179 137.471134 
L 291.513171 143.799322 
L 290.494551 150.741131 
L 289.475931 159.582257 
L 288.457311 167.544546 
L 287.438691 179.867466 
L 286.420071 191.135374 
L 285.401451 202.425579 
L 284.382831 215.714034 
L 283.364211 230.614654 
L 282.345591 238.55739 
L 281.326971 240.376014 
L 280.308351 242.019274 
L 279.289731 242.325676 
L 278.271111 243.387976 
L 277.252491 240.967364 
L 276.233872 239.525168 
L 275.215252 237.690679 
L 274.196632 235.048568 
L 273.178012 224.526269 
L 272.159392 209.357249 
L 271.140772 204.530384 
L 270.122152 198.224793 
L 269.103532 190.023925 
L 268.084912 180.227 
L 267.066292 171.694252 
L 266.047672 164.080582 
L 265.029052 157.222255 
L 264.010432 153.18229 
L 262.991812 145.492811 
L 261.973192 142.594989 
L 260.954572 139.18841 
L 259.935953 138.832382 
L 258.917333 138.698207 
L 257.898713 138.337447 
L 256.880093 138.647637 
L 255.861473 139.459792 
L 254.842853 139.364345 
L 253.824233 138.957015 
L 252.805613 138.879851 
L 251.786993 142.353018 
L 250.768373 142.551752 
L 249.749753 143.350908 
L 248.731133 145.43392 
L 247.712513 149.704258 
L 246.693893 154.423923 
L 245.675273 158.06051 
L 244.656654 156.776651 
L 243.638034 153.673082 
L 242.619414 156.589087 
L 241.600794 154.916225 
L 240.582174 155.831623 
L 239.563554 151.484397 
L 238.544934 148.037787 
L 237.526314 145.198814 
L 236.507694 143.143288 
L 235.489074 141.831583 
L 234.470454 141.858598 
L 233.451834 141.944398 
L 232.433214 142.40627 
L 231.414594 139.312814 
L 230.395974 134.897965 
L 229.377355 128.733773 
L 228.358735 122.917785 
L 227.340115 118.096725 
L 226.321495 108.722355 
L 225.302875 101.777374 
L 224.284255 96.303836 
L 223.265635 89.126249 
L 222.247015 82.972241 
L 221.228395 80.744202 
L 220.209775 78.379155 
L 219.191155 77.120939 
L 218.172535 75.871699 
L 217.153915 74.555287 
L 216.135295 74.75005 
L 215.116675 74.745794 
L 214.098056 76.466103 
L 213.079436 77.622183 
L 212.060816 78.066668 
L 211.042196 75.579056 
L 210.023576 75.584386 
L 209.004956 77.073503 
L 207.986336 80.999551 
L 206.967716 85.279352 
L 205.949096 94.24379 
L 204.930476 101.225091 
L 203.911856 106.734905 
L 202.893236 113.939528 
L 201.874616 120.692476 
L 200.855996 119.615744 
L 199.837376 118.955311 
L 198.818757 113.859023 
L 197.800137 109.393663 
L 196.781517 105.645535 
L 195.762897 96.94958 
L 194.744277 90.870879 
L 193.725657 86.900753 
L 192.707037 84.55095 
L 191.688417 82.286099 
L 190.669797 81.940317 
L 189.651177 81.102083 
L 188.632557 83.076094 
L 187.613937 84.130157 
L 186.595317 86.238028 
L 185.576697 89.724497 
L 184.558077 89.984855 
L 183.539457 89.01818 
L 182.520838 89.387238 
L 181.502218 90.047264 
L 180.483598 93.35462 
L 179.464978 94.554899 
L 178.446358 100.049944 
L 177.427738 105.646645 
L 176.409118 111.753189 
L 175.390498 121.345874 
L 174.371878 129.733298 
L 173.353258 135.052374 
L 172.334638 138.561515 
L 171.316018 142.659897 
L 170.297398 145.47324 
L 169.278778 151.245463 
L 168.260158 157.548174 
L 167.241539 162.933858 
L 166.222919 169.167979 
L 165.204299 171.819171 
L 164.185679 172.990707 
L 163.167059 171.016224 
L 162.148439 168.466364 
L 161.129819 170.407835 
L 160.111199 173.433258 
L 159.092579 168.19354 
L 158.073959 165.501046 
L 157.055339 163.483236 
L 156.036719 160.499121 
L 155.018099 156.618871 
L 153.999479 154.224292 
L 152.980859 154.9497 
L 151.96224 156.936974 
L 150.94362 156.967665 
L 149.925 156.298168 
L 148.90638 156.40549 
L 147.88776 156.318016 
L 146.86914 156.784331 
L 145.85052 155.548616 
L 144.8319 155.369431 
L 143.81328 155.861132 
L 142.79466 158.120438 
L 141.77604 161.412593 
L 140.75742 161.361277 
L 139.7388 161.325664 
L 138.72018 165.984304 
L 137.70156 168.777148 
L 136.682941 170.77333 
L 135.664321 174.986378 
L 134.645701 180.492296 
L 133.627081 183.544676 
L 132.608461 185.633066 
L 131.589841 187.389908 
L 130.571221 188.239773 
L 129.552601 192.268229 
L 128.533981 191.259123 
L 127.515361 188.648209 
L 126.496741 189.773892 
L 125.478121 189.874032 
L 124.459501 189.830042 
L 123.440881 188.144634 
L 122.422261 187.588971 
L 121.403641 184.264438 
L 120.385022 180.545302 
L 119.366402 177.170294 
L 118.347782 173.836171 
L 117.329162 170.581923 
L 116.310542 168.266404 
L 115.291922 165.673826 
L 114.273302 163.418936 
L 113.254682 159.499597 
L 112.236062 156.596832 
L 111.217442 156.933894 
L 110.198822 157.2003 
L 109.180202 157.438773 
L 108.161582 158.320847 
L 107.142962 159.969314 
L 106.124342 159.18233 
L 105.105723 159.117165 
L 104.087103 155.148021 
L 103.068483 155.134171 
L 102.049863 155.296789 
L 101.031243 154.978979 
L 100.012623 155.64508 
L 98.994003 156.384728 
L 97.975383 156.917094 
L 96.956763 157.874576 
L 95.938143 158.710996 
L 94.919523 160.169094 
L 93.900903 162.920822 
L 92.882283 173.230796 
L 91.863663 180.718447 
L 90.845043 177.374321 
L 89.826424 173.702046 
L 88.807804 169.142327 
L 87.789184 163.618612 
L 86.770564 154.793496 
L 85.751944 138.36545 
L 84.733324 151.837778 
z
" clip-path="url(#pce807ddc46)" style="fill: #1f77b4; fill-opacity: 0.2"/>
   </g>
   <g id="matplotlib.axis_1">
    <g id="xtick_1">
     <g id="line2d_1">
      <path d="M 83.714704 299.518125 
L 83.714704 22.318125 
" clip-path="url(#pce807ddc46)" style="fill: none; stroke: #b0b0b0; stroke-opacity: 0.3; stroke-width: 0.8; stroke-linecap: square"/>
     </g>
     <g id="line2d_2">
      <defs>
       <path id="m1ac0d56054" d="M 0 0 
L 0 3.5 
" style="stroke: #000000; stroke-width: 0.8"/>
      </defs>
      <g>
       <use xlink:href="#m1ac0d56054" x="83.714704" y="299.518125" style="stroke: #000000; stroke-width: 0.8"/>
      </g>
     </g>
     <g id="text_1">
      <!-- 0.0 -->
      <g transform="translate(76.558298 313.356719) scale(0.09 -0.09)">
       <defs>
        <path id="DejaVuSans-30" d="M 2034 4250 
Q 1547 4250 1301 3770 
Q 1056 3291 1056 2328 
Q 1056 1369 1301 889 
Q 1547 409 2034 409 
Q 2525 409 2770 889 
Q 3016 1369 3016 2328 
Q 3016 3291 2770 3770 
Q 2525 4250 2034 4250 
z
M 2034 4750 
Q 2819 4750 3233 4129 
Q 3647 3509 3647 2328 
Q 3647 1150 3233 529 
Q 2819 -91 2034 -91 
Q 1250 -91 836 529 
Q 422 1150 422 2328 
Q 422 3509 836 4129 
Q 1250 4750 2034 4750 
z
" transform="scale(0.015625)"/>
        <path id="DejaVuSans-2e" d="M 684 794 
L 1344 794 
L 1344 0 
L 684 0 
L 684 794 
z
" transform="scale(0.015625)"/>
       </defs>
       <use xlink:href="#DejaVuSans-30"/>
       <use xlink:href="#DejaVuSans-2e" transform="translate(63.623047 0)"/>
       <use xlink:href="#DejaVuSans-30" transform="translate(95.410156 0)"/>
      </g>
     </g>
    </g>
    <g id="xtick_2">
     <g id="line2d_3">
      <path d="M 151.6227 299.518125 
L 151.6227 22.318125 
" clip-path="url(#pce807ddc46)" style="fill: none; stroke: #b0b0b0; stroke-opacity: 0.3; stroke-width: 0.8; stroke-linecap: square"/>
     </g>
     <g id="line2d_4">
      <g>
       <use xlink:href="#m1ac0d56054" x="151.6227" y="299.518125" style="stroke: #000000; stroke-width: 0.8"/>
      </g>
     </g>
     <g id="text_2">
      <!-- 0.2 -->
      <g transform="translate(144.466293 313.356719) scale(0.09 -0.09)">
       <defs>
        <path id="DejaVuSans-32" d="M 1228 531 
L 3431 531 
L 3431 0 
L 469 0 
L 469 531 
Q 828 903 1448 1529 
Q 2069 2156 2228 2338 
Q 2531 2678 2651 2914 
Q 2772 3150 2772 3378 
Q 2772 3750 2511 3984 
Q 2250 4219 1831 4219 
Q 1534 4219 1204 4116 
Q 875 4013 500 3803 
L 500 4441 
Q 881 4594 1212 4672 
Q 1544 4750 1819 4750 
Q 2544 4750 2975 4387 
Q 3406 4025 3406 3419 
Q 3406 3131 3298 2873 
Q 3191 2616 2906 2266 
Q 2828 2175 2409 1742 
Q 1991 1309 1228 531 
z
" transform="scale(0.015625)"/>
       </defs>
       <use xlink:href="#DejaVuSans-30"/>
       <use xlink:href="#DejaVuSans-2e" transform="translate(63.623047 0)"/>
       <use xlink:href="#DejaVuSans-32" transform="translate(95.410156 0)"/>
      </g>
     </g>
    </g>
    <g id="xtick_3">
     <g id="line2d_5">
      <path d="M 219.530695 299.518125 
L 219.530695 22.318125 
" clip-path="url(#pce807ddc46)" style="fill: none; stroke: #b0b0b0; stroke-opacity: 0.3; stroke-width: 0.8; stroke-linecap: square"/>
     </g>
     <g id="line2d_6">
      <g>
       <use xlink:href="#m1ac0d56054" x="219.530695" y="299.518125" style="stroke: #000000; stroke-width: 0.8"/>
      </g>
     </g>
     <g id="text_3">
      <!-- 0.4 -->
      <g transform="translate(212.374289 313.356719) scale(0.09 -0.09)">
       <defs>
        <path id="DejaVuSans-34" d="M 2419 4116 
L 825 1625 
L 2419 1625 
L 2419 4116 
z
M 2253 4666 
L 3047 4666 
L 3047 1625 
L 3713 1625 
L 3713 1100 
L 3047 1100 
L 3047 0 
L 2419 0 
L 2419 1100 
L 313 1100 
L 313 1709 
L 2253 4666 
z
" transform="scale(0.015625)"/>
       </defs>
       <use xlink:href="#DejaVuSans-30"/>
       <use xlink:href="#DejaVuSans-2e" transform="translate(63.623047 0)"/>
       <use xlink:href="#DejaVuSans-34" transform="translate(95.410156 0)"/>
      </g>
     </g>
    </g>
    <g id="xtick_4">
     <g id="line2d_7">
      <path d="M 287.438691 299.518125 
L 287.438691 22.318125 
" clip-path="url(#pce807ddc46)" style="fill: none; stroke: #b0b0b0; stroke-opacity: 0.3; stroke-width: 0.8; stroke-linecap: square"/>
     </g>
     <g id="line2d_8">
      <g>
       <use xlink:href="#m1ac0d56054" x="287.438691" y="299.518125" style="stroke: #000000; stroke-width: 0.8"/>
      </g>
     </g>
     <g id="text_4">
      <!-- 0.6 -->
      <g transform="translate(280.282285 313.356719) scale(0.09 -0.09)">
       <defs>
        <path id="DejaVuSans-36" d="M 2113 2584 
Q 1688 2584 1439 2293 
Q 1191 2003 1191 1497 
Q 1191 994 1439 701 
Q 1688 409 2113 409 
Q 2538 409 2786 701 
Q 3034 994 3034 1497 
Q 3034 2003 2786 2293 
Q 2538 2584 2113 2584 
z
M 3366 4563 
L 3366 3988 
Q 3128 4100 2886 4159 
Q 2644 4219 2406 4219 
Q 1781 4219 1451 3797 
Q 1122 3375 1075 2522 
Q 1259 2794 1537 2939 
Q 1816 3084 2150 3084 
Q 2853 3084 3261 2657 
Q 3669 2231 3669 1497 
Q 3669 778 3244 343 
Q 2819 -91 2113 -91 
Q 1303 -91 875 529 
Q 447 1150 447 2328 
Q 447 3434 972 4092 
Q 1497 4750 2381 4750 
Q 2619 4750 2861 4703 
Q 3103 4656 3366 4563 
z
" transform="scale(0.015625)"/>
       </defs>
       <use xlink:href="#DejaVuSans-30"/>
       <use xlink:href="#DejaVuSans-2e" transform="translate(63.623047 0)"/>
       <use xlink:href="#DejaVuSans-36" transform="translate(95.410156 0)"/>
      </g>
     </g>
    </g>
    <g id="xtick_5">
     <g id="line2d_9">
      <path d="M 355.346686 299.518125 
L 355.346686 22.318125 
" clip-path="url(#pce807ddc46)" style="fill: none; stroke: #b0b0b0; stroke-opacity: 0.3; stroke-width: 0.8; stroke-linecap: square"/>
     </g>
     <g id="line2d_10">
      <g>
       <use xlink:href="#m1ac0d56054" x="355.346686" y="299.518125" style="stroke: #000000; stroke-width: 0.8"/>
      </g>
     </g>
     <g id="text_5">
      <!-- 0.8 -->
      <g transform="translate(348.19028 313.356719) scale(0.09 -0.09)">
       <defs>
        <path id="DejaVuSans-38" d="M 2034 2216 
Q 1584 2216 1326 1975 
Q 1069 1734 1069 1313 
Q 1069 891 1326 650 
Q 1584 409 2034 409 
Q 2484 409 2743 651 
Q 3003 894 3003 1313 
Q 3003 1734 2745 1975 
Q 2488 2216 2034 2216 
z
M 1403 2484 
Q 997 2584 770 2862 
Q 544 3141 544 3541 
Q 544 4100 942 4425 
Q 1341 4750 2034 4750 
Q 2731 4750 3128 4425 
Q 3525 4100 3525 3541 
Q 3525 3141 3298 2862 
Q 3072 2584 2669 2484 
Q 3125 2378 3379 2068 
Q 3634 1759 3634 1313 
Q 3634 634 3220 271 
Q 2806 -91 2034 -91 
Q 1263 -91 848 271 
Q 434 634 434 1313 
Q 434 1759 690 2068 
Q 947 2378 1403 2484 
z
M 1172 3481 
Q 1172 3119 1398 2916 
Q 1625 2713 2034 2713 
Q 2441 2713 2670 2916 
Q 2900 3119 2900 3481 
Q 2900 3844 2670 4047 
Q 2441 4250 2034 4250 
Q 1625 4250 1398 4047 
Q 1172 3844 1172 3481 
z
" transform="scale(0.015625)"/>
       </defs>
       <use xlink:href="#DejaVuSans-30"/>
       <use xlink:href="#DejaVuSans-2e" transform="translate(63.623047 0)"/>
       <use xlink:href="#DejaVuSans-38" transform="translate(95.410156 0)"/>
      </g>
     </g>
    </g>
    <g id="xtick_6">
     <g id="line2d_11">
      <path d="M 423.254682 299.518125 
L 423.254682 22.318125 
" clip-path="url(#pce807ddc46)" style="fill: none; stroke: #b0b0b0; stroke-opacity: 0.3; stroke-width: 0.8; stroke-linecap: square"/>
     </g>
     <g id="line2d_12">
      <g>
       <use xlink:href="#m1ac0d56054" x="423.254682" y="299.518125" style="stroke: #000000; stroke-width: 0.8"/>
      </g>
     </g>
     <g id="text_6">
      <!-- 1.0 -->
      <g transform="translate(416.098276 313.356719) scale(0.09 -0.09)">
       <defs>
        <path id="DejaVuSans-31" d="M 794 531 
L 1825 531 
L 1825 4091 
L 703 3866 
L 703 4441 
L 1819 4666 
L 2450 4666 
L 2450 531 
L 3481 531 
L 3481 0 
L 794 0 
L 794 531 
z
" transform="scale(0.015625)"/>
       </defs>
       <use xlink:href="#DejaVuSans-31"/>
       <use xlink:href="#DejaVuSans-2e" transform="translate(63.623047 0)"/>
       <use xlink:href="#DejaVuSans-30" transform="translate(95.410156 0)"/>
      </g>
     </g>
    </g>
    <g id="xtick_7">
     <g id="line2d_13">
      <path d="M 491.162678 299.518125 
L 491.162678 22.318125 
" clip-path="url(#pce807ddc46)" style="fill: none; stroke: #b0b0b0; stroke-opacity: 0.3; stroke-width: 0.8; stroke-linecap: square"/>
     </g>
     <g id="line2d_14">
      <g>
       <use xlink:href="#m1ac0d56054" x="491.162678" y="299.518125" style="stroke: #000000; stroke-width: 0.8"/>
      </g>
     </g>
     <g id="text_7">
      <!-- 1.2 -->
      <g transform="translate(484.006271 313.356719) scale(0.09 -0.09)">
       <use xlink:href="#DejaVuSans-31"/>
       <use xlink:href="#DejaVuSans-2e" transform="translate(63.623047 0)"/>
       <use xlink:href="#DejaVuSans-32" transform="translate(95.410156 0)"/>
      </g>
     </g>
    </g>
    <g id="xtick_8">
     <g id="line2d_15">
      <path d="M 559.070673 299.518125 
L 559.070673 22.318125 
" clip-path="url(#pce807ddc46)" style="fill: none; stroke: #b0b0b0; stroke-opacity: 0.3; stroke-width: 0.8; stroke-linecap: square"/>
     </g>
     <g id="line2d_16">
      <g>
       <use xlink:href="#m1ac0d56054" x="559.070673" y="299.518125" style="stroke: #000000; stroke-width: 0.8"/>
      </g>
     </g>
     <g id="text_8">
      <!-- 1.4 -->
      <g transform="translate(551.914267 313.356719) scale(0.09 -0.09)">
       <use xlink:href="#DejaVuSans-31"/>
       <use xlink:href="#DejaVuSans-2e" transform="translate(63.623047 0)"/>
       <use xlink:href="#DejaVuSans-34" transform="translate(95.410156 0)"/>
      </g>
     </g>
    </g>
    <g id="text_9">
     <!-- Time (ms) -->
     <g transform="translate(313.170469 326.826875) scale(0.1 -0.1)">
      <defs>
       <path id="DejaVuSans-54" d="M -19 4666 
L 3928 4666 
L 3928 4134 
L 2272 4134 
L 2272 0 
L 1638 0 
L 1638 4134 
L -19 4134 
L -19 4666 
z
" transform="scale(0.015625)"/>
       <path id="DejaVuSans-69" d="M 603 3500 
L 1178 3500 
L 1178 0 
L 603 0 
L 603 3500 
z
M 603 4863 
L 1178 4863 
L 1178 4134 
L 603 4134 
L 603 4863 
z
" transform="scale(0.015625)"/>
       <path id="DejaVuSans-6d" d="M 3328 2828 
Q 3544 3216 3844 3400 
Q 4144 3584 4550 3584 
Q 5097 3584 5394 3201 
Q 5691 2819 5691 2113 
L 5691 0 
L 5113 0 
L 5113 2094 
Q 5113 2597 4934 2840 
Q 4756 3084 4391 3084 
Q 3944 3084 3684 2787 
Q 3425 2491 3425 1978 
L 3425 0 
L 2847 0 
L 2847 2094 
Q 2847 2600 2669 2842 
Q 2491 3084 2119 3084 
Q 1678 3084 1418 2786 
Q 1159 2488 1159 1978 
L 1159 0 
L 581 0 
L 581 3500 
L 1159 3500 
L 1159 2956 
Q 1356 3278 1631 3431 
Q 1906 3584 2284 3584 
Q 2666 3584 2933 3390 
Q 3200 3197 3328 2828 
z
" transform="scale(0.015625)"/>
       <path id="DejaVuSans-65" d="M 3597 1894 
L 3597 1613 
L 953 1613 
Q 991 1019 1311 708 
Q 1631 397 2203 397 
Q 2534 397 2845 478 
Q 3156 559 3463 722 
L 3463 178 
Q 3153 47 2828 -22 
Q 2503 -91 2169 -91 
Q 1331 -91 842 396 
Q 353 884 353 1716 
Q 353 2575 817 3079 
Q 1281 3584 2069 3584 
Q 2775 3584 3186 3129 
Q 3597 2675 3597 1894 
z
M 3022 2063 
Q 3016 2534 2758 2815 
Q 2500 3097 2075 3097 
Q 1594 3097 1305 2825 
Q 1016 2553 972 2059 
L 3022 2063 
z
" transform="scale(0.015625)"/>
       <path id="DejaVuSans-20" transform="scale(0.015625)"/>
       <path id="DejaVuSans-28" d="M 1984 4856 
Q 1566 4138 1362 3434 
Q 1159 2731 1159 2009 
Q 1159 1288 1364 580 
Q 1569 -128 1984 -844 
L 1484 -844 
Q 1016 -109 783 600 
Q 550 1309 550 2009 
Q 550 2706 781 3412 
Q 1013 4119 1484 4856 
L 1984 4856 
z
" transform="scale(0.015625)"/>
       <path id="DejaVuSans-73" d="M 2834 3397 
L 2834 2853 
Q 2591 2978 2328 3040 
Q 2066 3103 1784 3103 
Q 1356 3103 1142 2972 
Q 928 2841 928 2578 
Q 928 2378 1081 2264 
Q 1234 2150 1697 2047 
L 1894 2003 
Q 2506 1872 2764 1633 
Q 3022 1394 3022 966 
Q 3022 478 2636 193 
Q 2250 -91 1575 -91 
Q 1294 -91 989 -36 
Q 684 19 347 128 
L 347 722 
Q 666 556 975 473 
Q 1284 391 1588 391 
Q 1994 391 2212 530 
Q 2431 669 2431 922 
Q 2431 1156 2273 1281 
Q 2116 1406 1581 1522 
L 1381 1569 
Q 847 1681 609 1914 
Q 372 2147 372 2553 
Q 372 3047 722 3315 
Q 1072 3584 1716 3584 
Q 2034 3584 2315 3537 
Q 2597 3491 2834 3397 
z
" transform="scale(0.015625)"/>
       <path id="DejaVuSans-29" d="M 513 4856 
L 1013 4856 
Q 1481 4119 1714 3412 
Q 1947 2706 1947 2009 
Q 1947 1309 1714 600 
Q 1481 -109 1013 -844 
L 513 -844 
Q 928 -128 1133 580 
Q 1338 1288 1338 2009 
Q 1338 2731 1133 3434 
Q 928 4138 513 4856 
z
" transform="scale(0.015625)"/>
      </defs>
      <use xlink:href="#DejaVuSans-54"/>
      <use xlink:href="#DejaVuSans-69" transform="translate(57.958984 0)"/>
      <use xlink:href="#DejaVuSans-6d" transform="translate(85.742188 0)"/>
      <use xlink:href="#DejaVuSans-65" transform="translate(183.154297 0)"/>
      <use xlink:href="#DejaVuSans-20" transform="translate(244.677734 0)"/>
      <use xlink:href="#DejaVuSans-28" transform="translate(276.464844 0)"/>
      <use xlink:href="#DejaVuSans-6d" transform="translate(315.478516 0)"/>
      <use xlink:href="#DejaVuSans-73" transform="translate(412.890625 0)"/>
      <use xlink:href="#DejaVuSans-29" transform="translate(464.990234 0)"/>
     </g>
    </g>
    <g id="text_10">
     <!-- 1e8 -->
     <g transform="translate(600.379375 325.067031) scale(0.09 -0.09)">
      <use xlink:href="#DejaVuSans-31"/>
      <use xlink:href="#DejaVuSans-65" transform="translate(63.623047 0)"/>
      <use xlink:href="#DejaVuSans-38" transform="translate(125.146484 0)"/>
     </g>
    </g>
   </g>
   <g id="matplotlib.axis_2">
    <g id="ytick_1">
     <g id="line2d_17">
      <path d="M 59.369688 296.012718 
L 617.369688 296.012718 
" clip-path="url(#pce807ddc46)" style="fill: none; stroke: #b0b0b0; stroke-opacity: 0.3; stroke-width: 0.8; stroke-linecap: square"/>
     </g>
     <g id="line2d_18">
      <defs>
       <path id="m5f6f10d74a" d="M 0 0 
L -3.5 0 
" style="stroke: #000000; stroke-width: 0.8"/>
      </defs>
      <g>
       <use xlink:href="#m5f6f10d74a" x="59.369688" y="296.012718" style="stroke: #000000; stroke-width: 0.8"/>
      </g>
     </g>
     <g id="text_11">
      <!-- 0.0002 -->
      <g transform="translate(20.878125 299.432015) scale(0.09 -0.09)">
       <use xlink:href="#DejaVuSans-30"/>
       <use xlink:href="#DejaVuSans-2e" transform="translate(63.623047 0)"/>
       <use xlink:href="#DejaVuSans-30" transform="translate(95.410156 0)"/>
       <use xlink:href="#DejaVuSans-30" transform="translate(159.033203 0)"/>
       <use xlink:href="#DejaVuSans-30" transform="translate(222.65625 0)"/>
       <use xlink:href="#DejaVuSans-32" transform="translate(286.279297 0)"/>
      </g>
     </g>
    </g>
    <g id="ytick_2">
     <g id="line2d_19">
      <path d="M 59.369688 251.933299 
L 617.369688 251.933299 
" clip-path="url(#pce807ddc46)" style="fill: none; stroke: #b0b0b0; stroke-opacity: 0.3; stroke-width: 0.8; stroke-linecap: square"/>
     </g>
     <g id="line2d_20">
      <g>
       <use xlink:href="#m5f6f10d74a" x="59.369688" y="251.933299" style="stroke: #000000; stroke-width: 0.8"/>
      </g>
     </g>
     <g id="text_12">
      <!-- 0.0003 -->
      <g transform="translate(20.878125 255.352596) scale(0.09 -0.09)">
       <defs>
        <path id="DejaVuSans-33" d="M 2597 2516 
Q 3050 2419 3304 2112 
Q 3559 1806 3559 1356 
Q 3559 666 3084 287 
Q 2609 -91 1734 -91 
Q 1441 -91 1130 -33 
Q 819 25 488 141 
L 488 750 
Q 750 597 1062 519 
Q 1375 441 1716 441 
Q 2309 441 2620 675 
Q 2931 909 2931 1356 
Q 2931 1769 2642 2001 
Q 2353 2234 1838 2234 
L 1294 2234 
L 1294 2753 
L 1863 2753 
Q 2328 2753 2575 2939 
Q 2822 3125 2822 3475 
Q 2822 3834 2567 4026 
Q 2313 4219 1838 4219 
Q 1578 4219 1281 4162 
Q 984 4106 628 3988 
L 628 4550 
Q 988 4650 1302 4700 
Q 1616 4750 1894 4750 
Q 2613 4750 3031 4423 
Q 3450 4097 3450 3541 
Q 3450 3153 3228 2886 
Q 3006 2619 2597 2516 
z
" transform="scale(0.015625)"/>
       </defs>
       <use xlink:href="#DejaVuSans-30"/>
       <use xlink:href="#DejaVuSans-2e" transform="translate(63.623047 0)"/>
       <use xlink:href="#DejaVuSans-30" transform="translate(95.410156 0)"/>
       <use xlink:href="#DejaVuSans-30" transform="translate(159.033203 0)"/>
       <use xlink:href="#DejaVuSans-30" transform="translate(222.65625 0)"/>
       <use xlink:href="#DejaVuSans-33" transform="translate(286.279297 0)"/>
      </g>
     </g>
    </g>
    <g id="ytick_3">
     <g id="line2d_21">
      <path d="M 59.369688 207.85388 
L 617.369688 207.85388 
" clip-path="url(#pce807ddc46)" style="fill: none; stroke: #b0b0b0; stroke-opacity: 0.3; stroke-width: 0.8; stroke-linecap: square"/>
     </g>
     <g id="line2d_22">
      <g>
       <use xlink:href="#m5f6f10d74a" x="59.369688" y="207.85388" style="stroke: #000000; stroke-width: 0.8"/>
      </g>
     </g>
     <g id="text_13">
      <!-- 0.0004 -->
      <g transform="translate(20.878125 211.273177) scale(0.09 -0.09)">
       <use xlink:href="#DejaVuSans-30"/>
       <use xlink:href="#DejaVuSans-2e" transform="translate(63.623047 0)"/>
       <use xlink:href="#DejaVuSans-30" transform="translate(95.410156 0)"/>
       <use xlink:href="#DejaVuSans-30" transform="translate(159.033203 0)"/>
       <use xlink:href="#DejaVuSans-30" transform="translate(222.65625 0)"/>
       <use xlink:href="#DejaVuSans-34" transform="translate(286.279297 0)"/>
      </g>
     </g>
    </g>
    <g id="ytick_4">
     <g id="line2d_23">
      <path d="M 59.369688 163.77446 
L 617.369688 163.77446 
" clip-path="url(#pce807ddc46)" style="fill: none; stroke: #b0b0b0; stroke-opacity: 0.3; stroke-width: 0.8; stroke-linecap: square"/>
     </g>
     <g id="line2d_24">
      <g>
       <use xlink:href="#m5f6f10d74a" x="59.369688" y="163.77446" style="stroke: #000000; stroke-width: 0.8"/>
      </g>
     </g>
     <g id="text_14">
      <!-- 0.0005 -->
      <g transform="translate(20.878125 167.193757) scale(0.09 -0.09)">
       <defs>
        <path id="DejaVuSans-35" d="M 691 4666 
L 3169 4666 
L 3169 4134 
L 1269 4134 
L 1269 2991 
Q 1406 3038 1543 3061 
Q 1681 3084 1819 3084 
Q 2600 3084 3056 2656 
Q 3513 2228 3513 1497 
Q 3513 744 3044 326 
Q 2575 -91 1722 -91 
Q 1428 -91 1123 -41 
Q 819 9 494 109 
L 494 744 
Q 775 591 1075 516 
Q 1375 441 1709 441 
Q 2250 441 2565 725 
Q 2881 1009 2881 1497 
Q 2881 1984 2565 2268 
Q 2250 2553 1709 2553 
Q 1456 2553 1204 2497 
Q 953 2441 691 2322 
L 691 4666 
z
" transform="scale(0.015625)"/>
       </defs>
       <use xlink:href="#DejaVuSans-30"/>
       <use xlink:href="#DejaVuSans-2e" transform="translate(63.623047 0)"/>
       <use xlink:href="#DejaVuSans-30" transform="translate(95.410156 0)"/>
       <use xlink:href="#DejaVuSans-30" transform="translate(159.033203 0)"/>
       <use xlink:href="#DejaVuSans-30" transform="translate(222.65625 0)"/>
       <use xlink:href="#DejaVuSans-35" transform="translate(286.279297 0)"/>
      </g>
     </g>
    </g>
    <g id="ytick_5">
     <g id="line2d_25">
      <path d="M 59.369688 119.695041 
L 617.369688 119.695041 
" clip-path="url(#pce807ddc46)" style="fill: none; stroke: #b0b0b0; stroke-opacity: 0.3; stroke-width: 0.8; stroke-linecap: square"/>
     </g>
     <g id="line2d_26">
      <g>
       <use xlink:href="#m5f6f10d74a" x="59.369688" y="119.695041" style="stroke: #000000; stroke-width: 0.8"/>
      </g>
     </g>
     <g id="text_15">
      <!-- 0.0006 -->
      <g transform="translate(20.878125 123.114338) scale(0.09 -0.09)">
       <use xlink:href="#DejaVuSans-30"/>
       <use xlink:href="#DejaVuSans-2e" transform="translate(63.623047 0)"/>
       <use xlink:href="#DejaVuSans-30" transform="translate(95.410156 0)"/>
       <use xlink:href="#DejaVuSans-30" transform="translate(159.033203 0)"/>
       <use xlink:href="#DejaVuSans-30" transform="translate(222.65625 0)"/>
       <use xlink:href="#DejaVuSans-36" transform="translate(286.279297 0)"/>
      </g>
     </g>
    </g>
    <g id="ytick_6">
     <g id="line2d_27">
      <path d="M 59.369688 75.615622 
L 617.369688 75.615622 
" clip-path="url(#pce807ddc46)" style="fill: none; stroke: #b0b0b0; stroke-opacity: 0.3; stroke-width: 0.8; stroke-linecap: square"/>
     </g>
     <g id="line2d_28">
      <g>
       <use xlink:href="#m5f6f10d74a" x="59.369688" y="75.615622" style="stroke: #000000; stroke-width: 0.8"/>
      </g>
     </g>
     <g id="text_16">
      <!-- 0.0007 -->
      <g transform="translate(20.878125 79.034919) scale(0.09 -0.09)">
       <defs>
        <path id="DejaVuSans-37" d="M 525 4666 
L 3525 4666 
L 3525 4397 
L 1831 0 
L 1172 0 
L 2766 4134 
L 525 4134 
L 525 4666 
z
" transform="scale(0.015625)"/>
       </defs>
       <use xlink:href="#DejaVuSans-30"/>
       <use xlink:href="#DejaVuSans-2e" transform="translate(63.623047 0)"/>
       <use xlink:href="#DejaVuSans-30" transform="translate(95.410156 0)"/>
       <use xlink:href="#DejaVuSans-30" transform="translate(159.033203 0)"/>
       <use xlink:href="#DejaVuSans-30" transform="translate(222.65625 0)"/>
       <use xlink:href="#DejaVuSans-37" transform="translate(286.279297 0)"/>
      </g>
     </g>
    </g>
    <g id="ytick_7">
     <g id="line2d_29">
      <path d="M 59.369688 31.536202 
L 617.369688 31.536202 
" clip-path="url(#pce807ddc46)" style="fill: none; stroke: #b0b0b0; stroke-opacity: 0.3; stroke-width: 0.8; stroke-linecap: square"/>
     </g>
     <g id="line2d_30">
      <g>
       <use xlink:href="#m5f6f10d74a" x="59.369688" y="31.536202" style="stroke: #000000; stroke-width: 0.8"/>
      </g>
     </g>
     <g id="text_17">
      <!-- 0.0008 -->
      <g transform="translate(20.878125 34.955499) scale(0.09 -0.09)">
       <use xlink:href="#DejaVuSans-30"/>
       <use xlink:href="#DejaVuSans-2e" transform="translate(63.623047 0)"/>
       <use xlink:href="#DejaVuSans-30" transform="translate(95.410156 0)"/>
       <use xlink:href="#DejaVuSans-30" transform="translate(159.033203 0)"/>
       <use xlink:href="#DejaVuSans-30" transform="translate(222.65625 0)"/>
       <use xlink:href="#DejaVuSans-38" transform="translate(286.279297 0)"/>
      </g>
     </g>
    </g>
    <g id="text_18">
     <!-- Volatility -->
     <g transform="translate(14.798438 182.510313) rotate(-90) scale(0.1 -0.1)">
      <defs>
       <path id="DejaVuSans-56" d="M 1831 0 
L 50 4666 
L 709 4666 
L 2188 738 
L 3669 4666 
L 4325 4666 
L 2547 0 
L 1831 0 
z
" transform="scale(0.015625)"/>
       <path id="DejaVuSans-6f" d="M 1959 3097 
Q 1497 3097 1228 2736 
Q 959 2375 959 1747 
Q 959 1119 1226 758 
Q 1494 397 1959 397 
Q 2419 397 2687 759 
Q 2956 1122 2956 1747 
Q 2956 2369 2687 2733 
Q 2419 3097 1959 3097 
z
M 1959 3584 
Q 2709 3584 3137 3096 
Q 3566 2609 3566 1747 
Q 3566 888 3137 398 
Q 2709 -91 1959 -91 
Q 1206 -91 779 398 
Q 353 888 353 1747 
Q 353 2609 779 3096 
Q 1206 3584 1959 3584 
z
" transform="scale(0.015625)"/>
       <path id="DejaVuSans-6c" d="M 603 4863 
L 1178 4863 
L 1178 0 
L 603 0 
L 603 4863 
z
" transform="scale(0.015625)"/>
       <path id="DejaVuSans-61" d="M 2194 1759 
Q 1497 1759 1228 1600 
Q 959 1441 959 1056 
Q 959 750 1161 570 
Q 1363 391 1709 391 
Q 2188 391 2477 730 
Q 2766 1069 2766 1631 
L 2766 1759 
L 2194 1759 
z
M 3341 1997 
L 3341 0 
L 2766 0 
L 2766 531 
Q 2569 213 2275 61 
Q 1981 -91 1556 -91 
Q 1019 -91 701 211 
Q 384 513 384 1019 
Q 384 1609 779 1909 
Q 1175 2209 1959 2209 
L 2766 2209 
L 2766 2266 
Q 2766 2663 2505 2880 
Q 2244 3097 1772 3097 
Q 1472 3097 1187 3025 
Q 903 2953 641 2809 
L 641 3341 
Q 956 3463 1253 3523 
Q 1550 3584 1831 3584 
Q 2591 3584 2966 3190 
Q 3341 2797 3341 1997 
z
" transform="scale(0.015625)"/>
       <path id="DejaVuSans-74" d="M 1172 4494 
L 1172 3500 
L 2356 3500 
L 2356 3053 
L 1172 3053 
L 1172 1153 
Q 1172 725 1289 603 
Q 1406 481 1766 481 
L 2356 481 
L 2356 0 
L 1766 0 
Q 1100 0 847 248 
Q 594 497 594 1153 
L 594 3053 
L 172 3053 
L 172 3500 
L 594 3500 
L 594 4494 
L 1172 4494 
z
" transform="scale(0.015625)"/>
       <path id="DejaVuSans-79" d="M 2059 -325 
Q 1816 -950 1584 -1140 
Q 1353 -1331 966 -1331 
L 506 -1331 
L 506 -850 
L 844 -850 
Q 1081 -850 1212 -737 
Q 1344 -625 1503 -206 
L 1606 56 
L 191 3500 
L 800 3500 
L 1894 763 
L 2988 3500 
L 3597 3500 
L 2059 -325 
z
" transform="scale(0.015625)"/>
      </defs>
      <use xlink:href="#DejaVuSans-56"/>
      <use xlink:href="#DejaVuSans-6f" transform="translate(60.658203 0)"/>
      <use xlink:href="#DejaVuSans-6c" transform="translate(121.839844 0)"/>
      <use xlink:href="#DejaVuSans-61" transform="translate(149.623047 0)"/>
      <use xlink:href="#DejaVuSans-74" transform="translate(210.902344 0)"/>
      <use xlink:href="#DejaVuSans-69" transform="translate(250.111328 0)"/>
      <use xlink:href="#DejaVuSans-6c" transform="translate(277.894531 0)"/>
      <use xlink:href="#DejaVuSans-69" transform="translate(305.677734 0)"/>
      <use xlink:href="#DejaVuSans-74" transform="translate(333.460938 0)"/>
      <use xlink:href="#DejaVuSans-79" transform="translate(372.669922 0)"/>
     </g>
    </g>
   </g>
   <g id="line2d_31">
    <path d="M 84.733324 151.837778 
L 85.751944 216.887936 
L 86.770564 194.932586 
L 87.789184 203.094871 
L 88.807804 203.199199 
L 89.826424 218.342098 
L 90.845043 228.368266 
L 91.863663 225.481809 
L 92.882283 161.611915 
L 93.900903 141.790297 
L 94.919523 162.810933 
L 95.938143 166.763308 
L 96.956763 168.842247 
L 97.975383 166.185584 
L 98.994003 168.171044 
L 100.012623 165.012599 
L 101.031243 164.327154 
L 102.049863 174.765497 
L 103.068483 253.737405 
L 104.087103 264.620516 
L 105.105723 216.357617 
L 106.124342 225.869616 
L 107.142962 223.066964 
L 108.161582 174.762798 
L 109.180202 185.078991 
L 110.198822 206.527083 
L 111.217442 205.361345 
L 112.236062 201.472612 
L 113.254682 214.232235 
L 114.273302 179.480718 
L 115.291922 190.352164 
L 116.310542 203.620301 
L 117.329162 199.324691 
L 118.347782 212.119862 
L 119.366402 214.697737 
L 120.385022 200.764335 
L 121.403641 200.616907 
L 122.422261 247.097167 
L 123.440881 227.763589 
L 124.459501 236.217309 
L 125.478121 235.225141 
L 126.496741 237.050644 
L 127.515361 198.436583 
L 128.533981 197.971969 
L 129.552601 194.376125 
L 130.571221 169.512635 
L 131.589841 193.591957 
L 132.608461 181.850432 
L 133.627081 183.350901 
L 134.645701 156.854786 
L 135.664321 145.601635 
L 136.682941 156.358552 
L 137.70156 172.202736 
L 138.72018 167.562219 
L 139.7388 149.200659 
L 140.75742 201.769856 
L 141.77604 202.066349 
L 142.79466 151.568902 
L 143.81328 162.142172 
L 144.8319 173.917678 
L 145.85052 174.154219 
L 146.86914 170.309423 
L 147.88776 172.411094 
L 148.90638 187.129297 
L 149.925 199.228527 
L 150.94362 193.224763 
L 151.96224 196.676018 
L 152.980859 237.057588 
L 153.999479 233.913868 
L 155.018099 215.679192 
L 156.036719 227.111196 
L 157.055339 233.570428 
L 158.073959 225.032811 
L 159.092579 215.047623 
L 160.111199 212.033465 
L 161.129819 164.199121 
L 162.148439 173.236632 
L 163.167059 173.36694 
L 164.185679 181.265197 
L 165.204299 163.317764 
L 166.222919 151.64851 
L 167.241539 124.575366 
L 168.260158 127.300705 
L 169.278778 124.461588 
L 170.297398 128.394609 
L 171.316018 150.563163 
L 172.334638 137.077685 
L 173.353258 139.597548 
L 174.371878 117.120084 
L 175.390498 90.396292 
L 176.409118 71.949942 
L 177.427738 84.197951 
L 178.446358 80.799761 
L 179.464978 75.184744 
L 180.483598 104.126142 
L 181.502218 93.105894 
L 182.520838 120.97732 
L 183.539457 119.409032 
L 184.558077 128.5233 
L 186.595317 210.924966 
L 187.613937 221.278238 
L 188.632557 227.452338 
L 189.651177 266.379042 
L 190.669797 246.002712 
L 191.688417 251.591162 
L 192.707037 213.377374 
L 193.725657 210.909004 
L 194.744277 195.679252 
L 195.762897 174.095977 
L 196.781517 174.630191 
L 197.800137 119.007067 
L 198.818757 120.55602 
L 199.837376 117.165538 
L 200.855996 109.901106 
L 201.874616 101.750475 
L 202.893236 66.765509 
L 203.911856 59.73378 
L 204.930476 75.642627 
L 205.949096 82.326872 
L 206.967716 70.404789 
L 207.986336 112.149939 
L 209.004956 109.355815 
L 210.023576 111.340321 
L 211.042196 129.829877 
L 212.060816 145.739638 
L 213.079436 221.827472 
L 214.098056 232.703032 
L 215.116675 238.203274 
L 216.135295 174.901956 
L 217.153915 158.808757 
L 218.172535 148.1889 
L 219.191155 147.730529 
L 220.209775 141.345264 
L 221.228395 157.949296 
L 222.247015 135.283772 
L 223.265635 138.530595 
L 224.284255 132.116125 
L 225.302875 132.008533 
L 226.321495 180.165258 
L 227.340115 216.841297 
L 228.358735 211.855905 
L 229.377355 197.722128 
L 230.395974 199.068469 
L 231.414594 200.908138 
L 232.433214 223.849061 
L 233.451834 242.391346 
L 234.470454 236.385536 
L 235.489074 239.154084 
L 236.507694 224.200319 
L 237.526314 192.425601 
L 238.544934 185.940488 
L 239.563554 195.042918 
L 240.582174 193.958094 
L 241.600794 149.248807 
L 242.619414 148.926951 
L 243.638034 117.928451 
L 244.656654 158.683217 
L 245.675273 141.627516 
L 247.712513 142.410954 
L 248.731133 142.453534 
L 251.786993 193.580455 
L 252.805613 143.086539 
L 253.824233 176.931822 
L 254.842853 226.532243 
L 255.861473 237.389523 
L 256.880093 242.801305 
L 258.917333 227.205369 
L 259.935953 232.572206 
L 260.954572 230.445745 
L 261.973192 231.859009 
L 262.991812 273.794785 
L 264.010432 275.779678 
L 265.029052 272.27778 
L 266.047672 265.593944 
L 267.066292 273.289134 
L 268.084912 279.23989 
L 269.103532 270.083524 
L 270.122152 263.648126 
L 271.140772 262.709741 
L 272.159392 258.80756 
L 273.178012 260.232076 
L 274.196632 253.226996 
L 275.215252 256.889359 
L 276.233872 268.273265 
L 277.252491 270.057192 
L 278.271111 269.308004 
L 279.289731 220.653092 
L 280.308351 230.310162 
L 281.326971 219.522001 
L 282.345591 219.008763 
L 283.364211 195.910794 
L 284.382831 151.842156 
L 285.401451 144.265347 
L 286.420071 143.777468 
L 287.438691 135.080421 
L 288.457311 118.456102 
L 289.475931 140.885265 
L 290.494551 126.881391 
L 291.513171 135.58854 
L 292.53179 134.71809 
L 295.58765 217.31377 
L 296.60627 213.269539 
L 297.62489 215.614601 
L 298.64351 247.072367 
L 299.66213 243.849778 
L 300.68075 244.235615 
L 301.69937 221.61732 
L 302.71799 222.306342 
L 303.73661 190.791255 
L 304.75523 178.844495 
L 305.77385 169.44029 
L 306.79247 167.869256 
L 307.811089 170.467138 
L 308.829709 187.962134 
L 309.848329 192.613331 
L 310.866949 133.678685 
L 311.885569 143.334845 
L 312.904189 132.898432 
L 313.922809 173.794845 
L 314.941429 192.036739 
L 315.960049 177.125887 
L 316.978669 206.531056 
L 317.997289 172.253406 
L 319.015909 124.028309 
L 320.034529 122.025657 
L 321.053149 142.380764 
L 322.071769 146.466769 
L 323.090388 123.965728 
L 324.109008 125.006237 
L 325.127628 135.783293 
L 326.146248 163.455163 
L 327.164868 172.143851 
L 328.183488 176.897043 
L 329.202108 196.920211 
L 330.220728 174.581651 
L 331.239348 196.250434 
L 332.257968 195.39785 
L 333.276588 236.485679 
L 334.295208 216.745062 
L 335.313828 190.604402 
L 336.332448 196.21341 
L 337.351068 191.5722 
L 338.369687 185.337738 
L 339.388307 192.64893 
L 340.406927 235.202705 
L 341.425547 232.900948 
L 342.444167 237.882506 
L 343.462787 233.946149 
L 344.481407 233.601936 
L 345.500027 219.468091 
L 346.518647 229.018596 
L 347.537267 218.698794 
L 348.555887 217.125104 
L 349.574507 193.557741 
L 350.593127 184.368017 
L 351.611747 153.978644 
L 352.630367 155.533525 
L 353.648987 187.25833 
L 354.667606 170.967657 
L 355.686226 168.87215 
L 356.704846 169.167038 
L 357.723466 169.045156 
L 358.742086 166.572169 
L 359.760706 171.842627 
L 360.779326 159.09762 
L 361.797946 169.207939 
L 362.816566 173.122601 
L 363.835186 163.843573 
L 364.853806 171.394334 
L 365.872426 188.045283 
L 366.891046 189.348056 
L 367.909666 206.331266 
L 368.928286 184.255909 
L 369.946905 184.503309 
L 370.965525 271.075328 
L 371.984145 286.918125 
L 373.002765 240.523055 
L 374.021385 234.298136 
L 375.040005 215.725488 
L 376.058625 214.005909 
L 377.077245 207.832521 
L 378.095865 208.865957 
L 379.114485 228.54 
L 380.133105 227.722107 
L 381.151725 213.682445 
L 382.170345 221.639365 
L 383.188965 206.973129 
L 384.207585 185.587787 
L 385.226204 199.789938 
L 386.244824 192.242758 
L 387.263444 192.374458 
L 388.282064 197.651788 
L 389.300684 194.682627 
L 390.319304 198.387767 
L 391.337924 195.276033 
L 392.356544 68.293353 
L 393.375164 76.184512 
L 394.393784 91.413986 
L 395.412404 92.197905 
L 396.431024 106.609692 
L 397.449644 82.754361 
L 398.468264 69.535636 
L 399.486884 67.183616 
L 400.505503 72.972609 
L 401.524123 51.847475 
L 402.542743 161.844521 
L 403.561363 173.626201 
L 404.579983 88.156477 
L 405.598603 86.29611 
L 406.617223 82.122911 
L 408.654463 131.72817 
L 409.673083 128.031856 
L 410.691703 129.936538 
L 411.710323 142.561868 
L 412.728943 147.659124 
L 413.747563 83.276059 
L 414.766183 137.765704 
L 415.784803 68.103225 
L 416.803422 71.166571 
L 417.822042 67.481815 
L 418.840662 66.631162 
L 419.859282 71.854188 
L 420.877902 34.918125 
L 421.896522 42.108138 
L 422.915142 40.721327 
L 423.933762 94.670441 
L 424.952382 105.92799 
L 425.971002 203.022084 
L 426.989622 202.389731 
L 428.008242 225.836235 
L 429.026862 204.11939 
L 430.045482 210.533204 
L 431.064102 257.020265 
L 432.082721 249.724095 
L 434.119961 227.425819 
L 435.138581 213.264206 
L 436.157201 125.257418 
L 437.175821 133.568947 
L 438.194441 131.951426 
L 439.213061 133.396069 
L 440.231681 137.330248 
L 441.250301 135.641949 
L 442.268921 134.611901 
L 443.287541 89.395359 
L 444.306161 89.416186 
L 445.324781 88.294684 
L 446.343401 145.587893 
L 447.36202 133.328336 
L 448.38064 119.516854 
L 449.39926 102.363416 
L 450.41788 58.190812 
L 451.4365 54.751291 
L 452.45512 54.590305 
L 453.47374 108.751818 
L 454.49236 106.497388 
L 455.51098 106.662166 
L 456.5296 100.620537 
L 457.54822 124.367797 
L 458.56684 158.4334 
L 459.58546 161.064627 
L 460.60408 228.358554 
L 461.6227 238.627603 
L 462.641319 239.27531 
L 463.659939 257.75732 
L 464.678559 247.843781 
L 465.697179 242.334401 
L 466.715799 281.686249 
L 467.734419 273.492622 
L 468.753039 237.204326 
L 469.771659 236.592191 
L 470.790279 228.080928 
L 471.808899 230.203781 
L 472.827519 219.183565 
L 473.846139 205.856344 
L 474.864759 211.470011 
L 476.901999 221.039251 
L 477.920618 191.868335 
L 478.939238 227.94793 
L 479.957858 228.01866 
L 480.976478 210.845752 
L 481.995098 149.897508 
L 483.013718 140.058548 
L 484.032338 139.851955 
L 485.050958 137.393404 
L 486.069578 136.376247 
L 487.088198 144.214358 
L 488.106818 128.259773 
L 489.125438 129.665563 
L 490.144058 130.211729 
L 491.162678 146.01857 
L 492.181298 217.031714 
L 493.199918 221.057192 
L 494.218537 235.583582 
L 495.237157 215.224534 
L 496.255777 224.242409 
L 497.274397 220.743236 
L 498.293017 255.50264 
L 500.330257 257.17917 
L 501.348877 231.979759 
L 502.367497 227.165443 
L 503.386117 217.833105 
L 504.404737 214.167112 
L 505.423357 240.205191 
L 506.441977 229.730289 
L 507.460597 233.314293 
L 508.479217 235.145251 
L 509.497836 242.818905 
L 510.516456 195.540292 
L 511.535076 206.069056 
L 512.553696 195.525629 
L 513.572316 212.731532 
L 514.590936 220.696065 
L 515.609556 212.844983 
L 516.628176 211.200127 
L 517.646796 205.210452 
L 518.665416 207.229982 
L 519.684036 197.141642 
L 520.702656 117.344242 
L 521.721276 101.176338 
L 522.739896 70.655766 
L 523.758516 67.724036 
L 524.777135 74.953664 
L 525.795755 87.977216 
L 526.814375 69.754483 
L 527.832995 58.129611 
L 528.851615 86.663395 
L 529.870235 83.611792 
L 530.888855 140.135746 
L 531.907475 140.387062 
L 532.926095 203.373424 
L 533.944715 189.232502 
L 534.963335 163.978012 
L 535.981955 165.314099 
L 537.000575 181.301054 
L 538.019195 182.775241 
L 539.037815 159.259348 
L 540.056434 159.446254 
L 541.075054 156.367996 
L 542.093674 177.055622 
L 543.112294 174.216391 
L 544.130914 182.645943 
L 545.149534 214.397949 
L 546.168154 188.101576 
L 547.186774 190.08921 
L 548.205394 193.290595 
L 549.224014 208.398359 
L 550.242634 170.974636 
L 551.261254 178.032346 
L 552.279874 166.814295 
L 553.298494 107.50308 
L 554.317114 110.627273 
L 555.335734 114.511433 
L 556.354353 138.060603 
L 557.372973 84.064806 
L 558.391593 77.13666 
L 559.410213 53.653635 
L 560.428833 73.333145 
L 561.447453 71.464986 
L 562.466073 85.909073 
L 563.484693 115.208705 
L 564.503313 107.860508 
L 565.521933 95.399307 
L 566.540553 97.611798 
L 567.559173 177.518676 
L 568.577793 177.59946 
L 569.596413 172.121095 
L 570.615033 181.423739 
L 571.633652 173.272153 
L 572.652272 147.133213 
L 573.670892 154.989023 
L 574.689512 150.530219 
L 575.708132 130.910253 
L 576.726752 132.691207 
L 577.745372 124.252948 
L 578.763992 130.210156 
L 579.782612 131.174263 
L 580.801232 111.658871 
L 581.819852 132.788871 
L 582.838472 137.79459 
L 583.857092 175.175925 
L 584.875712 176.957238 
L 585.894332 180.896661 
L 586.912951 179.761082 
L 587.931571 195.161639 
L 588.950191 179.054266 
L 589.968811 181.857196 
L 592.006051 200.74891 
L 592.006051 200.74891 
" clip-path="url(#pce807ddc46)" style="fill: none; stroke: #1f77b4; stroke-opacity: 0.6; stroke-width: 1.5; stroke-linecap: square"/>
   </g>
   <g id="line2d_32">
    <path d="M 84.733324 151.837778 
L 85.751944 184.362857 
L 87.789184 191.688293 
L 88.807804 193.990474 
L 90.845043 202.380391 
L 91.863663 205.268068 
L 92.882283 200.417384 
L 93.900903 194.554675 
L 94.919523 191.668881 
L 95.938143 189.593416 
L 97.975383 186.439202 
L 101.031243 182.803507 
L 102.049863 182.356951 
L 105.105723 193.265144 
L 106.124342 193.714228 
L 107.142962 195.120947 
L 108.161582 193.704343 
L 109.180202 192.798333 
L 110.198822 192.207582 
L 112.236062 189.856776 
L 113.254682 192.487792 
L 114.273302 194.372313 
L 115.291922 195.749375 
L 116.310542 197.592224 
L 117.329162 199.116347 
L 119.366402 203.739395 
L 121.403641 207.34147 
L 122.422261 210.958053 
L 124.459501 208.239202 
L 125.478121 209.182578 
L 126.496741 209.74163 
L 127.515361 208.51011 
L 128.533981 209.670569 
L 129.552601 210.135426 
L 130.571221 208.284703 
L 131.589841 207.696234 
L 132.608461 206.715125 
L 133.627081 205.171058 
L 134.645701 204.039762 
L 136.682941 199.439148 
L 137.70156 198.08305 
L 138.72018 195.855168 
L 139.7388 192.580314 
L 141.77604 192.703062 
L 142.79466 187.926649 
L 144.8319 181.530596 
L 146.86914 175.139989 
L 147.88776 173.838715 
L 148.90638 173.296581 
L 149.925 173.539201 
L 150.94362 174.724808 
L 151.96224 174.879011 
L 155.018099 183.108737 
L 157.055339 191.044809 
L 160.111199 199.202224 
L 161.129819 197.323687 
L 162.148439 195.882201 
L 164.185679 197.928254 
L 165.204299 197.398258 
L 166.222919 196.272973 
L 168.260158 191.730751 
L 169.278778 188.597365 
L 170.297398 185.055669 
L 171.316018 182.922589 
L 172.334638 179.942673 
L 173.353258 175.069671 
L 175.390498 162.965836 
L 178.446358 140.527497 
L 179.464978 133.534353 
L 180.483598 128.138987 
L 181.502218 124.584326 
L 184.558077 116.63637 
L 185.576697 116.916538 
L 186.595317 119.880361 
L 188.632557 129.723086 
L 189.651177 136.818959 
L 190.669797 142.699364 
L 191.688417 147.750764 
L 195.762897 163.244264 
L 196.781517 168.378276 
L 197.800137 170.118732 
L 199.837376 174.205584 
L 200.855996 174.494333 
L 201.874616 174.926562 
L 204.930476 166.588175 
L 205.949096 162.258462 
L 206.967716 155.232454 
L 209.004956 143.871213 
L 210.023576 136.119277 
L 212.060816 125.018059 
L 213.079436 125.440563 
L 214.098056 126.530265 
L 215.116675 128.656466 
L 216.135295 128.696765 
L 217.153915 127.905693 
L 219.191155 130.72351 
L 220.209775 131.932497 
L 221.228395 134.334906 
L 222.247015 136.011571 
L 224.284255 143.218942 
L 225.302875 146.037238 
L 226.321495 150.929157 
L 227.340115 158.250982 
L 228.358735 163.236281 
L 230.395974 172.041004 
L 232.433214 179.500388 
L 233.451834 180.528582 
L 234.470454 180.712707 
L 235.489074 180.760247 
L 236.507694 183.225166 
L 238.544934 186.793587 
L 240.582174 191.789848 
L 241.600794 191.354824 
L 242.619414 192.036983 
L 243.638034 191.006875 
L 244.656654 192.33523 
L 245.675273 192.816179 
L 246.693893 190.910918 
L 248.731133 183.719282 
L 249.749753 181.836677 
L 250.768373 180.826011 
L 251.786993 180.459627 
L 252.805613 176.421501 
L 253.824233 173.148524 
L 254.842853 172.65586 
L 255.861473 172.567632 
L 256.880093 173.497681 
L 258.917333 177.699245 
L 260.954572 181.400092 
L 261.973192 185.530602 
L 262.991812 191.773994 
L 264.010432 199.666555 
L 266.047672 211.544605 
L 269.103532 231.329006 
L 270.122152 236.507912 
L 271.140772 240.700641 
L 272.159392 243.961996 
L 273.178012 249.819273 
L 274.196632 253.634032 
L 278.271111 259.764669 
L 279.289731 259.437055 
L 280.308351 259.323953 
L 282.345591 258.135254 
L 283.364211 254.241054 
L 286.420071 235.552733 
L 287.438691 228.642297 
L 288.457311 220.603107 
L 292.53179 194.744324 
L 293.55041 189.874223 
L 294.56903 186.639496 
L 295.58765 184.660717 
L 297.62489 179.188401 
L 298.64351 178.076619 
L 299.66213 179.236453 
L 300.68075 179.932726 
L 302.71799 180.202371 
L 303.73661 179.946394 
L 305.77385 182.555258 
L 306.79247 183.759847 
L 307.811089 185.529183 
L 308.829709 189.004485 
L 309.848329 191.590888 
L 311.885569 192.318068 
L 312.904189 192.227085 
L 313.922809 192.775325 
L 314.941429 192.950539 
L 315.960049 190.941145 
L 316.978669 190.604221 
L 317.997289 188.436161 
L 320.034529 176.192752 
L 321.053149 171.100009 
L 322.071769 167.342482 
L 323.090388 162.425451 
L 324.109008 159.1362 
L 325.127628 156.98314 
L 326.146248 156.683884 
L 328.183488 157.219109 
L 329.202108 157.667013 
L 330.220728 156.765429 
L 331.239348 159.894016 
L 332.257968 162.497166 
L 333.276588 167.676529 
L 334.295208 169.82404 
L 335.313828 169.752423 
L 336.332448 170.706799 
L 337.351068 169.958856 
L 338.369687 170.613073 
L 339.388307 174.044104 
L 340.406927 179.702956 
L 342.444167 188.799752 
L 344.481407 199.728558 
L 345.500027 203.912798 
L 346.518647 207.19097 
L 347.537267 209.518717 
L 348.555887 211.53012 
L 349.574507 211.361996 
L 350.593127 211.851315 
L 353.648987 205.283141 
L 354.667606 202.994271 
L 355.686226 201.907659 
L 356.704846 200.55534 
L 357.723466 199.428988 
L 359.760706 197.450394 
L 360.779326 193.64514 
L 362.816566 187.222494 
L 364.853806 180.606985 
L 365.872426 179.035845 
L 366.891046 177.052318 
L 367.909666 176.433942 
L 368.928286 174.790482 
L 369.946905 174.33776 
L 370.965525 178.673126 
L 371.984145 185.3201 
L 373.002765 189.569576 
L 376.058625 196.416146 
L 378.095865 200.34046 
L 380.133105 206.232826 
L 382.170345 211.583638 
L 383.188965 213.276165 
L 384.207585 214.363375 
L 385.226204 215.783156 
L 387.263444 216.14435 
L 388.282064 215.710376 
L 389.300684 216.231711 
L 390.319304 216.925934 
L 391.337924 213.13597 
L 392.356544 202.204731 
L 393.375164 193.987804 
L 394.393784 186.843596 
L 395.412404 180.667217 
L 396.431024 175.297406 
L 397.449644 169.043498 
L 398.468264 162.076982 
L 401.524123 138.17994 
L 402.542743 135.190197 
L 403.561363 133.522851 
L 404.579983 128.651286 
L 406.617223 117.470602 
L 407.635843 113.250998 
L 410.691703 103.199717 
L 411.710323 100.564008 
L 412.728943 104.532297 
L 413.747563 104.886874 
L 414.766183 107.20446 
L 415.784803 105.999726 
L 416.803422 104.22757 
L 417.822042 103.463943 
L 418.840662 103.318719 
L 419.859282 103.552248 
L 420.877902 101.649524 
L 421.896522 101.162557 
L 422.915142 95.106397 
L 423.933762 91.158609 
L 424.952382 92.047185 
L 428.008242 109.789518 
L 429.026862 113.409079 
L 430.045482 117.534146 
L 431.064102 123.888332 
L 432.082721 129.246444 
L 433.101341 133.815869 
L 434.119961 141.023357 
L 435.138581 144.798282 
L 437.175821 150.77611 
L 440.231681 160.611639 
L 442.268921 170.273019 
L 443.287541 172.70672 
L 444.306161 172.444007 
L 445.324781 171.562342 
L 446.343401 168.690633 
L 447.36202 165.237563 
L 449.39926 154.833795 
L 450.41788 147.216675 
L 452.45512 127.346537 
L 454.49236 114.785325 
L 455.51098 109.455223 
L 456.5296 108.223379 
L 457.54822 107.763322 
L 459.58546 110.470848 
L 460.60408 115.022264 
L 462.641319 125.404717 
L 464.678559 141.744195 
L 465.697179 149.44618 
L 468.753039 169.143686 
L 469.771659 175.855125 
L 472.827519 201.351918 
L 474.864759 211.455776 
L 476.901999 222.945942 
L 479.957858 233.144397 
L 480.976478 232.268757 
L 481.995098 227.832252 
L 483.013718 222.871414 
L 485.050958 211.453627 
L 486.069578 206.155719 
L 488.106818 192.020482 
L 490.144058 181.324521 
L 491.162678 177.221403 
L 492.181298 176.5628 
L 493.199918 176.656481 
L 494.218537 178.142843 
L 495.237157 178.330569 
L 496.255777 178.740351 
L 497.274397 178.72555 
L 498.293017 181.907265 
L 500.330257 184.787372 
L 501.348877 185.844072 
L 504.404737 197.311955 
L 506.441977 207.120246 
L 507.460597 211.575243 
L 509.497836 222.577184 
L 511.535076 228.846136 
L 512.553696 227.770832 
L 513.572316 227.354549 
L 514.590936 226.610173 
L 515.609556 226.491196 
L 517.646796 225.062442 
L 518.665416 222.648809 
L 519.684036 219.686414 
L 522.739896 198.329013 
L 526.814375 168.252698 
L 527.832995 159.493464 
L 529.870235 144.109015 
L 530.888855 141.338788 
L 531.907475 138.054688 
L 532.926095 138.447078 
L 533.944715 137.272126 
L 534.963335 134.436224 
L 535.981955 132.059679 
L 537.000575 130.564726 
L 538.019195 129.442965 
L 539.037815 127.044434 
L 540.056434 125.159664 
L 541.075054 127.110852 
L 542.093674 130.904816 
L 544.130914 141.828943 
L 545.149534 148.801157 
L 546.168154 153.807375 
L 547.186774 159.824111 
L 549.224014 172.668909 
L 550.242634 177.037051 
L 551.261254 178.931881 
L 552.279874 180.253243 
L 553.298494 175.459725 
L 554.317114 171.529464 
L 555.335734 169.056135 
L 556.354353 167.69346 
L 558.391593 157.549719 
L 559.410213 152.269433 
L 562.466073 139.1613 
L 563.484693 136.210915 
L 564.503313 132.471644 
L 565.521933 126.521712 
L 566.540553 121.997223 
L 567.559173 121.368696 
L 568.577793 120.584139 
L 569.596413 118.770276 
L 570.615033 119.292731 
L 571.633652 119.054721 
L 572.652272 118.070667 
L 573.670892 120.444965 
L 574.689512 122.440112 
L 575.708132 123.260053 
L 576.726752 122.991583 
L 577.745372 125.00099 
L 578.763992 127.654665 
L 579.782612 131.530696 
L 580.801232 133.446983 
L 581.819852 136.513177 
L 582.838472 139.107453 
L 583.857092 142.105814 
L 584.875712 145.56065 
L 586.912951 153.942982 
L 587.931571 154.82513 
L 588.950191 154.897871 
L 590.987431 155.856452 
L 592.006051 157.230289 
L 592.006051 157.230289 
" clip-path="url(#pce807ddc46)" style="fill: none; stroke: #ff7f0e; stroke-width: 1.5; stroke-linecap: square"/>
   </g>
   <g id="patch_3">
    <path d="M 59.369688 299.518125 
L 59.369688 22.318125 
" style="fill: none; stroke: #000000; stroke-width: 0.8; stroke-linejoin: miter; stroke-linecap: square"/>
   </g>
   <g id="patch_4">
    <path d="M 617.369688 299.518125 
L 617.369688 22.318125 
" style="fill: none; stroke: #000000; stroke-width: 0.8; stroke-linejoin: miter; stroke-linecap: square"/>
   </g>
   <g id="patch_5">
    <path d="M 59.369688 299.518125 
L 617.369688 299.518125 
" style="fill: none; stroke: #000000; stroke-width: 0.8; stroke-linejoin: miter; stroke-linecap: square"/>
   </g>
   <g id="patch_6">
    <path d="M 59.369688 22.318125 
L 617.369688 22.318125 
" style="fill: none; stroke: #000000; stroke-width: 0.8; stroke-linejoin: miter; stroke-linecap: square"/>
   </g>
   <g id="text_19">
    <!-- Rolling Volatility -->
    <g transform="translate(290.369687 16.318125) scale(0.12 -0.12)">
     <defs>
      <path id="DejaVuSans-52" d="M 2841 2188 
Q 3044 2119 3236 1894 
Q 3428 1669 3622 1275 
L 4263 0 
L 3584 0 
L 2988 1197 
Q 2756 1666 2539 1819 
Q 2322 1972 1947 1972 
L 1259 1972 
L 1259 0 
L 628 0 
L 628 4666 
L 2053 4666 
Q 2853 4666 3247 4331 
Q 3641 3997 3641 3322 
Q 3641 2881 3436 2590 
Q 3231 2300 2841 2188 
z
M 1259 4147 
L 1259 2491 
L 2053 2491 
Q 2509 2491 2742 2702 
Q 2975 2913 2975 3322 
Q 2975 3731 2742 3939 
Q 2509 4147 2053 4147 
L 1259 4147 
z
" transform="scale(0.015625)"/>
      <path id="DejaVuSans-6e" d="M 3513 2113 
L 3513 0 
L 2938 0 
L 2938 2094 
Q 2938 2591 2744 2837 
Q 2550 3084 2163 3084 
Q 1697 3084 1428 2787 
Q 1159 2491 1159 1978 
L 1159 0 
L 581 0 
L 581 3500 
L 1159 3500 
L 1159 2956 
Q 1366 3272 1645 3428 
Q 1925 3584 2291 3584 
Q 2894 3584 3203 3211 
Q 3513 2838 3513 2113 
z
" transform="scale(0.015625)"/>
      <path id="DejaVuSans-67" d="M 2906 1791 
Q 2906 2416 2648 2759 
Q 2391 3103 1925 3103 
Q 1463 3103 1205 2759 
Q 947 2416 947 1791 
Q 947 1169 1205 825 
Q 1463 481 1925 481 
Q 2391 481 2648 825 
Q 2906 1169 2906 1791 
z
M 3481 434 
Q 3481 -459 3084 -895 
Q 2688 -1331 1869 -1331 
Q 1566 -1331 1297 -1286 
Q 1028 -1241 775 -1147 
L 775 -588 
Q 1028 -725 1275 -790 
Q 1522 -856 1778 -856 
Q 2344 -856 2625 -561 
Q 2906 -266 2906 331 
L 2906 616 
Q 2728 306 2450 153 
Q 2172 0 1784 0 
Q 1141 0 747 490 
Q 353 981 353 1791 
Q 353 2603 747 3093 
Q 1141 3584 1784 3584 
Q 2172 3584 2450 3431 
Q 2728 3278 2906 2969 
L 2906 3500 
L 3481 3500 
L 3481 434 
z
" transform="scale(0.015625)"/>
     </defs>
     <use xlink:href="#DejaVuSans-52"/>
     <use xlink:href="#DejaVuSans-6f" transform="translate(64.982422 0)"/>
     <use xlink:href="#DejaVuSans-6c" transform="translate(126.164062 0)"/>
     <use xlink:href="#DejaVuSans-6c" transform="translate(153.947266 0)"/>
     <use xlink:href="#DejaVuSans-69" transform="translate(181.730469 0)"/>
     <use xlink:href="#DejaVuSans-6e" transform="translate(209.513672 0)"/>
     <use xlink:href="#DejaVuSans-67" transform="translate(272.892578 0)"/>
     <use xlink:href="#DejaVuSans-20" transform="translate(336.369141 0)"/>
     <use xlink:href="#DejaVuSans-56" transform="translate(368.15625 0)"/>
     <use xlink:href="#DejaVuSans-6f" transform="translate(428.814453 0)"/>
     <use xlink:href="#DejaVuSans-6c" transform="translate(489.996094 0)"/>
     <use xlink:href="#DejaVuSans-61" transform="translate(517.779297 0)"/>
     <use xlink:href="#DejaVuSans-74" transform="translate(579.058594 0)"/>
     <use xlink:href="#DejaVuSans-69" transform="translate(618.267578 0)"/>
     <use xlink:href="#DejaVuSans-6c" transform="translate(646.050781 0)"/>
     <use xlink:href="#DejaVuSans-69" transform="translate(673.833984 0)"/>
     <use xlink:href="#DejaVuSans-74" transform="translate(701.617188 0)"/>
     <use xlink:href="#DejaVuSans-79" transform="translate(740.826172 0)"/>
    </g>
   </g>
   <g id="legend_1">
    <g id="patch_7">
     <path d="M 65.669688 69.149063 
L 161.587187 69.149063 
Q 163.387187 69.149063 163.387187 67.349063 
L 163.387187 28.618125 
Q 163.387187 26.818125 161.587187 26.818125 
L 65.669688 26.818125 
Q 63.869688 26.818125 63.869688 28.618125 
L 63.869688 67.349063 
Q 63.869688 69.149063 65.669688 69.149063 
z
" style="fill: #ffffff; opacity: 0.8; stroke: #cccccc; stroke-linejoin: miter"/>
    </g>
    <g id="line2d_33">
     <path d="M 67.469688 34.106719 
L 76.469688 34.106719 
L 85.469688 34.106719 
" style="fill: none; stroke: #1f77b4; stroke-opacity: 0.6; stroke-width: 1.5; stroke-linecap: square"/>
    </g>
    <g id="text_20">
     <!-- volatility -->
     <g transform="translate(92.669688 37.256719) scale(0.09 -0.09)">
      <defs>
       <path id="DejaVuSans-76" d="M 191 3500 
L 800 3500 
L 1894 563 
L 2988 3500 
L 3597 3500 
L 2284 0 
L 1503 0 
L 191 3500 
z
" transform="scale(0.015625)"/>
      </defs>
      <use xlink:href="#DejaVuSans-76"/>
      <use xlink:href="#DejaVuSans-6f" transform="translate(59.179688 0)"/>
      <use xlink:href="#DejaVuSans-6c" transform="translate(120.361328 0)"/>
      <use xlink:href="#DejaVuSans-61" transform="translate(148.144531 0)"/>
      <use xlink:href="#DejaVuSans-74" transform="translate(209.423828 0)"/>
      <use xlink:href="#DejaVuSans-69" transform="translate(248.632812 0)"/>
      <use xlink:href="#DejaVuSans-6c" transform="translate(276.416016 0)"/>
      <use xlink:href="#DejaVuSans-69" transform="translate(304.199219 0)"/>
      <use xlink:href="#DejaVuSans-74" transform="translate(331.982422 0)"/>
      <use xlink:href="#DejaVuSans-79" transform="translate(371.191406 0)"/>
     </g>
    </g>
    <g id="line2d_34">
     <path d="M 67.469688 47.317031 
L 76.469688 47.317031 
L 85.469688 47.317031 
" style="fill: none; stroke: #ff7f0e; stroke-width: 1.5; stroke-linecap: square"/>
    </g>
    <g id="text_21">
     <!-- volatility mean -->
     <g transform="translate(92.669688 50.467031) scale(0.09 -0.09)">
      <use xlink:href="#DejaVuSans-76"/>
      <use xlink:href="#DejaVuSans-6f" transform="translate(59.179688 0)"/>
      <use xlink:href="#DejaVuSans-6c" transform="translate(120.361328 0)"/>
      <use xlink:href="#DejaVuSans-61" transform="translate(148.144531 0)"/>
      <use xlink:href="#DejaVuSans-74" transform="translate(209.423828 0)"/>
      <use xlink:href="#DejaVuSans-69" transform="translate(248.632812 0)"/>
      <use xlink:href="#DejaVuSans-6c" transform="translate(276.416016 0)"/>
      <use xlink:href="#DejaVuSans-69" transform="translate(304.199219 0)"/>
      <use xlink:href="#DejaVuSans-74" transform="translate(331.982422 0)"/>
      <use xlink:href="#DejaVuSans-79" transform="translate(371.191406 0)"/>
      <use xlink:href="#DejaVuSans-20" transform="translate(430.371094 0)"/>
      <use xlink:href="#DejaVuSans-6d" transform="translate(462.158203 0)"/>
      <use xlink:href="#DejaVuSans-65" transform="translate(559.570312 0)"/>
      <use xlink:href="#DejaVuSans-61" transform="translate(621.09375 0)"/>
      <use xlink:href="#DejaVuSans-6e" transform="translate(682.373047 0)"/>
     </g>
    </g>
    <g id="patch_8">
     <path d="M 67.469688 63.677344 
L 85.469688 63.677344 
L 85.469688 57.377344 
L 67.469688 57.377344 
z
" style="fill: #1f77b4; fill-opacity: 0.2"/>
    </g>
    <g id="text_22">
     <!-- mean +/- std -->
     <g transform="translate(92.669688 63.677344) scale(0.09 -0.09)">
      <defs>
       <path id="DejaVuSans-2b" d="M 2944 4013 
L 2944 2272 
L 4684 2272 
L 4684 1741 
L 2944 1741 
L 2944 0 
L 2419 0 
L 2419 1741 
L 678 1741 
L 678 2272 
L 2419 2272 
L 2419 4013 
L 2944 4013 
z
" transform="scale(0.015625)"/>
       <path id="DejaVuSans-2f" d="M 1625 4666 
L 2156 4666 
L 531 -594 
L 0 -594 
L 1625 4666 
z
" transform="scale(0.015625)"/>
       <path id="DejaVuSans-2d" d="M 313 2009 
L 1997 2009 
L 1997 1497 
L 313 1497 
L 313 2009 
z
" transform="scale(0.015625)"/>
       <path id="DejaVuSans-64" d="M 2906 2969 
L 2906 4863 
L 3481 4863 
L 3481 0 
L 2906 0 
L 2906 525 
Q 2725 213 2448 61 
Q 2172 -91 1784 -91 
Q 1150 -91 751 415 
Q 353 922 353 1747 
Q 353 2572 751 3078 
Q 1150 3584 1784 3584 
Q 2172 3584 2448 3432 
Q 2725 3281 2906 2969 
z
M 947 1747 
Q 947 1113 1208 752 
Q 1469 391 1925 391 
Q 2381 391 2643 752 
Q 2906 1113 2906 1747 
Q 2906 2381 2643 2742 
Q 2381 3103 1925 3103 
Q 1469 3103 1208 2742 
Q 947 2381 947 1747 
z
" transform="scale(0.015625)"/>
      </defs>
      <use xlink:href="#DejaVuSans-6d"/>
      <use xlink:href="#DejaVuSans-65" transform="translate(97.412109 0)"/>
      <use xlink:href="#DejaVuSans-61" transform="translate(158.935547 0)"/>
      <use xlink:href="#DejaVuSans-6e" transform="translate(220.214844 0)"/>
      <use xlink:href="#DejaVuSans-20" transform="translate(283.59375 0)"/>
      <use xlink:href="#DejaVuSans-2b" transform="translate(315.380859 0)"/>
      <use xlink:href="#DejaVuSans-2f" transform="translate(399.169922 0)"/>
      <use xlink:href="#DejaVuSans-2d" transform="translate(432.861328 0)"/>
      <use xlink:href="#DejaVuSans-20" transform="translate(468.945312 0)"/>
      <use xlink:href="#DejaVuSans-73" transform="translate(500.732422 0)"/>
      <use xlink:href="#DejaVuSans-74" transform="translate(552.832031 0)"/>
      <use xlink:href="#DejaVuSans-64" transform="translate(592.041016 0)"/>
     </g>
    </g>
   </g>
  </g>
 </g>
 <defs>
  <clipPath id="pce807ddc46">
   <rect x="59.369688" y="22.318125" width="558" height="277.2"/>
  </clipPath>
 </defs>
</svg>
