<?xml version="1.0" encoding="utf-8" standalone="no"?>
<!DOCTYPE svg PUBLIC "-//W3C//DTD SVG 1.1//EN"
  "http://www.w3.org/Graphics/SVG/1.1/DTD/svg11.dtd">
<svg xmlns:xlink="http://www.w3.org/1999/xlink" width="607.390937pt" height="336.106563pt" viewBox="0 0 607.390937 336.106563" xmlns="http://www.w3.org/2000/svg" version="1.1">
 <metadata>
  <rdf:RDF xmlns:dc="http://purl.org/dc/elements/1.1/" xmlns:cc="http://creativecommons.org/ns#" xmlns:rdf="http://www.w3.org/1999/02/22-rdf-syntax-ns#">
   <cc:Work>
    <dc:type rdf:resource="http://purl.org/dc/dcmitype/StillImage"/>
    <dc:date>2026-01-07T23:13:59.312169</dc:date>
    <dc:format>image/svg+xml</dc:format>
    <dc:creator>
     <cc:Agent>
      <dc:title>Matplotlib v3.10.8, https://matplotlib.org/</dc:title>
     </cc:Agent>
    </dc:creator>
   </cc:Work>
  </rdf:RDF>
 </metadata>
 <defs>
  <style type="text/css">*{stroke-linejoin: round; stroke-linecap: butt}</style>
 </defs>
 <g id="figure_1">
  <g id="patch_1">
   <path d="M 0 336.106563 
L 607.390937 336.106563 
L 607.390937 0 
L 0 0 
z
" style="fill: #ffffff"/>
  </g>
  <g id="axes_1">
   <g id="patch_2">
    <path d="M 42.190938 299.518125 
L 600.190938 299.518125 
L 600.190938 22.318125 
L 42.190938 22.318125 
z
" style="fill: #ffffff"/>
   </g>
   <g id="matplotlib.axis_1">
    <g id="xtick_1">
     <g id="line2d_1">
      <path d="M 67.554574 299.518125 
L 67.554574 22.318125 
" clip-path="url(#p72e2732a65)" style="fill: none; stroke: #b0b0b0; stroke-opacity: 0.3; stroke-width: 0.8; stroke-linecap: square"/>
     </g>
     <g id="line2d_2">
      <defs>
       <path id="m10427bb974" d="M 0 0 
L 0 3.5 
" style="stroke: #000000; stroke-width: 0.8"/>
      </defs>
      <g>
       <use xlink:href="#m10427bb974" x="67.554574" y="299.518125" style="stroke: #000000; stroke-width: 0.8"/>
      </g>
     </g>
     <g id="text_1">
      <!-- 0.0 -->
      <g transform="translate(60.398168 313.356719) scale(0.09 -0.09)">
       <defs>
        <path id="DejaVuSans-30" d="M 2034 4250 
Q 1547 4250 1301 3770 
Q 1056 3291 1056 2328 
Q 1056 1369 1301 889 
Q 1547 409 2034 409 
Q 2525 409 2770 889 
Q 3016 1369 3016 2328 
Q 3016 3291 2770 3770 
Q 2525 4250 2034 4250 
z
M 2034 4750 
Q 2819 4750 3233 4129 
Q 3647 3509 3647 2328 
Q 3647 1150 3233 529 
Q 2819 -91 2034 -91 
Q 1250 -91 836 529 
Q 422 1150 422 2328 
Q 422 3509 836 4129 
Q 1250 4750 2034 4750 
z
" transform="scale(0.015625)"/>
        <path id="DejaVuSans-2e" d="M 684 794 
L 1344 794 
L 1344 0 
L 684 0 
L 684 794 
z
" transform="scale(0.015625)"/>
       </defs>
       <use xlink:href="#DejaVuSans-30"/>
       <use xlink:href="#DejaVuSans-2e" transform="translate(63.623047 0)"/>
       <use xlink:href="#DejaVuSans-30" transform="translate(95.410156 0)"/>
      </g>
     </g>
    </g>
    <g id="xtick_2">
     <g id="line2d_3">
      <path d="M 169.009119 299.518125 
L 169.009119 22.318125 
" clip-path="url(#p72e2732a65)" style="fill: none; stroke: #b0b0b0; stroke-opacity: 0.3; stroke-width: 0.8; stroke-linecap: square"/>
     </g>
     <g id="line2d_4">
      <g>
       <use xlink:href="#m10427bb974" x="169.009119" y="299.518125" style="stroke: #000000; stroke-width: 0.8"/>
      </g>
     </g>
     <g id="text_2">
      <!-- 0.2 -->
      <g transform="translate(161.852713 313.356719) scale(0.09 -0.09)">
       <defs>
        <path id="DejaVuSans-32" d="M 1228 531 
L 3431 531 
L 3431 0 
L 469 0 
L 469 531 
Q 828 903 1448 1529 
Q 2069 2156 2228 2338 
Q 2531 2678 2651 2914 
Q 2772 3150 2772 3378 
Q 2772 3750 2511 3984 
Q 2250 4219 1831 4219 
Q 1534 4219 1204 4116 
Q 875 4013 500 3803 
L 500 4441 
Q 881 4594 1212 4672 
Q 1544 4750 1819 4750 
Q 2544 4750 2975 4387 
Q 3406 4025 3406 3419 
Q 3406 3131 3298 2873 
Q 3191 2616 2906 2266 
Q 2828 2175 2409 1742 
Q 1991 1309 1228 531 
z
" transform="scale(0.015625)"/>
       </defs>
       <use xlink:href="#DejaVuSans-30"/>
       <use xlink:href="#DejaVuSans-2e" transform="translate(63.623047 0)"/>
       <use xlink:href="#DejaVuSans-32" transform="translate(95.410156 0)"/>
      </g>
     </g>
    </g>
    <g id="xtick_3">
     <g id="line2d_5">
      <path d="M 270.463665 299.518125 
L 270.463665 22.318125 
" clip-path="url(#p72e2732a65)" style="fill: none; stroke: #b0b0b0; stroke-opacity: 0.3; stroke-width: 0.8; stroke-linecap: square"/>
     </g>
     <g id="line2d_6">
      <g>
       <use xlink:href="#m10427bb974" x="270.463665" y="299.518125" style="stroke: #000000; stroke-width: 0.8"/>
      </g>
     </g>
     <g id="text_3">
      <!-- 0.4 -->
      <g transform="translate(263.307259 313.356719) scale(0.09 -0.09)">
       <defs>
        <path id="DejaVuSans-34" d="M 2419 4116 
L 825 1625 
L 2419 1625 
L 2419 4116 
z
M 2253 4666 
L 3047 4666 
L 3047 1625 
L 3713 1625 
L 3713 1100 
L 3047 1100 
L 3047 0 
L 2419 0 
L 2419 1100 
L 313 1100 
L 313 1709 
L 2253 4666 
z
" transform="scale(0.015625)"/>
       </defs>
       <use xlink:href="#DejaVuSans-30"/>
       <use xlink:href="#DejaVuSans-2e" transform="translate(63.623047 0)"/>
       <use xlink:href="#DejaVuSans-34" transform="translate(95.410156 0)"/>
      </g>
     </g>
    </g>
    <g id="xtick_4">
     <g id="line2d_7">
      <path d="M 371.91821 299.518125 
L 371.91821 22.318125 
" clip-path="url(#p72e2732a65)" style="fill: none; stroke: #b0b0b0; stroke-opacity: 0.3; stroke-width: 0.8; stroke-linecap: square"/>
     </g>
     <g id="line2d_8">
      <g>
       <use xlink:href="#m10427bb974" x="371.91821" y="299.518125" style="stroke: #000000; stroke-width: 0.8"/>
      </g>
     </g>
     <g id="text_4">
      <!-- 0.6 -->
      <g transform="translate(364.761804 313.356719) scale(0.09 -0.09)">
       <defs>
        <path id="DejaVuSans-36" d="M 2113 2584 
Q 1688 2584 1439 2293 
Q 1191 2003 1191 1497 
Q 1191 994 1439 701 
Q 1688 409 2113 409 
Q 2538 409 2786 701 
Q 3034 994 3034 1497 
Q 3034 2003 2786 2293 
Q 2538 2584 2113 2584 
z
M 3366 4563 
L 3366 3988 
Q 3128 4100 2886 4159 
Q 2644 4219 2406 4219 
Q 1781 4219 1451 3797 
Q 1122 3375 1075 2522 
Q 1259 2794 1537 2939 
Q 1816 3084 2150 3084 
Q 2853 3084 3261 2657 
Q 3669 2231 3669 1497 
Q 3669 778 3244 343 
Q 2819 -91 2113 -91 
Q 1303 -91 875 529 
Q 447 1150 447 2328 
Q 447 3434 972 4092 
Q 1497 4750 2381 4750 
Q 2619 4750 2861 4703 
Q 3103 4656 3366 4563 
z
" transform="scale(0.015625)"/>
       </defs>
       <use xlink:href="#DejaVuSans-30"/>
       <use xlink:href="#DejaVuSans-2e" transform="translate(63.623047 0)"/>
       <use xlink:href="#DejaVuSans-36" transform="translate(95.410156 0)"/>
      </g>
     </g>
    </g>
    <g id="xtick_5">
     <g id="line2d_9">
      <path d="M 473.372756 299.518125 
L 473.372756 22.318125 
" clip-path="url(#p72e2732a65)" style="fill: none; stroke: #b0b0b0; stroke-opacity: 0.3; stroke-width: 0.8; stroke-linecap: square"/>
     </g>
     <g id="line2d_10">
      <g>
       <use xlink:href="#m10427bb974" x="473.372756" y="299.518125" style="stroke: #000000; stroke-width: 0.8"/>
      </g>
     </g>
     <g id="text_5">
      <!-- 0.8 -->
      <g transform="translate(466.216349 313.356719) scale(0.09 -0.09)">
       <defs>
        <path id="DejaVuSans-38" d="M 2034 2216 
Q 1584 2216 1326 1975 
Q 1069 1734 1069 1313 
Q 1069 891 1326 650 
Q 1584 409 2034 409 
Q 2484 409 2743 651 
Q 3003 894 3003 1313 
Q 3003 1734 2745 1975 
Q 2488 2216 2034 2216 
z
M 1403 2484 
Q 997 2584 770 2862 
Q 544 3141 544 3541 
Q 544 4100 942 4425 
Q 1341 4750 2034 4750 
Q 2731 4750 3128 4425 
Q 3525 4100 3525 3541 
Q 3525 3141 3298 2862 
Q 3072 2584 2669 2484 
Q 3125 2378 3379 2068 
Q 3634 1759 3634 1313 
Q 3634 634 3220 271 
Q 2806 -91 2034 -91 
Q 1263 -91 848 271 
Q 434 634 434 1313 
Q 434 1759 690 2068 
Q 947 2378 1403 2484 
z
M 1172 3481 
Q 1172 3119 1398 2916 
Q 1625 2713 2034 2713 
Q 2441 2713 2670 2916 
Q 2900 3119 2900 3481 
Q 2900 3844 2670 4047 
Q 2441 4250 2034 4250 
Q 1625 4250 1398 4047 
Q 1172 3844 1172 3481 
z
" transform="scale(0.015625)"/>
       </defs>
       <use xlink:href="#DejaVuSans-30"/>
       <use xlink:href="#DejaVuSans-2e" transform="translate(63.623047 0)"/>
       <use xlink:href="#DejaVuSans-38" transform="translate(95.410156 0)"/>
      </g>
     </g>
    </g>
    <g id="xtick_6">
     <g id="line2d_11">
      <path d="M 574.827301 299.518125 
L 574.827301 22.318125 
" clip-path="url(#p72e2732a65)" style="fill: none; stroke: #b0b0b0; stroke-opacity: 0.3; stroke-width: 0.8; stroke-linecap: square"/>
     </g>
     <g id="line2d_12">
      <g>
       <use xlink:href="#m10427bb974" x="574.827301" y="299.518125" style="stroke: #000000; stroke-width: 0.8"/>
      </g>
     </g>
     <g id="text_6">
      <!-- 1.0 -->
      <g transform="translate(567.670895 313.356719) scale(0.09 -0.09)">
       <defs>
        <path id="DejaVuSans-31" d="M 794 531 
L 1825 531 
L 1825 4091 
L 703 3866 
L 703 4441 
L 1819 4666 
L 2450 4666 
L 2450 531 
L 3481 531 
L 3481 0 
L 794 0 
L 794 531 
z
" transform="scale(0.015625)"/>
       </defs>
       <use xlink:href="#DejaVuSans-31"/>
       <use xlink:href="#DejaVuSans-2e" transform="translate(63.623047 0)"/>
       <use xlink:href="#DejaVuSans-30" transform="translate(95.410156 0)"/>
      </g>
     </g>
    </g>
    <g id="text_7">
     <!-- Recall -->
     <g transform="translate(306.27375 326.826875) scale(0.1 -0.1)">
      <defs>
       <path id="DejaVuSans-52" d="M 2841 2188 
Q 3044 2119 3236 1894 
Q 3428 1669 3622 1275 
L 4263 0 
L 3584 0 
L 2988 1197 
Q 2756 1666 2539 1819 
Q 2322 1972 1947 1972 
L 1259 1972 
L 1259 0 
L 628 0 
L 628 4666 
L 2053 4666 
Q 2853 4666 3247 4331 
Q 3641 3997 3641 3322 
Q 3641 2881 3436 2590 
Q 3231 2300 2841 2188 
z
M 1259 4147 
L 1259 2491 
L 2053 2491 
Q 2509 2491 2742 2702 
Q 2975 2913 2975 3322 
Q 2975 3731 2742 3939 
Q 2509 4147 2053 4147 
L 1259 4147 
z
" transform="scale(0.015625)"/>
       <path id="DejaVuSans-65" d="M 3597 1894 
L 3597 1613 
L 953 1613 
Q 991 1019 1311 708 
Q 1631 397 2203 397 
Q 2534 397 2845 478 
Q 3156 559 3463 722 
L 3463 178 
Q 3153 47 2828 -22 
Q 2503 -91 2169 -91 
Q 1331 -91 842 396 
Q 353 884 353 1716 
Q 353 2575 817 3079 
Q 1281 3584 2069 3584 
Q 2775 3584 3186 3129 
Q 3597 2675 3597 1894 
z
M 3022 2063 
Q 3016 2534 2758 2815 
Q 2500 3097 2075 3097 
Q 1594 3097 1305 2825 
Q 1016 2553 972 2059 
L 3022 2063 
z
" transform="scale(0.015625)"/>
       <path id="DejaVuSans-63" d="M 3122 3366 
L 3122 2828 
Q 2878 2963 2633 3030 
Q 2388 3097 2138 3097 
Q 1578 3097 1268 2742 
Q 959 2388 959 1747 
Q 959 1106 1268 751 
Q 1578 397 2138 397 
Q 2388 397 2633 464 
Q 2878 531 3122 666 
L 3122 134 
Q 2881 22 2623 -34 
Q 2366 -91 2075 -91 
Q 1284 -91 818 406 
Q 353 903 353 1747 
Q 353 2603 823 3093 
Q 1294 3584 2113 3584 
Q 2378 3584 2631 3529 
Q 2884 3475 3122 3366 
z
" transform="scale(0.015625)"/>
       <path id="DejaVuSans-61" d="M 2194 1759 
Q 1497 1759 1228 1600 
Q 959 1441 959 1056 
Q 959 750 1161 570 
Q 1363 391 1709 391 
Q 2188 391 2477 730 
Q 2766 1069 2766 1631 
L 2766 1759 
L 2194 1759 
z
M 3341 1997 
L 3341 0 
L 2766 0 
L 2766 531 
Q 2569 213 2275 61 
Q 1981 -91 1556 -91 
Q 1019 -91 701 211 
Q 384 513 384 1019 
Q 384 1609 779 1909 
Q 1175 2209 1959 2209 
L 2766 2209 
L 2766 2266 
Q 2766 2663 2505 2880 
Q 2244 3097 1772 3097 
Q 1472 3097 1187 3025 
Q 903 2953 641 2809 
L 641 3341 
Q 956 3463 1253 3523 
Q 1550 3584 1831 3584 
Q 2591 3584 2966 3190 
Q 3341 2797 3341 1997 
z
" transform="scale(0.015625)"/>
       <path id="DejaVuSans-6c" d="M 603 4863 
L 1178 4863 
L 1178 0 
L 603 0 
L 603 4863 
z
" transform="scale(0.015625)"/>
      </defs>
      <use xlink:href="#DejaVuSans-52"/>
      <use xlink:href="#DejaVuSans-65" transform="translate(64.982422 0)"/>
      <use xlink:href="#DejaVuSans-63" transform="translate(126.505859 0)"/>
      <use xlink:href="#DejaVuSans-61" transform="translate(181.486328 0)"/>
      <use xlink:href="#DejaVuSans-6c" transform="translate(242.765625 0)"/>
      <use xlink:href="#DejaVuSans-6c" transform="translate(270.548828 0)"/>
     </g>
    </g>
   </g>
   <g id="matplotlib.axis_2">
    <g id="ytick_1">
     <g id="line2d_13">
      <path d="M 42.190938 272.518125 
L 600.190938 272.518125 
" clip-path="url(#p72e2732a65)" style="fill: none; stroke: #b0b0b0; stroke-opacity: 0.3; stroke-width: 0.8; stroke-linecap: square"/>
     </g>
     <g id="line2d_14">
      <defs>
       <path id="m7011885360" d="M 0 0 
L -3.5 0 
" style="stroke: #000000; stroke-width: 0.8"/>
      </defs>
      <g>
       <use xlink:href="#m7011885360" x="42.190938" y="272.518125" style="stroke: #000000; stroke-width: 0.8"/>
      </g>
     </g>
     <g id="text_8">
      <!-- 0.4 -->
      <g transform="translate(20.878125 275.937422) scale(0.09 -0.09)">
       <use xlink:href="#DejaVuSans-30"/>
       <use xlink:href="#DejaVuSans-2e" transform="translate(63.623047 0)"/>
       <use xlink:href="#DejaVuSans-34" transform="translate(95.410156 0)"/>
      </g>
     </g>
    </g>
    <g id="ytick_2">
     <g id="line2d_15">
      <path d="M 42.190938 232.918125 
L 600.190938 232.918125 
" clip-path="url(#p72e2732a65)" style="fill: none; stroke: #b0b0b0; stroke-opacity: 0.3; stroke-width: 0.8; stroke-linecap: square"/>
     </g>
     <g id="line2d_16">
      <g>
       <use xlink:href="#m7011885360" x="42.190938" y="232.918125" style="stroke: #000000; stroke-width: 0.8"/>
      </g>
     </g>
     <g id="text_9">
      <!-- 0.5 -->
      <g transform="translate(20.878125 236.337422) scale(0.09 -0.09)">
       <defs>
        <path id="DejaVuSans-35" d="M 691 4666 
L 3169 4666 
L 3169 4134 
L 1269 4134 
L 1269 2991 
Q 1406 3038 1543 3061 
Q 1681 3084 1819 3084 
Q 2600 3084 3056 2656 
Q 3513 2228 3513 1497 
Q 3513 744 3044 326 
Q 2575 -91 1722 -91 
Q 1428 -91 1123 -41 
Q 819 9 494 109 
L 494 744 
Q 775 591 1075 516 
Q 1375 441 1709 441 
Q 2250 441 2565 725 
Q 2881 1009 2881 1497 
Q 2881 1984 2565 2268 
Q 2250 2553 1709 2553 
Q 1456 2553 1204 2497 
Q 953 2441 691 2322 
L 691 4666 
z
" transform="scale(0.015625)"/>
       </defs>
       <use xlink:href="#DejaVuSans-30"/>
       <use xlink:href="#DejaVuSans-2e" transform="translate(63.623047 0)"/>
       <use xlink:href="#DejaVuSans-35" transform="translate(95.410156 0)"/>
      </g>
     </g>
    </g>
    <g id="ytick_3">
     <g id="line2d_17">
      <path d="M 42.190938 193.318125 
L 600.190938 193.318125 
" clip-path="url(#p72e2732a65)" style="fill: none; stroke: #b0b0b0; stroke-opacity: 0.3; stroke-width: 0.8; stroke-linecap: square"/>
     </g>
     <g id="line2d_18">
      <g>
       <use xlink:href="#m7011885360" x="42.190938" y="193.318125" style="stroke: #000000; stroke-width: 0.8"/>
      </g>
     </g>
     <g id="text_10">
      <!-- 0.6 -->
      <g transform="translate(20.878125 196.737422) scale(0.09 -0.09)">
       <use xlink:href="#DejaVuSans-30"/>
       <use xlink:href="#DejaVuSans-2e" transform="translate(63.623047 0)"/>
       <use xlink:href="#DejaVuSans-36" transform="translate(95.410156 0)"/>
      </g>
     </g>
    </g>
    <g id="ytick_4">
     <g id="line2d_19">
      <path d="M 42.190938 153.718125 
L 600.190938 153.718125 
" clip-path="url(#p72e2732a65)" style="fill: none; stroke: #b0b0b0; stroke-opacity: 0.3; stroke-width: 0.8; stroke-linecap: square"/>
     </g>
     <g id="line2d_20">
      <g>
       <use xlink:href="#m7011885360" x="42.190938" y="153.718125" style="stroke: #000000; stroke-width: 0.8"/>
      </g>
     </g>
     <g id="text_11">
      <!-- 0.7 -->
      <g transform="translate(20.878125 157.137422) scale(0.09 -0.09)">
       <defs>
        <path id="DejaVuSans-37" d="M 525 4666 
L 3525 4666 
L 3525 4397 
L 1831 0 
L 1172 0 
L 2766 4134 
L 525 4134 
L 525 4666 
z
" transform="scale(0.015625)"/>
       </defs>
       <use xlink:href="#DejaVuSans-30"/>
       <use xlink:href="#DejaVuSans-2e" transform="translate(63.623047 0)"/>
       <use xlink:href="#DejaVuSans-37" transform="translate(95.410156 0)"/>
      </g>
     </g>
    </g>
    <g id="ytick_5">
     <g id="line2d_21">
      <path d="M 42.190938 114.118125 
L 600.190938 114.118125 
" clip-path="url(#p72e2732a65)" style="fill: none; stroke: #b0b0b0; stroke-opacity: 0.3; stroke-width: 0.8; stroke-linecap: square"/>
     </g>
     <g id="line2d_22">
      <g>
       <use xlink:href="#m7011885360" x="42.190938" y="114.118125" style="stroke: #000000; stroke-width: 0.8"/>
      </g>
     </g>
     <g id="text_12">
      <!-- 0.8 -->
      <g transform="translate(20.878125 117.537422) scale(0.09 -0.09)">
       <use xlink:href="#DejaVuSans-30"/>
       <use xlink:href="#DejaVuSans-2e" transform="translate(63.623047 0)"/>
       <use xlink:href="#DejaVuSans-38" transform="translate(95.410156 0)"/>
      </g>
     </g>
    </g>
    <g id="ytick_6">
     <g id="line2d_23">
      <path d="M 42.190938 74.518125 
L 600.190938 74.518125 
" clip-path="url(#p72e2732a65)" style="fill: none; stroke: #b0b0b0; stroke-opacity: 0.3; stroke-width: 0.8; stroke-linecap: square"/>
     </g>
     <g id="line2d_24">
      <g>
       <use xlink:href="#m7011885360" x="42.190938" y="74.518125" style="stroke: #000000; stroke-width: 0.8"/>
      </g>
     </g>
     <g id="text_13">
      <!-- 0.9 -->
      <g transform="translate(20.878125 77.937422) scale(0.09 -0.09)">
       <defs>
        <path id="DejaVuSans-39" d="M 703 97 
L 703 672 
Q 941 559 1184 500 
Q 1428 441 1663 441 
Q 2288 441 2617 861 
Q 2947 1281 2994 2138 
Q 2813 1869 2534 1725 
Q 2256 1581 1919 1581 
Q 1219 1581 811 2004 
Q 403 2428 403 3163 
Q 403 3881 828 4315 
Q 1253 4750 1959 4750 
Q 2769 4750 3195 4129 
Q 3622 3509 3622 2328 
Q 3622 1225 3098 567 
Q 2575 -91 1691 -91 
Q 1453 -91 1209 -44 
Q 966 3 703 97 
z
M 1959 2075 
Q 2384 2075 2632 2365 
Q 2881 2656 2881 3163 
Q 2881 3666 2632 3958 
Q 2384 4250 1959 4250 
Q 1534 4250 1286 3958 
Q 1038 3666 1038 3163 
Q 1038 2656 1286 2365 
Q 1534 2075 1959 2075 
z
" transform="scale(0.015625)"/>
       </defs>
       <use xlink:href="#DejaVuSans-30"/>
       <use xlink:href="#DejaVuSans-2e" transform="translate(63.623047 0)"/>
       <use xlink:href="#DejaVuSans-39" transform="translate(95.410156 0)"/>
      </g>
     </g>
    </g>
    <g id="ytick_7">
     <g id="line2d_25">
      <path d="M 42.190938 34.918125 
L 600.190938 34.918125 
" clip-path="url(#p72e2732a65)" style="fill: none; stroke: #b0b0b0; stroke-opacity: 0.3; stroke-width: 0.8; stroke-linecap: square"/>
     </g>
     <g id="line2d_26">
      <g>
       <use xlink:href="#m7011885360" x="42.190938" y="34.918125" style="stroke: #000000; stroke-width: 0.8"/>
      </g>
     </g>
     <g id="text_14">
      <!-- 1.0 -->
      <g transform="translate(20.878125 38.337422) scale(0.09 -0.09)">
       <use xlink:href="#DejaVuSans-31"/>
       <use xlink:href="#DejaVuSans-2e" transform="translate(63.623047 0)"/>
       <use xlink:href="#DejaVuSans-30" transform="translate(95.410156 0)"/>
      </g>
     </g>
    </g>
    <g id="text_15">
     <!-- Precision -->
     <g transform="translate(14.798438 183.225156) rotate(-90) scale(0.1 -0.1)">
      <defs>
       <path id="DejaVuSans-50" d="M 1259 4147 
L 1259 2394 
L 2053 2394 
Q 2494 2394 2734 2622 
Q 2975 2850 2975 3272 
Q 2975 3691 2734 3919 
Q 2494 4147 2053 4147 
L 1259 4147 
z
M 628 4666 
L 2053 4666 
Q 2838 4666 3239 4311 
Q 3641 3956 3641 3272 
Q 3641 2581 3239 2228 
Q 2838 1875 2053 1875 
L 1259 1875 
L 1259 0 
L 628 0 
L 628 4666 
z
" transform="scale(0.015625)"/>
       <path id="DejaVuSans-72" d="M 2631 2963 
Q 2534 3019 2420 3045 
Q 2306 3072 2169 3072 
Q 1681 3072 1420 2755 
Q 1159 2438 1159 1844 
L 1159 0 
L 581 0 
L 581 3500 
L 1159 3500 
L 1159 2956 
Q 1341 3275 1631 3429 
Q 1922 3584 2338 3584 
Q 2397 3584 2469 3576 
Q 2541 3569 2628 3553 
L 2631 2963 
z
" transform="scale(0.015625)"/>
       <path id="DejaVuSans-69" d="M 603 3500 
L 1178 3500 
L 1178 0 
L 603 0 
L 603 3500 
z
M 603 4863 
L 1178 4863 
L 1178 4134 
L 603 4134 
L 603 4863 
z
" transform="scale(0.015625)"/>
       <path id="DejaVuSans-73" d="M 2834 3397 
L 2834 2853 
Q 2591 2978 2328 3040 
Q 2066 3103 1784 3103 
Q 1356 3103 1142 2972 
Q 928 2841 928 2578 
Q 928 2378 1081 2264 
Q 1234 2150 1697 2047 
L 1894 2003 
Q 2506 1872 2764 1633 
Q 3022 1394 3022 966 
Q 3022 478 2636 193 
Q 2250 -91 1575 -91 
Q 1294 -91 989 -36 
Q 684 19 347 128 
L 347 722 
Q 666 556 975 473 
Q 1284 391 1588 391 
Q 1994 391 2212 530 
Q 2431 669 2431 922 
Q 2431 1156 2273 1281 
Q 2116 1406 1581 1522 
L 1381 1569 
Q 847 1681 609 1914 
Q 372 2147 372 2553 
Q 372 3047 722 3315 
Q 1072 3584 1716 3584 
Q 2034 3584 2315 3537 
Q 2597 3491 2834 3397 
z
" transform="scale(0.015625)"/>
       <path id="DejaVuSans-6f" d="M 1959 3097 
Q 1497 3097 1228 2736 
Q 959 2375 959 1747 
Q 959 1119 1226 758 
Q 1494 397 1959 397 
Q 2419 397 2687 759 
Q 2956 1122 2956 1747 
Q 2956 2369 2687 2733 
Q 2419 3097 1959 3097 
z
M 1959 3584 
Q 2709 3584 3137 3096 
Q 3566 2609 3566 1747 
Q 3566 888 3137 398 
Q 2709 -91 1959 -91 
Q 1206 -91 779 398 
Q 353 888 353 1747 
Q 353 2609 779 3096 
Q 1206 3584 1959 3584 
z
" transform="scale(0.015625)"/>
       <path id="DejaVuSans-6e" d="M 3513 2113 
L 3513 0 
L 2938 0 
L 2938 2094 
Q 2938 2591 2744 2837 
Q 2550 3084 2163 3084 
Q 1697 3084 1428 2787 
Q 1159 2491 1159 1978 
L 1159 0 
L 581 0 
L 581 3500 
L 1159 3500 
L 1159 2956 
Q 1366 3272 1645 3428 
Q 1925 3584 2291 3584 
Q 2894 3584 3203 3211 
Q 3513 2838 3513 2113 
z
" transform="scale(0.015625)"/>
      </defs>
      <use xlink:href="#DejaVuSans-50"/>
      <use xlink:href="#DejaVuSans-72" transform="translate(58.552734 0)"/>
      <use xlink:href="#DejaVuSans-65" transform="translate(97.416016 0)"/>
      <use xlink:href="#DejaVuSans-63" transform="translate(158.939453 0)"/>
      <use xlink:href="#DejaVuSans-69" transform="translate(213.919922 0)"/>
      <use xlink:href="#DejaVuSans-73" transform="translate(241.703125 0)"/>
      <use xlink:href="#DejaVuSans-69" transform="translate(293.802734 0)"/>
      <use xlink:href="#DejaVuSans-6f" transform="translate(321.585938 0)"/>
      <use xlink:href="#DejaVuSans-6e" transform="translate(382.767578 0)"/>
     </g>
    </g>
   </g>
   <g id="line2d_27">
    <path d="M 574.827301 238.702395 
L 574.827301 238.558305 
L 573.261645 238.864071 
L 573.261645 238.719778 
L 572.478816 238.873012 
L 572.478816 238.438848 
L 571.695988 238.592333 
L 571.695988 238.447182 
L 570.91316 238.600904 
L 570.91316 238.164151 
L 570.130331 238.318125 
L 570.130331 238.172105 
L 569.347503 238.326319 
L 569.347503 238.033627 
L 568.564675 238.188087 
L 568.564675 238.041413 
L 567.781847 238.196114 
L 567.781847 238.049223 
L 566.999018 238.204166 
L 566.999018 237.909722 
L 563.867705 238.531918 
L 563.867705 238.088632 
L 563.084877 238.244797 
L 563.084877 237.799481 
L 561.51922 238.112569 
L 561.51922 237.81457 
L 559.953564 238.128651 
L 559.953564 237.679956 
L 558.387907 237.995048 
L 558.387907 237.393573 
L 555.256594 238.026804 
L 555.256594 237.875871 
L 552.125281 238.513101 
L 552.125281 238.361958 
L 551.342453 238.521899 
L 551.342453 238.218912 
L 549.776796 238.539576 
L 549.776796 238.235661 
L 547.428311 238.7186 
L 547.428311 238.413763 
L 546.645483 238.575268 
L 546.645483 238.422494 
L 545.862655 238.584262 
L 545.862655 238.431251 
L 543.51417 238.918125 
L 543.51417 238.764893 
L 542.731342 238.92771 
L 542.731342 238.620525 
L 541.165685 238.946971 
L 541.165685 238.793025 
L 540.382857 238.956648 
L 540.382857 238.802462 
L 539.600028 238.966357 
L 539.600028 238.657255 
L 538.034372 238.985867 
L 538.034372 238.830958 
L 535.685887 239.325892 
L 535.685887 239.170757 
L 534.903059 239.336277 
L 534.903059 239.180899 
L 530.988917 240.012588 
L 530.988917 239.857 
L 529.423261 240.191594 
L 529.423261 239.879695 
L 527.074776 240.383699 
L 527.074776 239.126046 
L 523.943463 239.802231 
L 523.943463 239.485289 
L 523.160634 239.655054 
L 523.160634 239.177692 
L 522.377806 239.347767 
L 522.377806 238.868042 
L 520.81215 239.209095 
L 520.81215 238.72701 
L 520.029321 238.897991 
L 520.029321 238.736765 
L 516.898008 239.423601 
L 516.898008 238.124232 
L 516.11518 238.296733 
L 516.11518 238.133078 
L 514.549523 238.478976 
L 514.549523 237.986384 
L 512.983867 238.33351 
L 512.983867 238.168767 
L 512.201039 238.342783 
L 512.201039 238.177765 
L 510.635382 238.526709 
L 510.635382 237.697435 
L 509.852554 237.872396 
L 509.852554 237.371412 
L 507.504069 237.898177 
L 507.504069 237.394647 
L 506.721241 237.570867 
L 506.721241 237.233731 
L 505.938412 237.410272 
L 505.938412 237.071971 
L 501.241443 238.137809 
L 501.241443 237.798407 
L 500.458614 237.977156 
L 500.458614 237.807014 
L 497.327301 238.525205 
L 497.327301 238.354795 
L 494.978816 238.896811 
L 494.978816 238.555136 
L 494.195988 238.736469 
L 494.195988 238.393593 
L 493.41316 238.575268 
L 493.41316 238.40338 
L 491.064675 238.950383 
L 491.064675 238.778215 
L 490.281847 238.961213 
L 490.281847 238.615967 
L 488.71619 238.98299 
L 488.71619 238.114505 
L 487.150533 238.482948 
L 487.150533 237.958125 
L 485.584877 238.327961 
L 485.584877 238.1524 
L 484.802049 238.337833 
L 484.802049 238.161961 
L 484.01922 238.347741 
L 484.01922 238.171556 
L 480.887907 238.918125 
L 480.887907 238.210291 
L 480.105079 238.39783 
L 480.105079 238.220064 
L 479.322251 238.407959 
L 479.322251 238.051458 
L 478.539422 238.239719 
L 478.539422 238.060982 
L 476.973766 238.438571 
L 476.973766 238.25952 
L 475.408109 238.638535 
L 475.408109 238.27947 
L 474.625281 238.469527 
L 474.625281 238.109136 
L 473.842453 238.299568 
L 473.842453 237.937843 
L 473.059624 238.128651 
L 473.059624 237.218408 
L 471.493968 237.60119 
L 471.493968 237.234713 
L 469.928311 237.61898 
L 469.928311 237.435235 
L 466.796998 238.208201 
L 466.796998 237.469849 
L 466.01417 237.66405 
L 466.01417 237.106587 
L 463.665685 237.69151 
L 463.665685 237.130891 
L 460.534372 237.916183 
L 460.534372 237.728621 
L 459.751544 237.925907 
L 459.751544 237.549704 
L 458.968715 237.747393 
L 458.968715 237.55875 
L 456.62023 238.154168 
L 456.62023 237.965184 
L 455.054574 238.364097 
L 455.054574 237.985054 
L 451.923261 238.78769 
L 451.923261 238.59765 
L 451.140432 238.799313 
L 451.140432 238.608908 
L 447.226291 239.623304 
L 447.226291 239.241478 
L 446.443463 239.445598 
L 446.443463 239.062269 
L 444.877806 239.471786 
L 444.877806 238.118125 
L 443.31215 238.529461 
L 443.31215 238.13922 
L 442.529321 238.345536 
L 442.529321 237.95373 
L 441.746493 238.160488 
L 441.746493 237.767105 
L 440.180836 238.181929 
L 440.180836 237.984655 
L 438.61518 238.401202 
L 438.61518 238.203546 
L 437.049523 238.621829 
L 437.049523 238.225341 
L 435.483867 238.645398 
L 435.483867 238.047659 
L 433.135382 238.681119 
L 433.135382 238.48108 
L 432.352554 238.693125 
L 432.352554 238.492682 
L 431.569725 238.705181 
L 431.569725 237.696719 
L 430.004069 238.123172 
L 430.004069 237.513062 
L 427.655584 238.15622 
L 427.655584 237.952023 
L 426.872756 238.16733 
L 426.872756 237.757657 
L 426.089927 237.973444 
L 426.089927 237.767965 
L 423.741443 238.418125 
L 423.741443 238.005919 
L 422.958614 238.223591 
L 422.958614 237.601996 
L 422.175786 237.82017 
L 422.175786 237.403562 
L 421.392958 237.622229 
L 421.392958 237.41326 
L 420.610129 237.632411 
L 420.610129 237.423 
L 417.478816 238.304414 
L 417.478816 237.884319 
L 416.695988 238.105898 
L 416.695988 237.895174 
L 415.130331 238.339812 
L 415.130331 238.128651 
L 414.347503 238.351714 
L 414.347503 238.140103 
L 411.999018 238.812282 
L 411.999018 238.174762 
L 410.433362 238.625442 
L 410.433362 238.412021 
L 409.650533 238.638125 
L 409.650533 238.424243 
L 408.867705 238.650864 
L 408.867705 238.43652 
L 408.084877 238.663661 
L 408.084877 238.233561 
L 406.51922 238.689425 
L 406.51922 238.473681 
L 405.736392 238.702395 
L 405.736392 238.486179 
L 402.605079 239.406261 
L 402.605079 239.189618 
L 401.822251 239.420956 
L 401.822251 239.203839 
L 400.256594 239.668125 
L 400.256594 237.913538 
L 399.473766 238.146598 
L 399.473766 237.702935 
L 396.342453 238.640668 
L 396.342453 238.195066 
L 395.559624 238.430886 
L 395.559624 237.53351 
L 394.776796 237.769934 
L 394.776796 237.318125 
L 393.993968 237.555127 
L 393.993968 236.873472 
L 393.21114 237.111066 
L 393.21114 236.882789 
L 389.296998 238.079262 
L 389.296998 237.621213 
L 388.51417 237.862239 
L 388.51417 237.632411 
L 385.382857 238.602336 
L 385.382857 238.372017 
L 383.8172 238.860502 
L 383.8172 238.398269 
L 383.034372 238.411491 
L 383.034372 237.712314 
L 382.251544 237.958125 
L 382.251544 237.489206 
L 378.337402 238.727416 
L 378.337402 238.492176 
L 377.554574 238.741654 
L 377.554574 238.269476 
L 375.988917 238.770342 
L 375.988917 238.533415 
L 373.640432 239.289412 
L 373.640432 239.051954 
L 372.857604 239.305222 
L 372.857604 239.067193 
L 371.291948 239.575659 
L 371.291948 238.858125 
L 368.943463 239.625779 
L 368.943463 239.385462 
L 366.594978 240.158983 
L 366.594978 239.918125 
L 364.246493 240.697593 
L 364.246493 240.214186 
L 362.680836 240.737233 
L 362.680836 240.494656 
L 360.332352 241.284322 
L 360.332352 240.797457 
L 358.766695 241.327391 
L 358.766695 240.592544 
L 357.201039 241.125379 
L 357.201039 240.879214 
L 354.852554 241.68375 
L 354.852554 241.43703 
L 354.069725 241.706637 
L 354.069725 241.211319 
L 353.286897 241.48169 
L 353.286897 241.233086 
L 352.504069 241.504196 
L 352.504069 241.254967 
L 351.721241 241.526821 
L 351.721241 241.276964 
L 350.938412 241.549565 
L 350.938412 241.299077 
L 350.155584 241.57243 
L 350.155584 240.817061 
L 349.372756 241.091228 
L 349.372756 240.838125 
L 348.589927 241.113052 
L 348.589927 240.604872 
L 347.807099 240.880591 
L 347.807099 240.11328 
L 345.458614 240.945152 
L 345.458614 240.171856 
L 344.675786 240.450734 
L 344.675786 239.409928 
L 343.892958 239.689671 
L 343.892958 239.427714 
L 343.110129 239.708248 
L 343.110129 239.182224 
L 342.327301 239.46358 
L 342.327301 239.199504 
L 340.761645 239.764598 
L 340.761645 238.164987 
L 336.064675 239.88015 
L 336.064675 238.52719 
L 335.281847 238.815997 
L 335.281847 238.269476 
L 334.499018 238.559151 
L 334.499018 236.900884 
L 333.71619 237.191506 
L 333.71619 236.912361 
L 331.367705 237.789326 
L 331.367705 237.509429 
L 330.584877 237.803466 
L 330.584877 236.958941 
L 327.453564 238.143931 
L 327.453564 237.860856 
L 323.539422 239.361912 
L 323.539422 238.793496 
L 322.756594 239.096431 
L 322.756594 238.810982 
L 321.190938 239.419618 
L 321.190938 238.846269 
L 320.408109 239.152008 
L 320.408109 238.575268 
L 318.842453 239.189618 
L 318.842453 238.609502 
L 316.493968 239.538186 
L 316.493968 239.246892 
L 314.145483 240.18418 
L 314.145483 239.599107 
L 308.665685 241.820451 
L 308.665685 240.936817 
L 306.3172 241.90404 
L 306.3172 241.012465 
L 305.534372 241.337023 
L 305.534372 240.73803 
L 304.751544 241.063695 
L 304.751544 240.762816 
L 303.968715 241.089554 
L 303.968715 239.876591 
L 303.185887 240.204525 
L 303.185887 239.898894 
L 301.62023 240.557996 
L 301.62023 239.635411 
L 300.054574 240.299 
L 300.054574 239.679101 
L 299.271746 240.012588 
L 299.271746 239.075244 
L 297.706089 239.745711 
L 297.706089 239.115819 
L 294.574776 240.470364 
L 294.574776 240.154005 
L 293.791948 240.495496 
L 293.791948 240.178125 
L 293.009119 240.520796 
L 293.009119 239.882949 
L 292.226291 240.22685 
L 292.226291 239.90636 
L 291.443463 240.251458 
L 291.443463 239.607314 
L 290.660634 239.953658 
L 290.660634 238.979349 
L 287.529321 240.377029 
L 287.529321 240.0502 
L 284.398008 241.467348 
L 284.398008 241.139578 
L 283.61518 241.496981 
L 283.61518 241.168125 
L 282.832352 241.526821 
L 282.832352 241.196871 
L 282.049523 241.556868 
L 282.049523 240.893607 
L 278.91821 242.346696 
L 278.91821 242.013531 
L 278.135382 242.380072 
L 278.135382 242.045785 
L 276.569725 242.782894 
L 276.569725 242.110982 
L 275.004069 242.853609 
L 275.004069 242.177118 
L 273.438412 242.925345 
L 273.438412 242.244212 
L 272.655584 242.620484 
L 272.655584 242.278125 
L 271.872756 242.65583 
L 271.872756 242.312286 
L 271.089927 242.691434 
L 271.089927 241.653419 
L 270.307099 242.034147 
L 270.307099 241.33587 
L 267.958614 242.486898 
L 267.958614 242.136002 
L 267.175786 242.522603 
L 267.175786 242.170461 
L 264.827301 243.339178 
L 264.827301 242.631333 
L 263.261645 243.418125 
L 263.261645 242.346696 
L 260.130331 243.939238 
L 260.130331 243.579663 
L 258.564675 244.385306 
L 258.564675 243.298708 
L 257.781847 243.704117 
L 257.781847 243.339178 
L 256.21619 244.154916 
L 256.21619 243.788713 
L 255.433362 244.199068 
L 255.433362 243.462504 
L 254.650533 243.874647 
L 254.650533 243.504264 
L 253.084877 244.333632 
L 253.084877 243.96195 
L 252.302049 244.379203 
L 252.302049 243.631552 
L 249.170735 245.318125 
L 249.170735 244.942416 
L 244.473766 247.524682 
L 244.473766 247.148104 
L 243.690937 247.584792 
L 243.690937 247.206785 
L 241.342453 248.528084 
L 241.342453 247.001807 
L 240.559624 247.446427 
L 240.559624 247.060982 
L 239.776796 247.507599 
L 239.776796 245.949972 
L 238.993968 246.398976 
L 238.993968 246.005545 
L 238.21114 246.456587 
L 238.21114 245.266512 
L 237.428311 245.719849 
L 237.428311 245.319853 
L 236.645483 245.775268 
L 236.645483 244.1583 
L 233.51417 246.001825 
L 233.51417 245.183612 
L 231.165685 246.588504 
L 231.165685 246.177054 
L 230.382857 246.649669 
L 230.382857 246.236511 
L 227.251544 248.148894 
L 227.251544 247.734452 
L 226.468715 248.218125 
L 226.468715 247.801952 
L 223.337402 249.759504 
L 223.337402 248.922744 
L 222.554574 249.418125 
L 222.554574 248.997011 
L 220.988917 249.995048 
L 220.988917 249.147633 
L 218.640432 250.663408 
L 218.640432 249.80912 
L 217.857604 250.31955 
L 217.857604 249.023388 
L 215.509119 250.571137 
L 215.509119 250.135516 
L 214.726291 250.656624 
L 214.726291 248.447537 
L 213.943463 248.972179 
L 213.943463 248.073681 
L 212.377806 249.131525 
L 212.377806 248.679319 
L 211.594978 249.212389 
L 211.594978 248.758125 
L 210.81215 249.294065 
L 210.81215 248.837723 
L 209.246493 249.918125 
L 209.246493 249.459897 
L 208.463665 250.004419 
L 208.463665 247.206785 
L 207.680836 247.755334 
L 207.680836 245.842407 
L 206.11518 246.949621 
L 206.11518 244.997701 
L 205.332352 245.556423 
L 205.332352 242.550557 
L 204.549523 243.113247 
L 204.549523 238.951366 
L 203.766695 239.518125 
L 203.766695 238.984977 
L 202.983867 239.554997 
L 202.983867 238.479923 
L 201.41821 239.629989 
L 201.41821 238.543125 
L 200.635382 239.123253 
L 200.635382 237.469849 
L 199.852554 238.053572 
L 199.852554 236.935516 
L 198.286897 238.11346 
L 198.286897 237.549704 
L 195.938412 239.342904 
L 195.938412 238.776113 
L 195.155584 239.381033 
L 195.155584 238.810982 
L 192.807099 240.647855 
L 192.807099 238.334538 
L 192.024271 238.95471 
L 192.024271 237.777021 
L 190.458614 239.029236 
L 190.458614 236.021573 
L 189.675786 236.653974 
L 189.675786 235.424454 
L 188.892958 236.060982 
L 188.892958 235.440418 
L 187.327301 236.725817 
L 187.327301 235.472964 
L 185.761645 236.775268 
L 185.761645 234.865666 
L 179.499018 240.251458 
L 177.150533 242.346696 
L 177.150533 241.055111 
L 175.584877 242.476746 
L 175.584877 241.824699 
L 174.802049 242.543125 
L 174.802049 240.56023 
L 168.539422 246.499352 
L 168.539422 244.480169 
L 167.756594 245.247795 
L 167.756594 244.565184 
L 166.973766 245.338789 
L 166.973766 243.261409 
L 165.408109 244.827899 
L 165.408109 244.125672 
L 160.71114 248.972179 
L 160.71114 245.390566 
L 159.928311 246.222473 
L 159.928311 245.489554 
L 159.145483 246.328484 
L 159.145483 245.590125 
L 157.579826 247.289093 
L 157.579826 246.545655 
L 155.231342 249.147633 
L 155.231342 247.645398 
L 152.882857 250.315615 
L 152.882857 249.55678 
L 152.100028 250.462429 
L 152.100028 247.364477 
L 151.3172 248.280194 
L 151.3172 246.692038 
L 148.185887 250.440249 
L 148.185887 249.638125 
L 147.403059 250.596696 
L 147.403059 244.779876 
L 144.271746 248.720942 
L 144.271746 247.861521 
L 142.706089 249.889554 
L 142.706089 246.374436 
L 141.923261 247.40593 
L 141.923261 246.50636 
L 141.140432 247.548667 
L 141.140432 246.640897 
L 140.357604 247.694244 
L 140.357604 245.852798 
L 138.791948 247.994267 
L 138.791948 247.060982 
L 138.009119 248.148894 
L 138.009119 247.206785 
L 137.226291 248.306726 
L 137.226291 245.423388 
L 136.443463 246.537173 
L 136.443463 241.526821 
L 134.877806 243.797246 
L 134.877806 241.718125 
L 133.31215 244.041721 
L 133.31215 236.391809 
L 131.746493 238.776113 
L 131.746493 237.632411 
L 130.963665 238.846269 
L 130.963665 236.518125 
L 129.398008 238.991745 
L 129.398008 237.807014 
L 127.832352 240.343125 
L 127.832352 237.930783 
L 127.049523 239.223857 
L 127.049523 237.995048 
L 125.483867 240.632411 
L 125.483867 238.128651 
L 124.701039 239.474416 
L 124.701039 238.198125 
L 123.135382 240.945152 
L 123.135382 239.652819 
L 122.352554 241.055111 
L 122.352554 237.071971 
L 121.569725 238.49559 
L 121.569725 235.746696 
L 120.004069 238.657255 
L 120.004069 235.82989 
L 119.221241 237.318125 
L 119.221241 235.873349 
L 118.438412 237.38429 
L 118.438412 234.429575 
L 115.307099 240.713401 
L 115.307099 239.203839 
L 113.741443 242.49877 
L 113.741443 237.827216 
L 112.175786 241.237453 
L 112.175786 239.629989 
L 109.044473 246.812862 
L 108.261645 248.688037 
L 108.261645 247.060982 
L 106.695988 250.918125 
L 106.695988 249.266749 
L 105.91316 251.251458 
L 105.91316 247.861521 
L 105.130331 249.889554 
L 105.130331 248.148894 
L 104.347503 250.219096 
L 104.347503 248.447537 
L 102.781847 252.718125 
L 102.781847 250.918125 
L 101.21619 255.371733 
L 101.21619 253.543125 
L 100.433362 255.844441 
L 100.433362 253.981955 
L 98.867705 258.744212 
L 98.867705 254.918125 
L 98.084877 257.390035 
L 98.084877 251.33673 
L 96.51922 256.489554 
L 96.51922 252.235198 
L 95.736392 254.918125 
L 95.736392 250.462429 
L 94.953564 253.225817 
L 94.953564 250.918125 
L 94.170735 253.76023 
L 94.170735 251.398125 
L 93.387907 254.32353 
L 93.387907 241.526821 
L 91.039422 250.918125 
L 90.256594 254.241202 
L 90.256594 242.65583 
L 88.690937 249.697786 
L 88.690937 225.30274 
L 87.125281 232.918125 
L 87.125281 228.877309 
L 84.776796 241.526821 
L 84.776796 237.318125 
L 83.993968 241.918125 
L 83.993968 237.522776 
L 83.21114 242.346696 
L 83.21114 237.747393 
L 81.645483 248.148894 
L 80.079826 259.674882 
L 80.079826 249.889554 
L 79.296998 256.212243 
L 79.296998 250.918125 
L 78.51417 257.668125 
L 78.51417 252.079415 
L 77.731342 259.318125 
L 77.731342 253.400884 
L 76.165685 269.584792 
L 76.165685 256.678125 
L 75.382857 265.918125 
L 75.382857 232.918125 
L 73.8172 254.918125 
L 73.8172 232.918125 
L 73.034372 246.118125 
L 72.251544 261.203839 
L 72.251544 248.148894 
L 71.468715 265.918125 
L 70.685887 286.918125 
L 70.685887 254.918125 
L 69.903059 282.418125 
L 69.903059 193.318125 
L 69.12023 232.918125 
L 69.12023 34.918125 
L 67.554574 34.918125 
L 67.554574 34.918125 
" clip-path="url(#p72e2732a65)" style="fill: none; stroke: #1f77b4; stroke-width: 1.5; stroke-linecap: square"/>
   </g>
   <g id="patch_3">
    <path d="M 42.190938 299.518125 
L 42.190938 22.318125 
" style="fill: none; stroke: #000000; stroke-width: 0.8; stroke-linejoin: miter; stroke-linecap: square"/>
   </g>
   <g id="patch_4">
    <path d="M 600.190938 299.518125 
L 600.190938 22.318125 
" style="fill: none; stroke: #000000; stroke-width: 0.8; stroke-linejoin: miter; stroke-linecap: square"/>
   </g>
   <g id="patch_5">
    <path d="M 42.190938 299.518125 
L 600.190938 299.518125 
" style="fill: none; stroke: #000000; stroke-width: 0.8; stroke-linejoin: miter; stroke-linecap: square"/>
   </g>
   <g id="patch_6">
    <path d="M 42.190938 22.318125 
L 600.190938 22.318125 
" style="fill: none; stroke: #000000; stroke-width: 0.8; stroke-linejoin: miter; stroke-linecap: square"/>
   </g>
   <g id="text_16">
    <!-- supervised_down PR Curve -->
    <g transform="translate(239.958438 16.318125) scale(0.12 -0.12)">
     <defs>
      <path id="DejaVuSans-75" d="M 544 1381 
L 544 3500 
L 1119 3500 
L 1119 1403 
Q 1119 906 1312 657 
Q 1506 409 1894 409 
Q 2359 409 2629 706 
Q 2900 1003 2900 1516 
L 2900 3500 
L 3475 3500 
L 3475 0 
L 2900 0 
L 2900 538 
Q 2691 219 2414 64 
Q 2138 -91 1772 -91 
Q 1169 -91 856 284 
Q 544 659 544 1381 
z
M 1991 3584 
L 1991 3584 
z
" transform="scale(0.015625)"/>
      <path id="DejaVuSans-70" d="M 1159 525 
L 1159 -1331 
L 581 -1331 
L 581 3500 
L 1159 3500 
L 1159 2969 
Q 1341 3281 1617 3432 
Q 1894 3584 2278 3584 
Q 2916 3584 3314 3078 
Q 3713 2572 3713 1747 
Q 3713 922 3314 415 
Q 2916 -91 2278 -91 
Q 1894 -91 1617 61 
Q 1341 213 1159 525 
z
M 3116 1747 
Q 3116 2381 2855 2742 
Q 2594 3103 2138 3103 
Q 1681 3103 1420 2742 
Q 1159 2381 1159 1747 
Q 1159 1113 1420 752 
Q 1681 391 2138 391 
Q 2594 391 2855 752 
Q 3116 1113 3116 1747 
z
" transform="scale(0.015625)"/>
      <path id="DejaVuSans-76" d="M 191 3500 
L 800 3500 
L 1894 563 
L 2988 3500 
L 3597 3500 
L 2284 0 
L 1503 0 
L 191 3500 
z
" transform="scale(0.015625)"/>
      <path id="DejaVuSans-64" d="M 2906 2969 
L 2906 4863 
L 3481 4863 
L 3481 0 
L 2906 0 
L 2906 525 
Q 2725 213 2448 61 
Q 2172 -91 1784 -91 
Q 1150 -91 751 415 
Q 353 922 353 1747 
Q 353 2572 751 3078 
Q 1150 3584 1784 3584 
Q 2172 3584 2448 3432 
Q 2725 3281 2906 2969 
z
M 947 1747 
Q 947 1113 1208 752 
Q 1469 391 1925 391 
Q 2381 391 2643 752 
Q 2906 1113 2906 1747 
Q 2906 2381 2643 2742 
Q 2381 3103 1925 3103 
Q 1469 3103 1208 2742 
Q 947 2381 947 1747 
z
" transform="scale(0.015625)"/>
      <path id="DejaVuSans-5f" d="M 3263 -1063 
L 3263 -1509 
L -63 -1509 
L -63 -1063 
L 3263 -1063 
z
" transform="scale(0.015625)"/>
      <path id="DejaVuSans-77" d="M 269 3500 
L 844 3500 
L 1563 769 
L 2278 3500 
L 2956 3500 
L 3675 769 
L 4391 3500 
L 4966 3500 
L 4050 0 
L 3372 0 
L 2619 2869 
L 1863 0 
L 1184 0 
L 269 3500 
z
" transform="scale(0.015625)"/>
      <path id="DejaVuSans-20" transform="scale(0.015625)"/>
      <path id="DejaVuSans-43" d="M 4122 4306 
L 4122 3641 
Q 3803 3938 3442 4084 
Q 3081 4231 2675 4231 
Q 1875 4231 1450 3742 
Q 1025 3253 1025 2328 
Q 1025 1406 1450 917 
Q 1875 428 2675 428 
Q 3081 428 3442 575 
Q 3803 722 4122 1019 
L 4122 359 
Q 3791 134 3420 21 
Q 3050 -91 2638 -91 
Q 1578 -91 968 557 
Q 359 1206 359 2328 
Q 359 3453 968 4101 
Q 1578 4750 2638 4750 
Q 3056 4750 3426 4639 
Q 3797 4528 4122 4306 
z
" transform="scale(0.015625)"/>
     </defs>
     <use xlink:href="#DejaVuSans-73"/>
     <use xlink:href="#DejaVuSans-75" transform="translate(52.099609 0)"/>
     <use xlink:href="#DejaVuSans-70" transform="translate(115.478516 0)"/>
     <use xlink:href="#DejaVuSans-65" transform="translate(178.955078 0)"/>
     <use xlink:href="#DejaVuSans-72" transform="translate(240.478516 0)"/>
     <use xlink:href="#DejaVuSans-76" transform="translate(281.591797 0)"/>
     <use xlink:href="#DejaVuSans-69" transform="translate(340.771484 0)"/>
     <use xlink:href="#DejaVuSans-73" transform="translate(368.554688 0)"/>
     <use xlink:href="#DejaVuSans-65" transform="translate(420.654297 0)"/>
     <use xlink:href="#DejaVuSans-64" transform="translate(482.177734 0)"/>
     <use xlink:href="#DejaVuSans-5f" transform="translate(545.654297 0)"/>
     <use xlink:href="#DejaVuSans-64" transform="translate(595.654297 0)"/>
     <use xlink:href="#DejaVuSans-6f" transform="translate(659.130859 0)"/>
     <use xlink:href="#DejaVuSans-77" transform="translate(720.3125 0)"/>
     <use xlink:href="#DejaVuSans-6e" transform="translate(802.099609 0)"/>
     <use xlink:href="#DejaVuSans-20" transform="translate(865.478516 0)"/>
     <use xlink:href="#DejaVuSans-50" transform="translate(897.265625 0)"/>
     <use xlink:href="#DejaVuSans-52" transform="translate(957.568359 0)"/>
     <use xlink:href="#DejaVuSans-20" transform="translate(1027.050781 0)"/>
     <use xlink:href="#DejaVuSans-43" transform="translate(1058.837891 0)"/>
     <use xlink:href="#DejaVuSans-75" transform="translate(1128.662109 0)"/>
     <use xlink:href="#DejaVuSans-72" transform="translate(1192.041016 0)"/>
     <use xlink:href="#DejaVuSans-76" transform="translate(1233.154297 0)"/>
     <use xlink:href="#DejaVuSans-65" transform="translate(1292.333984 0)"/>
    </g>
   </g>
   <g id="legend_1">
    <g id="patch_7">
     <path d="M 520.200625 42.728438 
L 593.890938 42.728438 
Q 595.690938 42.728438 595.690938 40.928438 
L 595.690938 28.618125 
Q 595.690938 26.818125 593.890938 26.818125 
L 520.200625 26.818125 
Q 518.400625 26.818125 518.400625 28.618125 
L 518.400625 40.928438 
Q 518.400625 42.728438 520.200625 42.728438 
z
" style="fill: #ffffff; opacity: 0.8; stroke: #cccccc; stroke-linejoin: miter"/>
    </g>
    <g id="line2d_28">
     <path d="M 522.000625 34.106719 
L 531.000625 34.106719 
L 540.000625 34.106719 
" style="fill: none; stroke: #1f77b4; stroke-width: 1.5; stroke-linecap: square"/>
    </g>
    <g id="text_17">
     <!-- AP=0.482 -->
     <g transform="translate(547.200625 37.256719) scale(0.09 -0.09)">
      <defs>
       <path id="DejaVuSans-41" d="M 2188 4044 
L 1331 1722 
L 3047 1722 
L 2188 4044 
z
M 1831 4666 
L 2547 4666 
L 4325 0 
L 3669 0 
L 3244 1197 
L 1141 1197 
L 716 0 
L 50 0 
L 1831 4666 
z
" transform="scale(0.015625)"/>
       <path id="DejaVuSans-3d" d="M 678 2906 
L 4684 2906 
L 4684 2381 
L 678 2381 
L 678 2906 
z
M 678 1631 
L 4684 1631 
L 4684 1100 
L 678 1100 
L 678 1631 
z
" transform="scale(0.015625)"/>
      </defs>
      <use xlink:href="#DejaVuSans-41"/>
      <use xlink:href="#DejaVuSans-50" transform="translate(68.408203 0)"/>
      <use xlink:href="#DejaVuSans-3d" transform="translate(128.710938 0)"/>
      <use xlink:href="#DejaVuSans-30" transform="translate(212.5 0)"/>
      <use xlink:href="#DejaVuSans-2e" transform="translate(276.123047 0)"/>
      <use xlink:href="#DejaVuSans-34" transform="translate(307.910156 0)"/>
      <use xlink:href="#DejaVuSans-38" transform="translate(371.533203 0)"/>
      <use xlink:href="#DejaVuSans-32" transform="translate(435.15625 0)"/>
     </g>
    </g>
   </g>
  </g>
 </g>
 <defs>
  <clipPath id="p72e2732a65">
   <rect x="42.190938" y="22.318125" width="558" height="277.2"/>
  </clipPath>
 </defs>
</svg>
