<?xml version="1.0" encoding="utf-8" standalone="no"?>
<!DOCTYPE svg PUBLIC "-//W3C//DTD SVG 1.1//EN"
  "http://www.w3.org/Graphics/SVG/1.1/DTD/svg11.dtd">
<svg xmlns:xlink="http://www.w3.org/1999/xlink" width="607.390937pt" height="336.106563pt" viewBox="0 0 607.390937 336.106563" xmlns="http://www.w3.org/2000/svg" version="1.1">
 <metadata>
  <rdf:RDF xmlns:dc="http://purl.org/dc/elements/1.1/" xmlns:cc="http://creativecommons.org/ns#" xmlns:rdf="http://www.w3.org/1999/02/22-rdf-syntax-ns#">
   <cc:Work>
    <dc:type rdf:resource="http://purl.org/dc/dcmitype/StillImage"/>
    <dc:date>2026-01-07T23:13:58.180933</dc:date>
    <dc:format>image/svg+xml</dc:format>
    <dc:creator>
     <cc:Agent>
      <dc:title>Matplotlib v3.10.8, https://matplotlib.org/</dc:title>
     </cc:Agent>
    </dc:creator>
   </cc:Work>
  </rdf:RDF>
 </metadata>
 <defs>
  <style type="text/css">*{stroke-linejoin: round; stroke-linecap: butt}</style>
 </defs>
 <g id="figure_1">
  <g id="patch_1">
   <path d="M 0 336.106563 
L 607.390937 336.106563 
L 607.390937 0 
L 0 0 
z
" style="fill: #ffffff"/>
  </g>
  <g id="axes_1">
   <g id="patch_2">
    <path d="M 42.190938 299.518125 
L 600.190938 299.518125 
L 600.190938 22.318125 
L 42.190938 22.318125 
z
" style="fill: #ffffff"/>
   </g>
   <g id="matplotlib.axis_1">
    <g id="xtick_1">
     <g id="line2d_1">
      <path d="M 67.554574 299.518125 
L 67.554574 22.318125 
" clip-path="url(#pc0af80e918)" style="fill: none; stroke: #b0b0b0; stroke-opacity: 0.3; stroke-width: 0.8; stroke-linecap: square"/>
     </g>
     <g id="line2d_2">
      <defs>
       <path id="m208166627b" d="M 0 0 
L 0 3.5 
" style="stroke: #000000; stroke-width: 0.8"/>
      </defs>
      <g>
       <use xlink:href="#m208166627b" x="67.554574" y="299.518125" style="stroke: #000000; stroke-width: 0.8"/>
      </g>
     </g>
     <g id="text_1">
      <!-- 0.0 -->
      <g transform="translate(60.398168 313.356719) scale(0.09 -0.09)">
       <defs>
        <path id="DejaVuSans-30" d="M 2034 4250 
Q 1547 4250 1301 3770 
Q 1056 3291 1056 2328 
Q 1056 1369 1301 889 
Q 1547 409 2034 409 
Q 2525 409 2770 889 
Q 3016 1369 3016 2328 
Q 3016 3291 2770 3770 
Q 2525 4250 2034 4250 
z
M 2034 4750 
Q 2819 4750 3233 4129 
Q 3647 3509 3647 2328 
Q 3647 1150 3233 529 
Q 2819 -91 2034 -91 
Q 1250 -91 836 529 
Q 422 1150 422 2328 
Q 422 3509 836 4129 
Q 1250 4750 2034 4750 
z
" transform="scale(0.015625)"/>
        <path id="DejaVuSans-2e" d="M 684 794 
L 1344 794 
L 1344 0 
L 684 0 
L 684 794 
z
" transform="scale(0.015625)"/>
       </defs>
       <use xlink:href="#DejaVuSans-30"/>
       <use xlink:href="#DejaVuSans-2e" transform="translate(63.623047 0)"/>
       <use xlink:href="#DejaVuSans-30" transform="translate(95.410156 0)"/>
      </g>
     </g>
    </g>
    <g id="xtick_2">
     <g id="line2d_3">
      <path d="M 169.009119 299.518125 
L 169.009119 22.318125 
" clip-path="url(#pc0af80e918)" style="fill: none; stroke: #b0b0b0; stroke-opacity: 0.3; stroke-width: 0.8; stroke-linecap: square"/>
     </g>
     <g id="line2d_4">
      <g>
       <use xlink:href="#m208166627b" x="169.009119" y="299.518125" style="stroke: #000000; stroke-width: 0.8"/>
      </g>
     </g>
     <g id="text_2">
      <!-- 0.2 -->
      <g transform="translate(161.852713 313.356719) scale(0.09 -0.09)">
       <defs>
        <path id="DejaVuSans-32" d="M 1228 531 
L 3431 531 
L 3431 0 
L 469 0 
L 469 531 
Q 828 903 1448 1529 
Q 2069 2156 2228 2338 
Q 2531 2678 2651 2914 
Q 2772 3150 2772 3378 
Q 2772 3750 2511 3984 
Q 2250 4219 1831 4219 
Q 1534 4219 1204 4116 
Q 875 4013 500 3803 
L 500 4441 
Q 881 4594 1212 4672 
Q 1544 4750 1819 4750 
Q 2544 4750 2975 4387 
Q 3406 4025 3406 3419 
Q 3406 3131 3298 2873 
Q 3191 2616 2906 2266 
Q 2828 2175 2409 1742 
Q 1991 1309 1228 531 
z
" transform="scale(0.015625)"/>
       </defs>
       <use xlink:href="#DejaVuSans-30"/>
       <use xlink:href="#DejaVuSans-2e" transform="translate(63.623047 0)"/>
       <use xlink:href="#DejaVuSans-32" transform="translate(95.410156 0)"/>
      </g>
     </g>
    </g>
    <g id="xtick_3">
     <g id="line2d_5">
      <path d="M 270.463665 299.518125 
L 270.463665 22.318125 
" clip-path="url(#pc0af80e918)" style="fill: none; stroke: #b0b0b0; stroke-opacity: 0.3; stroke-width: 0.8; stroke-linecap: square"/>
     </g>
     <g id="line2d_6">
      <g>
       <use xlink:href="#m208166627b" x="270.463665" y="299.518125" style="stroke: #000000; stroke-width: 0.8"/>
      </g>
     </g>
     <g id="text_3">
      <!-- 0.4 -->
      <g transform="translate(263.307259 313.356719) scale(0.09 -0.09)">
       <defs>
        <path id="DejaVuSans-34" d="M 2419 4116 
L 825 1625 
L 2419 1625 
L 2419 4116 
z
M 2253 4666 
L 3047 4666 
L 3047 1625 
L 3713 1625 
L 3713 1100 
L 3047 1100 
L 3047 0 
L 2419 0 
L 2419 1100 
L 313 1100 
L 313 1709 
L 2253 4666 
z
" transform="scale(0.015625)"/>
       </defs>
       <use xlink:href="#DejaVuSans-30"/>
       <use xlink:href="#DejaVuSans-2e" transform="translate(63.623047 0)"/>
       <use xlink:href="#DejaVuSans-34" transform="translate(95.410156 0)"/>
      </g>
     </g>
    </g>
    <g id="xtick_4">
     <g id="line2d_7">
      <path d="M 371.91821 299.518125 
L 371.91821 22.318125 
" clip-path="url(#pc0af80e918)" style="fill: none; stroke: #b0b0b0; stroke-opacity: 0.3; stroke-width: 0.8; stroke-linecap: square"/>
     </g>
     <g id="line2d_8">
      <g>
       <use xlink:href="#m208166627b" x="371.91821" y="299.518125" style="stroke: #000000; stroke-width: 0.8"/>
      </g>
     </g>
     <g id="text_4">
      <!-- 0.6 -->
      <g transform="translate(364.761804 313.356719) scale(0.09 -0.09)">
       <defs>
        <path id="DejaVuSans-36" d="M 2113 2584 
Q 1688 2584 1439 2293 
Q 1191 2003 1191 1497 
Q 1191 994 1439 701 
Q 1688 409 2113 409 
Q 2538 409 2786 701 
Q 3034 994 3034 1497 
Q 3034 2003 2786 2293 
Q 2538 2584 2113 2584 
z
M 3366 4563 
L 3366 3988 
Q 3128 4100 2886 4159 
Q 2644 4219 2406 4219 
Q 1781 4219 1451 3797 
Q 1122 3375 1075 2522 
Q 1259 2794 1537 2939 
Q 1816 3084 2150 3084 
Q 2853 3084 3261 2657 
Q 3669 2231 3669 1497 
Q 3669 778 3244 343 
Q 2819 -91 2113 -91 
Q 1303 -91 875 529 
Q 447 1150 447 2328 
Q 447 3434 972 4092 
Q 1497 4750 2381 4750 
Q 2619 4750 2861 4703 
Q 3103 4656 3366 4563 
z
" transform="scale(0.015625)"/>
       </defs>
       <use xlink:href="#DejaVuSans-30"/>
       <use xlink:href="#DejaVuSans-2e" transform="translate(63.623047 0)"/>
       <use xlink:href="#DejaVuSans-36" transform="translate(95.410156 0)"/>
      </g>
     </g>
    </g>
    <g id="xtick_5">
     <g id="line2d_9">
      <path d="M 473.372756 299.518125 
L 473.372756 22.318125 
" clip-path="url(#pc0af80e918)" style="fill: none; stroke: #b0b0b0; stroke-opacity: 0.3; stroke-width: 0.8; stroke-linecap: square"/>
     </g>
     <g id="line2d_10">
      <g>
       <use xlink:href="#m208166627b" x="473.372756" y="299.518125" style="stroke: #000000; stroke-width: 0.8"/>
      </g>
     </g>
     <g id="text_5">
      <!-- 0.8 -->
      <g transform="translate(466.216349 313.356719) scale(0.09 -0.09)">
       <defs>
        <path id="DejaVuSans-38" d="M 2034 2216 
Q 1584 2216 1326 1975 
Q 1069 1734 1069 1313 
Q 1069 891 1326 650 
Q 1584 409 2034 409 
Q 2484 409 2743 651 
Q 3003 894 3003 1313 
Q 3003 1734 2745 1975 
Q 2488 2216 2034 2216 
z
M 1403 2484 
Q 997 2584 770 2862 
Q 544 3141 544 3541 
Q 544 4100 942 4425 
Q 1341 4750 2034 4750 
Q 2731 4750 3128 4425 
Q 3525 4100 3525 3541 
Q 3525 3141 3298 2862 
Q 3072 2584 2669 2484 
Q 3125 2378 3379 2068 
Q 3634 1759 3634 1313 
Q 3634 634 3220 271 
Q 2806 -91 2034 -91 
Q 1263 -91 848 271 
Q 434 634 434 1313 
Q 434 1759 690 2068 
Q 947 2378 1403 2484 
z
M 1172 3481 
Q 1172 3119 1398 2916 
Q 1625 2713 2034 2713 
Q 2441 2713 2670 2916 
Q 2900 3119 2900 3481 
Q 2900 3844 2670 4047 
Q 2441 4250 2034 4250 
Q 1625 4250 1398 4047 
Q 1172 3844 1172 3481 
z
" transform="scale(0.015625)"/>
       </defs>
       <use xlink:href="#DejaVuSans-30"/>
       <use xlink:href="#DejaVuSans-2e" transform="translate(63.623047 0)"/>
       <use xlink:href="#DejaVuSans-38" transform="translate(95.410156 0)"/>
      </g>
     </g>
    </g>
    <g id="xtick_6">
     <g id="line2d_11">
      <path d="M 574.827301 299.518125 
L 574.827301 22.318125 
" clip-path="url(#pc0af80e918)" style="fill: none; stroke: #b0b0b0; stroke-opacity: 0.3; stroke-width: 0.8; stroke-linecap: square"/>
     </g>
     <g id="line2d_12">
      <g>
       <use xlink:href="#m208166627b" x="574.827301" y="299.518125" style="stroke: #000000; stroke-width: 0.8"/>
      </g>
     </g>
     <g id="text_6">
      <!-- 1.0 -->
      <g transform="translate(567.670895 313.356719) scale(0.09 -0.09)">
       <defs>
        <path id="DejaVuSans-31" d="M 794 531 
L 1825 531 
L 1825 4091 
L 703 3866 
L 703 4441 
L 1819 4666 
L 2450 4666 
L 2450 531 
L 3481 531 
L 3481 0 
L 794 0 
L 794 531 
z
" transform="scale(0.015625)"/>
       </defs>
       <use xlink:href="#DejaVuSans-31"/>
       <use xlink:href="#DejaVuSans-2e" transform="translate(63.623047 0)"/>
       <use xlink:href="#DejaVuSans-30" transform="translate(95.410156 0)"/>
      </g>
     </g>
    </g>
    <g id="text_7">
     <!-- Recall -->
     <g transform="translate(306.27375 326.826875) scale(0.1 -0.1)">
      <defs>
       <path id="DejaVuSans-52" d="M 2841 2188 
Q 3044 2119 3236 1894 
Q 3428 1669 3622 1275 
L 4263 0 
L 3584 0 
L 2988 1197 
Q 2756 1666 2539 1819 
Q 2322 1972 1947 1972 
L 1259 1972 
L 1259 0 
L 628 0 
L 628 4666 
L 2053 4666 
Q 2853 4666 3247 4331 
Q 3641 3997 3641 3322 
Q 3641 2881 3436 2590 
Q 3231 2300 2841 2188 
z
M 1259 4147 
L 1259 2491 
L 2053 2491 
Q 2509 2491 2742 2702 
Q 2975 2913 2975 3322 
Q 2975 3731 2742 3939 
Q 2509 4147 2053 4147 
L 1259 4147 
z
" transform="scale(0.015625)"/>
       <path id="DejaVuSans-65" d="M 3597 1894 
L 3597 1613 
L 953 1613 
Q 991 1019 1311 708 
Q 1631 397 2203 397 
Q 2534 397 2845 478 
Q 3156 559 3463 722 
L 3463 178 
Q 3153 47 2828 -22 
Q 2503 -91 2169 -91 
Q 1331 -91 842 396 
Q 353 884 353 1716 
Q 353 2575 817 3079 
Q 1281 3584 2069 3584 
Q 2775 3584 3186 3129 
Q 3597 2675 3597 1894 
z
M 3022 2063 
Q 3016 2534 2758 2815 
Q 2500 3097 2075 3097 
Q 1594 3097 1305 2825 
Q 1016 2553 972 2059 
L 3022 2063 
z
" transform="scale(0.015625)"/>
       <path id="DejaVuSans-63" d="M 3122 3366 
L 3122 2828 
Q 2878 2963 2633 3030 
Q 2388 3097 2138 3097 
Q 1578 3097 1268 2742 
Q 959 2388 959 1747 
Q 959 1106 1268 751 
Q 1578 397 2138 397 
Q 2388 397 2633 464 
Q 2878 531 3122 666 
L 3122 134 
Q 2881 22 2623 -34 
Q 2366 -91 2075 -91 
Q 1284 -91 818 406 
Q 353 903 353 1747 
Q 353 2603 823 3093 
Q 1294 3584 2113 3584 
Q 2378 3584 2631 3529 
Q 2884 3475 3122 3366 
z
" transform="scale(0.015625)"/>
       <path id="DejaVuSans-61" d="M 2194 1759 
Q 1497 1759 1228 1600 
Q 959 1441 959 1056 
Q 959 750 1161 570 
Q 1363 391 1709 391 
Q 2188 391 2477 730 
Q 2766 1069 2766 1631 
L 2766 1759 
L 2194 1759 
z
M 3341 1997 
L 3341 0 
L 2766 0 
L 2766 531 
Q 2569 213 2275 61 
Q 1981 -91 1556 -91 
Q 1019 -91 701 211 
Q 384 513 384 1019 
Q 384 1609 779 1909 
Q 1175 2209 1959 2209 
L 2766 2209 
L 2766 2266 
Q 2766 2663 2505 2880 
Q 2244 3097 1772 3097 
Q 1472 3097 1187 3025 
Q 903 2953 641 2809 
L 641 3341 
Q 956 3463 1253 3523 
Q 1550 3584 1831 3584 
Q 2591 3584 2966 3190 
Q 3341 2797 3341 1997 
z
" transform="scale(0.015625)"/>
       <path id="DejaVuSans-6c" d="M 603 4863 
L 1178 4863 
L 1178 0 
L 603 0 
L 603 4863 
z
" transform="scale(0.015625)"/>
      </defs>
      <use xlink:href="#DejaVuSans-52"/>
      <use xlink:href="#DejaVuSans-65" transform="translate(64.982422 0)"/>
      <use xlink:href="#DejaVuSans-63" transform="translate(126.505859 0)"/>
      <use xlink:href="#DejaVuSans-61" transform="translate(181.486328 0)"/>
      <use xlink:href="#DejaVuSans-6c" transform="translate(242.765625 0)"/>
      <use xlink:href="#DejaVuSans-6c" transform="translate(270.548828 0)"/>
     </g>
    </g>
   </g>
   <g id="matplotlib.axis_2">
    <g id="ytick_1">
     <g id="line2d_13">
      <path d="M 42.190938 276.838125 
L 600.190938 276.838125 
" clip-path="url(#pc0af80e918)" style="fill: none; stroke: #b0b0b0; stroke-opacity: 0.3; stroke-width: 0.8; stroke-linecap: square"/>
     </g>
     <g id="line2d_14">
      <defs>
       <path id="me4a29b038c" d="M 0 0 
L -3.5 0 
" style="stroke: #000000; stroke-width: 0.8"/>
      </defs>
      <g>
       <use xlink:href="#me4a29b038c" x="42.190938" y="276.838125" style="stroke: #000000; stroke-width: 0.8"/>
      </g>
     </g>
     <g id="text_8">
      <!-- 0.4 -->
      <g transform="translate(20.878125 280.257422) scale(0.09 -0.09)">
       <use xlink:href="#DejaVuSans-30"/>
       <use xlink:href="#DejaVuSans-2e" transform="translate(63.623047 0)"/>
       <use xlink:href="#DejaVuSans-34" transform="translate(95.410156 0)"/>
      </g>
     </g>
    </g>
    <g id="ytick_2">
     <g id="line2d_15">
      <path d="M 42.190938 236.518125 
L 600.190938 236.518125 
" clip-path="url(#pc0af80e918)" style="fill: none; stroke: #b0b0b0; stroke-opacity: 0.3; stroke-width: 0.8; stroke-linecap: square"/>
     </g>
     <g id="line2d_16">
      <g>
       <use xlink:href="#me4a29b038c" x="42.190938" y="236.518125" style="stroke: #000000; stroke-width: 0.8"/>
      </g>
     </g>
     <g id="text_9">
      <!-- 0.5 -->
      <g transform="translate(20.878125 239.937422) scale(0.09 -0.09)">
       <defs>
        <path id="DejaVuSans-35" d="M 691 4666 
L 3169 4666 
L 3169 4134 
L 1269 4134 
L 1269 2991 
Q 1406 3038 1543 3061 
Q 1681 3084 1819 3084 
Q 2600 3084 3056 2656 
Q 3513 2228 3513 1497 
Q 3513 744 3044 326 
Q 2575 -91 1722 -91 
Q 1428 -91 1123 -41 
Q 819 9 494 109 
L 494 744 
Q 775 591 1075 516 
Q 1375 441 1709 441 
Q 2250 441 2565 725 
Q 2881 1009 2881 1497 
Q 2881 1984 2565 2268 
Q 2250 2553 1709 2553 
Q 1456 2553 1204 2497 
Q 953 2441 691 2322 
L 691 4666 
z
" transform="scale(0.015625)"/>
       </defs>
       <use xlink:href="#DejaVuSans-30"/>
       <use xlink:href="#DejaVuSans-2e" transform="translate(63.623047 0)"/>
       <use xlink:href="#DejaVuSans-35" transform="translate(95.410156 0)"/>
      </g>
     </g>
    </g>
    <g id="ytick_3">
     <g id="line2d_17">
      <path d="M 42.190938 196.198125 
L 600.190938 196.198125 
" clip-path="url(#pc0af80e918)" style="fill: none; stroke: #b0b0b0; stroke-opacity: 0.3; stroke-width: 0.8; stroke-linecap: square"/>
     </g>
     <g id="line2d_18">
      <g>
       <use xlink:href="#me4a29b038c" x="42.190938" y="196.198125" style="stroke: #000000; stroke-width: 0.8"/>
      </g>
     </g>
     <g id="text_10">
      <!-- 0.6 -->
      <g transform="translate(20.878125 199.617422) scale(0.09 -0.09)">
       <use xlink:href="#DejaVuSans-30"/>
       <use xlink:href="#DejaVuSans-2e" transform="translate(63.623047 0)"/>
       <use xlink:href="#DejaVuSans-36" transform="translate(95.410156 0)"/>
      </g>
     </g>
    </g>
    <g id="ytick_4">
     <g id="line2d_19">
      <path d="M 42.190938 155.878125 
L 600.190938 155.878125 
" clip-path="url(#pc0af80e918)" style="fill: none; stroke: #b0b0b0; stroke-opacity: 0.3; stroke-width: 0.8; stroke-linecap: square"/>
     </g>
     <g id="line2d_20">
      <g>
       <use xlink:href="#me4a29b038c" x="42.190938" y="155.878125" style="stroke: #000000; stroke-width: 0.8"/>
      </g>
     </g>
     <g id="text_11">
      <!-- 0.7 -->
      <g transform="translate(20.878125 159.297422) scale(0.09 -0.09)">
       <defs>
        <path id="DejaVuSans-37" d="M 525 4666 
L 3525 4666 
L 3525 4397 
L 1831 0 
L 1172 0 
L 2766 4134 
L 525 4134 
L 525 4666 
z
" transform="scale(0.015625)"/>
       </defs>
       <use xlink:href="#DejaVuSans-30"/>
       <use xlink:href="#DejaVuSans-2e" transform="translate(63.623047 0)"/>
       <use xlink:href="#DejaVuSans-37" transform="translate(95.410156 0)"/>
      </g>
     </g>
    </g>
    <g id="ytick_5">
     <g id="line2d_21">
      <path d="M 42.190938 115.558125 
L 600.190938 115.558125 
" clip-path="url(#pc0af80e918)" style="fill: none; stroke: #b0b0b0; stroke-opacity: 0.3; stroke-width: 0.8; stroke-linecap: square"/>
     </g>
     <g id="line2d_22">
      <g>
       <use xlink:href="#me4a29b038c" x="42.190938" y="115.558125" style="stroke: #000000; stroke-width: 0.8"/>
      </g>
     </g>
     <g id="text_12">
      <!-- 0.8 -->
      <g transform="translate(20.878125 118.977422) scale(0.09 -0.09)">
       <use xlink:href="#DejaVuSans-30"/>
       <use xlink:href="#DejaVuSans-2e" transform="translate(63.623047 0)"/>
       <use xlink:href="#DejaVuSans-38" transform="translate(95.410156 0)"/>
      </g>
     </g>
    </g>
    <g id="ytick_6">
     <g id="line2d_23">
      <path d="M 42.190938 75.238125 
L 600.190938 75.238125 
" clip-path="url(#pc0af80e918)" style="fill: none; stroke: #b0b0b0; stroke-opacity: 0.3; stroke-width: 0.8; stroke-linecap: square"/>
     </g>
     <g id="line2d_24">
      <g>
       <use xlink:href="#me4a29b038c" x="42.190938" y="75.238125" style="stroke: #000000; stroke-width: 0.8"/>
      </g>
     </g>
     <g id="text_13">
      <!-- 0.9 -->
      <g transform="translate(20.878125 78.657422) scale(0.09 -0.09)">
       <defs>
        <path id="DejaVuSans-39" d="M 703 97 
L 703 672 
Q 941 559 1184 500 
Q 1428 441 1663 441 
Q 2288 441 2617 861 
Q 2947 1281 2994 2138 
Q 2813 1869 2534 1725 
Q 2256 1581 1919 1581 
Q 1219 1581 811 2004 
Q 403 2428 403 3163 
Q 403 3881 828 4315 
Q 1253 4750 1959 4750 
Q 2769 4750 3195 4129 
Q 3622 3509 3622 2328 
Q 3622 1225 3098 567 
Q 2575 -91 1691 -91 
Q 1453 -91 1209 -44 
Q 966 3 703 97 
z
M 1959 2075 
Q 2384 2075 2632 2365 
Q 2881 2656 2881 3163 
Q 2881 3666 2632 3958 
Q 2384 4250 1959 4250 
Q 1534 4250 1286 3958 
Q 1038 3666 1038 3163 
Q 1038 2656 1286 2365 
Q 1534 2075 1959 2075 
z
" transform="scale(0.015625)"/>
       </defs>
       <use xlink:href="#DejaVuSans-30"/>
       <use xlink:href="#DejaVuSans-2e" transform="translate(63.623047 0)"/>
       <use xlink:href="#DejaVuSans-39" transform="translate(95.410156 0)"/>
      </g>
     </g>
    </g>
    <g id="ytick_7">
     <g id="line2d_25">
      <path d="M 42.190938 34.918125 
L 600.190938 34.918125 
" clip-path="url(#pc0af80e918)" style="fill: none; stroke: #b0b0b0; stroke-opacity: 0.3; stroke-width: 0.8; stroke-linecap: square"/>
     </g>
     <g id="line2d_26">
      <g>
       <use xlink:href="#me4a29b038c" x="42.190938" y="34.918125" style="stroke: #000000; stroke-width: 0.8"/>
      </g>
     </g>
     <g id="text_14">
      <!-- 1.0 -->
      <g transform="translate(20.878125 38.337422) scale(0.09 -0.09)">
       <use xlink:href="#DejaVuSans-31"/>
       <use xlink:href="#DejaVuSans-2e" transform="translate(63.623047 0)"/>
       <use xlink:href="#DejaVuSans-30" transform="translate(95.410156 0)"/>
      </g>
     </g>
    </g>
    <g id="text_15">
     <!-- Precision -->
     <g transform="translate(14.798438 183.225156) rotate(-90) scale(0.1 -0.1)">
      <defs>
       <path id="DejaVuSans-50" d="M 1259 4147 
L 1259 2394 
L 2053 2394 
Q 2494 2394 2734 2622 
Q 2975 2850 2975 3272 
Q 2975 3691 2734 3919 
Q 2494 4147 2053 4147 
L 1259 4147 
z
M 628 4666 
L 2053 4666 
Q 2838 4666 3239 4311 
Q 3641 3956 3641 3272 
Q 3641 2581 3239 2228 
Q 2838 1875 2053 1875 
L 1259 1875 
L 1259 0 
L 628 0 
L 628 4666 
z
" transform="scale(0.015625)"/>
       <path id="DejaVuSans-72" d="M 2631 2963 
Q 2534 3019 2420 3045 
Q 2306 3072 2169 3072 
Q 1681 3072 1420 2755 
Q 1159 2438 1159 1844 
L 1159 0 
L 581 0 
L 581 3500 
L 1159 3500 
L 1159 2956 
Q 1341 3275 1631 3429 
Q 1922 3584 2338 3584 
Q 2397 3584 2469 3576 
Q 2541 3569 2628 3553 
L 2631 2963 
z
" transform="scale(0.015625)"/>
       <path id="DejaVuSans-69" d="M 603 3500 
L 1178 3500 
L 1178 0 
L 603 0 
L 603 3500 
z
M 603 4863 
L 1178 4863 
L 1178 4134 
L 603 4134 
L 603 4863 
z
" transform="scale(0.015625)"/>
       <path id="DejaVuSans-73" d="M 2834 3397 
L 2834 2853 
Q 2591 2978 2328 3040 
Q 2066 3103 1784 3103 
Q 1356 3103 1142 2972 
Q 928 2841 928 2578 
Q 928 2378 1081 2264 
Q 1234 2150 1697 2047 
L 1894 2003 
Q 2506 1872 2764 1633 
Q 3022 1394 3022 966 
Q 3022 478 2636 193 
Q 2250 -91 1575 -91 
Q 1294 -91 989 -36 
Q 684 19 347 128 
L 347 722 
Q 666 556 975 473 
Q 1284 391 1588 391 
Q 1994 391 2212 530 
Q 2431 669 2431 922 
Q 2431 1156 2273 1281 
Q 2116 1406 1581 1522 
L 1381 1569 
Q 847 1681 609 1914 
Q 372 2147 372 2553 
Q 372 3047 722 3315 
Q 1072 3584 1716 3584 
Q 2034 3584 2315 3537 
Q 2597 3491 2834 3397 
z
" transform="scale(0.015625)"/>
       <path id="DejaVuSans-6f" d="M 1959 3097 
Q 1497 3097 1228 2736 
Q 959 2375 959 1747 
Q 959 1119 1226 758 
Q 1494 397 1959 397 
Q 2419 397 2687 759 
Q 2956 1122 2956 1747 
Q 2956 2369 2687 2733 
Q 2419 3097 1959 3097 
z
M 1959 3584 
Q 2709 3584 3137 3096 
Q 3566 2609 3566 1747 
Q 3566 888 3137 398 
Q 2709 -91 1959 -91 
Q 1206 -91 779 398 
Q 353 888 353 1747 
Q 353 2609 779 3096 
Q 1206 3584 1959 3584 
z
" transform="scale(0.015625)"/>
       <path id="DejaVuSans-6e" d="M 3513 2113 
L 3513 0 
L 2938 0 
L 2938 2094 
Q 2938 2591 2744 2837 
Q 2550 3084 2163 3084 
Q 1697 3084 1428 2787 
Q 1159 2491 1159 1978 
L 1159 0 
L 581 0 
L 581 3500 
L 1159 3500 
L 1159 2956 
Q 1366 3272 1645 3428 
Q 1925 3584 2291 3584 
Q 2894 3584 3203 3211 
Q 3513 2838 3513 2113 
z
" transform="scale(0.015625)"/>
      </defs>
      <use xlink:href="#DejaVuSans-50"/>
      <use xlink:href="#DejaVuSans-72" transform="translate(58.552734 0)"/>
      <use xlink:href="#DejaVuSans-65" transform="translate(97.416016 0)"/>
      <use xlink:href="#DejaVuSans-63" transform="translate(158.939453 0)"/>
      <use xlink:href="#DejaVuSans-69" transform="translate(213.919922 0)"/>
      <use xlink:href="#DejaVuSans-73" transform="translate(241.703125 0)"/>
      <use xlink:href="#DejaVuSans-69" transform="translate(293.802734 0)"/>
      <use xlink:href="#DejaVuSans-6f" transform="translate(321.585938 0)"/>
      <use xlink:href="#DejaVuSans-6e" transform="translate(382.767578 0)"/>
     </g>
    </g>
   </g>
   <g id="line2d_27">
    <path d="M 574.827301 231.836777 
L 574.827301 231.682143 
L 573.341876 231.977584 
L 573.341876 231.822708 
L 572.599163 231.970757 
L 572.599163 231.348894 
L 571.856451 231.497144 
L 571.856451 231.341086 
L 571.113738 231.489554 
L 571.113738 231.333254 
L 568.8856 231.77999 
L 568.8856 231.466644 
L 567.400175 231.765577 
L 567.400175 231.608536 
L 565.91475 231.908369 
L 565.91475 231.751077 
L 563.686612 232.202529 
L 563.686612 232.04498 
L 562.201186 232.347091 
L 562.201186 232.031249 
L 561.458474 232.182641 
L 561.458474 232.024351 
L 559.973049 232.327825 
L 559.973049 232.169281 
L 559.230336 232.321363 
L 559.230336 231.844246 
L 558.487623 231.996547 
L 558.487623 231.677226 
L 557.744911 231.829753 
L 557.744911 231.188109 
L 556.259485 231.493826 
L 556.259485 231.332778 
L 555.516773 231.485988 
L 555.516773 231.324682 
L 553.288635 231.785731 
L 553.288635 231.624155 
L 548.832359 232.552743 
L 548.832359 232.390881 
L 548.089646 232.546494 
L 548.089646 232.384371 
L 544.376083 233.166106 
L 544.376083 233.003703 
L 542.890658 233.318125 
L 542.890658 233.155456 
L 542.147945 233.313038 
L 542.147945 232.986915 
L 540.66252 233.302814 
L 540.66252 233.139354 
L 539.177095 233.456254 
L 539.177095 233.292525 
L 538.434382 233.451352 
L 538.434382 233.287356 
L 537.69167 233.446433 
L 537.69167 233.28217 
L 536.948957 233.441498 
L 536.948957 233.276967 
L 535.463532 233.596386 
L 535.463532 233.266512 
L 534.720819 233.4266 
L 534.720819 233.095651 
L 533.978106 233.255989 
L 533.978106 233.090109 
L 531.749969 233.57267 
L 531.749969 232.906399 
L 529.521831 233.391268 
L 529.521831 233.224007 
L 526.55098 233.874191 
L 526.55098 233.538815 
L 523.58013 234.193249 
L 523.58013 234.025132 
L 522.094704 234.353963 
L 522.094704 234.016884 
L 519.866566 234.512155 
L 519.866566 234.173939 
L 519.123854 234.339571 
L 519.123854 233.659743 
L 518.381141 233.825638 
L 518.381141 233.654967 
L 517.638429 233.821135 
L 517.638429 233.478929 
L 516.895716 233.645367 
L 516.895716 233.47383 
L 516.153003 233.640543 
L 516.153003 233.296594 
L 515.410291 233.46358 
L 515.410291 233.291166 
L 514.667578 233.458429 
L 514.667578 233.28572 
L 513.924865 233.45326 
L 513.924865 233.106957 
L 513.182153 233.274772 
L 513.182153 233.101176 
L 512.43944 233.26927 
L 512.43944 232.39683 
L 511.696727 232.565184 
L 511.696727 232.389797 
L 510.954015 232.558432 
L 510.954015 232.38274 
L 509.46859 232.720865 
L 509.46859 232.54486 
L 508.725877 232.714351 
L 508.725877 232.538039 
L 507.983164 232.707816 
L 507.983164 232.531195 
L 507.240452 232.701258 
L 507.240452 232.524327 
L 506.497739 232.694677 
L 506.497739 232.339887 
L 505.755026 232.510519 
L 505.755026 232.332658 
L 505.012314 232.50358 
L 505.012314 232.146919 
L 504.269601 232.318125 
L 504.269601 232.139324 
L 502.784176 232.482616 
L 502.784176 232.303491 
L 499.813325 232.993649 
L 499.813325 232.814188 
L 497.585187 233.334967 
L 497.585187 232.6139 
L 496.842475 232.788081 
L 496.842475 232.607014 
L 496.099762 232.781497 
L 496.099762 232.41839 
L 494.614337 232.768258 
L 494.614337 232.58621 
L 487.929923 234.176034 
L 487.929923 233.993617 
L 487.187211 234.17184 
L 487.187211 233.989093 
L 486.444498 234.167632 
L 486.444498 233.617406 
L 484.959073 233.975422 
L 484.959073 233.791344 
L 484.21636 233.970833 
L 484.21636 233.601669 
L 483.473647 233.781473 
L 483.473647 233.410963 
L 479.760084 234.314846 
L 479.760084 234.129064 
L 478.274659 234.49292 
L 478.274659 234.30679 
L 477.531946 234.489214 
L 477.531946 234.30274 
L 476.046521 234.668584 
L 476.046521 234.481761 
L 475.303809 234.665184 
L 475.303809 234.478015 
L 473.818383 234.845867 
L 473.818383 234.658346 
L 473.075671 234.842779 
L 473.075671 234.654909 
L 472.332958 234.839679 
L 472.332958 234.273969 
L 470.10482 234.830311 
L 470.10482 234.451396 
L 469.362107 234.637528 
L 469.362107 234.447537 
L 468.619395 234.634013 
L 468.619395 233.294042 
L 467.876682 233.480837 
L 467.876682 233.287965 
L 464.163119 234.227216 
L 464.163119 233.840326 
L 461.934981 234.408135 
L 461.934981 234.214125 
L 460.449556 234.594461 
L 460.449556 234.205314 
L 459.706843 234.39602 
L 459.706843 234.200884 
L 458.964131 234.391951 
L 458.964131 234.196436 
L 458.221418 234.387866 
L 458.221418 233.9957 
L 457.478705 234.187489 
L 457.478705 233.990835 
L 455.99328 234.375516 
L 455.99328 234.178473 
L 455.250567 234.371368 
L 455.250567 234.173939 
L 454.507855 234.367204 
L 454.507855 234.169387 
L 453.02243 234.557036 
L 453.02243 234.358826 
L 451.537004 234.747979 
L 451.537004 234.549375 
L 450.794292 234.744518 
L 450.794292 234.545522 
L 449.308866 234.936949 
L 449.308866 234.537771 
L 447.080729 235.12778 
L 447.080729 234.927592 
L 446.338016 235.125035 
L 446.338016 234.924449 
L 444.852591 235.320501 
L 444.852591 235.119513 
L 443.367165 235.517132 
L 443.367165 235.113946 
L 442.624453 235.313344 
L 442.624453 234.094077 
L 440.396315 234.694607 
L 440.396315 234.489956 
L 438.91089 234.892319 
L 438.91089 234.687247 
L 438.168177 234.889034 
L 438.168177 234.683545 
L 436.682752 235.088338 
L 436.682752 234.676095 
L 434.454614 235.286353 
L 434.454614 234.039436 
L 433.711901 234.243663 
L 433.711901 234.034347 
L 432.969189 234.238988 
L 432.969189 234.029236 
L 432.226476 234.234294 
L 432.226476 234.024104 
L 431.483763 234.22958 
L 431.483763 232.959246 
L 427.027487 234.200884 
L 427.027487 233.987581 
L 424.056637 234.824007 
L 424.056637 234.39602 
L 422.571212 234.816859 
L 422.571212 234.171458 
L 421.828499 234.382532 
L 421.828499 234.166481 
L 421.085786 234.377998 
L 421.085786 233.727071 
L 418.114936 234.57759 
L 418.114936 234.359667 
L 417.372223 234.57343 
L 417.372223 234.355035 
L 416.629511 234.569253 
L 416.629511 234.350383 
L 415.886798 234.565057 
L 415.886798 234.345711 
L 413.65866 234.992503 
L 413.65866 234.110307 
L 412.915947 234.326821 
L 412.915947 234.105067 
L 409.945097 234.97583 
L 409.945097 234.53083 
L 409.202384 234.749704 
L 409.202384 234.078521 
L 408.459672 234.297861 
L 408.459672 234.073142 
L 406.974246 234.513263 
L 406.974246 233.609357 
L 406.231534 233.830125 
L 406.231534 233.375141 
L 405.488821 233.596386 
L 405.488821 233.368125 
L 404.746109 233.589857 
L 404.746109 233.361078 
L 404.003396 233.583299 
L 404.003396 233.353999 
L 403.260683 233.576711 
L 403.260683 233.346889 
L 402.517971 233.570094 
L 402.517971 233.10888 
L 401.775258 233.332572 
L 401.775258 232.869256 
L 401.032545 233.093436 
L 401.032545 232.860982 
L 400.289833 233.085662 
L 400.289833 232.150508 
L 398.804407 232.601325 
L 398.804407 232.36618 
L 393.605419 233.96034 
L 393.605419 233.724592 
L 391.377281 234.415692 
L 391.377281 234.179378 
L 390.634569 234.410808 
L 390.634569 233.936518 
L 389.891856 234.168475 
L 389.891856 233.691957 
L 388.406431 234.157469 
L 388.406431 233.918359 
L 387.663718 234.151928 
L 387.663718 233.431199 
L 386.921005 233.665295 
L 386.921005 233.181955 
L 386.178293 233.416587 
L 386.178293 232.442976 
L 383.207442 233.386942 
L 383.207442 232.650499 
L 380.236592 233.603426 
L 380.236592 233.356726 
L 378.751166 233.836626 
L 378.751166 233.589311 
L 377.265741 234.071523 
L 377.265741 233.575059 
L 376.523029 233.817029 
L 376.523029 233.318125 
L 375.037603 233.803804 
L 375.037603 233.302419 
L 372.809465 234.035366 
L 372.809465 233.783723 
L 370.581327 234.522085 
L 370.581327 234.269798 
L 368.35319 235.013647 
L 368.35319 234.507152 
L 367.610477 234.756327 
L 367.610477 234.502125 
L 365.382339 235.253382 
L 365.382339 234.230105 
L 364.639626 234.481761 
L 364.639626 233.966226 
L 363.896914 234.218505 
L 363.896914 233.959749 
L 359.440638 235.486923 
L 359.440638 234.445117 
L 356.469787 235.476265 
L 356.469787 234.951286 
L 354.984362 235.470852 
L 354.984362 234.943125 
L 354.24165 235.203914 
L 354.24165 234.140143 
L 352.756224 234.663723 
L 352.756224 234.127611 
L 351.270799 234.653924 
L 351.270799 234.384792 
L 348.299949 235.445785 
L 348.299949 235.175915 
L 346.814523 235.710648 
L 346.814523 235.44005 
L 346.071811 235.708486 
L 346.071811 233.793801 
L 344.586385 234.332759 
L 344.586385 233.778995 
L 343.10096 234.32085 
L 343.10096 234.042818 
L 342.358247 234.314846 
L 342.358247 234.036046 
L 339.387397 235.131605 
L 339.387397 234.571642 
L 338.644684 234.847407 
L 338.644684 233.433841 
L 337.159259 233.987581 
L 337.159259 233.416587 
L 335.673834 233.973384 
L 335.673834 233.399138 
L 334.931121 233.678688 
L 334.931121 231.348894 
L 334.188409 231.629109 
L 334.188409 231.334125 
L 333.445696 231.615121 
L 333.445696 230.725022 
L 330.474845 231.856853 
L 330.474845 231.558357 
L 328.98942 232.129155 
L 328.98942 231.829753 
L 327.503995 232.403839 
L 327.503995 231.802336 
L 326.01857 232.379709 
L 326.01857 231.470702 
L 325.275857 231.760603 
L 325.275857 231.150078 
L 323.790432 231.732368 
L 323.790432 230.80963 
L 319.334156 232.577072 
L 319.334156 232.267523 
L 318.591443 232.565184 
L 318.591443 231.943238 
L 317.106018 232.54119 
L 317.106018 231.915385 
L 316.363305 232.215686 
L 316.363305 231.586015 
L 311.90703 233.407014 
L 311.90703 232.773233 
L 310.421604 233.38769 
L 310.421604 232.749901 
L 309.678892 233.058531 
L 309.678892 232.738125 
L 307.450754 233.669773 
L 307.450754 233.348314 
L 306.708041 233.660802 
L 306.708041 233.338314 
L 305.965329 233.651774 
L 305.965329 233.003703 
L 305.222616 233.318125 
L 305.222616 232.992529 
L 303.737191 233.624345 
L 303.737191 233.297678 
L 302.251765 233.93351 
L 302.251765 233.605765 
L 300.76634 234.245661 
L 300.76634 233.255989 
L 300.023628 233.577444 
L 300.023628 233.245398 
L 299.280915 233.567881 
L 299.280915 233.234737 
L 297.052777 234.208469 
L 297.052777 233.874191 
L 296.310064 234.200884 
L 296.310064 233.528998 
L 295.567352 233.856739 
L 295.567352 233.519117 
L 294.824639 233.847926 
L 294.824639 232.486125 
L 292.596501 233.478929 
L 292.596501 233.135575 
L 291.853789 233.468713 
L 291.853789 232.778496 
L 289.625651 233.784566 
L 289.625651 233.089554 
L 288.882938 233.427154 
L 288.882938 232.375659 
L 285.169375 234.080819 
L 285.169375 233.373584 
L 284.426662 233.718125 
L 284.426662 233.362647 
L 282.941237 234.055298 
L 282.941237 232.981283 
L 281.455812 233.678688 
L 281.455812 231.127751 
L 280.713099 231.478125 
L 280.713099 229.240147 
L 279.970386 229.591543 
L 279.970386 227.688928 
L 279.227674 228.041343 
L 279.227674 227.270419 
L 277.742249 227.978898 
L 277.742249 227.202044 
L 276.256823 227.915528 
L 276.256823 227.524816 
L 275.514111 227.883488 
L 275.514111 227.491259 
L 272.54326 228.939178 
L 272.54326 228.149823 
L 270.315122 229.249814 
L 270.315122 228.852726 
L 269.57241 229.222125 
L 269.57241 228.823469 
L 268.829697 229.194224 
L 268.829697 228.392213 
L 266.601559 229.51272 
L 266.601559 229.109228 
L 265.858846 229.485567 
L 265.858846 229.080455 
L 264.373421 229.837423 
L 264.373421 228.612243 
L 261.402571 230.143421 
L 261.402571 228.903016 
L 257.689008 230.850655 
L 257.689008 229.594489 
L 256.946295 229.98857 
L 256.946295 229.566401 
L 255.46087 230.359266 
L 255.46087 229.935268 
L 254.718157 230.334076 
L 254.718157 229.480753 
L 253.975444 229.881088 
L 253.975444 229.451733 
L 253.232732 229.853662 
L 253.232732 229.422473 
L 252.490019 229.826009 
L 252.490019 229.392969 
L 251.004594 230.204973 
L 251.004594 229.770008 
L 249.519169 230.588713 
L 249.519169 229.272459 
L 248.776456 229.684227 
L 248.776456 226.090539 
L 246.548318 227.334611 
L 246.548318 226.876386 
L 245.805605 227.294596 
L 245.805605 226.834282 
L 245.062893 227.25423 
L 245.062893 226.791809 
L 243.577468 227.637068 
L 243.577468 227.17243 
L 241.34933 228.454125 
L 241.34933 227.987167 
L 240.606617 228.418125 
L 240.606617 227.477766 
L 239.863904 227.910485 
L 239.863904 227.437044 
L 238.378479 228.30817 
L 238.378479 227.354489 
L 236.893054 228.233193 
L 236.893054 227.752908 
L 236.150341 228.195189 
L 236.150341 227.227802 
L 235.407629 227.671936 
L 235.407629 227.184792 
L 234.664916 227.630886 
L 234.664916 227.141381 
L 233.922203 227.589454 
L 233.922203 227.097564 
L 233.179491 227.547633 
L 233.179491 224.038125 
L 232.436778 224.489485 
L 232.436778 222.948894 
L 231.694065 223.40198 
L 231.694065 222.883342 
L 230.951353 223.338464 
L 230.951353 222.817154 
L 230.20864 223.274329 
L 230.20864 222.75032 
L 229.465928 223.209568 
L 229.465928 222.682831 
L 228.723215 223.144169 
L 228.723215 222.614677 
L 227.980502 223.078125 
L 227.980502 221.473349 
L 227.23779 221.938574 
L 227.23779 221.398125 
L 226.495077 221.865493 
L 226.495077 220.77606 
L 219.810663 225.087197 
L 219.810663 224.53673 
L 219.067951 225.02797 
L 219.067951 223.918125 
L 216.0971 225.907599 
L 216.0971 224.784792 
L 215.354388 224.72238 
L 215.354388 224.153325 
L 213.868962 225.167991 
L 213.868962 224.020012 
L 210.898112 226.081068 
L 210.898112 224.919221 
L 210.155399 225.441202 
L 210.155399 224.855315 
L 207.184549 226.971607 
L 207.184549 226.381812 
L 206.441836 226.918125 
L 206.441836 224.524924 
L 204.956411 225.605304 
L 204.956411 224.998125 
L 202.728273 226.641468 
L 202.728273 226.030264 
L 199.757422 228.265493 
L 199.757422 227.031066 
L 199.01471 227.597771 
L 199.01471 223.804611 
L 198.271997 224.373547 
L 198.271997 223.727793 
L 196.786572 224.875572 
L 196.786572 224.225442 
L 195.301146 225.386837 
L 195.301146 224.732279 
L 193.815721 225.907599 
L 193.815721 224.585415 
L 193.073009 225.178125 
L 193.073009 219.015874 
L 190.844871 220.809034 
L 190.844871 219.388713 
L 190.102158 219.993535 
L 190.102158 219.27602 
L 188.616733 220.496933 
L 188.616733 219.773939 
L 186.388595 221.634904 
L 186.388595 220.906004 
L 185.645882 221.534341 
L 185.645882 219.31676 
L 184.90317 219.948262 
L 184.90317 216.918125 
L 183.417744 218.190852 
L 183.417744 215.071316 
L 178.218756 219.657034 
L 178.218756 218.056587 
L 176.733331 219.408162 
L 176.733331 218.598125 
L 175.990618 219.28095 
L 175.990618 218.464394 
L 174.505193 219.844441 
L 174.505193 218.190852 
L 173.76248 218.887707 
L 173.76248 218.050949 
L 171.534342 220.172179 
L 171.534342 219.327427 
L 170.79163 220.044973 
L 170.79163 214.832069 
L 169.306204 216.277161 
L 169.306204 214.480878 
L 168.563492 215.210808 
L 168.563492 213.383699 
L 167.820779 214.118125 
L 167.820779 212.259204 
L 165.592641 214.494596 
L 165.592641 213.551036 
L 164.107216 215.071316 
L 164.107216 213.156752 
L 163.364503 213.925022 
L 163.364503 211.975516 
L 162.621791 212.748693 
L 162.621791 211.76023 
L 160.393653 214.118125 
L 160.393653 212.109156 
L 159.65094 212.907314 
L 159.65094 211.888261 
L 158.908228 212.69267 
L 158.908228 211.66333 
L 155.194664 215.792891 
L 155.194664 214.749111 
L 153.709239 216.45367 
L 153.709239 215.398125 
L 152.223814 217.13351 
L 152.223814 212.800478 
L 149.995676 215.455438 
L 149.995676 213.217622 
L 149.252963 214.118125 
L 149.252963 212.981069 
L 147.024825 215.73462 
L 147.024825 214.582374 
L 145.5394 216.463675 
L 145.5394 215.297072 
L 141.825837 220.172179 
L 141.825837 218.98769 
L 141.083124 219.993535 
L 141.083124 216.358125 
L 139.597699 218.396777 
L 139.597699 217.155413 
L 137.369561 220.297435 
L 137.369561 219.038356 
L 135.884136 221.191809 
L 135.884136 219.915772 
L 135.141423 221.010433 
L 135.141423 218.410341 
L 132.170573 222.913217 
L 132.170573 220.239864 
L 128.45701 226.179663 
L 125.486159 231.212862 
L 125.486159 228.454125 
L 124.743446 229.753024 
L 124.743446 226.918125 
L 124.000734 228.233193 
L 124.000734 223.830013 
L 122.515309 226.509614 
L 122.515309 224.998125 
L 121.772596 226.365607 
L 121.772596 224.831168 
L 121.029883 226.217395 
L 121.029883 216.512018 
L 120.287171 217.908894 
L 120.287171 216.201846 
L 118.801745 219.056708 
L 118.801745 213.756835 
L 115.830895 219.718125 
L 115.088182 221.271066 
L 115.088182 219.433379 
L 112.860044 224.246821 
L 112.860044 220.461488 
L 111.374619 223.804611 
L 111.374619 221.856307 
L 110.631906 223.571336 
L 110.631906 217.499257 
L 107.661056 224.659301 
L 107.661056 222.545848 
L 105.432918 228.289554 
L 105.432918 226.126372 
L 103.947493 230.151809 
L 103.947493 227.939402 
L 103.20478 230.014899 
L 103.20478 215.662953 
L 101.719355 219.915772 
L 101.719355 214.657884 
L 99.491217 221.398125 
L 99.491217 218.654834 
L 98.748504 221.010433 
L 98.748504 218.190852 
L 98.005792 220.602336 
L 98.005792 217.702125 
L 97.263079 220.172179 
L 97.263079 217.186618 
L 95.777654 222.320942 
L 95.777654 219.238125 
L 95.034941 221.909429 
L 95.034941 215.455438 
L 93.549516 221.010433 
L 93.549516 217.618125 
L 91.321378 226.603371 
L 89.09324 236.518125 
L 89.09324 229.318125 
L 87.607815 236.518125 
L 87.607815 232.714351 
L 86.12239 240.471066 
L 86.12239 228.118125 
L 85.379677 232.228763 
L 85.379677 213.076265 
L 83.894252 221.766905 
L 83.894252 216.358125 
L 82.408826 225.907599 
L 82.408826 220.172179 
L 80.923401 230.758125 
L 79.437976 242.627216 
L 79.437976 223.078125 
L 77.952551 236.518125 
L 77.209838 243.984792 
L 77.209838 236.518125 
L 76.467125 244.582125 
L 76.467125 227.752908 
L 74.9817 246.118125 
L 74.9817 236.518125 
L 73.496275 258.918125 
L 72.01085 286.918125 
L 72.01085 196.198125 
L 71.268137 214.118125 
L 71.268137 186.118125 
L 70.525424 207.718125 
L 69.782712 236.518125 
L 69.039999 276.838125 
L 69.039999 169.318125 
L 68.297286 236.518125 
L 68.297286 34.918125 
L 67.554574 34.918125 
L 67.554574 34.918125 
" clip-path="url(#pc0af80e918)" style="fill: none; stroke: #1f77b4; stroke-width: 1.5; stroke-linecap: square"/>
   </g>
   <g id="patch_3">
    <path d="M 42.190938 299.518125 
L 42.190938 22.318125 
" style="fill: none; stroke: #000000; stroke-width: 0.8; stroke-linejoin: miter; stroke-linecap: square"/>
   </g>
   <g id="patch_4">
    <path d="M 600.190938 299.518125 
L 600.190938 22.318125 
" style="fill: none; stroke: #000000; stroke-width: 0.8; stroke-linejoin: miter; stroke-linecap: square"/>
   </g>
   <g id="patch_5">
    <path d="M 42.190938 299.518125 
L 600.190938 299.518125 
" style="fill: none; stroke: #000000; stroke-width: 0.8; stroke-linejoin: miter; stroke-linecap: square"/>
   </g>
   <g id="patch_6">
    <path d="M 42.190938 22.318125 
L 600.190938 22.318125 
" style="fill: none; stroke: #000000; stroke-width: 0.8; stroke-linejoin: miter; stroke-linecap: square"/>
   </g>
   <g id="text_16">
    <!-- supervised_up PR Curve -->
    <g transform="translate(248.536563 16.318125) scale(0.12 -0.12)">
     <defs>
      <path id="DejaVuSans-75" d="M 544 1381 
L 544 3500 
L 1119 3500 
L 1119 1403 
Q 1119 906 1312 657 
Q 1506 409 1894 409 
Q 2359 409 2629 706 
Q 2900 1003 2900 1516 
L 2900 3500 
L 3475 3500 
L 3475 0 
L 2900 0 
L 2900 538 
Q 2691 219 2414 64 
Q 2138 -91 1772 -91 
Q 1169 -91 856 284 
Q 544 659 544 1381 
z
M 1991 3584 
L 1991 3584 
z
" transform="scale(0.015625)"/>
      <path id="DejaVuSans-70" d="M 1159 525 
L 1159 -1331 
L 581 -1331 
L 581 3500 
L 1159 3500 
L 1159 2969 
Q 1341 3281 1617 3432 
Q 1894 3584 2278 3584 
Q 2916 3584 3314 3078 
Q 3713 2572 3713 1747 
Q 3713 922 3314 415 
Q 2916 -91 2278 -91 
Q 1894 -91 1617 61 
Q 1341 213 1159 525 
z
M 3116 1747 
Q 3116 2381 2855 2742 
Q 2594 3103 2138 3103 
Q 1681 3103 1420 2742 
Q 1159 2381 1159 1747 
Q 1159 1113 1420 752 
Q 1681 391 2138 391 
Q 2594 391 2855 752 
Q 3116 1113 3116 1747 
z
" transform="scale(0.015625)"/>
      <path id="DejaVuSans-76" d="M 191 3500 
L 800 3500 
L 1894 563 
L 2988 3500 
L 3597 3500 
L 2284 0 
L 1503 0 
L 191 3500 
z
" transform="scale(0.015625)"/>
      <path id="DejaVuSans-64" d="M 2906 2969 
L 2906 4863 
L 3481 4863 
L 3481 0 
L 2906 0 
L 2906 525 
Q 2725 213 2448 61 
Q 2172 -91 1784 -91 
Q 1150 -91 751 415 
Q 353 922 353 1747 
Q 353 2572 751 3078 
Q 1150 3584 1784 3584 
Q 2172 3584 2448 3432 
Q 2725 3281 2906 2969 
z
M 947 1747 
Q 947 1113 1208 752 
Q 1469 391 1925 391 
Q 2381 391 2643 752 
Q 2906 1113 2906 1747 
Q 2906 2381 2643 2742 
Q 2381 3103 1925 3103 
Q 1469 3103 1208 2742 
Q 947 2381 947 1747 
z
" transform="scale(0.015625)"/>
      <path id="DejaVuSans-5f" d="M 3263 -1063 
L 3263 -1509 
L -63 -1509 
L -63 -1063 
L 3263 -1063 
z
" transform="scale(0.015625)"/>
      <path id="DejaVuSans-20" transform="scale(0.015625)"/>
      <path id="DejaVuSans-43" d="M 4122 4306 
L 4122 3641 
Q 3803 3938 3442 4084 
Q 3081 4231 2675 4231 
Q 1875 4231 1450 3742 
Q 1025 3253 1025 2328 
Q 1025 1406 1450 917 
Q 1875 428 2675 428 
Q 3081 428 3442 575 
Q 3803 722 4122 1019 
L 4122 359 
Q 3791 134 3420 21 
Q 3050 -91 2638 -91 
Q 1578 -91 968 557 
Q 359 1206 359 2328 
Q 359 3453 968 4101 
Q 1578 4750 2638 4750 
Q 3056 4750 3426 4639 
Q 3797 4528 4122 4306 
z
" transform="scale(0.015625)"/>
     </defs>
     <use xlink:href="#DejaVuSans-73"/>
     <use xlink:href="#DejaVuSans-75" transform="translate(52.099609 0)"/>
     <use xlink:href="#DejaVuSans-70" transform="translate(115.478516 0)"/>
     <use xlink:href="#DejaVuSans-65" transform="translate(178.955078 0)"/>
     <use xlink:href="#DejaVuSans-72" transform="translate(240.478516 0)"/>
     <use xlink:href="#DejaVuSans-76" transform="translate(281.591797 0)"/>
     <use xlink:href="#DejaVuSans-69" transform="translate(340.771484 0)"/>
     <use xlink:href="#DejaVuSans-73" transform="translate(368.554688 0)"/>
     <use xlink:href="#DejaVuSans-65" transform="translate(420.654297 0)"/>
     <use xlink:href="#DejaVuSans-64" transform="translate(482.177734 0)"/>
     <use xlink:href="#DejaVuSans-5f" transform="translate(545.654297 0)"/>
     <use xlink:href="#DejaVuSans-75" transform="translate(595.654297 0)"/>
     <use xlink:href="#DejaVuSans-70" transform="translate(659.033203 0)"/>
     <use xlink:href="#DejaVuSans-20" transform="translate(722.509766 0)"/>
     <use xlink:href="#DejaVuSans-50" transform="translate(754.296875 0)"/>
     <use xlink:href="#DejaVuSans-52" transform="translate(814.599609 0)"/>
     <use xlink:href="#DejaVuSans-20" transform="translate(884.082031 0)"/>
     <use xlink:href="#DejaVuSans-43" transform="translate(915.869141 0)"/>
     <use xlink:href="#DejaVuSans-75" transform="translate(985.693359 0)"/>
     <use xlink:href="#DejaVuSans-72" transform="translate(1049.072266 0)"/>
     <use xlink:href="#DejaVuSans-76" transform="translate(1090.185547 0)"/>
     <use xlink:href="#DejaVuSans-65" transform="translate(1149.365234 0)"/>
    </g>
   </g>
   <g id="legend_1">
    <g id="patch_7">
     <path d="M 520.200625 42.728438 
L 593.890938 42.728438 
Q 595.690938 42.728438 595.690938 40.928438 
L 595.690938 28.618125 
Q 595.690938 26.818125 593.890938 26.818125 
L 520.200625 26.818125 
Q 518.400625 26.818125 518.400625 28.618125 
L 518.400625 40.928438 
Q 518.400625 42.728438 520.200625 42.728438 
z
" style="fill: #ffffff; opacity: 0.8; stroke: #cccccc; stroke-linejoin: miter"/>
    </g>
    <g id="line2d_28">
     <path d="M 522.000625 34.106719 
L 531.000625 34.106719 
L 540.000625 34.106719 
" style="fill: none; stroke: #1f77b4; stroke-width: 1.5; stroke-linecap: square"/>
    </g>
    <g id="text_17">
     <!-- AP=0.520 -->
     <g transform="translate(547.200625 37.256719) scale(0.09 -0.09)">
      <defs>
       <path id="DejaVuSans-41" d="M 2188 4044 
L 1331 1722 
L 3047 1722 
L 2188 4044 
z
M 1831 4666 
L 2547 4666 
L 4325 0 
L 3669 0 
L 3244 1197 
L 1141 1197 
L 716 0 
L 50 0 
L 1831 4666 
z
" transform="scale(0.015625)"/>
       <path id="DejaVuSans-3d" d="M 678 2906 
L 4684 2906 
L 4684 2381 
L 678 2381 
L 678 2906 
z
M 678 1631 
L 4684 1631 
L 4684 1100 
L 678 1100 
L 678 1631 
z
" transform="scale(0.015625)"/>
      </defs>
      <use xlink:href="#DejaVuSans-41"/>
      <use xlink:href="#DejaVuSans-50" transform="translate(68.408203 0)"/>
      <use xlink:href="#DejaVuSans-3d" transform="translate(128.710938 0)"/>
      <use xlink:href="#DejaVuSans-30" transform="translate(212.5 0)"/>
      <use xlink:href="#DejaVuSans-2e" transform="translate(276.123047 0)"/>
      <use xlink:href="#DejaVuSans-35" transform="translate(307.910156 0)"/>
      <use xlink:href="#DejaVuSans-32" transform="translate(371.533203 0)"/>
      <use xlink:href="#DejaVuSans-30" transform="translate(435.15625 0)"/>
     </g>
    </g>
   </g>
  </g>
 </g>
 <defs>
  <clipPath id="pc0af80e918">
   <rect x="42.190938" y="22.318125" width="558" height="277.2"/>
  </clipPath>
 </defs>
</svg>
