<?xml version="1.0" encoding="utf-8" standalone="no"?>
<!DOCTYPE svg PUBLIC "-//W3C//DTD SVG 1.1//EN"
  "http://www.w3.org/Graphics/SVG/1.1/DTD/svg11.dtd">
<svg xmlns:xlink="http://www.w3.org/1999/xlink" width="607.390937pt" height="336.106563pt" viewBox="0 0 607.390937 336.106563" xmlns="http://www.w3.org/2000/svg" version="1.1">
 <metadata>
  <rdf:RDF xmlns:dc="http://purl.org/dc/elements/1.1/" xmlns:cc="http://creativecommons.org/ns#" xmlns:rdf="http://www.w3.org/1999/02/22-rdf-syntax-ns#">
   <cc:Work>
    <dc:type rdf:resource="http://purl.org/dc/dcmitype/StillImage"/>
    <dc:date>2026-01-07T23:13:59.166196</dc:date>
    <dc:format>image/svg+xml</dc:format>
    <dc:creator>
     <cc:Agent>
      <dc:title>Matplotlib v3.10.8, https://matplotlib.org/</dc:title>
     </cc:Agent>
    </dc:creator>
   </cc:Work>
  </rdf:RDF>
 </metadata>
 <defs>
  <style type="text/css">*{stroke-linejoin: round; stroke-linecap: butt}</style>
 </defs>
 <g id="figure_1">
  <g id="patch_1">
   <path d="M 0 336.106563 
L 607.390937 336.106563 
L 607.390937 0 
L 0 0 
z
" style="fill: #ffffff"/>
  </g>
  <g id="axes_1">
   <g id="patch_2">
    <path d="M 42.190938 299.518125 
L 600.190938 299.518125 
L 600.190938 22.318125 
L 42.190938 22.318125 
z
" style="fill: #ffffff"/>
   </g>
   <g id="matplotlib.axis_1">
    <g id="xtick_1">
     <g id="line2d_1">
      <path d="M 67.554574 299.518125 
L 67.554574 22.318125 
" clip-path="url(#pa8f5816b58)" style="fill: none; stroke: #b0b0b0; stroke-opacity: 0.3; stroke-width: 0.8; stroke-linecap: square"/>
     </g>
     <g id="line2d_2">
      <defs>
       <path id="m9718d72d02" d="M 0 0 
L 0 3.5 
" style="stroke: #000000; stroke-width: 0.8"/>
      </defs>
      <g>
       <use xlink:href="#m9718d72d02" x="67.554574" y="299.518125" style="stroke: #000000; stroke-width: 0.8"/>
      </g>
     </g>
     <g id="text_1">
      <!-- 0.0 -->
      <g transform="translate(60.398168 313.356719) scale(0.09 -0.09)">
       <defs>
        <path id="DejaVuSans-30" d="M 2034 4250 
Q 1547 4250 1301 3770 
Q 1056 3291 1056 2328 
Q 1056 1369 1301 889 
Q 1547 409 2034 409 
Q 2525 409 2770 889 
Q 3016 1369 3016 2328 
Q 3016 3291 2770 3770 
Q 2525 4250 2034 4250 
z
M 2034 4750 
Q 2819 4750 3233 4129 
Q 3647 3509 3647 2328 
Q 3647 1150 3233 529 
Q 2819 -91 2034 -91 
Q 1250 -91 836 529 
Q 422 1150 422 2328 
Q 422 3509 836 4129 
Q 1250 4750 2034 4750 
z
" transform="scale(0.015625)"/>
        <path id="DejaVuSans-2e" d="M 684 794 
L 1344 794 
L 1344 0 
L 684 0 
L 684 794 
z
" transform="scale(0.015625)"/>
       </defs>
       <use xlink:href="#DejaVuSans-30"/>
       <use xlink:href="#DejaVuSans-2e" transform="translate(63.623047 0)"/>
       <use xlink:href="#DejaVuSans-30" transform="translate(95.410156 0)"/>
      </g>
     </g>
    </g>
    <g id="xtick_2">
     <g id="line2d_3">
      <path d="M 169.009119 299.518125 
L 169.009119 22.318125 
" clip-path="url(#pa8f5816b58)" style="fill: none; stroke: #b0b0b0; stroke-opacity: 0.3; stroke-width: 0.8; stroke-linecap: square"/>
     </g>
     <g id="line2d_4">
      <g>
       <use xlink:href="#m9718d72d02" x="169.009119" y="299.518125" style="stroke: #000000; stroke-width: 0.8"/>
      </g>
     </g>
     <g id="text_2">
      <!-- 0.2 -->
      <g transform="translate(161.852713 313.356719) scale(0.09 -0.09)">
       <defs>
        <path id="DejaVuSans-32" d="M 1228 531 
L 3431 531 
L 3431 0 
L 469 0 
L 469 531 
Q 828 903 1448 1529 
Q 2069 2156 2228 2338 
Q 2531 2678 2651 2914 
Q 2772 3150 2772 3378 
Q 2772 3750 2511 3984 
Q 2250 4219 1831 4219 
Q 1534 4219 1204 4116 
Q 875 4013 500 3803 
L 500 4441 
Q 881 4594 1212 4672 
Q 1544 4750 1819 4750 
Q 2544 4750 2975 4387 
Q 3406 4025 3406 3419 
Q 3406 3131 3298 2873 
Q 3191 2616 2906 2266 
Q 2828 2175 2409 1742 
Q 1991 1309 1228 531 
z
" transform="scale(0.015625)"/>
       </defs>
       <use xlink:href="#DejaVuSans-30"/>
       <use xlink:href="#DejaVuSans-2e" transform="translate(63.623047 0)"/>
       <use xlink:href="#DejaVuSans-32" transform="translate(95.410156 0)"/>
      </g>
     </g>
    </g>
    <g id="xtick_3">
     <g id="line2d_5">
      <path d="M 270.463665 299.518125 
L 270.463665 22.318125 
" clip-path="url(#pa8f5816b58)" style="fill: none; stroke: #b0b0b0; stroke-opacity: 0.3; stroke-width: 0.8; stroke-linecap: square"/>
     </g>
     <g id="line2d_6">
      <g>
       <use xlink:href="#m9718d72d02" x="270.463665" y="299.518125" style="stroke: #000000; stroke-width: 0.8"/>
      </g>
     </g>
     <g id="text_3">
      <!-- 0.4 -->
      <g transform="translate(263.307259 313.356719) scale(0.09 -0.09)">
       <defs>
        <path id="DejaVuSans-34" d="M 2419 4116 
L 825 1625 
L 2419 1625 
L 2419 4116 
z
M 2253 4666 
L 3047 4666 
L 3047 1625 
L 3713 1625 
L 3713 1100 
L 3047 1100 
L 3047 0 
L 2419 0 
L 2419 1100 
L 313 1100 
L 313 1709 
L 2253 4666 
z
" transform="scale(0.015625)"/>
       </defs>
       <use xlink:href="#DejaVuSans-30"/>
       <use xlink:href="#DejaVuSans-2e" transform="translate(63.623047 0)"/>
       <use xlink:href="#DejaVuSans-34" transform="translate(95.410156 0)"/>
      </g>
     </g>
    </g>
    <g id="xtick_4">
     <g id="line2d_7">
      <path d="M 371.91821 299.518125 
L 371.91821 22.318125 
" clip-path="url(#pa8f5816b58)" style="fill: none; stroke: #b0b0b0; stroke-opacity: 0.3; stroke-width: 0.8; stroke-linecap: square"/>
     </g>
     <g id="line2d_8">
      <g>
       <use xlink:href="#m9718d72d02" x="371.91821" y="299.518125" style="stroke: #000000; stroke-width: 0.8"/>
      </g>
     </g>
     <g id="text_4">
      <!-- 0.6 -->
      <g transform="translate(364.761804 313.356719) scale(0.09 -0.09)">
       <defs>
        <path id="DejaVuSans-36" d="M 2113 2584 
Q 1688 2584 1439 2293 
Q 1191 2003 1191 1497 
Q 1191 994 1439 701 
Q 1688 409 2113 409 
Q 2538 409 2786 701 
Q 3034 994 3034 1497 
Q 3034 2003 2786 2293 
Q 2538 2584 2113 2584 
z
M 3366 4563 
L 3366 3988 
Q 3128 4100 2886 4159 
Q 2644 4219 2406 4219 
Q 1781 4219 1451 3797 
Q 1122 3375 1075 2522 
Q 1259 2794 1537 2939 
Q 1816 3084 2150 3084 
Q 2853 3084 3261 2657 
Q 3669 2231 3669 1497 
Q 3669 778 3244 343 
Q 2819 -91 2113 -91 
Q 1303 -91 875 529 
Q 447 1150 447 2328 
Q 447 3434 972 4092 
Q 1497 4750 2381 4750 
Q 2619 4750 2861 4703 
Q 3103 4656 3366 4563 
z
" transform="scale(0.015625)"/>
       </defs>
       <use xlink:href="#DejaVuSans-30"/>
       <use xlink:href="#DejaVuSans-2e" transform="translate(63.623047 0)"/>
       <use xlink:href="#DejaVuSans-36" transform="translate(95.410156 0)"/>
      </g>
     </g>
    </g>
    <g id="xtick_5">
     <g id="line2d_9">
      <path d="M 473.372756 299.518125 
L 473.372756 22.318125 
" clip-path="url(#pa8f5816b58)" style="fill: none; stroke: #b0b0b0; stroke-opacity: 0.3; stroke-width: 0.8; stroke-linecap: square"/>
     </g>
     <g id="line2d_10">
      <g>
       <use xlink:href="#m9718d72d02" x="473.372756" y="299.518125" style="stroke: #000000; stroke-width: 0.8"/>
      </g>
     </g>
     <g id="text_5">
      <!-- 0.8 -->
      <g transform="translate(466.216349 313.356719) scale(0.09 -0.09)">
       <defs>
        <path id="DejaVuSans-38" d="M 2034 2216 
Q 1584 2216 1326 1975 
Q 1069 1734 1069 1313 
Q 1069 891 1326 650 
Q 1584 409 2034 409 
Q 2484 409 2743 651 
Q 3003 894 3003 1313 
Q 3003 1734 2745 1975 
Q 2488 2216 2034 2216 
z
M 1403 2484 
Q 997 2584 770 2862 
Q 544 3141 544 3541 
Q 544 4100 942 4425 
Q 1341 4750 2034 4750 
Q 2731 4750 3128 4425 
Q 3525 4100 3525 3541 
Q 3525 3141 3298 2862 
Q 3072 2584 2669 2484 
Q 3125 2378 3379 2068 
Q 3634 1759 3634 1313 
Q 3634 634 3220 271 
Q 2806 -91 2034 -91 
Q 1263 -91 848 271 
Q 434 634 434 1313 
Q 434 1759 690 2068 
Q 947 2378 1403 2484 
z
M 1172 3481 
Q 1172 3119 1398 2916 
Q 1625 2713 2034 2713 
Q 2441 2713 2670 2916 
Q 2900 3119 2900 3481 
Q 2900 3844 2670 4047 
Q 2441 4250 2034 4250 
Q 1625 4250 1398 4047 
Q 1172 3844 1172 3481 
z
" transform="scale(0.015625)"/>
       </defs>
       <use xlink:href="#DejaVuSans-30"/>
       <use xlink:href="#DejaVuSans-2e" transform="translate(63.623047 0)"/>
       <use xlink:href="#DejaVuSans-38" transform="translate(95.410156 0)"/>
      </g>
     </g>
    </g>
    <g id="xtick_6">
     <g id="line2d_11">
      <path d="M 574.827301 299.518125 
L 574.827301 22.318125 
" clip-path="url(#pa8f5816b58)" style="fill: none; stroke: #b0b0b0; stroke-opacity: 0.3; stroke-width: 0.8; stroke-linecap: square"/>
     </g>
     <g id="line2d_12">
      <g>
       <use xlink:href="#m9718d72d02" x="574.827301" y="299.518125" style="stroke: #000000; stroke-width: 0.8"/>
      </g>
     </g>
     <g id="text_6">
      <!-- 1.0 -->
      <g transform="translate(567.670895 313.356719) scale(0.09 -0.09)">
       <defs>
        <path id="DejaVuSans-31" d="M 794 531 
L 1825 531 
L 1825 4091 
L 703 3866 
L 703 4441 
L 1819 4666 
L 2450 4666 
L 2450 531 
L 3481 531 
L 3481 0 
L 794 0 
L 794 531 
z
" transform="scale(0.015625)"/>
       </defs>
       <use xlink:href="#DejaVuSans-31"/>
       <use xlink:href="#DejaVuSans-2e" transform="translate(63.623047 0)"/>
       <use xlink:href="#DejaVuSans-30" transform="translate(95.410156 0)"/>
      </g>
     </g>
    </g>
    <g id="text_7">
     <!-- False Positive Rate -->
     <g transform="translate(274.724531 326.826875) scale(0.1 -0.1)">
      <defs>
       <path id="DejaVuSans-46" d="M 628 4666 
L 3309 4666 
L 3309 4134 
L 1259 4134 
L 1259 2759 
L 3109 2759 
L 3109 2228 
L 1259 2228 
L 1259 0 
L 628 0 
L 628 4666 
z
" transform="scale(0.015625)"/>
       <path id="DejaVuSans-61" d="M 2194 1759 
Q 1497 1759 1228 1600 
Q 959 1441 959 1056 
Q 959 750 1161 570 
Q 1363 391 1709 391 
Q 2188 391 2477 730 
Q 2766 1069 2766 1631 
L 2766 1759 
L 2194 1759 
z
M 3341 1997 
L 3341 0 
L 2766 0 
L 2766 531 
Q 2569 213 2275 61 
Q 1981 -91 1556 -91 
Q 1019 -91 701 211 
Q 384 513 384 1019 
Q 384 1609 779 1909 
Q 1175 2209 1959 2209 
L 2766 2209 
L 2766 2266 
Q 2766 2663 2505 2880 
Q 2244 3097 1772 3097 
Q 1472 3097 1187 3025 
Q 903 2953 641 2809 
L 641 3341 
Q 956 3463 1253 3523 
Q 1550 3584 1831 3584 
Q 2591 3584 2966 3190 
Q 3341 2797 3341 1997 
z
" transform="scale(0.015625)"/>
       <path id="DejaVuSans-6c" d="M 603 4863 
L 1178 4863 
L 1178 0 
L 603 0 
L 603 4863 
z
" transform="scale(0.015625)"/>
       <path id="DejaVuSans-73" d="M 2834 3397 
L 2834 2853 
Q 2591 2978 2328 3040 
Q 2066 3103 1784 3103 
Q 1356 3103 1142 2972 
Q 928 2841 928 2578 
Q 928 2378 1081 2264 
Q 1234 2150 1697 2047 
L 1894 2003 
Q 2506 1872 2764 1633 
Q 3022 1394 3022 966 
Q 3022 478 2636 193 
Q 2250 -91 1575 -91 
Q 1294 -91 989 -36 
Q 684 19 347 128 
L 347 722 
Q 666 556 975 473 
Q 1284 391 1588 391 
Q 1994 391 2212 530 
Q 2431 669 2431 922 
Q 2431 1156 2273 1281 
Q 2116 1406 1581 1522 
L 1381 1569 
Q 847 1681 609 1914 
Q 372 2147 372 2553 
Q 372 3047 722 3315 
Q 1072 3584 1716 3584 
Q 2034 3584 2315 3537 
Q 2597 3491 2834 3397 
z
" transform="scale(0.015625)"/>
       <path id="DejaVuSans-65" d="M 3597 1894 
L 3597 1613 
L 953 1613 
Q 991 1019 1311 708 
Q 1631 397 2203 397 
Q 2534 397 2845 478 
Q 3156 559 3463 722 
L 3463 178 
Q 3153 47 2828 -22 
Q 2503 -91 2169 -91 
Q 1331 -91 842 396 
Q 353 884 353 1716 
Q 353 2575 817 3079 
Q 1281 3584 2069 3584 
Q 2775 3584 3186 3129 
Q 3597 2675 3597 1894 
z
M 3022 2063 
Q 3016 2534 2758 2815 
Q 2500 3097 2075 3097 
Q 1594 3097 1305 2825 
Q 1016 2553 972 2059 
L 3022 2063 
z
" transform="scale(0.015625)"/>
       <path id="DejaVuSans-20" transform="scale(0.015625)"/>
       <path id="DejaVuSans-50" d="M 1259 4147 
L 1259 2394 
L 2053 2394 
Q 2494 2394 2734 2622 
Q 2975 2850 2975 3272 
Q 2975 3691 2734 3919 
Q 2494 4147 2053 4147 
L 1259 4147 
z
M 628 4666 
L 2053 4666 
Q 2838 4666 3239 4311 
Q 3641 3956 3641 3272 
Q 3641 2581 3239 2228 
Q 2838 1875 2053 1875 
L 1259 1875 
L 1259 0 
L 628 0 
L 628 4666 
z
" transform="scale(0.015625)"/>
       <path id="DejaVuSans-6f" d="M 1959 3097 
Q 1497 3097 1228 2736 
Q 959 2375 959 1747 
Q 959 1119 1226 758 
Q 1494 397 1959 397 
Q 2419 397 2687 759 
Q 2956 1122 2956 1747 
Q 2956 2369 2687 2733 
Q 2419 3097 1959 3097 
z
M 1959 3584 
Q 2709 3584 3137 3096 
Q 3566 2609 3566 1747 
Q 3566 888 3137 398 
Q 2709 -91 1959 -91 
Q 1206 -91 779 398 
Q 353 888 353 1747 
Q 353 2609 779 3096 
Q 1206 3584 1959 3584 
z
" transform="scale(0.015625)"/>
       <path id="DejaVuSans-69" d="M 603 3500 
L 1178 3500 
L 1178 0 
L 603 0 
L 603 3500 
z
M 603 4863 
L 1178 4863 
L 1178 4134 
L 603 4134 
L 603 4863 
z
" transform="scale(0.015625)"/>
       <path id="DejaVuSans-74" d="M 1172 4494 
L 1172 3500 
L 2356 3500 
L 2356 3053 
L 1172 3053 
L 1172 1153 
Q 1172 725 1289 603 
Q 1406 481 1766 481 
L 2356 481 
L 2356 0 
L 1766 0 
Q 1100 0 847 248 
Q 594 497 594 1153 
L 594 3053 
L 172 3053 
L 172 3500 
L 594 3500 
L 594 4494 
L 1172 4494 
z
" transform="scale(0.015625)"/>
       <path id="DejaVuSans-76" d="M 191 3500 
L 800 3500 
L 1894 563 
L 2988 3500 
L 3597 3500 
L 2284 0 
L 1503 0 
L 191 3500 
z
" transform="scale(0.015625)"/>
       <path id="DejaVuSans-52" d="M 2841 2188 
Q 3044 2119 3236 1894 
Q 3428 1669 3622 1275 
L 4263 0 
L 3584 0 
L 2988 1197 
Q 2756 1666 2539 1819 
Q 2322 1972 1947 1972 
L 1259 1972 
L 1259 0 
L 628 0 
L 628 4666 
L 2053 4666 
Q 2853 4666 3247 4331 
Q 3641 3997 3641 3322 
Q 3641 2881 3436 2590 
Q 3231 2300 2841 2188 
z
M 1259 4147 
L 1259 2491 
L 2053 2491 
Q 2509 2491 2742 2702 
Q 2975 2913 2975 3322 
Q 2975 3731 2742 3939 
Q 2509 4147 2053 4147 
L 1259 4147 
z
" transform="scale(0.015625)"/>
      </defs>
      <use xlink:href="#DejaVuSans-46"/>
      <use xlink:href="#DejaVuSans-61" transform="translate(48.394531 0)"/>
      <use xlink:href="#DejaVuSans-6c" transform="translate(109.673828 0)"/>
      <use xlink:href="#DejaVuSans-73" transform="translate(137.457031 0)"/>
      <use xlink:href="#DejaVuSans-65" transform="translate(189.556641 0)"/>
      <use xlink:href="#DejaVuSans-20" transform="translate(251.080078 0)"/>
      <use xlink:href="#DejaVuSans-50" transform="translate(282.867188 0)"/>
      <use xlink:href="#DejaVuSans-6f" transform="translate(339.544922 0)"/>
      <use xlink:href="#DejaVuSans-73" transform="translate(400.726562 0)"/>
      <use xlink:href="#DejaVuSans-69" transform="translate(452.826172 0)"/>
      <use xlink:href="#DejaVuSans-74" transform="translate(480.609375 0)"/>
      <use xlink:href="#DejaVuSans-69" transform="translate(519.818359 0)"/>
      <use xlink:href="#DejaVuSans-76" transform="translate(547.601562 0)"/>
      <use xlink:href="#DejaVuSans-65" transform="translate(606.78125 0)"/>
      <use xlink:href="#DejaVuSans-20" transform="translate(668.304688 0)"/>
      <use xlink:href="#DejaVuSans-52" transform="translate(700.091797 0)"/>
      <use xlink:href="#DejaVuSans-61" transform="translate(767.324219 0)"/>
      <use xlink:href="#DejaVuSans-74" transform="translate(828.603516 0)"/>
      <use xlink:href="#DejaVuSans-65" transform="translate(867.8125 0)"/>
     </g>
    </g>
   </g>
   <g id="matplotlib.axis_2">
    <g id="ytick_1">
     <g id="line2d_13">
      <path d="M 42.190938 286.918125 
L 600.190938 286.918125 
" clip-path="url(#pa8f5816b58)" style="fill: none; stroke: #b0b0b0; stroke-opacity: 0.3; stroke-width: 0.8; stroke-linecap: square"/>
     </g>
     <g id="line2d_14">
      <defs>
       <path id="mda988b272b" d="M 0 0 
L -3.5 0 
" style="stroke: #000000; stroke-width: 0.8"/>
      </defs>
      <g>
       <use xlink:href="#mda988b272b" x="42.190938" y="286.918125" style="stroke: #000000; stroke-width: 0.8"/>
      </g>
     </g>
     <g id="text_8">
      <!-- 0.0 -->
      <g transform="translate(20.878125 290.337422) scale(0.09 -0.09)">
       <use xlink:href="#DejaVuSans-30"/>
       <use xlink:href="#DejaVuSans-2e" transform="translate(63.623047 0)"/>
       <use xlink:href="#DejaVuSans-30" transform="translate(95.410156 0)"/>
      </g>
     </g>
    </g>
    <g id="ytick_2">
     <g id="line2d_15">
      <path d="M 42.190938 236.518125 
L 600.190938 236.518125 
" clip-path="url(#pa8f5816b58)" style="fill: none; stroke: #b0b0b0; stroke-opacity: 0.3; stroke-width: 0.8; stroke-linecap: square"/>
     </g>
     <g id="line2d_16">
      <g>
       <use xlink:href="#mda988b272b" x="42.190938" y="236.518125" style="stroke: #000000; stroke-width: 0.8"/>
      </g>
     </g>
     <g id="text_9">
      <!-- 0.2 -->
      <g transform="translate(20.878125 239.937422) scale(0.09 -0.09)">
       <use xlink:href="#DejaVuSans-30"/>
       <use xlink:href="#DejaVuSans-2e" transform="translate(63.623047 0)"/>
       <use xlink:href="#DejaVuSans-32" transform="translate(95.410156 0)"/>
      </g>
     </g>
    </g>
    <g id="ytick_3">
     <g id="line2d_17">
      <path d="M 42.190938 186.118125 
L 600.190938 186.118125 
" clip-path="url(#pa8f5816b58)" style="fill: none; stroke: #b0b0b0; stroke-opacity: 0.3; stroke-width: 0.8; stroke-linecap: square"/>
     </g>
     <g id="line2d_18">
      <g>
       <use xlink:href="#mda988b272b" x="42.190938" y="186.118125" style="stroke: #000000; stroke-width: 0.8"/>
      </g>
     </g>
     <g id="text_10">
      <!-- 0.4 -->
      <g transform="translate(20.878125 189.537422) scale(0.09 -0.09)">
       <use xlink:href="#DejaVuSans-30"/>
       <use xlink:href="#DejaVuSans-2e" transform="translate(63.623047 0)"/>
       <use xlink:href="#DejaVuSans-34" transform="translate(95.410156 0)"/>
      </g>
     </g>
    </g>
    <g id="ytick_4">
     <g id="line2d_19">
      <path d="M 42.190938 135.718125 
L 600.190938 135.718125 
" clip-path="url(#pa8f5816b58)" style="fill: none; stroke: #b0b0b0; stroke-opacity: 0.3; stroke-width: 0.8; stroke-linecap: square"/>
     </g>
     <g id="line2d_20">
      <g>
       <use xlink:href="#mda988b272b" x="42.190938" y="135.718125" style="stroke: #000000; stroke-width: 0.8"/>
      </g>
     </g>
     <g id="text_11">
      <!-- 0.6 -->
      <g transform="translate(20.878125 139.137422) scale(0.09 -0.09)">
       <use xlink:href="#DejaVuSans-30"/>
       <use xlink:href="#DejaVuSans-2e" transform="translate(63.623047 0)"/>
       <use xlink:href="#DejaVuSans-36" transform="translate(95.410156 0)"/>
      </g>
     </g>
    </g>
    <g id="ytick_5">
     <g id="line2d_21">
      <path d="M 42.190938 85.318125 
L 600.190938 85.318125 
" clip-path="url(#pa8f5816b58)" style="fill: none; stroke: #b0b0b0; stroke-opacity: 0.3; stroke-width: 0.8; stroke-linecap: square"/>
     </g>
     <g id="line2d_22">
      <g>
       <use xlink:href="#mda988b272b" x="42.190938" y="85.318125" style="stroke: #000000; stroke-width: 0.8"/>
      </g>
     </g>
     <g id="text_12">
      <!-- 0.8 -->
      <g transform="translate(20.878125 88.737422) scale(0.09 -0.09)">
       <use xlink:href="#DejaVuSans-30"/>
       <use xlink:href="#DejaVuSans-2e" transform="translate(63.623047 0)"/>
       <use xlink:href="#DejaVuSans-38" transform="translate(95.410156 0)"/>
      </g>
     </g>
    </g>
    <g id="ytick_6">
     <g id="line2d_23">
      <path d="M 42.190938 34.918125 
L 600.190938 34.918125 
" clip-path="url(#pa8f5816b58)" style="fill: none; stroke: #b0b0b0; stroke-opacity: 0.3; stroke-width: 0.8; stroke-linecap: square"/>
     </g>
     <g id="line2d_24">
      <g>
       <use xlink:href="#mda988b272b" x="42.190938" y="34.918125" style="stroke: #000000; stroke-width: 0.8"/>
      </g>
     </g>
     <g id="text_13">
      <!-- 1.0 -->
      <g transform="translate(20.878125 38.337422) scale(0.09 -0.09)">
       <use xlink:href="#DejaVuSans-31"/>
       <use xlink:href="#DejaVuSans-2e" transform="translate(63.623047 0)"/>
       <use xlink:href="#DejaVuSans-30" transform="translate(95.410156 0)"/>
      </g>
     </g>
    </g>
    <g id="text_14">
     <!-- True Positive Rate -->
     <g transform="translate(14.798438 205.447813) rotate(-90) scale(0.1 -0.1)">
      <defs>
       <path id="DejaVuSans-54" d="M -19 4666 
L 3928 4666 
L 3928 4134 
L 2272 4134 
L 2272 0 
L 1638 0 
L 1638 4134 
L -19 4134 
L -19 4666 
z
" transform="scale(0.015625)"/>
       <path id="DejaVuSans-72" d="M 2631 2963 
Q 2534 3019 2420 3045 
Q 2306 3072 2169 3072 
Q 1681 3072 1420 2755 
Q 1159 2438 1159 1844 
L 1159 0 
L 581 0 
L 581 3500 
L 1159 3500 
L 1159 2956 
Q 1341 3275 1631 3429 
Q 1922 3584 2338 3584 
Q 2397 3584 2469 3576 
Q 2541 3569 2628 3553 
L 2631 2963 
z
" transform="scale(0.015625)"/>
       <path id="DejaVuSans-75" d="M 544 1381 
L 544 3500 
L 1119 3500 
L 1119 1403 
Q 1119 906 1312 657 
Q 1506 409 1894 409 
Q 2359 409 2629 706 
Q 2900 1003 2900 1516 
L 2900 3500 
L 3475 3500 
L 3475 0 
L 2900 0 
L 2900 538 
Q 2691 219 2414 64 
Q 2138 -91 1772 -91 
Q 1169 -91 856 284 
Q 544 659 544 1381 
z
M 1991 3584 
L 1991 3584 
z
" transform="scale(0.015625)"/>
      </defs>
      <use xlink:href="#DejaVuSans-54"/>
      <use xlink:href="#DejaVuSans-72" transform="translate(46.333984 0)"/>
      <use xlink:href="#DejaVuSans-75" transform="translate(87.447266 0)"/>
      <use xlink:href="#DejaVuSans-65" transform="translate(150.826172 0)"/>
      <use xlink:href="#DejaVuSans-20" transform="translate(212.349609 0)"/>
      <use xlink:href="#DejaVuSans-50" transform="translate(244.136719 0)"/>
      <use xlink:href="#DejaVuSans-6f" transform="translate(300.814453 0)"/>
      <use xlink:href="#DejaVuSans-73" transform="translate(361.996094 0)"/>
      <use xlink:href="#DejaVuSans-69" transform="translate(414.095703 0)"/>
      <use xlink:href="#DejaVuSans-74" transform="translate(441.878906 0)"/>
      <use xlink:href="#DejaVuSans-69" transform="translate(481.087891 0)"/>
      <use xlink:href="#DejaVuSans-76" transform="translate(508.871094 0)"/>
      <use xlink:href="#DejaVuSans-65" transform="translate(568.050781 0)"/>
      <use xlink:href="#DejaVuSans-20" transform="translate(629.574219 0)"/>
      <use xlink:href="#DejaVuSans-52" transform="translate(661.361328 0)"/>
      <use xlink:href="#DejaVuSans-61" transform="translate(728.59375 0)"/>
      <use xlink:href="#DejaVuSans-74" transform="translate(789.873047 0)"/>
      <use xlink:href="#DejaVuSans-65" transform="translate(829.082031 0)"/>
     </g>
    </g>
   </g>
   <g id="line2d_25">
    <path d="M 67.554574 286.918125 
L 67.554574 286.140347 
L 69.03135 286.140347 
L 69.03135 285.751458 
L 71.246515 285.751458 
L 71.246515 285.362569 
L 72.723292 285.362569 
L 72.723292 284.584792 
L 73.46168 284.584792 
L 73.46168 283.807014 
L 74.938456 283.807014 
L 74.938456 283.029236 
L 77.892009 283.029236 
L 77.892009 282.640347 
L 79.368786 282.640347 
L 79.368786 281.862569 
L 80.107174 281.862569 
L 80.107174 281.473681 
L 80.845562 281.473681 
L 80.845562 281.084792 
L 81.583951 281.084792 
L 81.583951 280.695903 
L 83.060727 280.695903 
L 83.060727 279.140347 
L 83.799115 279.140347 
L 83.799115 278.751458 
L 84.537504 278.751458 
L 84.537504 278.362569 
L 85.275892 278.362569 
L 85.275892 277.195903 
L 86.01428 277.195903 
L 86.01428 276.418125 
L 91.182998 276.418125 
L 91.182998 275.640347 
L 94.136551 275.640347 
L 94.136551 274.084792 
L 97.828492 274.084792 
L 97.828492 273.695903 
L 98.56688 273.695903 
L 98.56688 273.307014 
L 99.305269 273.307014 
L 99.305269 272.918125 
L 100.782045 272.918125 
L 100.782045 272.529236 
L 102.258822 272.529236 
L 102.258822 271.751458 
L 104.473986 271.751458 
L 104.473986 271.362569 
L 105.950763 271.362569 
L 105.950763 270.584792 
L 106.689151 270.584792 
L 106.689151 270.195903 
L 107.427539 270.195903 
L 107.427539 269.418125 
L 108.165928 269.418125 
L 108.165928 268.640347 
L 108.904316 268.640347 
L 108.904316 268.251458 
L 109.642704 268.251458 
L 109.642704 267.862569 
L 111.119481 267.862569 
L 111.119481 267.473681 
L 111.857869 267.473681 
L 111.857869 266.695903 
L 112.596257 266.695903 
L 112.596257 264.751458 
L 113.334645 264.751458 
L 113.334645 263.973681 
L 115.54981 263.973681 
L 115.54981 263.195903 
L 116.288198 263.195903 
L 116.288198 261.640347 
L 117.764975 261.640347 
L 117.764975 261.251458 
L 118.503363 261.251458 
L 118.503363 260.862569 
L 119.98014 260.862569 
L 119.98014 260.084792 
L 121.456916 260.084792 
L 121.456916 259.695903 
L 123.672081 259.695903 
L 123.672081 259.307014 
L 124.410469 259.307014 
L 124.410469 258.529236 
L 125.148857 258.529236 
L 125.148857 258.140347 
L 126.625634 258.140347 
L 126.625634 257.362569 
L 127.364022 257.362569 
L 127.364022 256.973681 
L 128.840799 256.973681 
L 128.840799 256.195903 
L 129.579187 256.195903 
L 129.579187 255.418125 
L 131.055963 255.418125 
L 131.055963 255.029236 
L 131.794352 255.029236 
L 131.794352 254.251458 
L 136.963069 254.251458 
L 136.963069 253.473681 
L 138.439846 253.473681 
L 138.439846 252.695903 
L 142.131787 252.695903 
L 142.131787 252.307014 
L 144.346952 252.307014 
L 144.346952 251.918125 
L 145.08534 251.918125 
L 145.08534 251.529236 
L 145.823728 251.529236 
L 145.823728 250.751458 
L 147.300505 250.751458 
L 147.300505 250.362569 
L 148.038893 250.362569 
L 148.038893 249.973681 
L 148.777281 249.973681 
L 148.777281 249.584792 
L 151.730834 249.584792 
L 151.730834 248.807014 
L 152.469223 248.807014 
L 152.469223 247.251458 
L 157.63794 247.251458 
L 157.63794 246.862569 
L 158.376329 246.862569 
L 158.376329 245.307014 
L 159.853105 245.307014 
L 159.853105 244.918125 
L 162.806658 244.918125 
L 162.806658 244.529236 
L 163.545046 244.529236 
L 163.545046 243.362569 
L 165.021823 243.362569 
L 165.021823 242.195903 
L 165.760211 242.195903 
L 165.760211 241.418125 
L 166.498599 241.418125 
L 166.498599 241.029236 
L 167.236988 241.029236 
L 167.236988 240.640347 
L 170.928929 240.640347 
L 170.928929 238.307014 
L 171.667317 238.307014 
L 171.667317 237.529236 
L 173.882482 237.529236 
L 173.882482 237.140347 
L 174.62087 237.140347 
L 174.62087 236.751458 
L 176.836035 236.751458 
L 176.836035 233.640347 
L 179.0512 233.640347 
L 179.0512 233.251458 
L 179.789588 233.251458 
L 179.789588 232.473681 
L 181.266364 232.473681 
L 181.266364 228.195903 
L 183.481529 228.195903 
L 183.481529 227.418125 
L 184.958306 227.418125 
L 184.958306 226.640347 
L 185.696694 226.640347 
L 185.696694 226.251458 
L 187.17347 226.251458 
L 187.17347 225.862569 
L 190.865411 225.862569 
L 190.865411 225.084792 
L 192.342188 225.084792 
L 192.342188 224.695903 
L 195.295741 224.695903 
L 195.295741 223.529236 
L 196.034129 223.529236 
L 196.034129 223.140347 
L 196.772517 223.140347 
L 196.772517 221.973681 
L 197.510906 221.973681 
L 197.510906 221.195903 
L 198.987682 221.195903 
L 198.987682 220.807014 
L 201.202847 220.807014 
L 201.202847 220.418125 
L 202.679623 220.418125 
L 202.679623 219.640347 
L 204.1564 219.640347 
L 204.1564 219.251458 
L 204.894788 219.251458 
L 204.894788 218.862569 
L 210.801894 218.862569 
L 210.801894 218.473681 
L 215.232224 218.473681 
L 215.232224 218.084792 
L 218.185777 218.084792 
L 218.185777 217.307014 
L 221.13933 217.307014 
L 221.13933 216.918125 
L 225.569659 216.918125 
L 225.569659 216.529236 
L 226.308047 216.529236 
L 226.308047 215.751458 
L 227.046436 215.751458 
L 227.046436 215.362569 
L 227.784824 215.362569 
L 227.784824 214.973681 
L 228.523212 214.973681 
L 228.523212 214.195903 
L 229.999989 214.195903 
L 229.999989 213.807014 
L 233.69193 213.807014 
L 233.69193 213.418125 
L 234.430318 213.418125 
L 234.430318 212.251458 
L 236.645483 212.251458 
L 236.645483 211.862569 
L 238.122259 211.862569 
L 238.122259 210.695903 
L 239.599036 210.695903 
L 239.599036 209.918125 
L 240.337424 209.918125 
L 240.337424 209.529236 
L 241.814201 209.529236 
L 241.814201 207.973681 
L 242.552589 207.973681 
L 242.552589 207.584792 
L 243.290977 207.584792 
L 243.290977 206.029236 
L 244.029365 206.029236 
L 244.029365 205.640347 
L 244.767754 205.640347 
L 244.767754 204.473681 
L 246.24453 204.473681 
L 246.24453 202.918125 
L 249.198083 202.918125 
L 249.198083 202.529236 
L 249.936471 202.529236 
L 249.936471 202.140347 
L 252.151636 202.140347 
L 252.151636 201.751458 
L 252.890024 201.751458 
L 252.890024 201.362569 
L 255.843577 201.362569 
L 255.843577 200.973681 
L 256.581966 200.973681 
L 256.581966 200.584792 
L 259.535519 200.584792 
L 259.535519 199.418125 
L 260.273907 199.418125 
L 260.273907 199.029236 
L 261.012295 199.029236 
L 261.012295 196.695903 
L 261.750683 196.695903 
L 261.750683 195.140347 
L 263.22746 195.140347 
L 263.22746 194.751458 
L 263.965848 194.751458 
L 263.965848 193.973681 
L 264.704236 193.973681 
L 264.704236 193.584792 
L 266.181013 193.584792 
L 266.181013 193.195903 
L 266.919401 193.195903 
L 266.919401 192.418125 
L 267.657789 192.418125 
L 267.657789 192.029236 
L 269.872954 192.029236 
L 269.872954 191.251458 
L 270.611342 191.251458 
L 270.611342 189.695903 
L 272.826507 189.695903 
L 272.826507 188.918125 
L 274.303284 188.918125 
L 274.303284 187.751458 
L 275.041672 187.751458 
L 275.041672 187.362569 
L 275.78006 187.362569 
L 275.78006 186.195903 
L 277.256837 186.195903 
L 277.256837 185.807014 
L 279.472001 185.807014 
L 279.472001 185.418125 
L 280.21039 185.418125 
L 280.21039 185.029236 
L 280.948778 185.029236 
L 280.948778 184.640347 
L 282.425554 184.640347 
L 282.425554 183.862569 
L 283.902331 183.862569 
L 283.902331 183.084792 
L 285.379107 183.084792 
L 285.379107 182.307014 
L 286.117496 182.307014 
L 286.117496 181.918125 
L 286.855884 181.918125 
L 286.855884 180.362569 
L 288.33266 180.362569 
L 288.33266 179.973681 
L 289.071049 179.973681 
L 289.071049 179.584792 
L 289.809437 179.584792 
L 289.809437 179.195903 
L 290.547825 179.195903 
L 290.547825 177.640347 
L 291.286213 177.640347 
L 291.286213 176.084792 
L 293.501378 176.084792 
L 293.501378 175.695903 
L 294.978155 175.695903 
L 294.978155 175.307014 
L 295.716543 175.307014 
L 295.716543 174.918125 
L 297.193319 174.918125 
L 297.193319 174.529236 
L 297.931708 174.529236 
L 297.931708 174.140347 
L 298.670096 174.140347 
L 298.670096 172.584792 
L 300.146872 172.584792 
L 300.146872 171.807014 
L 302.362037 171.807014 
L 302.362037 171.418125 
L 303.838814 171.418125 
L 303.838814 170.640347 
L 306.053978 170.640347 
L 306.053978 169.862569 
L 306.792367 169.862569 
L 306.792367 169.473681 
L 309.74592 169.473681 
L 309.74592 169.084792 
L 310.484308 169.084792 
L 310.484308 168.695903 
L 311.961084 168.695903 
L 311.961084 168.307014 
L 314.176249 168.307014 
L 314.176249 167.140347 
L 316.391414 167.140347 
L 316.391414 164.418125 
L 317.86819 164.418125 
L 317.86819 163.251458 
L 318.606579 163.251458 
L 318.606579 162.084792 
L 320.083355 162.084792 
L 320.083355 161.307014 
L 321.560132 161.307014 
L 321.560132 160.918125 
L 323.036908 160.918125 
L 323.036908 160.140347 
L 323.775296 160.140347 
L 323.775296 159.751458 
L 325.252073 159.751458 
L 325.252073 157.807014 
L 325.990461 157.807014 
L 325.990461 156.251458 
L 328.205626 156.251458 
L 328.205626 155.862569 
L 328.944014 155.862569 
L 328.944014 154.695903 
L 329.682402 154.695903 
L 329.682402 154.307014 
L 334.112732 154.307014 
L 334.112732 153.918125 
L 335.589508 153.918125 
L 335.589508 153.529236 
L 339.28145 153.529236 
L 339.28145 151.195903 
L 343.711779 151.195903 
L 343.711779 150.418125 
L 344.450167 150.418125 
L 344.450167 150.029236 
L 345.926944 150.029236 
L 345.926944 149.640347 
L 346.665332 149.640347 
L 346.665332 149.251458 
L 349.618885 149.251458 
L 349.618885 148.862569 
L 351.83405 148.862569 
L 351.83405 147.695903 
L 354.049215 147.695903 
L 354.049215 147.307014 
L 355.525991 147.307014 
L 355.525991 146.918125 
L 356.264379 146.918125 
L 356.264379 146.529236 
L 358.479544 146.529236 
L 358.479544 146.140347 
L 359.217932 146.140347 
L 359.217932 145.751458 
L 359.956321 145.751458 
L 359.956321 145.362569 
L 360.694709 145.362569 
L 360.694709 144.973681 
L 361.433097 144.973681 
L 361.433097 144.584792 
L 362.909874 144.584792 
L 362.909874 144.195903 
L 363.648262 144.195903 
L 363.648262 143.029236 
L 364.38665 143.029236 
L 364.38665 142.251458 
L 366.601815 142.251458 
L 366.601815 141.473681 
L 368.078591 141.473681 
L 368.078591 140.307014 
L 368.81698 140.307014 
L 368.81698 139.529236 
L 370.293756 139.529236 
L 370.293756 138.362569 
L 371.032144 138.362569 
L 371.032144 137.195903 
L 371.770533 137.195903 
L 371.770533 136.029236 
L 373.985697 136.029236 
L 373.985697 135.251458 
L 374.724086 135.251458 
L 374.724086 134.862569 
L 375.462474 134.862569 
L 375.462474 133.695903 
L 376.200862 133.695903 
L 376.200862 132.918125 
L 377.677639 132.918125 
L 377.677639 132.529236 
L 378.416027 132.529236 
L 378.416027 130.584792 
L 379.892803 130.584792 
L 379.892803 130.195903 
L 382.107968 130.195903 
L 382.846356 129.807014 
L 384.323133 129.807014 
L 384.323133 129.029236 
L 385.061521 129.029236 
L 385.061521 127.473681 
L 385.799909 127.473681 
L 385.799909 127.084792 
L 387.276686 127.084792 
L 387.276686 125.140347 
L 388.015074 125.140347 
L 388.015074 124.751458 
L 390.230239 124.751458 
L 390.230239 124.362569 
L 391.707015 124.362569 
L 391.707015 123.973681 
L 394.660568 123.973681 
L 394.660568 123.584792 
L 396.137345 123.584792 
L 396.137345 122.029236 
L 397.614121 122.029236 
L 397.614121 121.640347 
L 403.521227 121.640347 
L 403.521227 120.862569 
L 404.259616 120.862569 
L 404.259616 120.473681 
L 404.998004 120.473681 
L 404.998004 118.918125 
L 405.736392 118.918125 
L 405.736392 118.529236 
L 406.47478 118.529236 
L 406.47478 117.751458 
L 407.951557 117.751458 
L 407.951557 117.362569 
L 408.689945 117.362569 
L 408.689945 116.973681 
L 409.428333 116.973681 
L 409.428333 116.584792 
L 410.166722 116.584792 
L 410.166722 115.807014 
L 412.381886 115.807014 
L 412.381886 114.640347 
L 413.120275 114.640347 
L 413.120275 114.251458 
L 413.858663 114.251458 
L 413.858663 113.473681 
L 414.597051 113.473681 
L 414.597051 113.084792 
L 416.073828 113.084792 
L 416.073828 111.529236 
L 416.812216 111.529236 
L 416.812216 111.140347 
L 417.550604 111.140347 
L 417.550604 110.751458 
L 419.027381 110.751458 
L 419.027381 110.362569 
L 421.242545 110.362569 
L 421.242545 109.973681 
L 422.719322 109.973681 
L 422.719322 108.807014 
L 423.45771 108.807014 
L 423.45771 108.418125 
L 424.934487 108.418125 
L 424.934487 108.029236 
L 425.672875 108.029236 
L 425.672875 106.862569 
L 427.88804 106.862569 
L 427.88804 106.084792 
L 431.579981 106.084792 
L 431.579981 105.695903 
L 432.318369 105.695903 
L 432.318369 105.307014 
L 433.056757 105.307014 
L 433.056757 104.140347 
L 435.271922 104.140347 
L 435.271922 103.362569 
L 436.748699 103.362569 
L 436.748699 102.584792 
L 437.487087 102.584792 
L 437.487087 101.807014 
L 438.225475 101.807014 
L 438.225475 101.029236 
L 439.702252 101.029236 
L 439.702252 100.640347 
L 441.179028 100.640347 
L 441.179028 100.251458 
L 442.655805 100.251458 
L 442.655805 99.473681 
L 447.824522 99.473681 
L 447.824522 98.695903 
L 449.301299 98.695903 
L 449.301299 98.307014 
L 450.778075 98.307014 
L 450.778075 96.362569 
L 451.516464 96.362569 
L 451.516464 95.973681 
L 452.254852 95.973681 
L 452.254852 94.418125 
L 453.731628 94.418125 
L 453.731628 93.640347 
L 454.470016 93.640347 
L 454.470016 92.473681 
L 455.208405 92.473681 
L 455.208405 92.084792 
L 456.685181 92.084792 
L 456.685181 91.695903 
L 457.423569 91.695903 
L 457.423569 90.140347 
L 459.638734 90.140347 
L 459.638734 88.973681 
L 461.853899 88.973681 
L 461.853899 88.584792 
L 464.807452 88.584792 
L 464.807452 87.029236 
L 465.54584 87.029236 
L 465.54584 86.251458 
L 467.022617 86.251458 
L 467.022617 85.473681 
L 470.714558 85.473681 
L 470.714558 85.084792 
L 472.191334 85.084792 
L 472.191334 84.695903 
L 473.668111 84.695903 
L 473.668111 84.307014 
L 475.144887 84.307014 
L 475.144887 83.529236 
L 475.883276 83.529236 
L 475.883276 82.751458 
L 476.621664 82.751458 
L 476.621664 82.362569 
L 478.09844 82.362569 
L 478.09844 81.973681 
L 478.836829 81.973681 
L 478.836829 81.584792 
L 481.790382 81.584792 
L 481.790382 80.029236 
L 482.52877 80.029236 
L 482.52877 79.640347 
L 483.267158 79.640347 
L 483.267158 79.251458 
L 484.005546 79.251458 
L 484.005546 78.473681 
L 486.220711 78.473681 
L 486.220711 77.695903 
L 489.912652 77.695903 
L 489.912652 76.918125 
L 491.389429 76.918125 
L 491.389429 76.529236 
L 492.127817 76.529236 
L 492.127817 75.362569 
L 492.866205 75.362569 
L 492.866205 74.973681 
L 494.342982 74.973681 
L 494.342982 74.584792 
L 495.819758 74.584792 
L 495.819758 73.418125 
L 496.558147 73.418125 
L 496.558147 71.862569 
L 497.296535 71.862569 
L 497.296535 71.473681 
L 498.773311 71.473681 
L 498.773311 69.140347 
L 500.250088 69.140347 
L 500.250088 68.751458 
L 501.726864 68.751458 
L 501.726864 68.362569 
L 503.942029 68.362569 
L 503.942029 67.195903 
L 506.157194 67.195903 
L 506.157194 66.807014 
L 509.849135 66.807014 
L 509.849135 66.029236 
L 510.587523 66.029236 
L 510.587523 65.640347 
L 511.325912 65.640347 
L 511.325912 64.862569 
L 513.541076 64.862569 
L 513.541076 64.084792 
L 514.279465 64.084792 
L 514.279465 63.695903 
L 520.186571 63.695903 
L 520.186571 62.140347 
L 520.924959 62.140347 
L 520.924959 61.751458 
L 523.140124 61.751458 
L 523.140124 60.973681 
L 525.355288 60.973681 
L 525.355288 60.584792 
L 527.570453 60.584792 
L 527.570453 60.195903 
L 529.04723 60.195903 
L 529.04723 58.640347 
L 534.954336 58.640347 
L 534.954336 57.473681 
L 536.431112 57.473681 
L 536.431112 56.695903 
L 537.1695 56.695903 
L 537.1695 54.751458 
L 537.907889 54.751458 
L 537.907889 54.362569 
L 538.646277 54.362569 
L 538.646277 53.195903 
L 539.384665 53.195903 
L 539.384665 52.418125 
L 540.861442 52.418125 
L 540.861442 52.029236 
L 541.59983 52.029236 
L 541.59983 51.640347 
L 542.338218 51.640347 
L 542.338218 50.862569 
L 543.814995 50.862569 
L 543.814995 50.473681 
L 544.553383 50.473681 
L 544.553383 49.307014 
L 545.291771 49.307014 
L 545.291771 48.918125 
L 546.030159 48.918125 
L 546.030159 48.529236 
L 547.506936 48.529236 
L 547.506936 47.362569 
L 548.983712 47.362569 
L 548.983712 46.584792 
L 550.460489 46.584792 
L 550.460489 46.195903 
L 551.198877 46.195903 
L 551.198877 44.640347 
L 551.937265 44.640347 
L 551.937265 43.084792 
L 554.890818 43.084792 
L 554.890818 42.307014 
L 557.105983 42.307014 
L 557.105983 41.529236 
L 558.58276 41.529236 
L 558.58276 40.751458 
L 560.797924 40.751458 
L 560.797924 40.362569 
L 563.013089 40.362569 
L 563.013089 38.807014 
L 564.489866 38.807014 
L 564.489866 38.418125 
L 565.228254 38.418125 
L 565.228254 38.029236 
L 565.966642 38.029236 
L 565.966642 37.640347 
L 567.443419 37.640347 
L 567.443419 37.251458 
L 568.181807 37.251458 
L 568.181807 36.862569 
L 570.396972 36.862569 
L 570.396972 36.473681 
L 571.13536 36.473681 
L 571.13536 36.084792 
L 573.350525 36.084792 
L 573.350525 35.695903 
L 574.088913 35.695903 
L 574.088913 34.918125 
L 574.827301 34.918125 
L 574.827301 34.918125 
" clip-path="url(#pa8f5816b58)" style="fill: none; stroke: #1f77b4; stroke-width: 1.5; stroke-linecap: square"/>
   </g>
   <g id="line2d_26">
    <path d="M 67.554574 286.918125 
L 574.827301 34.918125 
" clip-path="url(#pa8f5816b58)" style="fill: none; stroke-dasharray: 5.55,2.4; stroke-dashoffset: 0; stroke: #ff7f0e; stroke-width: 1.5"/>
   </g>
   <g id="patch_3">
    <path d="M 42.190938 299.518125 
L 42.190938 22.318125 
" style="fill: none; stroke: #000000; stroke-width: 0.8; stroke-linejoin: miter; stroke-linecap: square"/>
   </g>
   <g id="patch_4">
    <path d="M 600.190938 299.518125 
L 600.190938 22.318125 
" style="fill: none; stroke: #000000; stroke-width: 0.8; stroke-linejoin: miter; stroke-linecap: square"/>
   </g>
   <g id="patch_5">
    <path d="M 42.190938 299.518125 
L 600.190938 299.518125 
" style="fill: none; stroke: #000000; stroke-width: 0.8; stroke-linejoin: miter; stroke-linecap: square"/>
   </g>
   <g id="patch_6">
    <path d="M 42.190938 22.318125 
L 600.190938 22.318125 
" style="fill: none; stroke: #000000; stroke-width: 0.8; stroke-linejoin: miter; stroke-linecap: square"/>
   </g>
   <g id="text_15">
    <!-- supervised_down ROC Curve -->
    <g transform="translate(234.663438 16.318125) scale(0.12 -0.12)">
     <defs>
      <path id="DejaVuSans-70" d="M 1159 525 
L 1159 -1331 
L 581 -1331 
L 581 3500 
L 1159 3500 
L 1159 2969 
Q 1341 3281 1617 3432 
Q 1894 3584 2278 3584 
Q 2916 3584 3314 3078 
Q 3713 2572 3713 1747 
Q 3713 922 3314 415 
Q 2916 -91 2278 -91 
Q 1894 -91 1617 61 
Q 1341 213 1159 525 
z
M 3116 1747 
Q 3116 2381 2855 2742 
Q 2594 3103 2138 3103 
Q 1681 3103 1420 2742 
Q 1159 2381 1159 1747 
Q 1159 1113 1420 752 
Q 1681 391 2138 391 
Q 2594 391 2855 752 
Q 3116 1113 3116 1747 
z
" transform="scale(0.015625)"/>
      <path id="DejaVuSans-64" d="M 2906 2969 
L 2906 4863 
L 3481 4863 
L 3481 0 
L 2906 0 
L 2906 525 
Q 2725 213 2448 61 
Q 2172 -91 1784 -91 
Q 1150 -91 751 415 
Q 353 922 353 1747 
Q 353 2572 751 3078 
Q 1150 3584 1784 3584 
Q 2172 3584 2448 3432 
Q 2725 3281 2906 2969 
z
M 947 1747 
Q 947 1113 1208 752 
Q 1469 391 1925 391 
Q 2381 391 2643 752 
Q 2906 1113 2906 1747 
Q 2906 2381 2643 2742 
Q 2381 3103 1925 3103 
Q 1469 3103 1208 2742 
Q 947 2381 947 1747 
z
" transform="scale(0.015625)"/>
      <path id="DejaVuSans-5f" d="M 3263 -1063 
L 3263 -1509 
L -63 -1509 
L -63 -1063 
L 3263 -1063 
z
" transform="scale(0.015625)"/>
      <path id="DejaVuSans-77" d="M 269 3500 
L 844 3500 
L 1563 769 
L 2278 3500 
L 2956 3500 
L 3675 769 
L 4391 3500 
L 4966 3500 
L 4050 0 
L 3372 0 
L 2619 2869 
L 1863 0 
L 1184 0 
L 269 3500 
z
" transform="scale(0.015625)"/>
      <path id="DejaVuSans-6e" d="M 3513 2113 
L 3513 0 
L 2938 0 
L 2938 2094 
Q 2938 2591 2744 2837 
Q 2550 3084 2163 3084 
Q 1697 3084 1428 2787 
Q 1159 2491 1159 1978 
L 1159 0 
L 581 0 
L 581 3500 
L 1159 3500 
L 1159 2956 
Q 1366 3272 1645 3428 
Q 1925 3584 2291 3584 
Q 2894 3584 3203 3211 
Q 3513 2838 3513 2113 
z
" transform="scale(0.015625)"/>
      <path id="DejaVuSans-4f" d="M 2522 4238 
Q 1834 4238 1429 3725 
Q 1025 3213 1025 2328 
Q 1025 1447 1429 934 
Q 1834 422 2522 422 
Q 3209 422 3611 934 
Q 4013 1447 4013 2328 
Q 4013 3213 3611 3725 
Q 3209 4238 2522 4238 
z
M 2522 4750 
Q 3503 4750 4090 4092 
Q 4678 3434 4678 2328 
Q 4678 1225 4090 567 
Q 3503 -91 2522 -91 
Q 1538 -91 948 565 
Q 359 1222 359 2328 
Q 359 3434 948 4092 
Q 1538 4750 2522 4750 
z
" transform="scale(0.015625)"/>
      <path id="DejaVuSans-43" d="M 4122 4306 
L 4122 3641 
Q 3803 3938 3442 4084 
Q 3081 4231 2675 4231 
Q 1875 4231 1450 3742 
Q 1025 3253 1025 2328 
Q 1025 1406 1450 917 
Q 1875 428 2675 428 
Q 3081 428 3442 575 
Q 3803 722 4122 1019 
L 4122 359 
Q 3791 134 3420 21 
Q 3050 -91 2638 -91 
Q 1578 -91 968 557 
Q 359 1206 359 2328 
Q 359 3453 968 4101 
Q 1578 4750 2638 4750 
Q 3056 4750 3426 4639 
Q 3797 4528 4122 4306 
z
" transform="scale(0.015625)"/>
     </defs>
     <use xlink:href="#DejaVuSans-73"/>
     <use xlink:href="#DejaVuSans-75" transform="translate(52.099609 0)"/>
     <use xlink:href="#DejaVuSans-70" transform="translate(115.478516 0)"/>
     <use xlink:href="#DejaVuSans-65" transform="translate(178.955078 0)"/>
     <use xlink:href="#DejaVuSans-72" transform="translate(240.478516 0)"/>
     <use xlink:href="#DejaVuSans-76" transform="translate(281.591797 0)"/>
     <use xlink:href="#DejaVuSans-69" transform="translate(340.771484 0)"/>
     <use xlink:href="#DejaVuSans-73" transform="translate(368.554688 0)"/>
     <use xlink:href="#DejaVuSans-65" transform="translate(420.654297 0)"/>
     <use xlink:href="#DejaVuSans-64" transform="translate(482.177734 0)"/>
     <use xlink:href="#DejaVuSans-5f" transform="translate(545.654297 0)"/>
     <use xlink:href="#DejaVuSans-64" transform="translate(595.654297 0)"/>
     <use xlink:href="#DejaVuSans-6f" transform="translate(659.130859 0)"/>
     <use xlink:href="#DejaVuSans-77" transform="translate(720.3125 0)"/>
     <use xlink:href="#DejaVuSans-6e" transform="translate(802.099609 0)"/>
     <use xlink:href="#DejaVuSans-20" transform="translate(865.478516 0)"/>
     <use xlink:href="#DejaVuSans-52" transform="translate(897.265625 0)"/>
     <use xlink:href="#DejaVuSans-4f" transform="translate(966.748047 0)"/>
     <use xlink:href="#DejaVuSans-43" transform="translate(1045.458984 0)"/>
     <use xlink:href="#DejaVuSans-20" transform="translate(1115.283203 0)"/>
     <use xlink:href="#DejaVuSans-43" transform="translate(1147.070312 0)"/>
     <use xlink:href="#DejaVuSans-75" transform="translate(1216.894531 0)"/>
     <use xlink:href="#DejaVuSans-72" transform="translate(1280.273438 0)"/>
     <use xlink:href="#DejaVuSans-76" transform="translate(1321.386719 0)"/>
     <use xlink:href="#DejaVuSans-65" transform="translate(1380.566406 0)"/>
    </g>
   </g>
   <g id="legend_1">
    <g id="patch_7">
     <path d="M 48.490938 55.93875 
L 129.625937 55.93875 
Q 131.425938 55.93875 131.425938 54.13875 
L 131.425938 28.618125 
Q 131.425938 26.818125 129.625937 26.818125 
L 48.490938 26.818125 
Q 46.690938 26.818125 46.690938 28.618125 
L 46.690938 54.13875 
Q 46.690938 55.93875 48.490938 55.93875 
z
" style="fill: #ffffff; opacity: 0.8; stroke: #cccccc; stroke-linejoin: miter"/>
    </g>
    <g id="line2d_27">
     <path d="M 50.290938 34.106719 
L 59.290938 34.106719 
L 68.290938 34.106719 
" style="fill: none; stroke: #1f77b4; stroke-width: 1.5; stroke-linecap: square"/>
    </g>
    <g id="text_16">
     <!-- AUC=0.495 -->
     <g transform="translate(75.490938 37.256719) scale(0.09 -0.09)">
      <defs>
       <path id="DejaVuSans-41" d="M 2188 4044 
L 1331 1722 
L 3047 1722 
L 2188 4044 
z
M 1831 4666 
L 2547 4666 
L 4325 0 
L 3669 0 
L 3244 1197 
L 1141 1197 
L 716 0 
L 50 0 
L 1831 4666 
z
" transform="scale(0.015625)"/>
       <path id="DejaVuSans-55" d="M 556 4666 
L 1191 4666 
L 1191 1831 
Q 1191 1081 1462 751 
Q 1734 422 2344 422 
Q 2950 422 3222 751 
Q 3494 1081 3494 1831 
L 3494 4666 
L 4128 4666 
L 4128 1753 
Q 4128 841 3676 375 
Q 3225 -91 2344 -91 
Q 1459 -91 1007 375 
Q 556 841 556 1753 
L 556 4666 
z
" transform="scale(0.015625)"/>
       <path id="DejaVuSans-3d" d="M 678 2906 
L 4684 2906 
L 4684 2381 
L 678 2381 
L 678 2906 
z
M 678 1631 
L 4684 1631 
L 4684 1100 
L 678 1100 
L 678 1631 
z
" transform="scale(0.015625)"/>
       <path id="DejaVuSans-39" d="M 703 97 
L 703 672 
Q 941 559 1184 500 
Q 1428 441 1663 441 
Q 2288 441 2617 861 
Q 2947 1281 2994 2138 
Q 2813 1869 2534 1725 
Q 2256 1581 1919 1581 
Q 1219 1581 811 2004 
Q 403 2428 403 3163 
Q 403 3881 828 4315 
Q 1253 4750 1959 4750 
Q 2769 4750 3195 4129 
Q 3622 3509 3622 2328 
Q 3622 1225 3098 567 
Q 2575 -91 1691 -91 
Q 1453 -91 1209 -44 
Q 966 3 703 97 
z
M 1959 2075 
Q 2384 2075 2632 2365 
Q 2881 2656 2881 3163 
Q 2881 3666 2632 3958 
Q 2384 4250 1959 4250 
Q 1534 4250 1286 3958 
Q 1038 3666 1038 3163 
Q 1038 2656 1286 2365 
Q 1534 2075 1959 2075 
z
" transform="scale(0.015625)"/>
       <path id="DejaVuSans-35" d="M 691 4666 
L 3169 4666 
L 3169 4134 
L 1269 4134 
L 1269 2991 
Q 1406 3038 1543 3061 
Q 1681 3084 1819 3084 
Q 2600 3084 3056 2656 
Q 3513 2228 3513 1497 
Q 3513 744 3044 326 
Q 2575 -91 1722 -91 
Q 1428 -91 1123 -41 
Q 819 9 494 109 
L 494 744 
Q 775 591 1075 516 
Q 1375 441 1709 441 
Q 2250 441 2565 725 
Q 2881 1009 2881 1497 
Q 2881 1984 2565 2268 
Q 2250 2553 1709 2553 
Q 1456 2553 1204 2497 
Q 953 2441 691 2322 
L 691 4666 
z
" transform="scale(0.015625)"/>
      </defs>
      <use xlink:href="#DejaVuSans-41"/>
      <use xlink:href="#DejaVuSans-55" transform="translate(68.408203 0)"/>
      <use xlink:href="#DejaVuSans-43" transform="translate(141.601562 0)"/>
      <use xlink:href="#DejaVuSans-3d" transform="translate(211.425781 0)"/>
      <use xlink:href="#DejaVuSans-30" transform="translate(295.214844 0)"/>
      <use xlink:href="#DejaVuSans-2e" transform="translate(358.837891 0)"/>
      <use xlink:href="#DejaVuSans-34" transform="translate(390.625 0)"/>
      <use xlink:href="#DejaVuSans-39" transform="translate(454.248047 0)"/>
      <use xlink:href="#DejaVuSans-35" transform="translate(517.871094 0)"/>
     </g>
    </g>
    <g id="line2d_28">
     <path d="M 50.290938 47.317031 
L 59.290938 47.317031 
L 68.290938 47.317031 
" style="fill: none; stroke-dasharray: 5.55,2.4; stroke-dashoffset: 0; stroke: #ff7f0e; stroke-width: 1.5"/>
    </g>
    <g id="text_17">
     <!-- random -->
     <g transform="translate(75.490938 50.467031) scale(0.09 -0.09)">
      <defs>
       <path id="DejaVuSans-6d" d="M 3328 2828 
Q 3544 3216 3844 3400 
Q 4144 3584 4550 3584 
Q 5097 3584 5394 3201 
Q 5691 2819 5691 2113 
L 5691 0 
L 5113 0 
L 5113 2094 
Q 5113 2597 4934 2840 
Q 4756 3084 4391 3084 
Q 3944 3084 3684 2787 
Q 3425 2491 3425 1978 
L 3425 0 
L 2847 0 
L 2847 2094 
Q 2847 2600 2669 2842 
Q 2491 3084 2119 3084 
Q 1678 3084 1418 2786 
Q 1159 2488 1159 1978 
L 1159 0 
L 581 0 
L 581 3500 
L 1159 3500 
L 1159 2956 
Q 1356 3278 1631 3431 
Q 1906 3584 2284 3584 
Q 2666 3584 2933 3390 
Q 3200 3197 3328 2828 
z
" transform="scale(0.015625)"/>
      </defs>
      <use xlink:href="#DejaVuSans-72"/>
      <use xlink:href="#DejaVuSans-61" transform="translate(41.113281 0)"/>
      <use xlink:href="#DejaVuSans-6e" transform="translate(102.392578 0)"/>
      <use xlink:href="#DejaVuSans-64" transform="translate(165.771484 0)"/>
      <use xlink:href="#DejaVuSans-6f" transform="translate(229.248047 0)"/>
      <use xlink:href="#DejaVuSans-6d" transform="translate(290.429688 0)"/>
     </g>
    </g>
   </g>
  </g>
 </g>
 <defs>
  <clipPath id="pa8f5816b58">
   <rect x="42.190938" y="22.318125" width="558" height="277.2"/>
  </clipPath>
 </defs>
</svg>
