<?xml version="1.0" encoding="utf-8" standalone="no"?>
<!DOCTYPE svg PUBLIC "-//W3C//DTD SVG 1.1//EN"
  "http://www.w3.org/Graphics/SVG/1.1/DTD/svg11.dtd">
<svg xmlns:xlink="http://www.w3.org/1999/xlink" width="607.390937pt" height="336.106563pt" viewBox="0 0 607.390937 336.106563" xmlns="http://www.w3.org/2000/svg" version="1.1">
 <metadata>
  <rdf:RDF xmlns:dc="http://purl.org/dc/elements/1.1/" xmlns:cc="http://creativecommons.org/ns#" xmlns:rdf="http://www.w3.org/1999/02/22-rdf-syntax-ns#">
   <cc:Work>
    <dc:type rdf:resource="http://purl.org/dc/dcmitype/StillImage"/>
    <dc:date>2026-01-07T23:13:58.034846</dc:date>
    <dc:format>image/svg+xml</dc:format>
    <dc:creator>
     <cc:Agent>
      <dc:title>Matplotlib v3.10.8, https://matplotlib.org/</dc:title>
     </cc:Agent>
    </dc:creator>
   </cc:Work>
  </rdf:RDF>
 </metadata>
 <defs>
  <style type="text/css">*{stroke-linejoin: round; stroke-linecap: butt}</style>
 </defs>
 <g id="figure_1">
  <g id="patch_1">
   <path d="M 0 336.106563 
L 607.390937 336.106563 
L 607.390937 0 
L 0 0 
z
" style="fill: #ffffff"/>
  </g>
  <g id="axes_1">
   <g id="patch_2">
    <path d="M 42.190938 299.518125 
L 600.190938 299.518125 
L 600.190938 22.318125 
L 42.190938 22.318125 
z
" style="fill: #ffffff"/>
   </g>
   <g id="matplotlib.axis_1">
    <g id="xtick_1">
     <g id="line2d_1">
      <path d="M 67.554574 299.518125 
L 67.554574 22.318125 
" clip-path="url(#pe39514bb02)" style="fill: none; stroke: #b0b0b0; stroke-opacity: 0.3; stroke-width: 0.8; stroke-linecap: square"/>
     </g>
     <g id="line2d_2">
      <defs>
       <path id="m7e8c23266b" d="M 0 0 
L 0 3.5 
" style="stroke: #000000; stroke-width: 0.8"/>
      </defs>
      <g>
       <use xlink:href="#m7e8c23266b" x="67.554574" y="299.518125" style="stroke: #000000; stroke-width: 0.8"/>
      </g>
     </g>
     <g id="text_1">
      <!-- 0.0 -->
      <g transform="translate(60.398168 313.356719) scale(0.09 -0.09)">
       <defs>
        <path id="DejaVuSans-30" d="M 2034 4250 
Q 1547 4250 1301 3770 
Q 1056 3291 1056 2328 
Q 1056 1369 1301 889 
Q 1547 409 2034 409 
Q 2525 409 2770 889 
Q 3016 1369 3016 2328 
Q 3016 3291 2770 3770 
Q 2525 4250 2034 4250 
z
M 2034 4750 
Q 2819 4750 3233 4129 
Q 3647 3509 3647 2328 
Q 3647 1150 3233 529 
Q 2819 -91 2034 -91 
Q 1250 -91 836 529 
Q 422 1150 422 2328 
Q 422 3509 836 4129 
Q 1250 4750 2034 4750 
z
" transform="scale(0.015625)"/>
        <path id="DejaVuSans-2e" d="M 684 794 
L 1344 794 
L 1344 0 
L 684 0 
L 684 794 
z
" transform="scale(0.015625)"/>
       </defs>
       <use xlink:href="#DejaVuSans-30"/>
       <use xlink:href="#DejaVuSans-2e" transform="translate(63.623047 0)"/>
       <use xlink:href="#DejaVuSans-30" transform="translate(95.410156 0)"/>
      </g>
     </g>
    </g>
    <g id="xtick_2">
     <g id="line2d_3">
      <path d="M 169.009119 299.518125 
L 169.009119 22.318125 
" clip-path="url(#pe39514bb02)" style="fill: none; stroke: #b0b0b0; stroke-opacity: 0.3; stroke-width: 0.8; stroke-linecap: square"/>
     </g>
     <g id="line2d_4">
      <g>
       <use xlink:href="#m7e8c23266b" x="169.009119" y="299.518125" style="stroke: #000000; stroke-width: 0.8"/>
      </g>
     </g>
     <g id="text_2">
      <!-- 0.2 -->
      <g transform="translate(161.852713 313.356719) scale(0.09 -0.09)">
       <defs>
        <path id="DejaVuSans-32" d="M 1228 531 
L 3431 531 
L 3431 0 
L 469 0 
L 469 531 
Q 828 903 1448 1529 
Q 2069 2156 2228 2338 
Q 2531 2678 2651 2914 
Q 2772 3150 2772 3378 
Q 2772 3750 2511 3984 
Q 2250 4219 1831 4219 
Q 1534 4219 1204 4116 
Q 875 4013 500 3803 
L 500 4441 
Q 881 4594 1212 4672 
Q 1544 4750 1819 4750 
Q 2544 4750 2975 4387 
Q 3406 4025 3406 3419 
Q 3406 3131 3298 2873 
Q 3191 2616 2906 2266 
Q 2828 2175 2409 1742 
Q 1991 1309 1228 531 
z
" transform="scale(0.015625)"/>
       </defs>
       <use xlink:href="#DejaVuSans-30"/>
       <use xlink:href="#DejaVuSans-2e" transform="translate(63.623047 0)"/>
       <use xlink:href="#DejaVuSans-32" transform="translate(95.410156 0)"/>
      </g>
     </g>
    </g>
    <g id="xtick_3">
     <g id="line2d_5">
      <path d="M 270.463665 299.518125 
L 270.463665 22.318125 
" clip-path="url(#pe39514bb02)" style="fill: none; stroke: #b0b0b0; stroke-opacity: 0.3; stroke-width: 0.8; stroke-linecap: square"/>
     </g>
     <g id="line2d_6">
      <g>
       <use xlink:href="#m7e8c23266b" x="270.463665" y="299.518125" style="stroke: #000000; stroke-width: 0.8"/>
      </g>
     </g>
     <g id="text_3">
      <!-- 0.4 -->
      <g transform="translate(263.307259 313.356719) scale(0.09 -0.09)">
       <defs>
        <path id="DejaVuSans-34" d="M 2419 4116 
L 825 1625 
L 2419 1625 
L 2419 4116 
z
M 2253 4666 
L 3047 4666 
L 3047 1625 
L 3713 1625 
L 3713 1100 
L 3047 1100 
L 3047 0 
L 2419 0 
L 2419 1100 
L 313 1100 
L 313 1709 
L 2253 4666 
z
" transform="scale(0.015625)"/>
       </defs>
       <use xlink:href="#DejaVuSans-30"/>
       <use xlink:href="#DejaVuSans-2e" transform="translate(63.623047 0)"/>
       <use xlink:href="#DejaVuSans-34" transform="translate(95.410156 0)"/>
      </g>
     </g>
    </g>
    <g id="xtick_4">
     <g id="line2d_7">
      <path d="M 371.91821 299.518125 
L 371.91821 22.318125 
" clip-path="url(#pe39514bb02)" style="fill: none; stroke: #b0b0b0; stroke-opacity: 0.3; stroke-width: 0.8; stroke-linecap: square"/>
     </g>
     <g id="line2d_8">
      <g>
       <use xlink:href="#m7e8c23266b" x="371.91821" y="299.518125" style="stroke: #000000; stroke-width: 0.8"/>
      </g>
     </g>
     <g id="text_4">
      <!-- 0.6 -->
      <g transform="translate(364.761804 313.356719) scale(0.09 -0.09)">
       <defs>
        <path id="DejaVuSans-36" d="M 2113 2584 
Q 1688 2584 1439 2293 
Q 1191 2003 1191 1497 
Q 1191 994 1439 701 
Q 1688 409 2113 409 
Q 2538 409 2786 701 
Q 3034 994 3034 1497 
Q 3034 2003 2786 2293 
Q 2538 2584 2113 2584 
z
M 3366 4563 
L 3366 3988 
Q 3128 4100 2886 4159 
Q 2644 4219 2406 4219 
Q 1781 4219 1451 3797 
Q 1122 3375 1075 2522 
Q 1259 2794 1537 2939 
Q 1816 3084 2150 3084 
Q 2853 3084 3261 2657 
Q 3669 2231 3669 1497 
Q 3669 778 3244 343 
Q 2819 -91 2113 -91 
Q 1303 -91 875 529 
Q 447 1150 447 2328 
Q 447 3434 972 4092 
Q 1497 4750 2381 4750 
Q 2619 4750 2861 4703 
Q 3103 4656 3366 4563 
z
" transform="scale(0.015625)"/>
       </defs>
       <use xlink:href="#DejaVuSans-30"/>
       <use xlink:href="#DejaVuSans-2e" transform="translate(63.623047 0)"/>
       <use xlink:href="#DejaVuSans-36" transform="translate(95.410156 0)"/>
      </g>
     </g>
    </g>
    <g id="xtick_5">
     <g id="line2d_9">
      <path d="M 473.372756 299.518125 
L 473.372756 22.318125 
" clip-path="url(#pe39514bb02)" style="fill: none; stroke: #b0b0b0; stroke-opacity: 0.3; stroke-width: 0.8; stroke-linecap: square"/>
     </g>
     <g id="line2d_10">
      <g>
       <use xlink:href="#m7e8c23266b" x="473.372756" y="299.518125" style="stroke: #000000; stroke-width: 0.8"/>
      </g>
     </g>
     <g id="text_5">
      <!-- 0.8 -->
      <g transform="translate(466.216349 313.356719) scale(0.09 -0.09)">
       <defs>
        <path id="DejaVuSans-38" d="M 2034 2216 
Q 1584 2216 1326 1975 
Q 1069 1734 1069 1313 
Q 1069 891 1326 650 
Q 1584 409 2034 409 
Q 2484 409 2743 651 
Q 3003 894 3003 1313 
Q 3003 1734 2745 1975 
Q 2488 2216 2034 2216 
z
M 1403 2484 
Q 997 2584 770 2862 
Q 544 3141 544 3541 
Q 544 4100 942 4425 
Q 1341 4750 2034 4750 
Q 2731 4750 3128 4425 
Q 3525 4100 3525 3541 
Q 3525 3141 3298 2862 
Q 3072 2584 2669 2484 
Q 3125 2378 3379 2068 
Q 3634 1759 3634 1313 
Q 3634 634 3220 271 
Q 2806 -91 2034 -91 
Q 1263 -91 848 271 
Q 434 634 434 1313 
Q 434 1759 690 2068 
Q 947 2378 1403 2484 
z
M 1172 3481 
Q 1172 3119 1398 2916 
Q 1625 2713 2034 2713 
Q 2441 2713 2670 2916 
Q 2900 3119 2900 3481 
Q 2900 3844 2670 4047 
Q 2441 4250 2034 4250 
Q 1625 4250 1398 4047 
Q 1172 3844 1172 3481 
z
" transform="scale(0.015625)"/>
       </defs>
       <use xlink:href="#DejaVuSans-30"/>
       <use xlink:href="#DejaVuSans-2e" transform="translate(63.623047 0)"/>
       <use xlink:href="#DejaVuSans-38" transform="translate(95.410156 0)"/>
      </g>
     </g>
    </g>
    <g id="xtick_6">
     <g id="line2d_11">
      <path d="M 574.827301 299.518125 
L 574.827301 22.318125 
" clip-path="url(#pe39514bb02)" style="fill: none; stroke: #b0b0b0; stroke-opacity: 0.3; stroke-width: 0.8; stroke-linecap: square"/>
     </g>
     <g id="line2d_12">
      <g>
       <use xlink:href="#m7e8c23266b" x="574.827301" y="299.518125" style="stroke: #000000; stroke-width: 0.8"/>
      </g>
     </g>
     <g id="text_6">
      <!-- 1.0 -->
      <g transform="translate(567.670895 313.356719) scale(0.09 -0.09)">
       <defs>
        <path id="DejaVuSans-31" d="M 794 531 
L 1825 531 
L 1825 4091 
L 703 3866 
L 703 4441 
L 1819 4666 
L 2450 4666 
L 2450 531 
L 3481 531 
L 3481 0 
L 794 0 
L 794 531 
z
" transform="scale(0.015625)"/>
       </defs>
       <use xlink:href="#DejaVuSans-31"/>
       <use xlink:href="#DejaVuSans-2e" transform="translate(63.623047 0)"/>
       <use xlink:href="#DejaVuSans-30" transform="translate(95.410156 0)"/>
      </g>
     </g>
    </g>
    <g id="text_7">
     <!-- False Positive Rate -->
     <g transform="translate(274.724531 326.826875) scale(0.1 -0.1)">
      <defs>
       <path id="DejaVuSans-46" d="M 628 4666 
L 3309 4666 
L 3309 4134 
L 1259 4134 
L 1259 2759 
L 3109 2759 
L 3109 2228 
L 1259 2228 
L 1259 0 
L 628 0 
L 628 4666 
z
" transform="scale(0.015625)"/>
       <path id="DejaVuSans-61" d="M 2194 1759 
Q 1497 1759 1228 1600 
Q 959 1441 959 1056 
Q 959 750 1161 570 
Q 1363 391 1709 391 
Q 2188 391 2477 730 
Q 2766 1069 2766 1631 
L 2766 1759 
L 2194 1759 
z
M 3341 1997 
L 3341 0 
L 2766 0 
L 2766 531 
Q 2569 213 2275 61 
Q 1981 -91 1556 -91 
Q 1019 -91 701 211 
Q 384 513 384 1019 
Q 384 1609 779 1909 
Q 1175 2209 1959 2209 
L 2766 2209 
L 2766 2266 
Q 2766 2663 2505 2880 
Q 2244 3097 1772 3097 
Q 1472 3097 1187 3025 
Q 903 2953 641 2809 
L 641 3341 
Q 956 3463 1253 3523 
Q 1550 3584 1831 3584 
Q 2591 3584 2966 3190 
Q 3341 2797 3341 1997 
z
" transform="scale(0.015625)"/>
       <path id="DejaVuSans-6c" d="M 603 4863 
L 1178 4863 
L 1178 0 
L 603 0 
L 603 4863 
z
" transform="scale(0.015625)"/>
       <path id="DejaVuSans-73" d="M 2834 3397 
L 2834 2853 
Q 2591 2978 2328 3040 
Q 2066 3103 1784 3103 
Q 1356 3103 1142 2972 
Q 928 2841 928 2578 
Q 928 2378 1081 2264 
Q 1234 2150 1697 2047 
L 1894 2003 
Q 2506 1872 2764 1633 
Q 3022 1394 3022 966 
Q 3022 478 2636 193 
Q 2250 -91 1575 -91 
Q 1294 -91 989 -36 
Q 684 19 347 128 
L 347 722 
Q 666 556 975 473 
Q 1284 391 1588 391 
Q 1994 391 2212 530 
Q 2431 669 2431 922 
Q 2431 1156 2273 1281 
Q 2116 1406 1581 1522 
L 1381 1569 
Q 847 1681 609 1914 
Q 372 2147 372 2553 
Q 372 3047 722 3315 
Q 1072 3584 1716 3584 
Q 2034 3584 2315 3537 
Q 2597 3491 2834 3397 
z
" transform="scale(0.015625)"/>
       <path id="DejaVuSans-65" d="M 3597 1894 
L 3597 1613 
L 953 1613 
Q 991 1019 1311 708 
Q 1631 397 2203 397 
Q 2534 397 2845 478 
Q 3156 559 3463 722 
L 3463 178 
Q 3153 47 2828 -22 
Q 2503 -91 2169 -91 
Q 1331 -91 842 396 
Q 353 884 353 1716 
Q 353 2575 817 3079 
Q 1281 3584 2069 3584 
Q 2775 3584 3186 3129 
Q 3597 2675 3597 1894 
z
M 3022 2063 
Q 3016 2534 2758 2815 
Q 2500 3097 2075 3097 
Q 1594 3097 1305 2825 
Q 1016 2553 972 2059 
L 3022 2063 
z
" transform="scale(0.015625)"/>
       <path id="DejaVuSans-20" transform="scale(0.015625)"/>
       <path id="DejaVuSans-50" d="M 1259 4147 
L 1259 2394 
L 2053 2394 
Q 2494 2394 2734 2622 
Q 2975 2850 2975 3272 
Q 2975 3691 2734 3919 
Q 2494 4147 2053 4147 
L 1259 4147 
z
M 628 4666 
L 2053 4666 
Q 2838 4666 3239 4311 
Q 3641 3956 3641 3272 
Q 3641 2581 3239 2228 
Q 2838 1875 2053 1875 
L 1259 1875 
L 1259 0 
L 628 0 
L 628 4666 
z
" transform="scale(0.015625)"/>
       <path id="DejaVuSans-6f" d="M 1959 3097 
Q 1497 3097 1228 2736 
Q 959 2375 959 1747 
Q 959 1119 1226 758 
Q 1494 397 1959 397 
Q 2419 397 2687 759 
Q 2956 1122 2956 1747 
Q 2956 2369 2687 2733 
Q 2419 3097 1959 3097 
z
M 1959 3584 
Q 2709 3584 3137 3096 
Q 3566 2609 3566 1747 
Q 3566 888 3137 398 
Q 2709 -91 1959 -91 
Q 1206 -91 779 398 
Q 353 888 353 1747 
Q 353 2609 779 3096 
Q 1206 3584 1959 3584 
z
" transform="scale(0.015625)"/>
       <path id="DejaVuSans-69" d="M 603 3500 
L 1178 3500 
L 1178 0 
L 603 0 
L 603 3500 
z
M 603 4863 
L 1178 4863 
L 1178 4134 
L 603 4134 
L 603 4863 
z
" transform="scale(0.015625)"/>
       <path id="DejaVuSans-74" d="M 1172 4494 
L 1172 3500 
L 2356 3500 
L 2356 3053 
L 1172 3053 
L 1172 1153 
Q 1172 725 1289 603 
Q 1406 481 1766 481 
L 2356 481 
L 2356 0 
L 1766 0 
Q 1100 0 847 248 
Q 594 497 594 1153 
L 594 3053 
L 172 3053 
L 172 3500 
L 594 3500 
L 594 4494 
L 1172 4494 
z
" transform="scale(0.015625)"/>
       <path id="DejaVuSans-76" d="M 191 3500 
L 800 3500 
L 1894 563 
L 2988 3500 
L 3597 3500 
L 2284 0 
L 1503 0 
L 191 3500 
z
" transform="scale(0.015625)"/>
       <path id="DejaVuSans-52" d="M 2841 2188 
Q 3044 2119 3236 1894 
Q 3428 1669 3622 1275 
L 4263 0 
L 3584 0 
L 2988 1197 
Q 2756 1666 2539 1819 
Q 2322 1972 1947 1972 
L 1259 1972 
L 1259 0 
L 628 0 
L 628 4666 
L 2053 4666 
Q 2853 4666 3247 4331 
Q 3641 3997 3641 3322 
Q 3641 2881 3436 2590 
Q 3231 2300 2841 2188 
z
M 1259 4147 
L 1259 2491 
L 2053 2491 
Q 2509 2491 2742 2702 
Q 2975 2913 2975 3322 
Q 2975 3731 2742 3939 
Q 2509 4147 2053 4147 
L 1259 4147 
z
" transform="scale(0.015625)"/>
      </defs>
      <use xlink:href="#DejaVuSans-46"/>
      <use xlink:href="#DejaVuSans-61" transform="translate(48.394531 0)"/>
      <use xlink:href="#DejaVuSans-6c" transform="translate(109.673828 0)"/>
      <use xlink:href="#DejaVuSans-73" transform="translate(137.457031 0)"/>
      <use xlink:href="#DejaVuSans-65" transform="translate(189.556641 0)"/>
      <use xlink:href="#DejaVuSans-20" transform="translate(251.080078 0)"/>
      <use xlink:href="#DejaVuSans-50" transform="translate(282.867188 0)"/>
      <use xlink:href="#DejaVuSans-6f" transform="translate(339.544922 0)"/>
      <use xlink:href="#DejaVuSans-73" transform="translate(400.726562 0)"/>
      <use xlink:href="#DejaVuSans-69" transform="translate(452.826172 0)"/>
      <use xlink:href="#DejaVuSans-74" transform="translate(480.609375 0)"/>
      <use xlink:href="#DejaVuSans-69" transform="translate(519.818359 0)"/>
      <use xlink:href="#DejaVuSans-76" transform="translate(547.601562 0)"/>
      <use xlink:href="#DejaVuSans-65" transform="translate(606.78125 0)"/>
      <use xlink:href="#DejaVuSans-20" transform="translate(668.304688 0)"/>
      <use xlink:href="#DejaVuSans-52" transform="translate(700.091797 0)"/>
      <use xlink:href="#DejaVuSans-61" transform="translate(767.324219 0)"/>
      <use xlink:href="#DejaVuSans-74" transform="translate(828.603516 0)"/>
      <use xlink:href="#DejaVuSans-65" transform="translate(867.8125 0)"/>
     </g>
    </g>
   </g>
   <g id="matplotlib.axis_2">
    <g id="ytick_1">
     <g id="line2d_13">
      <path d="M 42.190938 286.918125 
L 600.190938 286.918125 
" clip-path="url(#pe39514bb02)" style="fill: none; stroke: #b0b0b0; stroke-opacity: 0.3; stroke-width: 0.8; stroke-linecap: square"/>
     </g>
     <g id="line2d_14">
      <defs>
       <path id="m98e6801c48" d="M 0 0 
L -3.5 0 
" style="stroke: #000000; stroke-width: 0.8"/>
      </defs>
      <g>
       <use xlink:href="#m98e6801c48" x="42.190938" y="286.918125" style="stroke: #000000; stroke-width: 0.8"/>
      </g>
     </g>
     <g id="text_8">
      <!-- 0.0 -->
      <g transform="translate(20.878125 290.337422) scale(0.09 -0.09)">
       <use xlink:href="#DejaVuSans-30"/>
       <use xlink:href="#DejaVuSans-2e" transform="translate(63.623047 0)"/>
       <use xlink:href="#DejaVuSans-30" transform="translate(95.410156 0)"/>
      </g>
     </g>
    </g>
    <g id="ytick_2">
     <g id="line2d_15">
      <path d="M 42.190938 236.518125 
L 600.190938 236.518125 
" clip-path="url(#pe39514bb02)" style="fill: none; stroke: #b0b0b0; stroke-opacity: 0.3; stroke-width: 0.8; stroke-linecap: square"/>
     </g>
     <g id="line2d_16">
      <g>
       <use xlink:href="#m98e6801c48" x="42.190938" y="236.518125" style="stroke: #000000; stroke-width: 0.8"/>
      </g>
     </g>
     <g id="text_9">
      <!-- 0.2 -->
      <g transform="translate(20.878125 239.937422) scale(0.09 -0.09)">
       <use xlink:href="#DejaVuSans-30"/>
       <use xlink:href="#DejaVuSans-2e" transform="translate(63.623047 0)"/>
       <use xlink:href="#DejaVuSans-32" transform="translate(95.410156 0)"/>
      </g>
     </g>
    </g>
    <g id="ytick_3">
     <g id="line2d_17">
      <path d="M 42.190938 186.118125 
L 600.190938 186.118125 
" clip-path="url(#pe39514bb02)" style="fill: none; stroke: #b0b0b0; stroke-opacity: 0.3; stroke-width: 0.8; stroke-linecap: square"/>
     </g>
     <g id="line2d_18">
      <g>
       <use xlink:href="#m98e6801c48" x="42.190938" y="186.118125" style="stroke: #000000; stroke-width: 0.8"/>
      </g>
     </g>
     <g id="text_10">
      <!-- 0.4 -->
      <g transform="translate(20.878125 189.537422) scale(0.09 -0.09)">
       <use xlink:href="#DejaVuSans-30"/>
       <use xlink:href="#DejaVuSans-2e" transform="translate(63.623047 0)"/>
       <use xlink:href="#DejaVuSans-34" transform="translate(95.410156 0)"/>
      </g>
     </g>
    </g>
    <g id="ytick_4">
     <g id="line2d_19">
      <path d="M 42.190938 135.718125 
L 600.190938 135.718125 
" clip-path="url(#pe39514bb02)" style="fill: none; stroke: #b0b0b0; stroke-opacity: 0.3; stroke-width: 0.8; stroke-linecap: square"/>
     </g>
     <g id="line2d_20">
      <g>
       <use xlink:href="#m98e6801c48" x="42.190938" y="135.718125" style="stroke: #000000; stroke-width: 0.8"/>
      </g>
     </g>
     <g id="text_11">
      <!-- 0.6 -->
      <g transform="translate(20.878125 139.137422) scale(0.09 -0.09)">
       <use xlink:href="#DejaVuSans-30"/>
       <use xlink:href="#DejaVuSans-2e" transform="translate(63.623047 0)"/>
       <use xlink:href="#DejaVuSans-36" transform="translate(95.410156 0)"/>
      </g>
     </g>
    </g>
    <g id="ytick_5">
     <g id="line2d_21">
      <path d="M 42.190938 85.318125 
L 600.190938 85.318125 
" clip-path="url(#pe39514bb02)" style="fill: none; stroke: #b0b0b0; stroke-opacity: 0.3; stroke-width: 0.8; stroke-linecap: square"/>
     </g>
     <g id="line2d_22">
      <g>
       <use xlink:href="#m98e6801c48" x="42.190938" y="85.318125" style="stroke: #000000; stroke-width: 0.8"/>
      </g>
     </g>
     <g id="text_12">
      <!-- 0.8 -->
      <g transform="translate(20.878125 88.737422) scale(0.09 -0.09)">
       <use xlink:href="#DejaVuSans-30"/>
       <use xlink:href="#DejaVuSans-2e" transform="translate(63.623047 0)"/>
       <use xlink:href="#DejaVuSans-38" transform="translate(95.410156 0)"/>
      </g>
     </g>
    </g>
    <g id="ytick_6">
     <g id="line2d_23">
      <path d="M 42.190938 34.918125 
L 600.190938 34.918125 
" clip-path="url(#pe39514bb02)" style="fill: none; stroke: #b0b0b0; stroke-opacity: 0.3; stroke-width: 0.8; stroke-linecap: square"/>
     </g>
     <g id="line2d_24">
      <g>
       <use xlink:href="#m98e6801c48" x="42.190938" y="34.918125" style="stroke: #000000; stroke-width: 0.8"/>
      </g>
     </g>
     <g id="text_13">
      <!-- 1.0 -->
      <g transform="translate(20.878125 38.337422) scale(0.09 -0.09)">
       <use xlink:href="#DejaVuSans-31"/>
       <use xlink:href="#DejaVuSans-2e" transform="translate(63.623047 0)"/>
       <use xlink:href="#DejaVuSans-30" transform="translate(95.410156 0)"/>
      </g>
     </g>
    </g>
    <g id="text_14">
     <!-- True Positive Rate -->
     <g transform="translate(14.798438 205.447813) rotate(-90) scale(0.1 -0.1)">
      <defs>
       <path id="DejaVuSans-54" d="M -19 4666 
L 3928 4666 
L 3928 4134 
L 2272 4134 
L 2272 0 
L 1638 0 
L 1638 4134 
L -19 4134 
L -19 4666 
z
" transform="scale(0.015625)"/>
       <path id="DejaVuSans-72" d="M 2631 2963 
Q 2534 3019 2420 3045 
Q 2306 3072 2169 3072 
Q 1681 3072 1420 2755 
Q 1159 2438 1159 1844 
L 1159 0 
L 581 0 
L 581 3500 
L 1159 3500 
L 1159 2956 
Q 1341 3275 1631 3429 
Q 1922 3584 2338 3584 
Q 2397 3584 2469 3576 
Q 2541 3569 2628 3553 
L 2631 2963 
z
" transform="scale(0.015625)"/>
       <path id="DejaVuSans-75" d="M 544 1381 
L 544 3500 
L 1119 3500 
L 1119 1403 
Q 1119 906 1312 657 
Q 1506 409 1894 409 
Q 2359 409 2629 706 
Q 2900 1003 2900 1516 
L 2900 3500 
L 3475 3500 
L 3475 0 
L 2900 0 
L 2900 538 
Q 2691 219 2414 64 
Q 2138 -91 1772 -91 
Q 1169 -91 856 284 
Q 544 659 544 1381 
z
M 1991 3584 
L 1991 3584 
z
" transform="scale(0.015625)"/>
      </defs>
      <use xlink:href="#DejaVuSans-54"/>
      <use xlink:href="#DejaVuSans-72" transform="translate(46.333984 0)"/>
      <use xlink:href="#DejaVuSans-75" transform="translate(87.447266 0)"/>
      <use xlink:href="#DejaVuSans-65" transform="translate(150.826172 0)"/>
      <use xlink:href="#DejaVuSans-20" transform="translate(212.349609 0)"/>
      <use xlink:href="#DejaVuSans-50" transform="translate(244.136719 0)"/>
      <use xlink:href="#DejaVuSans-6f" transform="translate(300.814453 0)"/>
      <use xlink:href="#DejaVuSans-73" transform="translate(361.996094 0)"/>
      <use xlink:href="#DejaVuSans-69" transform="translate(414.095703 0)"/>
      <use xlink:href="#DejaVuSans-74" transform="translate(441.878906 0)"/>
      <use xlink:href="#DejaVuSans-69" transform="translate(481.087891 0)"/>
      <use xlink:href="#DejaVuSans-76" transform="translate(508.871094 0)"/>
      <use xlink:href="#DejaVuSans-65" transform="translate(568.050781 0)"/>
      <use xlink:href="#DejaVuSans-20" transform="translate(629.574219 0)"/>
      <use xlink:href="#DejaVuSans-52" transform="translate(661.361328 0)"/>
      <use xlink:href="#DejaVuSans-61" transform="translate(728.59375 0)"/>
      <use xlink:href="#DejaVuSans-74" transform="translate(789.873047 0)"/>
      <use xlink:href="#DejaVuSans-65" transform="translate(829.082031 0)"/>
     </g>
    </g>
   </g>
   <g id="line2d_25">
    <path d="M 67.554574 286.918125 
L 67.554574 286.549165 
L 68.3326 286.549165 
L 68.3326 286.180204 
L 69.888651 286.180204 
L 69.888651 285.073323 
L 70.666676 285.073323 
L 70.666676 284.704362 
L 75.33483 284.704362 
L 75.33483 283.22852 
L 76.112856 283.22852 
L 76.112856 282.490599 
L 77.668907 282.490599 
L 77.668907 282.121639 
L 78.446933 282.121639 
L 78.446933 281.014758 
L 80.78101 281.014758 
L 80.78101 279.538916 
L 81.559036 279.538916 
L 81.559036 278.800995 
L 82.337061 278.800995 
L 82.337061 278.063074 
L 85.449164 278.063074 
L 85.449164 277.694113 
L 87.783241 277.694113 
L 87.783241 276.956192 
L 88.561267 276.956192 
L 88.561267 276.218271 
L 90.117318 276.218271 
L 90.117318 274.004509 
L 90.895344 274.004509 
L 90.895344 273.266588 
L 92.451395 273.266588 
L 92.451395 272.897627 
L 93.22942 272.897627 
L 93.22942 272.159706 
L 94.007446 272.159706 
L 94.007446 271.790746 
L 94.785472 271.790746 
L 94.785472 271.421785 
L 95.563497 271.421785 
L 95.563497 271.052825 
L 96.341523 271.052825 
L 96.341523 269.945943 
L 97.897574 269.945943 
L 97.897574 269.208023 
L 102.565728 269.208023 
L 102.565728 268.839062 
L 103.343754 268.839062 
L 103.343754 268.101141 
L 104.12178 268.101141 
L 104.12178 266.99426 
L 104.899805 266.99426 
L 104.899805 265.518418 
L 107.233882 265.518418 
L 107.233882 265.149457 
L 108.011908 265.149457 
L 108.011908 264.411536 
L 109.567959 264.411536 
L 109.567959 263.304655 
L 110.345985 263.304655 
L 110.345985 261.459853 
L 112.680062 261.459853 
L 112.680062 260.721932 
L 113.458088 260.721932 
L 113.458088 260.352971 
L 118.126241 260.352971 
L 118.126241 259.984011 
L 118.904267 259.984011 
L 118.904267 259.61505 
L 119.682293 259.61505 
L 119.682293 258.877129 
L 122.01637 258.877129 
L 122.01637 258.508169 
L 123.572421 258.508169 
L 123.572421 258.139208 
L 125.128472 258.139208 
L 125.128472 254.818564 
L 126.684524 254.818564 
L 126.684524 253.342722 
L 128.240575 253.342722 
L 128.240575 252.973762 
L 129.018601 252.973762 
L 129.018601 252.235841 
L 129.796626 252.235841 
L 129.796626 251.12896 
L 130.574652 251.12896 
L 130.574652 250.391039 
L 132.908729 250.391039 
L 132.908729 250.022078 
L 133.686755 250.022078 
L 133.686755 248.177276 
L 134.46478 248.177276 
L 134.46478 247.439355 
L 135.242806 247.439355 
L 135.242806 246.332473 
L 136.020832 246.332473 
L 136.020832 245.963513 
L 137.576883 245.963513 
L 137.576883 244.856632 
L 140.688985 244.856632 
L 140.688985 244.118711 
L 141.467011 244.118711 
L 141.467011 243.38079 
L 142.245037 243.38079 
L 142.245037 241.535987 
L 143.023062 241.535987 
L 143.023062 241.167027 
L 143.801088 241.167027 
L 143.801088 240.798066 
L 145.357139 240.798066 
L 145.357139 239.691185 
L 146.135165 239.691185 
L 146.135165 239.322225 
L 147.691216 239.322225 
L 147.691216 238.953264 
L 149.247268 238.953264 
L 149.247268 238.215343 
L 150.025293 238.215343 
L 150.025293 237.108462 
L 151.581345 237.108462 
L 151.581345 236.739501 
L 153.137396 236.739501 
L 153.137396 236.370541 
L 154.693447 236.370541 
L 154.693447 235.63262 
L 159.361601 235.63262 
L 159.361601 235.263659 
L 160.139627 235.263659 
L 160.139627 234.156778 
L 160.917653 234.156778 
L 160.917653 233.787818 
L 162.473704 233.787818 
L 162.473704 233.049897 
L 163.251729 233.049897 
L 163.251729 232.680936 
L 164.029755 232.680936 
L 164.029755 231.943015 
L 165.585806 231.943015 
L 165.585806 229.360292 
L 168.697909 229.360292 
L 168.697909 228.622371 
L 171.810012 228.622371 
L 171.810012 228.253411 
L 174.144089 228.253411 
L 174.144089 227.88445 
L 174.922114 227.88445 
L 174.922114 226.777569 
L 175.70014 226.777569 
L 175.70014 226.039648 
L 176.478166 226.039648 
L 176.478166 225.670687 
L 178.034217 225.670687 
L 178.034217 224.563806 
L 185.036448 224.563806 
L 185.036448 224.194845 
L 186.592499 224.194845 
L 186.592499 223.456924 
L 187.370525 223.456924 
L 187.370525 222.719003 
L 188.14855 222.719003 
L 188.14855 221.981083 
L 188.926576 221.981083 
L 188.926576 221.612122 
L 193.59473 221.612122 
L 193.59473 221.243162 
L 195.150781 221.243162 
L 195.150781 219.76732 
L 195.928807 219.76732 
L 195.928807 218.660438 
L 196.706833 218.660438 
L 196.706833 217.922517 
L 199.818935 217.922517 
L 199.818935 217.553557 
L 200.596961 217.553557 
L 200.596961 216.077715 
L 201.374987 216.077715 
L 201.374987 215.708755 
L 202.931038 215.708755 
L 202.931038 214.232913 
L 204.487089 214.232913 
L 204.487089 213.494992 
L 205.265115 213.494992 
L 206.043141 213.126031 
L 207.599192 213.126031 
L 207.599192 211.650189 
L 209.155243 211.650189 
L 209.155243 211.281229 
L 209.933269 211.281229 
L 209.933269 207.960585 
L 211.48932 207.960585 
L 211.48932 207.591624 
L 212.267346 207.591624 
L 212.267346 207.222664 
L 214.601423 207.222664 
L 214.601423 206.853703 
L 215.379448 206.853703 
L 215.379448 206.484743 
L 216.157474 206.484743 
L 216.157474 206.115782 
L 216.9355 206.115782 
L 216.9355 205.746822 
L 217.713525 205.746822 
L 217.713525 205.377861 
L 218.491551 205.377861 
L 218.491551 205.008901 
L 220.825628 205.008901 
L 220.825628 204.639941 
L 226.271808 204.639941 
L 226.271808 204.27098 
L 227.049833 204.27098 
L 227.049833 203.90202 
L 227.827859 203.90202 
L 227.827859 203.533059 
L 228.605885 203.533059 
L 228.605885 203.164099 
L 230.161936 203.164099 
L 230.161936 202.795138 
L 230.939961 202.795138 
L 230.939961 202.057217 
L 232.496013 202.057217 
L 232.496013 201.319296 
L 233.274038 201.319296 
L 233.274038 200.950336 
L 234.83009 200.950336 
L 234.83009 200.581375 
L 235.608115 200.581375 
L 235.608115 199.474494 
L 236.386141 199.474494 
L 236.386141 198.736573 
L 237.164167 198.736573 
L 237.164167 198.367613 
L 237.942192 198.367613 
L 237.942192 197.998652 
L 238.720218 197.998652 
L 238.720218 196.891771 
L 244.944423 196.891771 
L 244.944423 196.52281 
L 247.2785 196.52281 
L 247.2785 195.784889 
L 248.056526 195.784889 
L 248.056526 195.046968 
L 248.834552 195.046968 
L 248.834552 194.678008 
L 249.612577 194.678008 
L 249.612577 194.309047 
L 250.390603 194.309047 
L 250.390603 193.940087 
L 251.946654 193.940087 
L 251.946654 193.571126 
L 252.72468 193.571126 
L 252.72468 192.833206 
L 253.502705 192.833206 
L 253.502705 192.464245 
L 255.836782 192.464245 
L 255.836782 190.619443 
L 258.170859 190.619443 
L 258.170859 189.143601 
L 260.504936 189.143601 
L 260.504936 188.40568 
L 261.282962 188.40568 
L 261.282962 188.036719 
L 262.060988 188.036719 
L 262.060988 186.929838 
L 263.617039 186.929838 
L 263.617039 186.560878 
L 264.395065 186.560878 
L 264.395065 186.191917 
L 265.17309 186.191917 
L 265.17309 185.085036 
L 266.729142 185.085036 
L 266.729142 183.609194 
L 267.507167 183.609194 
L 267.507167 183.240233 
L 268.285193 183.240233 
L 268.285193 182.502312 
L 269.841244 182.502312 
L 269.841244 181.764391 
L 271.397296 181.764391 
L 271.397296 181.395431 
L 275.287424 181.395431 
L 275.287424 181.026471 
L 279.955578 181.026471 
L 279.955578 180.65751 
L 285.401757 180.65751 
L 285.401757 179.919589 
L 287.735834 179.919589 
L 287.735834 179.181668 
L 288.51386 179.181668 
L 288.51386 178.812708 
L 290.069911 178.812708 
L 290.069911 176.967905 
L 292.403988 176.967905 
L 292.403988 176.598945 
L 293.96004 176.598945 
L 293.96004 175.492064 
L 295.516091 175.492064 
L 295.516091 175.123103 
L 296.294117 175.123103 
L 296.294117 174.016222 
L 299.406219 174.016222 
L 299.406219 173.647261 
L 300.184245 173.647261 
L 300.184245 173.278301 
L 301.740296 173.278301 
L 301.740296 172.90934 
L 302.518322 172.90934 
L 302.518322 171.802459 
L 303.296347 171.802459 
L 303.296347 171.433498 
L 304.074373 171.433498 
L 304.074373 171.064538 
L 306.40845 171.064538 
L 306.40845 170.326617 
L 307.186476 170.326617 
L 307.186476 169.588696 
L 307.964501 169.588696 
L 307.964501 168.850775 
L 308.742527 168.850775 
L 308.742527 168.481815 
L 310.298578 168.481815 
L 310.298578 168.112854 
L 311.076604 168.112854 
L 311.076604 167.743894 
L 311.85463 167.743894 
L 311.85463 166.637012 
L 312.632655 166.637012 
L 312.632655 166.268052 
L 314.188707 166.268052 
L 314.188707 165.530131 
L 315.744758 165.530131 
L 315.744758 163.316368 
L 317.300809 163.316368 
L 317.300809 162.947408 
L 318.856861 162.947408 
L 318.856861 162.209487 
L 320.412912 162.209487 
L 320.412912 161.840526 
L 321.190938 161.840526 
L 321.190938 159.626763 
L 323.525014 159.626763 
L 323.525014 158.888842 
L 325.081066 158.888842 
L 325.081066 158.519882 
L 327.415143 158.519882 
L 327.415143 157.781961 
L 328.971194 157.781961 
L 328.971194 157.04404 
L 329.74922 157.04404 
L 329.74922 156.306119 
L 330.527245 156.306119 
L 330.527245 154.830277 
L 332.861322 154.830277 
L 332.861322 154.461317 
L 333.639348 154.461317 
L 333.639348 154.092356 
L 339.863553 154.092356 
L 339.863553 153.723396 
L 341.419605 153.723396 
L 341.419605 152.985475 
L 342.975656 152.985475 
L 342.975656 152.247554 
L 346.865784 152.247554 
L 346.865784 151.878594 
L 348.421835 151.878594 
L 348.421835 150.402752 
L 349.199861 150.402752 
L 349.199861 150.033791 
L 349.977887 150.033791 
L 349.977887 149.29587 
L 351.533938 149.29587 
L 351.533938 148.557949 
L 356.980118 148.557949 
L 356.980118 148.188989 
L 357.758143 148.188989 
L 357.758143 147.451068 
L 358.536169 147.451068 
L 358.536169 145.975226 
L 359.314195 145.975226 
L 359.314195 145.237305 
L 360.870246 145.237305 
L 360.870246 144.499384 
L 363.982349 144.499384 
L 363.982349 144.130424 
L 365.5384 144.130424 
L 365.5384 143.392503 
L 367.094451 143.392503 
L 367.094451 141.916661 
L 370.206554 141.916661 
L 370.206554 139.702898 
L 370.984579 139.702898 
L 370.984579 139.333938 
L 372.540631 139.333938 
L 372.540631 138.964977 
L 375.652733 138.964977 
L 375.652733 137.858096 
L 376.430759 137.858096 
L 376.430759 137.489135 
L 377.98681 137.489135 
L 377.98681 136.382254 
L 378.764836 136.382254 
L 378.764836 135.275372 
L 379.542862 135.275372 
L 379.542862 134.168491 
L 381.098913 134.168491 
L 381.098913 133.43057 
L 382.654964 133.43057 
L 382.654964 133.06161 
L 384.211016 133.06161 
L 384.211016 132.323689 
L 384.989041 132.323689 
L 384.989041 131.585768 
L 385.767067 131.585768 
L 385.767067 130.109926 
L 388.101144 130.109926 
L 388.101144 128.634084 
L 391.213246 128.634084 
L 391.213246 128.265124 
L 392.769298 128.265124 
L 392.769298 127.896163 
L 395.103375 127.896163 
L 395.103375 127.527203 
L 395.8814 127.527203 
L 395.8814 126.789282 
L 397.437452 126.789282 
L 397.437452 126.420321 
L 398.993503 126.420321 
L 398.993503 126.051361 
L 399.771529 126.051361 
L 399.771529 124.944479 
L 400.549554 124.944479 
L 400.549554 122.361756 
L 401.32758 122.361756 
L 401.32758 121.623835 
L 404.439683 121.623835 
L 404.439683 121.254875 
L 405.217708 121.254875 
L 405.217708 120.885914 
L 406.77376 120.885914 
L 406.77376 120.516954 
L 408.329811 120.516954 
L 408.329811 120.147993 
L 409.107837 120.147993 
L 409.107837 119.779033 
L 409.885862 119.779033 
L 409.885862 119.410072 
L 410.663888 119.410072 
L 410.663888 119.041112 
L 411.441914 119.041112 
L 411.441914 118.672151 
L 412.997965 118.672151 
L 412.997965 118.303191 
L 416.110067 118.303191 
L 416.110067 117.56527 
L 416.888093 117.56527 
L 416.888093 117.196309 
L 419.22217 117.196309 
L 419.22217 116.827349 
L 420.778221 116.827349 
L 420.778221 115.351507 
L 421.556247 115.351507 
L 421.556247 114.982547 
L 424.66835 114.982547 
L 424.66835 113.875665 
L 425.446375 113.875665 
L 425.446375 113.506705 
L 426.224401 113.506705 
L 426.224401 113.137744 
L 427.002427 113.137744 
L 427.002427 112.768784 
L 427.780452 112.768784 
L 427.780452 111.292942 
L 430.114529 111.292942 
L 430.114529 110.923982 
L 430.892555 110.923982 
L 430.892555 110.555021 
L 433.226632 110.555021 
L 433.226632 109.8171 
L 434.782683 109.8171 
L 434.782683 108.341258 
L 435.560709 108.341258 
L 435.560709 106.127495 
L 440.228863 106.127495 
L 440.228863 105.758535 
L 441.006888 105.758535 
L 441.006888 105.389574 
L 441.784914 105.389574 
L 441.784914 105.020614 
L 442.56294 105.020614 
L 442.56294 104.651654 
L 447.231094 104.651654 
L 447.231094 103.544772 
L 448.787145 103.544772 
L 448.787145 102.806851 
L 449.565171 102.806851 
L 449.565171 102.437891 
L 450.343196 102.437891 
L 450.343196 101.69997 
L 451.121222 101.69997 
L 451.121222 100.593088 
L 455.789376 100.593088 
L 455.789376 100.224128 
L 457.345427 100.224128 
L 457.345427 99.486207 
L 458.123453 99.486207 
L 458.123453 98.748286 
L 458.901478 98.748286 
L 458.901478 98.379326 
L 459.679504 98.379326 
L 459.679504 97.272444 
L 461.235555 97.272444 
L 461.235555 96.534523 
L 462.013581 96.534523 
L 462.013581 96.165563 
L 462.791607 96.165563 
L 462.791607 95.427642 
L 463.569632 95.427642 
L 463.569632 94.689721 
L 464.347658 94.689721 
L 464.347658 94.32076 
L 465.125684 94.32076 
L 465.125684 93.9518 
L 465.903709 93.9518 
L 465.903709 93.213879 
L 466.681735 93.213879 
L 466.681735 92.844919 
L 468.237786 92.844919 
L 468.237786 92.475958 
L 469.015812 92.475958 
L 469.015812 92.106998 
L 469.793838 92.106998 
L 469.793838 91.738037 
L 471.349889 91.738037 
L 471.349889 91.000116 
L 472.127915 91.000116 
L 472.127915 89.893235 
L 473.683966 89.893235 
L 473.683966 88.048432 
L 474.461992 88.048432 
L 474.461992 87.679472 
L 479.908171 87.679472 
L 479.908171 87.310512 
L 480.686197 87.310512 
L 480.686197 86.941551 
L 482.242248 86.941551 
L 482.242248 85.83467 
L 484.576325 85.83467 
L 484.576325 85.465709 
L 485.354351 85.465709 
L 485.354351 85.096749 
L 486.132376 85.096749 
L 486.132376 84.358828 
L 486.910402 84.358828 
L 486.910402 83.989867 
L 487.688428 83.989867 
L 487.688428 83.251946 
L 488.466453 83.251946 
L 488.466453 82.882986 
L 489.244479 82.882986 
L 489.244479 82.145065 
L 490.022505 82.145065 
L 490.022505 80.300263 
L 491.578556 80.300263 
L 491.578556 79.931302 
L 493.134607 79.931302 
L 493.134607 79.562342 
L 493.912633 79.562342 
L 493.912633 78.824421 
L 496.24671 78.824421 
L 496.24671 78.45546 
L 497.024736 78.45546 
L 497.024736 78.0865 
L 497.802761 78.0865 
L 497.802761 74.765856 
L 498.580787 74.765856 
L 498.580787 74.027935 
L 500.136838 74.027935 
L 500.136838 73.658974 
L 500.914864 73.658974 
L 500.914864 73.290014 
L 504.026967 73.290014 
L 504.026967 72.183132 
L 504.804992 72.183132 
L 504.804992 70.70729 
L 505.583018 70.70729 
L 505.583018 69.96937 
L 506.361043 69.96937 
L 506.361043 69.600409 
L 507.917095 69.600409 
L 507.917095 69.231449 
L 508.69512 69.231449 
L 508.69512 68.862488 
L 510.251172 68.862488 
L 510.251172 68.493528 
L 511.029197 68.493528 
L 511.029197 68.124567 
L 511.807223 68.124567 
L 511.807223 67.755607 
L 512.585249 67.755607 
L 512.585249 67.386646 
L 513.363274 67.386646 
L 513.363274 66.648725 
L 514.1413 66.648725 
L 514.1413 66.279765 
L 514.919326 66.279765 
L 514.919326 65.910804 
L 518.809454 65.910804 
L 518.809454 65.541844 
L 519.58748 65.541844 
L 519.58748 65.172883 
L 521.143531 65.172883 
L 521.143531 64.803923 
L 521.921557 64.803923 
L 521.921557 64.434962 
L 522.699582 64.434962 
L 522.699582 64.066002 
L 524.255634 64.066002 
L 524.255634 63.697042 
L 525.033659 63.697042 
L 525.033659 63.328081 
L 526.589711 63.328081 
L 526.589711 62.959121 
L 527.367736 62.959121 
L 527.367736 62.59016 
L 530.479839 62.59016 
L 530.479839 62.2212 
L 532.03589 62.2212 
L 532.03589 61.114318 
L 533.591941 61.114318 
L 533.591941 60.376397 
L 534.369967 60.376397 
L 534.369967 58.900555 
L 535.926018 58.900555 
L 535.926018 57.424714 
L 536.704044 57.424714 
L 536.704044 56.317832 
L 539.816147 56.317832 
L 539.816147 55.210951 
L 540.594172 55.210951 
L 540.594172 54.84199 
L 542.150224 54.84199 
L 542.150224 54.47303 
L 543.706275 54.47303 
L 543.706275 53.735109 
L 544.484301 53.735109 
L 544.484301 53.366148 
L 545.262326 53.366148 
L 545.262326 52.997188 
L 546.040352 52.997188 
L 546.040352 52.628227 
L 546.818378 52.628227 
L 546.818378 51.890307 
L 547.596403 51.890307 
L 547.596403 51.152386 
L 549.152455 51.152386 
L 549.152455 50.783425 
L 549.93048 50.783425 
L 549.93048 50.045504 
L 550.708506 50.045504 
L 550.708506 48.200702 
L 551.486531 48.200702 
L 551.486531 47.831741 
L 552.264557 47.831741 
L 552.264557 45.617979 
L 553.042583 45.617979 
L 553.042583 44.511097 
L 553.820608 44.511097 
L 553.820608 44.142137 
L 554.598634 44.142137 
L 554.598634 43.404216 
L 557.710737 43.404216 
L 557.710737 43.035255 
L 559.266788 43.035255 
L 559.266788 42.666295 
L 561.600865 42.666295 
L 561.600865 42.297334 
L 562.378891 42.297334 
L 562.378891 41.559413 
L 563.156916 41.559413 
L 563.156916 41.190453 
L 564.712968 41.190453 
L 564.712968 40.452532 
L 565.490993 40.452532 
L 565.490993 39.345651 
L 566.269019 39.345651 
L 566.269019 38.60773 
L 567.047045 38.60773 
L 567.047045 37.869809 
L 568.603096 37.869809 
L 568.603096 36.762927 
L 569.381122 36.762927 
L 569.381122 36.393967 
L 570.159147 36.393967 
L 570.159147 36.025006 
L 573.27125 36.025006 
L 573.27125 35.656046 
L 574.049275 35.656046 
L 574.049275 34.918125 
L 574.827301 34.918125 
L 574.827301 34.918125 
" clip-path="url(#pe39514bb02)" style="fill: none; stroke: #1f77b4; stroke-width: 1.5; stroke-linecap: square"/>
   </g>
   <g id="line2d_26">
    <path d="M 67.554574 286.918125 
L 574.827301 34.918125 
" clip-path="url(#pe39514bb02)" style="fill: none; stroke-dasharray: 5.55,2.4; stroke-dashoffset: 0; stroke: #ff7f0e; stroke-width: 1.5"/>
   </g>
   <g id="patch_3">
    <path d="M 42.190938 299.518125 
L 42.190938 22.318125 
" style="fill: none; stroke: #000000; stroke-width: 0.8; stroke-linejoin: miter; stroke-linecap: square"/>
   </g>
   <g id="patch_4">
    <path d="M 600.190938 299.518125 
L 600.190938 22.318125 
" style="fill: none; stroke: #000000; stroke-width: 0.8; stroke-linejoin: miter; stroke-linecap: square"/>
   </g>
   <g id="patch_5">
    <path d="M 42.190938 299.518125 
L 600.190938 299.518125 
" style="fill: none; stroke: #000000; stroke-width: 0.8; stroke-linejoin: miter; stroke-linecap: square"/>
   </g>
   <g id="patch_6">
    <path d="M 42.190938 22.318125 
L 600.190938 22.318125 
" style="fill: none; stroke: #000000; stroke-width: 0.8; stroke-linejoin: miter; stroke-linecap: square"/>
   </g>
   <g id="text_15">
    <!-- supervised_up ROC Curve -->
    <g transform="translate(243.241563 16.318125) scale(0.12 -0.12)">
     <defs>
      <path id="DejaVuSans-70" d="M 1159 525 
L 1159 -1331 
L 581 -1331 
L 581 3500 
L 1159 3500 
L 1159 2969 
Q 1341 3281 1617 3432 
Q 1894 3584 2278 3584 
Q 2916 3584 3314 3078 
Q 3713 2572 3713 1747 
Q 3713 922 3314 415 
Q 2916 -91 2278 -91 
Q 1894 -91 1617 61 
Q 1341 213 1159 525 
z
M 3116 1747 
Q 3116 2381 2855 2742 
Q 2594 3103 2138 3103 
Q 1681 3103 1420 2742 
Q 1159 2381 1159 1747 
Q 1159 1113 1420 752 
Q 1681 391 2138 391 
Q 2594 391 2855 752 
Q 3116 1113 3116 1747 
z
" transform="scale(0.015625)"/>
      <path id="DejaVuSans-64" d="M 2906 2969 
L 2906 4863 
L 3481 4863 
L 3481 0 
L 2906 0 
L 2906 525 
Q 2725 213 2448 61 
Q 2172 -91 1784 -91 
Q 1150 -91 751 415 
Q 353 922 353 1747 
Q 353 2572 751 3078 
Q 1150 3584 1784 3584 
Q 2172 3584 2448 3432 
Q 2725 3281 2906 2969 
z
M 947 1747 
Q 947 1113 1208 752 
Q 1469 391 1925 391 
Q 2381 391 2643 752 
Q 2906 1113 2906 1747 
Q 2906 2381 2643 2742 
Q 2381 3103 1925 3103 
Q 1469 3103 1208 2742 
Q 947 2381 947 1747 
z
" transform="scale(0.015625)"/>
      <path id="DejaVuSans-5f" d="M 3263 -1063 
L 3263 -1509 
L -63 -1509 
L -63 -1063 
L 3263 -1063 
z
" transform="scale(0.015625)"/>
      <path id="DejaVuSans-4f" d="M 2522 4238 
Q 1834 4238 1429 3725 
Q 1025 3213 1025 2328 
Q 1025 1447 1429 934 
Q 1834 422 2522 422 
Q 3209 422 3611 934 
Q 4013 1447 4013 2328 
Q 4013 3213 3611 3725 
Q 3209 4238 2522 4238 
z
M 2522 4750 
Q 3503 4750 4090 4092 
Q 4678 3434 4678 2328 
Q 4678 1225 4090 567 
Q 3503 -91 2522 -91 
Q 1538 -91 948 565 
Q 359 1222 359 2328 
Q 359 3434 948 4092 
Q 1538 4750 2522 4750 
z
" transform="scale(0.015625)"/>
      <path id="DejaVuSans-43" d="M 4122 4306 
L 4122 3641 
Q 3803 3938 3442 4084 
Q 3081 4231 2675 4231 
Q 1875 4231 1450 3742 
Q 1025 3253 1025 2328 
Q 1025 1406 1450 917 
Q 1875 428 2675 428 
Q 3081 428 3442 575 
Q 3803 722 4122 1019 
L 4122 359 
Q 3791 134 3420 21 
Q 3050 -91 2638 -91 
Q 1578 -91 968 557 
Q 359 1206 359 2328 
Q 359 3453 968 4101 
Q 1578 4750 2638 4750 
Q 3056 4750 3426 4639 
Q 3797 4528 4122 4306 
z
" transform="scale(0.015625)"/>
     </defs>
     <use xlink:href="#DejaVuSans-73"/>
     <use xlink:href="#DejaVuSans-75" transform="translate(52.099609 0)"/>
     <use xlink:href="#DejaVuSans-70" transform="translate(115.478516 0)"/>
     <use xlink:href="#DejaVuSans-65" transform="translate(178.955078 0)"/>
     <use xlink:href="#DejaVuSans-72" transform="translate(240.478516 0)"/>
     <use xlink:href="#DejaVuSans-76" transform="translate(281.591797 0)"/>
     <use xlink:href="#DejaVuSans-69" transform="translate(340.771484 0)"/>
     <use xlink:href="#DejaVuSans-73" transform="translate(368.554688 0)"/>
     <use xlink:href="#DejaVuSans-65" transform="translate(420.654297 0)"/>
     <use xlink:href="#DejaVuSans-64" transform="translate(482.177734 0)"/>
     <use xlink:href="#DejaVuSans-5f" transform="translate(545.654297 0)"/>
     <use xlink:href="#DejaVuSans-75" transform="translate(595.654297 0)"/>
     <use xlink:href="#DejaVuSans-70" transform="translate(659.033203 0)"/>
     <use xlink:href="#DejaVuSans-20" transform="translate(722.509766 0)"/>
     <use xlink:href="#DejaVuSans-52" transform="translate(754.296875 0)"/>
     <use xlink:href="#DejaVuSans-4f" transform="translate(823.779297 0)"/>
     <use xlink:href="#DejaVuSans-43" transform="translate(902.490234 0)"/>
     <use xlink:href="#DejaVuSans-20" transform="translate(972.314453 0)"/>
     <use xlink:href="#DejaVuSans-43" transform="translate(1004.101562 0)"/>
     <use xlink:href="#DejaVuSans-75" transform="translate(1073.925781 0)"/>
     <use xlink:href="#DejaVuSans-72" transform="translate(1137.304688 0)"/>
     <use xlink:href="#DejaVuSans-76" transform="translate(1178.417969 0)"/>
     <use xlink:href="#DejaVuSans-65" transform="translate(1237.597656 0)"/>
    </g>
   </g>
   <g id="legend_1">
    <g id="patch_7">
     <path d="M 48.490938 55.93875 
L 129.625937 55.93875 
Q 131.425938 55.93875 131.425938 54.13875 
L 131.425938 28.618125 
Q 131.425938 26.818125 129.625937 26.818125 
L 48.490938 26.818125 
Q 46.690938 26.818125 46.690938 28.618125 
L 46.690938 54.13875 
Q 46.690938 55.93875 48.490938 55.93875 
z
" style="fill: #ffffff; opacity: 0.8; stroke: #cccccc; stroke-linejoin: miter"/>
    </g>
    <g id="line2d_27">
     <path d="M 50.290938 34.106719 
L 59.290938 34.106719 
L 68.290938 34.106719 
" style="fill: none; stroke: #1f77b4; stroke-width: 1.5; stroke-linecap: square"/>
    </g>
    <g id="text_16">
     <!-- AUC=0.500 -->
     <g transform="translate(75.490938 37.256719) scale(0.09 -0.09)">
      <defs>
       <path id="DejaVuSans-41" d="M 2188 4044 
L 1331 1722 
L 3047 1722 
L 2188 4044 
z
M 1831 4666 
L 2547 4666 
L 4325 0 
L 3669 0 
L 3244 1197 
L 1141 1197 
L 716 0 
L 50 0 
L 1831 4666 
z
" transform="scale(0.015625)"/>
       <path id="DejaVuSans-55" d="M 556 4666 
L 1191 4666 
L 1191 1831 
Q 1191 1081 1462 751 
Q 1734 422 2344 422 
Q 2950 422 3222 751 
Q 3494 1081 3494 1831 
L 3494 4666 
L 4128 4666 
L 4128 1753 
Q 4128 841 3676 375 
Q 3225 -91 2344 -91 
Q 1459 -91 1007 375 
Q 556 841 556 1753 
L 556 4666 
z
" transform="scale(0.015625)"/>
       <path id="DejaVuSans-3d" d="M 678 2906 
L 4684 2906 
L 4684 2381 
L 678 2381 
L 678 2906 
z
M 678 1631 
L 4684 1631 
L 4684 1100 
L 678 1100 
L 678 1631 
z
" transform="scale(0.015625)"/>
       <path id="DejaVuSans-35" d="M 691 4666 
L 3169 4666 
L 3169 4134 
L 1269 4134 
L 1269 2991 
Q 1406 3038 1543 3061 
Q 1681 3084 1819 3084 
Q 2600 3084 3056 2656 
Q 3513 2228 3513 1497 
Q 3513 744 3044 326 
Q 2575 -91 1722 -91 
Q 1428 -91 1123 -41 
Q 819 9 494 109 
L 494 744 
Q 775 591 1075 516 
Q 1375 441 1709 441 
Q 2250 441 2565 725 
Q 2881 1009 2881 1497 
Q 2881 1984 2565 2268 
Q 2250 2553 1709 2553 
Q 1456 2553 1204 2497 
Q 953 2441 691 2322 
L 691 4666 
z
" transform="scale(0.015625)"/>
      </defs>
      <use xlink:href="#DejaVuSans-41"/>
      <use xlink:href="#DejaVuSans-55" transform="translate(68.408203 0)"/>
      <use xlink:href="#DejaVuSans-43" transform="translate(141.601562 0)"/>
      <use xlink:href="#DejaVuSans-3d" transform="translate(211.425781 0)"/>
      <use xlink:href="#DejaVuSans-30" transform="translate(295.214844 0)"/>
      <use xlink:href="#DejaVuSans-2e" transform="translate(358.837891 0)"/>
      <use xlink:href="#DejaVuSans-35" transform="translate(390.625 0)"/>
      <use xlink:href="#DejaVuSans-30" transform="translate(454.248047 0)"/>
      <use xlink:href="#DejaVuSans-30" transform="translate(517.871094 0)"/>
     </g>
    </g>
    <g id="line2d_28">
     <path d="M 50.290938 47.317031 
L 59.290938 47.317031 
L 68.290938 47.317031 
" style="fill: none; stroke-dasharray: 5.55,2.4; stroke-dashoffset: 0; stroke: #ff7f0e; stroke-width: 1.5"/>
    </g>
    <g id="text_17">
     <!-- random -->
     <g transform="translate(75.490938 50.467031) scale(0.09 -0.09)">
      <defs>
       <path id="DejaVuSans-6e" d="M 3513 2113 
L 3513 0 
L 2938 0 
L 2938 2094 
Q 2938 2591 2744 2837 
Q 2550 3084 2163 3084 
Q 1697 3084 1428 2787 
Q 1159 2491 1159 1978 
L 1159 0 
L 581 0 
L 581 3500 
L 1159 3500 
L 1159 2956 
Q 1366 3272 1645 3428 
Q 1925 3584 2291 3584 
Q 2894 3584 3203 3211 
Q 3513 2838 3513 2113 
z
" transform="scale(0.015625)"/>
       <path id="DejaVuSans-6d" d="M 3328 2828 
Q 3544 3216 3844 3400 
Q 4144 3584 4550 3584 
Q 5097 3584 5394 3201 
Q 5691 2819 5691 2113 
L 5691 0 
L 5113 0 
L 5113 2094 
Q 5113 2597 4934 2840 
Q 4756 3084 4391 3084 
Q 3944 3084 3684 2787 
Q 3425 2491 3425 1978 
L 3425 0 
L 2847 0 
L 2847 2094 
Q 2847 2600 2669 2842 
Q 2491 3084 2119 3084 
Q 1678 3084 1418 2786 
Q 1159 2488 1159 1978 
L 1159 0 
L 581 0 
L 581 3500 
L 1159 3500 
L 1159 2956 
Q 1356 3278 1631 3431 
Q 1906 3584 2284 3584 
Q 2666 3584 2933 3390 
Q 3200 3197 3328 2828 
z
" transform="scale(0.015625)"/>
      </defs>
      <use xlink:href="#DejaVuSans-72"/>
      <use xlink:href="#DejaVuSans-61" transform="translate(41.113281 0)"/>
      <use xlink:href="#DejaVuSans-6e" transform="translate(102.392578 0)"/>
      <use xlink:href="#DejaVuSans-64" transform="translate(165.771484 0)"/>
      <use xlink:href="#DejaVuSans-6f" transform="translate(229.248047 0)"/>
      <use xlink:href="#DejaVuSans-6d" transform="translate(290.429688 0)"/>
     </g>
    </g>
   </g>
  </g>
 </g>
 <defs>
  <clipPath id="pe39514bb02">
   <rect x="42.190938" y="22.318125" width="558" height="277.2"/>
  </clipPath>
 </defs>
</svg>
