<?xml version="1.0" encoding="utf-8" standalone="no"?>
<!DOCTYPE svg PUBLIC "-//W3C//DTD SVG 1.1//EN"
  "http://www.w3.org/Graphics/SVG/1.1/DTD/svg11.dtd">
<svg xmlns:xlink="http://www.w3.org/1999/xlink" width="614.932656pt" height="336.106563pt" viewBox="0 0 614.932656 336.106563" xmlns="http://www.w3.org/2000/svg" version="1.1">
 <metadata>
  <rdf:RDF xmlns:dc="http://purl.org/dc/elements/1.1/" xmlns:cc="http://creativecommons.org/ns#" xmlns:rdf="http://www.w3.org/1999/02/22-rdf-syntax-ns#">
   <cc:Work>
    <dc:type rdf:resource="http://purl.org/dc/dcmitype/StillImage"/>
    <dc:date>2026-01-07T23:14:15.641539</dc:date>
    <dc:format>image/svg+xml</dc:format>
    <dc:creator>
     <cc:Agent>
      <dc:title>Matplotlib v3.10.8, https://matplotlib.org/</dc:title>
     </cc:Agent>
    </dc:creator>
   </cc:Work>
  </rdf:RDF>
 </metadata>
 <defs>
  <style type="text/css">*{stroke-linejoin: round; stroke-linecap: butt}</style>
 </defs>
 <g id="figure_1">
  <g id="patch_1">
   <path d="M 0 336.106563 
L 614.932656 336.106563 
L 614.932656 0 
L 0 0 
z
" style="fill: #ffffff"/>
  </g>
  <g id="axes_1">
   <g id="patch_2">
    <path d="M 49.732656 299.518125 
L 607.732656 299.518125 
L 607.732656 22.318125 
L 49.732656 22.318125 
z
" style="fill: #ffffff"/>
   </g>
   <g id="FillBetweenPolyCollection_1">
    <path d="M 75.096293 181.98935 
L 75.096293 181.98935 
L 77.645402 188.195461 
L 80.194511 194.05822 
L 82.74362 220.692214 
L 85.292729 213.632424 
L 87.841839 207.499241 
L 90.390948 220.225861 
L 92.940057 219.17752 
L 95.489166 215.349406 
L 98.038275 213.813369 
L 100.587384 210.653587 
L 103.136494 207.637238 
L 105.685603 205.953414 
L 108.234712 207.521049 
L 110.783821 205.952864 
L 113.33293 203.173781 
L 115.88204 200.394268 
L 118.431149 200.28984 
L 120.980258 197.887046 
L 123.529367 195.770088 
L 126.078476 200.801542 
L 128.627585 200.607212 
L 131.176695 198.526499 
L 133.725804 189.488796 
L 136.274913 188.819304 
L 138.824022 189.855038 
L 141.373131 179.104697 
L 143.922241 177.029018 
L 146.47135 176.747813 
L 149.020459 173.261889 
L 151.569568 172.945179 
L 154.118677 185.791361 
L 156.667786 184.850153 
L 159.216896 184.392304 
L 161.766005 189.370019 
L 164.315114 188.96399 
L 166.864223 191.31511 
L 169.413332 189.274519 
L 171.962442 189.111565 
L 174.511551 191.680153 
L 177.06066 187.300241 
L 179.609769 188.52336 
L 182.158878 187.960548 
L 184.707987 188.742999 
L 187.257097 188.487945 
L 189.806206 186.531124 
L 192.355315 187.215637 
L 194.904424 190.650098 
L 197.453533 193.135654 
L 200.002643 192.606658 
L 202.551752 195.064293 
L 205.100861 183.759936 
L 207.64997 182.160073 
L 210.199079 186.639326 
L 212.748188 187.832513 
L 215.297298 193.424714 
L 217.846407 191.263304 
L 220.395516 190.745463 
L 222.944625 192.669068 
L 225.493734 196.026219 
L 228.042844 192.458697 
L 230.591953 191.517841 
L 233.141062 190.624159 
L 235.690171 190.005588 
L 238.23928 194.139999 
L 240.788389 201.142029 
L 243.337499 201.735978 
L 245.886608 201.458467 
L 248.435717 201.517201 
L 250.984826 199.908007 
L 253.533935 200.025533 
L 256.083045 207.118575 
L 258.632154 207.548699 
L 261.181263 212.16683 
L 263.730372 212.711684 
L 266.279481 212.250281 
L 268.82859 213.376404 
L 271.3777 213.389874 
L 273.926809 212.773621 
L 276.475918 209.548251 
L 279.025027 209.972149 
L 281.574136 211.36295 
L 284.123246 218.106722 
L 286.672355 218.167995 
L 289.221464 214.817754 
L 291.770573 208.803943 
L 294.319682 212.043003 
L 296.868791 209.460339 
L 299.417901 207.513227 
L 301.96701 210.074416 
L 304.516119 209.321738 
L 307.065228 206.28 
L 309.614337 205.24907 
L 312.163447 197.436009 
L 314.712556 193.682512 
L 317.261665 189.951698 
L 319.810774 190.657 
L 322.359883 192.152464 
L 324.908992 191.906539 
L 327.458102 190.022549 
L 330.007211 190.334106 
L 332.55632 188.316462 
L 335.105429 179.289988 
L 337.654538 179.091062 
L 340.203648 179.94848 
L 342.752757 182.51249 
L 345.301866 189.968461 
L 347.850975 189.426035 
L 350.400084 191.164501 
L 352.949193 189.189782 
L 355.498303 189.202061 
L 358.047412 184.77512 
L 360.596521 186.36144 
L 363.14563 202.26626 
L 365.694739 202.625651 
L 368.243849 204.24443 
L 370.792958 203.365203 
L 373.342067 201.578193 
L 375.891176 205.993072 
L 378.440285 208.897212 
L 380.989394 211.845226 
L 383.538504 211.6866 
L 386.087613 217.331582 
L 388.636722 217.770662 
L 391.185831 219.547605 
L 393.73494 227.866555 
L 396.28405 219.791166 
L 398.833159 218.607392 
L 401.382268 218.217842 
L 403.931377 217.581758 
L 406.480486 216.956831 
L 409.029595 217.159223 
L 411.578705 215.990233 
L 414.127814 204.647621 
L 416.676923 203.83795 
L 419.226032 209.604853 
L 421.775141 208.499213 
L 424.324251 209.086593 
L 426.87336 207.550623 
L 429.422469 203.688233 
L 431.971578 201.518511 
L 434.520687 208.217589 
L 437.069796 201.090745 
L 439.618906 203.104195 
L 442.168015 201.916826 
L 444.717124 192.70826 
L 447.266233 192.739016 
L 449.815342 192.400717 
L 452.364452 193.984522 
L 454.913561 196.066214 
L 457.46267 197.869142 
L 460.011779 198.740163 
L 462.560888 198.805619 
L 465.109998 197.962258 
L 467.659107 199.887396 
L 470.208216 191.360117 
L 472.757325 202.143337 
L 475.306434 204.113571 
L 477.855543 200.418727 
L 480.404653 203.405915 
L 482.953762 201.84281 
L 485.502871 199.09962 
L 488.05198 203.629441 
L 490.601089 202.386781 
L 493.150199 205.115057 
L 495.699308 203.710581 
L 498.248417 206.660404 
L 500.797526 214.61422 
L 503.346635 213.184691 
L 505.895744 212.16634 
L 508.444854 211.11709 
L 510.993963 209.559173 
L 513.543072 210.164763 
L 516.092181 210.459118 
L 518.64129 210.415019 
L 521.1904 213.475715 
L 523.739509 205.212724 
L 526.288618 209.752783 
L 528.837727 209.433897 
L 531.386836 222.075079 
L 533.935945 223.597498 
L 536.485055 221.457623 
L 539.034164 217.514529 
L 541.583273 219.208729 
L 544.132382 216.090553 
L 546.681491 217.045217 
L 549.230601 215.864332 
L 551.77971 207.430607 
L 554.328819 207.095959 
L 556.877928 207.719734 
L 559.427037 207.919824 
L 561.976146 211.393938 
L 564.525256 211.997732 
L 567.074365 210.673748 
L 569.623474 210.398135 
L 572.172583 208.78384 
L 574.721692 207.764812 
L 577.270802 202.057575 
L 579.819911 202.752172 
L 582.36902 183.392746 
L 582.36902 114.031191 
L 582.36902 114.031191 
L 579.819911 112.902604 
L 577.270802 112.073541 
L 574.721692 112.500333 
L 572.172583 115.713742 
L 569.623474 116.184691 
L 567.074365 116.397559 
L 564.525256 122.562394 
L 561.976146 121.791984 
L 559.427037 117.374648 
L 556.877928 115.484145 
L 554.328819 119.699738 
L 551.77971 122.20323 
L 549.230601 123.064499 
L 546.681491 123.529769 
L 544.132382 123.062924 
L 541.583273 125.545651 
L 539.034164 121.090033 
L 536.485055 127.668287 
L 533.935945 133.287882 
L 531.386836 127.257972 
L 528.837727 130.160587 
L 526.288618 125.468691 
L 523.739509 125.385367 
L 521.1904 125.865937 
L 518.64129 121.651859 
L 516.092181 121.685068 
L 513.543072 121.465513 
L 510.993963 119.225802 
L 508.444854 123.152789 
L 505.895744 127.483435 
L 503.346635 131.423621 
L 500.797526 133.615256 
L 498.248417 126.386303 
L 495.699308 119.61929 
L 493.150199 119.956387 
L 490.601089 119.364754 
L 488.05198 122.866359 
L 485.502871 114.342565 
L 482.953762 114.053621 
L 480.404653 118.163635 
L 477.855543 112.243763 
L 475.306434 118.010024 
L 472.757325 116.224291 
L 470.208216 114.50628 
L 467.659107 116.664566 
L 465.109998 112.867718 
L 462.560888 113.163278 
L 460.011779 111.424691 
L 457.46267 110.984322 
L 454.913561 104.287275 
L 452.364452 102.591453 
L 449.815342 102.182396 
L 447.266233 105.403106 
L 444.717124 106.596736 
L 442.168015 104.035757 
L 439.618906 104.391437 
L 437.069796 98.917984 
L 434.520687 105.997173 
L 431.971578 102.236053 
L 429.422469 102.725927 
L 426.87336 108.220708 
L 424.324251 108.238789 
L 421.775141 104.830836 
L 419.226032 107.257696 
L 416.676923 107.13324 
L 414.127814 109.754709 
L 411.578705 107.801606 
L 409.029595 111.930052 
L 406.480486 111.683759 
L 403.931377 109.321666 
L 401.382268 110.710249 
L 398.833159 111.065853 
L 396.28405 113.378402 
L 393.73494 118.878774 
L 391.185831 118.767364 
L 388.636722 117.013688 
L 386.087613 120.282264 
L 383.538504 117.689881 
L 380.989394 119.837715 
L 378.440285 112.373325 
L 375.891176 110.621902 
L 373.342067 109.667728 
L 370.792958 114.627883 
L 368.243849 115.309911 
L 365.694739 108.599049 
L 363.14563 108.015797 
L 360.596521 110.749846 
L 358.047412 108.738817 
L 355.498303 109.008206 
L 352.949193 118.533632 
L 350.400084 119.332437 
L 347.850975 117.355444 
L 345.301866 117.540589 
L 342.752757 120.415261 
L 340.203648 118.704602 
L 337.654538 116.507732 
L 335.105429 117.649085 
L 332.55632 117.214385 
L 330.007211 118.867118 
L 327.458102 124.82139 
L 324.908992 114.664768 
L 322.359883 114.827748 
L 319.810774 113.680177 
L 317.261665 113.398826 
L 314.712556 120.453301 
L 312.163447 106.187191 
L 309.614337 107.304256 
L 307.065228 109.417369 
L 304.516119 109.062691 
L 301.96701 109.557377 
L 299.417901 106.651932 
L 296.868791 108.911476 
L 294.319682 109.513227 
L 291.770573 108.092514 
L 289.221464 110.846919 
L 286.672355 115.146556 
L 284.123246 112.008527 
L 281.574136 106.556865 
L 279.025027 105.386232 
L 276.475918 104.585492 
L 273.926809 115.343581 
L 271.3777 115.857583 
L 268.82859 115.822894 
L 266.279481 112.577811 
L 263.730372 112.63258 
L 261.181263 130.405944 
L 258.632154 130.526853 
L 256.083045 127.931531 
L 253.533935 125.949036 
L 250.984826 125.890482 
L 248.435717 119.005623 
L 245.886608 118.979328 
L 243.337499 118.954715 
L 240.788389 117.714656 
L 238.23928 114.919278 
L 235.690171 108.241829 
L 233.141062 111.847407 
L 230.591953 115.628951 
L 228.042844 116.37297 
L 225.493734 118.55171 
L 222.944625 118.234114 
L 220.395516 112.326483 
L 217.846407 104.019841 
L 215.297298 106.804511 
L 212.748188 102.240459 
L 210.199079 102.449912 
L 207.64997 99.051032 
L 205.100861 100.581987 
L 202.551752 99.83613 
L 200.002643 97.924796 
L 197.453533 104.339343 
L 194.904424 102.368783 
L 192.355315 102.587483 
L 189.806206 100.01409 
L 187.257097 101.977804 
L 184.707987 106.131118 
L 182.158878 101.610892 
L 179.609769 101.912523 
L 177.06066 101.261446 
L 174.511551 100.313235 
L 171.962442 95.287889 
L 169.413332 97.107755 
L 166.864223 105.798181 
L 164.315114 102.383908 
L 161.766005 105.085722 
L 159.216896 98.04151 
L 156.667786 93.546078 
L 154.118677 93.810429 
L 151.569568 95.717521 
L 149.020459 96.053421 
L 146.47135 96.504488 
L 143.922241 96.84227 
L 141.373131 96.615266 
L 138.824022 98.749252 
L 136.274913 98.156589 
L 133.725804 98.951125 
L 131.176695 103.824508 
L 128.627585 104.481674 
L 126.078476 104.700328 
L 123.529367 105.159209 
L 120.980258 109.207012 
L 118.431149 111.009746 
L 115.88204 108.819597 
L 113.33293 111.522046 
L 110.783821 112.120927 
L 108.234712 122.251354 
L 105.685603 138.684952 
L 103.136494 137.393132 
L 100.587384 140.912286 
L 98.038275 145.573285 
L 95.489166 143.046232 
L 92.940057 149.919272 
L 90.390948 145.951863 
L 87.841839 142.016644 
L 85.292729 146.786962 
L 82.74362 156.082808 
L 80.194511 154.693141 
L 77.645402 145.817482 
L 75.096293 181.98935 
z
" clip-path="url(#p9ac7fa4686)" style="fill: #1f77b4; fill-opacity: 0.2"/>
   </g>
   <g id="matplotlib.axis_1">
    <g id="xtick_1">
     <g id="line2d_1">
      <path d="M 75.096293 299.518125 
L 75.096293 22.318125 
" clip-path="url(#p9ac7fa4686)" style="fill: none; stroke: #b0b0b0; stroke-opacity: 0.3; stroke-width: 0.8; stroke-linecap: square"/>
     </g>
     <g id="line2d_2">
      <defs>
       <path id="me9a24170db" d="M 0 0 
L 0 3.5 
" style="stroke: #000000; stroke-width: 0.8"/>
      </defs>
      <g>
       <use xlink:href="#me9a24170db" x="75.096293" y="299.518125" style="stroke: #000000; stroke-width: 0.8"/>
      </g>
     </g>
     <g id="text_1">
      <!-- 0 -->
      <g transform="translate(72.233168 313.356719) scale(0.09 -0.09)">
       <defs>
        <path id="DejaVuSans-30" d="M 2034 4250 
Q 1547 4250 1301 3770 
Q 1056 3291 1056 2328 
Q 1056 1369 1301 889 
Q 1547 409 2034 409 
Q 2525 409 2770 889 
Q 3016 1369 3016 2328 
Q 3016 3291 2770 3770 
Q 2525 4250 2034 4250 
z
M 2034 4750 
Q 2819 4750 3233 4129 
Q 3647 3509 3647 2328 
Q 3647 1150 3233 529 
Q 2819 -91 2034 -91 
Q 1250 -91 836 529 
Q 422 1150 422 2328 
Q 422 3509 836 4129 
Q 1250 4750 2034 4750 
z
" transform="scale(0.015625)"/>
       </defs>
       <use xlink:href="#DejaVuSans-30"/>
      </g>
     </g>
    </g>
    <g id="xtick_2">
     <g id="line2d_3">
      <path d="M 160.066599 299.518125 
L 160.066599 22.318125 
" clip-path="url(#p9ac7fa4686)" style="fill: none; stroke: #b0b0b0; stroke-opacity: 0.3; stroke-width: 0.8; stroke-linecap: square"/>
     </g>
     <g id="line2d_4">
      <g>
       <use xlink:href="#me9a24170db" x="160.066599" y="299.518125" style="stroke: #000000; stroke-width: 0.8"/>
      </g>
     </g>
     <g id="text_2">
      <!-- 1 -->
      <g transform="translate(157.203474 313.356719) scale(0.09 -0.09)">
       <defs>
        <path id="DejaVuSans-31" d="M 794 531 
L 1825 531 
L 1825 4091 
L 703 3866 
L 703 4441 
L 1819 4666 
L 2450 4666 
L 2450 531 
L 3481 531 
L 3481 0 
L 794 0 
L 794 531 
z
" transform="scale(0.015625)"/>
       </defs>
       <use xlink:href="#DejaVuSans-31"/>
      </g>
     </g>
    </g>
    <g id="xtick_3">
     <g id="line2d_5">
      <path d="M 245.036905 299.518125 
L 245.036905 22.318125 
" clip-path="url(#p9ac7fa4686)" style="fill: none; stroke: #b0b0b0; stroke-opacity: 0.3; stroke-width: 0.8; stroke-linecap: square"/>
     </g>
     <g id="line2d_6">
      <g>
       <use xlink:href="#me9a24170db" x="245.036905" y="299.518125" style="stroke: #000000; stroke-width: 0.8"/>
      </g>
     </g>
     <g id="text_3">
      <!-- 2 -->
      <g transform="translate(242.17378 313.356719) scale(0.09 -0.09)">
       <defs>
        <path id="DejaVuSans-32" d="M 1228 531 
L 3431 531 
L 3431 0 
L 469 0 
L 469 531 
Q 828 903 1448 1529 
Q 2069 2156 2228 2338 
Q 2531 2678 2651 2914 
Q 2772 3150 2772 3378 
Q 2772 3750 2511 3984 
Q 2250 4219 1831 4219 
Q 1534 4219 1204 4116 
Q 875 4013 500 3803 
L 500 4441 
Q 881 4594 1212 4672 
Q 1544 4750 1819 4750 
Q 2544 4750 2975 4387 
Q 3406 4025 3406 3419 
Q 3406 3131 3298 2873 
Q 3191 2616 2906 2266 
Q 2828 2175 2409 1742 
Q 1991 1309 1228 531 
z
" transform="scale(0.015625)"/>
       </defs>
       <use xlink:href="#DejaVuSans-32"/>
      </g>
     </g>
    </g>
    <g id="xtick_4">
     <g id="line2d_7">
      <path d="M 330.007211 299.518125 
L 330.007211 22.318125 
" clip-path="url(#p9ac7fa4686)" style="fill: none; stroke: #b0b0b0; stroke-opacity: 0.3; stroke-width: 0.8; stroke-linecap: square"/>
     </g>
     <g id="line2d_8">
      <g>
       <use xlink:href="#me9a24170db" x="330.007211" y="299.518125" style="stroke: #000000; stroke-width: 0.8"/>
      </g>
     </g>
     <g id="text_4">
      <!-- 3 -->
      <g transform="translate(327.144086 313.356719) scale(0.09 -0.09)">
       <defs>
        <path id="DejaVuSans-33" d="M 2597 2516 
Q 3050 2419 3304 2112 
Q 3559 1806 3559 1356 
Q 3559 666 3084 287 
Q 2609 -91 1734 -91 
Q 1441 -91 1130 -33 
Q 819 25 488 141 
L 488 750 
Q 750 597 1062 519 
Q 1375 441 1716 441 
Q 2309 441 2620 675 
Q 2931 909 2931 1356 
Q 2931 1769 2642 2001 
Q 2353 2234 1838 2234 
L 1294 2234 
L 1294 2753 
L 1863 2753 
Q 2328 2753 2575 2939 
Q 2822 3125 2822 3475 
Q 2822 3834 2567 4026 
Q 2313 4219 1838 4219 
Q 1578 4219 1281 4162 
Q 984 4106 628 3988 
L 628 4550 
Q 988 4650 1302 4700 
Q 1616 4750 1894 4750 
Q 2613 4750 3031 4423 
Q 3450 4097 3450 3541 
Q 3450 3153 3228 2886 
Q 3006 2619 2597 2516 
z
" transform="scale(0.015625)"/>
       </defs>
       <use xlink:href="#DejaVuSans-33"/>
      </g>
     </g>
    </g>
    <g id="xtick_5">
     <g id="line2d_9">
      <path d="M 414.977517 299.518125 
L 414.977517 22.318125 
" clip-path="url(#p9ac7fa4686)" style="fill: none; stroke: #b0b0b0; stroke-opacity: 0.3; stroke-width: 0.8; stroke-linecap: square"/>
     </g>
     <g id="line2d_10">
      <g>
       <use xlink:href="#me9a24170db" x="414.977517" y="299.518125" style="stroke: #000000; stroke-width: 0.8"/>
      </g>
     </g>
     <g id="text_5">
      <!-- 4 -->
      <g transform="translate(412.114392 313.356719) scale(0.09 -0.09)">
       <defs>
        <path id="DejaVuSans-34" d="M 2419 4116 
L 825 1625 
L 2419 1625 
L 2419 4116 
z
M 2253 4666 
L 3047 4666 
L 3047 1625 
L 3713 1625 
L 3713 1100 
L 3047 1100 
L 3047 0 
L 2419 0 
L 2419 1100 
L 313 1100 
L 313 1709 
L 2253 4666 
z
" transform="scale(0.015625)"/>
       </defs>
       <use xlink:href="#DejaVuSans-34"/>
      </g>
     </g>
    </g>
    <g id="xtick_6">
     <g id="line2d_11">
      <path d="M 499.947823 299.518125 
L 499.947823 22.318125 
" clip-path="url(#p9ac7fa4686)" style="fill: none; stroke: #b0b0b0; stroke-opacity: 0.3; stroke-width: 0.8; stroke-linecap: square"/>
     </g>
     <g id="line2d_12">
      <g>
       <use xlink:href="#me9a24170db" x="499.947823" y="299.518125" style="stroke: #000000; stroke-width: 0.8"/>
      </g>
     </g>
     <g id="text_6">
      <!-- 5 -->
      <g transform="translate(497.084698 313.356719) scale(0.09 -0.09)">
       <defs>
        <path id="DejaVuSans-35" d="M 691 4666 
L 3169 4666 
L 3169 4134 
L 1269 4134 
L 1269 2991 
Q 1406 3038 1543 3061 
Q 1681 3084 1819 3084 
Q 2600 3084 3056 2656 
Q 3513 2228 3513 1497 
Q 3513 744 3044 326 
Q 2575 -91 1722 -91 
Q 1428 -91 1123 -41 
Q 819 9 494 109 
L 494 744 
Q 775 591 1075 516 
Q 1375 441 1709 441 
Q 2250 441 2565 725 
Q 2881 1009 2881 1497 
Q 2881 1984 2565 2268 
Q 2250 2553 1709 2553 
Q 1456 2553 1204 2497 
Q 953 2441 691 2322 
L 691 4666 
z
" transform="scale(0.015625)"/>
       </defs>
       <use xlink:href="#DejaVuSans-35"/>
      </g>
     </g>
    </g>
    <g id="xtick_7">
     <g id="line2d_13">
      <path d="M 584.918129 299.518125 
L 584.918129 22.318125 
" clip-path="url(#p9ac7fa4686)" style="fill: none; stroke: #b0b0b0; stroke-opacity: 0.3; stroke-width: 0.8; stroke-linecap: square"/>
     </g>
     <g id="line2d_14">
      <g>
       <use xlink:href="#me9a24170db" x="584.918129" y="299.518125" style="stroke: #000000; stroke-width: 0.8"/>
      </g>
     </g>
     <g id="text_7">
      <!-- 6 -->
      <g transform="translate(582.055004 313.356719) scale(0.09 -0.09)">
       <defs>
        <path id="DejaVuSans-36" d="M 2113 2584 
Q 1688 2584 1439 2293 
Q 1191 2003 1191 1497 
Q 1191 994 1439 701 
Q 1688 409 2113 409 
Q 2538 409 2786 701 
Q 3034 994 3034 1497 
Q 3034 2003 2786 2293 
Q 2538 2584 2113 2584 
z
M 3366 4563 
L 3366 3988 
Q 3128 4100 2886 4159 
Q 2644 4219 2406 4219 
Q 1781 4219 1451 3797 
Q 1122 3375 1075 2522 
Q 1259 2794 1537 2939 
Q 1816 3084 2150 3084 
Q 2853 3084 3261 2657 
Q 3669 2231 3669 1497 
Q 3669 778 3244 343 
Q 2819 -91 2113 -91 
Q 1303 -91 875 529 
Q 447 1150 447 2328 
Q 447 3434 972 4092 
Q 1497 4750 2381 4750 
Q 2619 4750 2861 4703 
Q 3103 4656 3366 4563 
z
" transform="scale(0.015625)"/>
       </defs>
       <use xlink:href="#DejaVuSans-36"/>
      </g>
     </g>
    </g>
    <g id="text_8">
     <!-- Time (ms) -->
     <g transform="translate(303.533437 326.826875) scale(0.1 -0.1)">
      <defs>
       <path id="DejaVuSans-54" d="M -19 4666 
L 3928 4666 
L 3928 4134 
L 2272 4134 
L 2272 0 
L 1638 0 
L 1638 4134 
L -19 4134 
L -19 4666 
z
" transform="scale(0.015625)"/>
       <path id="DejaVuSans-69" d="M 603 3500 
L 1178 3500 
L 1178 0 
L 603 0 
L 603 3500 
z
M 603 4863 
L 1178 4863 
L 1178 4134 
L 603 4134 
L 603 4863 
z
" transform="scale(0.015625)"/>
       <path id="DejaVuSans-6d" d="M 3328 2828 
Q 3544 3216 3844 3400 
Q 4144 3584 4550 3584 
Q 5097 3584 5394 3201 
Q 5691 2819 5691 2113 
L 5691 0 
L 5113 0 
L 5113 2094 
Q 5113 2597 4934 2840 
Q 4756 3084 4391 3084 
Q 3944 3084 3684 2787 
Q 3425 2491 3425 1978 
L 3425 0 
L 2847 0 
L 2847 2094 
Q 2847 2600 2669 2842 
Q 2491 3084 2119 3084 
Q 1678 3084 1418 2786 
Q 1159 2488 1159 1978 
L 1159 0 
L 581 0 
L 581 3500 
L 1159 3500 
L 1159 2956 
Q 1356 3278 1631 3431 
Q 1906 3584 2284 3584 
Q 2666 3584 2933 3390 
Q 3200 3197 3328 2828 
z
" transform="scale(0.015625)"/>
       <path id="DejaVuSans-65" d="M 3597 1894 
L 3597 1613 
L 953 1613 
Q 991 1019 1311 708 
Q 1631 397 2203 397 
Q 2534 397 2845 478 
Q 3156 559 3463 722 
L 3463 178 
Q 3153 47 2828 -22 
Q 2503 -91 2169 -91 
Q 1331 -91 842 396 
Q 353 884 353 1716 
Q 353 2575 817 3079 
Q 1281 3584 2069 3584 
Q 2775 3584 3186 3129 
Q 3597 2675 3597 1894 
z
M 3022 2063 
Q 3016 2534 2758 2815 
Q 2500 3097 2075 3097 
Q 1594 3097 1305 2825 
Q 1016 2553 972 2059 
L 3022 2063 
z
" transform="scale(0.015625)"/>
       <path id="DejaVuSans-20" transform="scale(0.015625)"/>
       <path id="DejaVuSans-28" d="M 1984 4856 
Q 1566 4138 1362 3434 
Q 1159 2731 1159 2009 
Q 1159 1288 1364 580 
Q 1569 -128 1984 -844 
L 1484 -844 
Q 1016 -109 783 600 
Q 550 1309 550 2009 
Q 550 2706 781 3412 
Q 1013 4119 1484 4856 
L 1984 4856 
z
" transform="scale(0.015625)"/>
       <path id="DejaVuSans-73" d="M 2834 3397 
L 2834 2853 
Q 2591 2978 2328 3040 
Q 2066 3103 1784 3103 
Q 1356 3103 1142 2972 
Q 928 2841 928 2578 
Q 928 2378 1081 2264 
Q 1234 2150 1697 2047 
L 1894 2003 
Q 2506 1872 2764 1633 
Q 3022 1394 3022 966 
Q 3022 478 2636 193 
Q 2250 -91 1575 -91 
Q 1294 -91 989 -36 
Q 684 19 347 128 
L 347 722 
Q 666 556 975 473 
Q 1284 391 1588 391 
Q 1994 391 2212 530 
Q 2431 669 2431 922 
Q 2431 1156 2273 1281 
Q 2116 1406 1581 1522 
L 1381 1569 
Q 847 1681 609 1914 
Q 372 2147 372 2553 
Q 372 3047 722 3315 
Q 1072 3584 1716 3584 
Q 2034 3584 2315 3537 
Q 2597 3491 2834 3397 
z
" transform="scale(0.015625)"/>
       <path id="DejaVuSans-29" d="M 513 4856 
L 1013 4856 
Q 1481 4119 1714 3412 
Q 1947 2706 1947 2009 
Q 1947 1309 1714 600 
Q 1481 -109 1013 -844 
L 513 -844 
Q 928 -128 1133 580 
Q 1338 1288 1338 2009 
Q 1338 2731 1133 3434 
Q 928 4138 513 4856 
z
" transform="scale(0.015625)"/>
      </defs>
      <use xlink:href="#DejaVuSans-54"/>
      <use xlink:href="#DejaVuSans-69" transform="translate(57.958984 0)"/>
      <use xlink:href="#DejaVuSans-6d" transform="translate(85.742188 0)"/>
      <use xlink:href="#DejaVuSans-65" transform="translate(183.154297 0)"/>
      <use xlink:href="#DejaVuSans-20" transform="translate(244.677734 0)"/>
      <use xlink:href="#DejaVuSans-28" transform="translate(276.464844 0)"/>
      <use xlink:href="#DejaVuSans-6d" transform="translate(315.478516 0)"/>
      <use xlink:href="#DejaVuSans-73" transform="translate(412.890625 0)"/>
      <use xlink:href="#DejaVuSans-29" transform="translate(464.990234 0)"/>
     </g>
    </g>
    <g id="text_9">
     <!-- 1e7 -->
     <g transform="translate(590.742344 325.067031) scale(0.09 -0.09)">
      <defs>
       <path id="DejaVuSans-37" d="M 525 4666 
L 3525 4666 
L 3525 4397 
L 1831 0 
L 1172 0 
L 2766 4134 
L 525 4134 
L 525 4666 
z
" transform="scale(0.015625)"/>
      </defs>
      <use xlink:href="#DejaVuSans-31"/>
      <use xlink:href="#DejaVuSans-65" transform="translate(63.623047 0)"/>
      <use xlink:href="#DejaVuSans-37" transform="translate(125.146484 0)"/>
     </g>
    </g>
   </g>
   <g id="matplotlib.axis_2">
    <g id="ytick_1">
     <g id="line2d_15">
      <path d="M 49.732656 252.932068 
L 607.732656 252.932068 
" clip-path="url(#p9ac7fa4686)" style="fill: none; stroke: #b0b0b0; stroke-opacity: 0.3; stroke-width: 0.8; stroke-linecap: square"/>
     </g>
     <g id="line2d_16">
      <defs>
       <path id="mb04374bf86" d="M 0 0 
L -3.5 0 
" style="stroke: #000000; stroke-width: 0.8"/>
      </defs>
      <g>
       <use xlink:href="#mb04374bf86" x="49.732656" y="252.932068" style="stroke: #000000; stroke-width: 0.8"/>
      </g>
     </g>
     <g id="text_10">
      <!-- −1.0 -->
      <g transform="translate(20.878125 256.351365) scale(0.09 -0.09)">
       <defs>
        <path id="DejaVuSans-2212" d="M 678 2272 
L 4684 2272 
L 4684 1741 
L 678 1741 
L 678 2272 
z
" transform="scale(0.015625)"/>
        <path id="DejaVuSans-2e" d="M 684 794 
L 1344 794 
L 1344 0 
L 684 0 
L 684 794 
z
" transform="scale(0.015625)"/>
       </defs>
       <use xlink:href="#DejaVuSans-2212"/>
       <use xlink:href="#DejaVuSans-31" transform="translate(83.789062 0)"/>
       <use xlink:href="#DejaVuSans-2e" transform="translate(147.412109 0)"/>
       <use xlink:href="#DejaVuSans-30" transform="translate(179.199219 0)"/>
      </g>
     </g>
    </g>
    <g id="ytick_2">
     <g id="line2d_17">
      <path d="M 49.732656 205.740299 
L 607.732656 205.740299 
" clip-path="url(#p9ac7fa4686)" style="fill: none; stroke: #b0b0b0; stroke-opacity: 0.3; stroke-width: 0.8; stroke-linecap: square"/>
     </g>
     <g id="line2d_18">
      <g>
       <use xlink:href="#mb04374bf86" x="49.732656" y="205.740299" style="stroke: #000000; stroke-width: 0.8"/>
      </g>
     </g>
     <g id="text_11">
      <!-- −0.5 -->
      <g transform="translate(20.878125 209.159596) scale(0.09 -0.09)">
       <use xlink:href="#DejaVuSans-2212"/>
       <use xlink:href="#DejaVuSans-30" transform="translate(83.789062 0)"/>
       <use xlink:href="#DejaVuSans-2e" transform="translate(147.412109 0)"/>
       <use xlink:href="#DejaVuSans-35" transform="translate(179.199219 0)"/>
      </g>
     </g>
    </g>
    <g id="ytick_3">
     <g id="line2d_19">
      <path d="M 49.732656 158.54853 
L 607.732656 158.54853 
" clip-path="url(#p9ac7fa4686)" style="fill: none; stroke: #b0b0b0; stroke-opacity: 0.3; stroke-width: 0.8; stroke-linecap: square"/>
     </g>
     <g id="line2d_20">
      <g>
       <use xlink:href="#mb04374bf86" x="49.732656" y="158.54853" style="stroke: #000000; stroke-width: 0.8"/>
      </g>
     </g>
     <g id="text_12">
      <!-- 0.0 -->
      <g transform="translate(28.419844 161.967827) scale(0.09 -0.09)">
       <use xlink:href="#DejaVuSans-30"/>
       <use xlink:href="#DejaVuSans-2e" transform="translate(63.623047 0)"/>
       <use xlink:href="#DejaVuSans-30" transform="translate(95.410156 0)"/>
      </g>
     </g>
    </g>
    <g id="ytick_4">
     <g id="line2d_21">
      <path d="M 49.732656 111.356762 
L 607.732656 111.356762 
" clip-path="url(#p9ac7fa4686)" style="fill: none; stroke: #b0b0b0; stroke-opacity: 0.3; stroke-width: 0.8; stroke-linecap: square"/>
     </g>
     <g id="line2d_22">
      <g>
       <use xlink:href="#mb04374bf86" x="49.732656" y="111.356762" style="stroke: #000000; stroke-width: 0.8"/>
      </g>
     </g>
     <g id="text_13">
      <!-- 0.5 -->
      <g transform="translate(28.419844 114.776058) scale(0.09 -0.09)">
       <use xlink:href="#DejaVuSans-30"/>
       <use xlink:href="#DejaVuSans-2e" transform="translate(63.623047 0)"/>
       <use xlink:href="#DejaVuSans-35" transform="translate(95.410156 0)"/>
      </g>
     </g>
    </g>
    <g id="ytick_5">
     <g id="line2d_23">
      <path d="M 49.732656 64.164993 
L 607.732656 64.164993 
" clip-path="url(#p9ac7fa4686)" style="fill: none; stroke: #b0b0b0; stroke-opacity: 0.3; stroke-width: 0.8; stroke-linecap: square"/>
     </g>
     <g id="line2d_24">
      <g>
       <use xlink:href="#mb04374bf86" x="49.732656" y="64.164993" style="stroke: #000000; stroke-width: 0.8"/>
      </g>
     </g>
     <g id="text_14">
      <!-- 1.0 -->
      <g transform="translate(28.419844 67.58429) scale(0.09 -0.09)">
       <use xlink:href="#DejaVuSans-31"/>
       <use xlink:href="#DejaVuSans-2e" transform="translate(63.623047 0)"/>
       <use xlink:href="#DejaVuSans-30" transform="translate(95.410156 0)"/>
      </g>
     </g>
    </g>
    <g id="text_15">
     <!-- Diff -->
     <g transform="translate(14.798438 169.6775) rotate(-90) scale(0.1 -0.1)">
      <defs>
       <path id="DejaVuSans-44" d="M 1259 4147 
L 1259 519 
L 2022 519 
Q 2988 519 3436 956 
Q 3884 1394 3884 2338 
Q 3884 3275 3436 3711 
Q 2988 4147 2022 4147 
L 1259 4147 
z
M 628 4666 
L 1925 4666 
Q 3281 4666 3915 4102 
Q 4550 3538 4550 2338 
Q 4550 1131 3912 565 
Q 3275 0 1925 0 
L 628 0 
L 628 4666 
z
" transform="scale(0.015625)"/>
       <path id="DejaVuSans-66" d="M 2375 4863 
L 2375 4384 
L 1825 4384 
Q 1516 4384 1395 4259 
Q 1275 4134 1275 3809 
L 1275 3500 
L 2222 3500 
L 2222 3053 
L 1275 3053 
L 1275 0 
L 697 0 
L 697 3053 
L 147 3053 
L 147 3500 
L 697 3500 
L 697 3744 
Q 697 4328 969 4595 
Q 1241 4863 1831 4863 
L 2375 4863 
z
" transform="scale(0.015625)"/>
      </defs>
      <use xlink:href="#DejaVuSans-44"/>
      <use xlink:href="#DejaVuSans-69" transform="translate(77.001953 0)"/>
      <use xlink:href="#DejaVuSans-66" transform="translate(104.785156 0)"/>
      <use xlink:href="#DejaVuSans-66" transform="translate(139.990234 0)"/>
     </g>
    </g>
   </g>
   <g id="line2d_25">
    <path d="M 75.096293 181.98935 
L 77.645402 152.023593 
L 80.194511 189.114098 
L 82.74362 230.423003 
L 85.292729 147.498418 
L 87.841839 147.499193 
L 90.390948 233.074377 
L 92.940057 194.765133 
L 95.489166 136.393204 
L 98.038275 184.152899 
L 100.587384 136.67903 
L 103.136494 136.56992 
L 105.685603 169.967158 
L 108.234712 68.257451 
L 110.783821 77.146607 
L 113.33293 132.013187 
L 115.88204 110.751238 
L 118.431149 173.378418 
L 120.980258 115.697268 
L 123.529367 91.899421 
L 126.078476 227.715088 
L 128.627585 147.893747 
L 131.176695 161.735306 
L 133.725804 91.312143 
L 136.274913 132.858147 
L 138.824022 163.783164 
L 141.373131 104.231108 
L 143.922241 176.278384 
L 146.47135 130.203328 
L 149.020459 144.782986 
L 151.569568 130.152931 
L 154.118677 245.960814 
L 156.667786 157.911573 
L 159.216896 108.633281 
L 161.766005 197.36588 
L 164.315114 100.934759 
L 166.864223 168.405173 
L 169.413332 66.068231 
L 171.962442 95.869081 
L 174.511551 167.83876 
L 177.06066 193.398075 
L 179.609769 166.635703 
L 182.158878 153.090883 
L 184.707987 144.338914 
L 187.257097 88.774462 
L 189.806206 124.577809 
L 192.355315 136.810172 
L 194.904424 208.435998 
L 197.453533 174.764485 
L 200.002643 75.347547 
L 202.551752 173.842626 
L 205.100861 140.375816 
L 207.64997 126.603384 
L 210.199079 187.414616 
L 212.748188 207.203222 
L 215.297298 202.497287 
L 217.846407 118.944371 
L 220.395516 143.956251 
L 225.493734 204.586231 
L 228.042844 135.935451 
L 230.591953 149.786955 
L 233.141062 106.338626 
L 235.690171 102.097424 
L 238.23928 196.893061 
L 240.788389 222.551896 
L 243.337499 155.150245 
L 245.886608 205.907023 
L 248.435717 175.614774 
L 250.984826 128.104188 
L 253.533935 175.603428 
L 256.083045 231.131197 
L 258.632154 156.857836 
L 261.181263 232.386832 
L 263.730372 34.918125 
L 266.279481 197.335563 
L 268.82859 162.656436 
L 271.3777 144.437845 
L 273.926809 162.878884 
L 276.475918 64.751638 
L 279.025027 148.181825 
L 281.574136 175.401304 
L 284.123246 228.292965 
L 286.672355 134.090442 
L 289.221464 120.394287 
L 291.770573 134.869728 
L 294.319682 201.747976 
L 296.868791 174.062877 
L 299.417901 133.548209 
L 301.96701 182.770528 
L 304.516119 163.129792 
L 307.065228 204.260601 
L 309.614337 125.417403 
L 312.163447 143.085574 
L 314.712556 140.044253 
L 317.261665 89.482671 
L 319.810774 172.52297 
L 322.359883 170.86819 
L 324.908992 158.789843 
L 327.458102 147.477949 
L 330.007211 91.754682 
L 332.55632 138.697534 
L 335.105429 142.375226 
L 337.654538 120.687647 
L 340.203648 150.937172 
L 342.752757 177.616405 
L 345.301866 247.56098 
L 347.850975 166.787166 
L 350.400084 170.702789 
L 352.949193 155.035296 
L 355.498303 67.998323 
L 358.047412 157.297294 
L 360.596521 161.390901 
L 363.14563 274.793283 
L 365.694739 149.470676 
L 368.243849 172.779083 
L 370.792958 156.910421 
L 373.342067 103.396547 
L 375.891176 212.480361 
L 378.440285 194.03358 
L 380.989394 195.878727 
L 383.538504 115.632928 
L 386.087613 224.748875 
L 388.636722 92.392699 
L 391.185831 186.243355 
L 393.73494 261.920006 
L 396.28405 111.803369 
L 398.833159 131.823939 
L 401.382268 163.251255 
L 403.931377 134.788624 
L 406.480486 85.36998 
L 409.029595 161.784138 
L 411.578705 108.416539 
L 414.127814 180.898195 
L 416.676923 115.159274 
L 419.226032 231.692677 
L 421.775141 121.585422 
L 424.324251 143.349878 
L 426.87336 196.939847 
L 429.422469 100.461866 
L 431.971578 169.282767 
L 434.520687 220.234909 
L 437.069796 82.688553 
L 439.618906 167.261729 
L 442.168015 170.812859 
L 444.717124 195.444135 
L 447.266233 100.174638 
L 449.815342 96.233847 
L 452.364452 183.179876 
L 454.913561 172.563762 
L 457.46267 170.369731 
L 460.011779 174.898034 
L 462.560888 126.456961 
L 465.109998 169.508993 
L 467.659107 172.379139 
L 470.208216 124.837023 
L 472.757325 246.59773 
L 475.306434 180.909544 
L 477.855543 102.328811 
L 480.404653 189.532457 
L 482.953762 112.551578 
L 485.502871 195.692445 
L 488.05198 213.224705 
L 490.601089 119.81908 
L 493.150199 204.011954 
L 495.699308 178.028393 
L 498.248417 197.343003 
L 500.797526 248.061546 
L 503.346635 146.968231 
L 505.895744 122.978388 
L 508.444854 116.570771 
L 510.993963 120.049 
L 513.543072 154.909964 
L 516.092181 174.648096 
L 518.64129 171.606059 
L 521.1904 197.584771 
L 523.739509 159.162113 
L 526.288618 227.143375 
L 528.837727 146.058906 
L 531.386836 286.918125 
L 533.935945 188.074879 
L 536.485055 118.097749 
L 539.034164 108.011219 
L 541.583273 181.317257 
L 544.132382 148.002926 
L 546.681491 192.243477 
L 549.230601 180.881451 
L 551.77971 155.111605 
L 554.328819 118.586837 
L 556.877928 87.06021 
L 559.427037 137.4767 
L 561.976146 198.963504 
L 564.525256 168.651993 
L 567.074365 99.759914 
L 569.623474 166.721245 
L 572.172583 176.732339 
L 574.721692 116.837735 
L 577.270802 165.80309 
L 579.819911 161.295503 
L 582.36902 104.60974 
L 582.36902 104.60974 
" clip-path="url(#p9ac7fa4686)" style="fill: none; stroke: #1f77b4; stroke-opacity: 0.6; stroke-width: 1.5; stroke-linecap: square"/>
   </g>
   <g id="line2d_26">
    <path d="M 75.096293 181.98935 
L 77.645402 167.006472 
L 80.194511 174.375681 
L 82.74362 188.387511 
L 85.292729 180.209693 
L 87.841839 174.757943 
L 90.390948 183.088862 
L 92.940057 184.548396 
L 95.489166 179.197819 
L 98.038275 179.693327 
L 100.587384 175.782936 
L 103.136494 172.515185 
L 105.685603 172.319183 
L 108.234712 164.886202 
L 110.783821 159.036896 
L 113.33293 157.347914 
L 115.88204 154.606933 
L 118.431149 155.649793 
L 120.980258 153.547029 
L 123.529367 150.464648 
L 126.078476 152.750935 
L 128.627585 152.544443 
L 131.176695 151.175503 
L 133.725804 144.21996 
L 136.274913 143.487947 
L 138.824022 144.302145 
L 141.373131 137.859982 
L 143.922241 136.935644 
L 146.47135 136.626151 
L 149.020459 134.657655 
L 151.569568 134.33135 
L 154.118677 139.800895 
L 156.667786 139.198116 
L 159.216896 141.216907 
L 161.766005 147.227871 
L 164.315114 145.673949 
L 166.864223 148.556646 
L 169.413332 143.191137 
L 171.962442 142.199727 
L 174.511551 145.996694 
L 177.06066 144.280844 
L 179.609769 145.217941 
L 182.158878 144.78572 
L 184.707987 147.437059 
L 187.257097 145.232875 
L 189.806206 143.272607 
L 194.904424 146.509441 
L 197.453533 148.737499 
L 200.002643 145.265727 
L 202.551752 147.450211 
L 205.100861 142.170961 
L 207.64997 140.605552 
L 210.199079 144.544619 
L 212.748188 145.036486 
L 215.297298 150.114612 
L 217.846407 147.641572 
L 222.944625 155.451591 
L 225.493734 157.288965 
L 228.042844 154.415833 
L 230.591953 153.573396 
L 233.141062 151.235783 
L 235.690171 149.123709 
L 238.23928 154.529638 
L 240.788389 159.428343 
L 243.337499 160.345347 
L 245.886608 160.218898 
L 248.435717 160.261412 
L 250.984826 162.899244 
L 253.533935 162.987284 
L 256.083045 167.525053 
L 258.632154 169.037776 
L 261.181263 171.286387 
L 263.730372 162.672132 
L 266.279481 162.414046 
L 268.82859 164.599649 
L 271.3777 164.623729 
L 273.926809 164.058601 
L 276.475918 157.066871 
L 279.025027 157.67919 
L 281.574136 158.959908 
L 284.123246 165.057624 
L 286.672355 166.657275 
L 289.221464 162.832337 
L 291.770573 158.448228 
L 294.319682 160.778115 
L 296.868791 159.185907 
L 299.417901 157.082579 
L 301.96701 159.815896 
L 304.516119 159.192214 
L 307.065228 157.848685 
L 309.614337 156.276663 
L 312.163447 151.8116 
L 314.712556 157.067906 
L 317.261665 151.675262 
L 319.810774 152.168589 
L 322.359883 153.490106 
L 324.908992 153.285654 
L 327.458102 157.421969 
L 330.007211 154.600612 
L 332.55632 152.765424 
L 335.105429 148.469537 
L 337.654538 147.799397 
L 340.203648 149.326541 
L 342.752757 151.463875 
L 345.301866 153.754525 
L 347.850975 153.39074 
L 350.400084 155.248469 
L 352.949193 153.861707 
L 355.498303 149.105134 
L 358.047412 146.756968 
L 360.596521 148.555643 
L 363.14563 155.141029 
L 365.694739 155.61235 
L 368.243849 159.77717 
L 370.792958 158.996543 
L 373.342067 155.622961 
L 375.891176 158.307487 
L 378.440285 160.635268 
L 380.989394 165.84147 
L 383.538504 164.68824 
L 386.087613 168.806923 
L 388.636722 167.392175 
L 391.185831 169.157484 
L 393.73494 173.372664 
L 396.28405 166.584784 
L 398.833159 164.836623 
L 401.382268 164.464046 
L 403.931377 163.451712 
L 406.480486 164.320295 
L 409.029595 164.544637 
L 411.578705 161.895919 
L 414.127814 157.201165 
L 416.676923 155.485595 
L 419.226032 158.431274 
L 421.775141 156.665024 
L 424.324251 158.662691 
L 426.87336 157.885665 
L 429.422469 153.20708 
L 431.971578 151.877282 
L 434.520687 157.107381 
L 437.069796 150.004365 
L 439.618906 153.747816 
L 442.168015 152.976291 
L 444.717124 149.652498 
L 447.266233 149.071061 
L 449.815342 147.291557 
L 452.364452 148.287988 
L 454.913561 150.176745 
L 457.46267 154.426732 
L 460.011779 155.082427 
L 462.560888 155.984448 
L 465.109998 155.414988 
L 467.659107 158.275981 
L 470.208216 152.933199 
L 472.757325 159.183814 
L 475.306434 161.061797 
L 477.855543 156.331245 
L 480.404653 160.784775 
L 482.953762 157.948216 
L 485.502871 156.721092 
L 488.05198 163.2479 
L 490.601089 160.875768 
L 493.150199 162.535722 
L 495.699308 161.664935 
L 498.248417 166.523353 
L 500.797526 174.114738 
L 503.346635 172.304156 
L 505.895744 169.824887 
L 510.993963 164.392488 
L 513.543072 165.815138 
L 516.092181 166.072093 
L 518.64129 166.033439 
L 521.1904 169.670826 
L 523.739509 165.299045 
L 528.837727 169.797242 
L 531.386836 174.666525 
L 533.935945 178.44269 
L 536.485055 174.562955 
L 539.034164 169.302281 
L 541.583273 172.37719 
L 544.132382 169.576739 
L 546.681491 170.287493 
L 549.230601 169.464415 
L 551.77971 164.816918 
L 554.328819 163.397848 
L 556.877928 161.60194 
L 559.427037 162.647236 
L 561.976146 166.592961 
L 564.525256 167.280063 
L 567.074365 163.535654 
L 569.623474 163.291413 
L 572.172583 162.248791 
L 574.721692 160.132572 
L 577.270802 157.065558 
L 579.819911 157.827388 
L 582.36902 148.711969 
L 582.36902 148.711969 
" clip-path="url(#p9ac7fa4686)" style="fill: none; stroke: #ff7f0e; stroke-width: 1.5; stroke-linecap: square"/>
   </g>
   <g id="patch_3">
    <path d="M 49.732656 299.518125 
L 49.732656 22.318125 
" style="fill: none; stroke: #000000; stroke-width: 0.8; stroke-linejoin: miter; stroke-linecap: square"/>
   </g>
   <g id="patch_4">
    <path d="M 607.732656 299.518125 
L 607.732656 22.318125 
" style="fill: none; stroke: #000000; stroke-width: 0.8; stroke-linejoin: miter; stroke-linecap: square"/>
   </g>
   <g id="patch_5">
    <path d="M 49.732656 299.518125 
L 607.732656 299.518125 
" style="fill: none; stroke: #000000; stroke-width: 0.8; stroke-linejoin: miter; stroke-linecap: square"/>
   </g>
   <g id="patch_6">
    <path d="M 49.732656 22.318125 
L 607.732656 22.318125 
" style="fill: none; stroke: #000000; stroke-width: 0.8; stroke-linejoin: miter; stroke-linecap: square"/>
   </g>
   <g id="text_16">
    <!-- WS-REST Close Diff -->
    <g transform="translate(270.722031 16.318125) scale(0.12 -0.12)">
     <defs>
      <path id="DejaVuSans-57" d="M 213 4666 
L 850 4666 
L 1831 722 
L 2809 4666 
L 3519 4666 
L 4500 722 
L 5478 4666 
L 6119 4666 
L 4947 0 
L 4153 0 
L 3169 4050 
L 2175 0 
L 1381 0 
L 213 4666 
z
" transform="scale(0.015625)"/>
      <path id="DejaVuSans-53" d="M 3425 4513 
L 3425 3897 
Q 3066 4069 2747 4153 
Q 2428 4238 2131 4238 
Q 1616 4238 1336 4038 
Q 1056 3838 1056 3469 
Q 1056 3159 1242 3001 
Q 1428 2844 1947 2747 
L 2328 2669 
Q 3034 2534 3370 2195 
Q 3706 1856 3706 1288 
Q 3706 609 3251 259 
Q 2797 -91 1919 -91 
Q 1588 -91 1214 -16 
Q 841 59 441 206 
L 441 856 
Q 825 641 1194 531 
Q 1563 422 1919 422 
Q 2459 422 2753 634 
Q 3047 847 3047 1241 
Q 3047 1584 2836 1778 
Q 2625 1972 2144 2069 
L 1759 2144 
Q 1053 2284 737 2584 
Q 422 2884 422 3419 
Q 422 4038 858 4394 
Q 1294 4750 2059 4750 
Q 2388 4750 2728 4690 
Q 3069 4631 3425 4513 
z
" transform="scale(0.015625)"/>
      <path id="DejaVuSans-2d" d="M 313 2009 
L 1997 2009 
L 1997 1497 
L 313 1497 
L 313 2009 
z
" transform="scale(0.015625)"/>
      <path id="DejaVuSans-52" d="M 2841 2188 
Q 3044 2119 3236 1894 
Q 3428 1669 3622 1275 
L 4263 0 
L 3584 0 
L 2988 1197 
Q 2756 1666 2539 1819 
Q 2322 1972 1947 1972 
L 1259 1972 
L 1259 0 
L 628 0 
L 628 4666 
L 2053 4666 
Q 2853 4666 3247 4331 
Q 3641 3997 3641 3322 
Q 3641 2881 3436 2590 
Q 3231 2300 2841 2188 
z
M 1259 4147 
L 1259 2491 
L 2053 2491 
Q 2509 2491 2742 2702 
Q 2975 2913 2975 3322 
Q 2975 3731 2742 3939 
Q 2509 4147 2053 4147 
L 1259 4147 
z
" transform="scale(0.015625)"/>
      <path id="DejaVuSans-45" d="M 628 4666 
L 3578 4666 
L 3578 4134 
L 1259 4134 
L 1259 2753 
L 3481 2753 
L 3481 2222 
L 1259 2222 
L 1259 531 
L 3634 531 
L 3634 0 
L 628 0 
L 628 4666 
z
" transform="scale(0.015625)"/>
      <path id="DejaVuSans-43" d="M 4122 4306 
L 4122 3641 
Q 3803 3938 3442 4084 
Q 3081 4231 2675 4231 
Q 1875 4231 1450 3742 
Q 1025 3253 1025 2328 
Q 1025 1406 1450 917 
Q 1875 428 2675 428 
Q 3081 428 3442 575 
Q 3803 722 4122 1019 
L 4122 359 
Q 3791 134 3420 21 
Q 3050 -91 2638 -91 
Q 1578 -91 968 557 
Q 359 1206 359 2328 
Q 359 3453 968 4101 
Q 1578 4750 2638 4750 
Q 3056 4750 3426 4639 
Q 3797 4528 4122 4306 
z
" transform="scale(0.015625)"/>
      <path id="DejaVuSans-6c" d="M 603 4863 
L 1178 4863 
L 1178 0 
L 603 0 
L 603 4863 
z
" transform="scale(0.015625)"/>
      <path id="DejaVuSans-6f" d="M 1959 3097 
Q 1497 3097 1228 2736 
Q 959 2375 959 1747 
Q 959 1119 1226 758 
Q 1494 397 1959 397 
Q 2419 397 2687 759 
Q 2956 1122 2956 1747 
Q 2956 2369 2687 2733 
Q 2419 3097 1959 3097 
z
M 1959 3584 
Q 2709 3584 3137 3096 
Q 3566 2609 3566 1747 
Q 3566 888 3137 398 
Q 2709 -91 1959 -91 
Q 1206 -91 779 398 
Q 353 888 353 1747 
Q 353 2609 779 3096 
Q 1206 3584 1959 3584 
z
" transform="scale(0.015625)"/>
     </defs>
     <use xlink:href="#DejaVuSans-57"/>
     <use xlink:href="#DejaVuSans-53" transform="translate(98.876953 0)"/>
     <use xlink:href="#DejaVuSans-2d" transform="translate(162.353516 0)"/>
     <use xlink:href="#DejaVuSans-52" transform="translate(198.4375 0)"/>
     <use xlink:href="#DejaVuSans-45" transform="translate(267.919922 0)"/>
     <use xlink:href="#DejaVuSans-53" transform="translate(331.103516 0)"/>
     <use xlink:href="#DejaVuSans-54" transform="translate(394.580078 0)"/>
     <use xlink:href="#DejaVuSans-20" transform="translate(455.664062 0)"/>
     <use xlink:href="#DejaVuSans-43" transform="translate(487.451172 0)"/>
     <use xlink:href="#DejaVuSans-6c" transform="translate(557.275391 0)"/>
     <use xlink:href="#DejaVuSans-6f" transform="translate(585.058594 0)"/>
     <use xlink:href="#DejaVuSans-73" transform="translate(646.240234 0)"/>
     <use xlink:href="#DejaVuSans-65" transform="translate(698.339844 0)"/>
     <use xlink:href="#DejaVuSans-20" transform="translate(759.863281 0)"/>
     <use xlink:href="#DejaVuSans-44" transform="translate(791.650391 0)"/>
     <use xlink:href="#DejaVuSans-69" transform="translate(868.652344 0)"/>
     <use xlink:href="#DejaVuSans-66" transform="translate(896.435547 0)"/>
     <use xlink:href="#DejaVuSans-66" transform="translate(931.640625 0)"/>
    </g>
   </g>
   <g id="legend_1">
    <g id="patch_7">
     <path d="M 502.016406 69.649688 
L 601.432656 69.649688 
Q 603.232656 69.649688 603.232656 67.849688 
L 603.232656 28.618125 
Q 603.232656 26.818125 601.432656 26.818125 
L 502.016406 26.818125 
Q 500.216406 26.818125 500.216406 28.618125 
L 500.216406 67.849688 
Q 500.216406 69.649688 502.016406 69.649688 
z
" style="fill: #ffffff; opacity: 0.8; stroke: #cccccc; stroke-linejoin: miter"/>
    </g>
    <g id="line2d_27">
     <path d="M 503.816406 34.106719 
L 512.816406 34.106719 
L 521.816406 34.106719 
" style="fill: none; stroke: #1f77b4; stroke-opacity: 0.6; stroke-width: 1.5; stroke-linecap: square"/>
    </g>
    <g id="text_17">
     <!-- close_diff -->
     <g transform="translate(529.016406 37.256719) scale(0.09 -0.09)">
      <defs>
       <path id="DejaVuSans-63" d="M 3122 3366 
L 3122 2828 
Q 2878 2963 2633 3030 
Q 2388 3097 2138 3097 
Q 1578 3097 1268 2742 
Q 959 2388 959 1747 
Q 959 1106 1268 751 
Q 1578 397 2138 397 
Q 2388 397 2633 464 
Q 2878 531 3122 666 
L 3122 134 
Q 2881 22 2623 -34 
Q 2366 -91 2075 -91 
Q 1284 -91 818 406 
Q 353 903 353 1747 
Q 353 2603 823 3093 
Q 1294 3584 2113 3584 
Q 2378 3584 2631 3529 
Q 2884 3475 3122 3366 
z
" transform="scale(0.015625)"/>
       <path id="DejaVuSans-5f" d="M 3263 -1063 
L 3263 -1509 
L -63 -1509 
L -63 -1063 
L 3263 -1063 
z
" transform="scale(0.015625)"/>
       <path id="DejaVuSans-64" d="M 2906 2969 
L 2906 4863 
L 3481 4863 
L 3481 0 
L 2906 0 
L 2906 525 
Q 2725 213 2448 61 
Q 2172 -91 1784 -91 
Q 1150 -91 751 415 
Q 353 922 353 1747 
Q 353 2572 751 3078 
Q 1150 3584 1784 3584 
Q 2172 3584 2448 3432 
Q 2725 3281 2906 2969 
z
M 947 1747 
Q 947 1113 1208 752 
Q 1469 391 1925 391 
Q 2381 391 2643 752 
Q 2906 1113 2906 1747 
Q 2906 2381 2643 2742 
Q 2381 3103 1925 3103 
Q 1469 3103 1208 2742 
Q 947 2381 947 1747 
z
" transform="scale(0.015625)"/>
      </defs>
      <use xlink:href="#DejaVuSans-63"/>
      <use xlink:href="#DejaVuSans-6c" transform="translate(54.980469 0)"/>
      <use xlink:href="#DejaVuSans-6f" transform="translate(82.763672 0)"/>
      <use xlink:href="#DejaVuSans-73" transform="translate(143.945312 0)"/>
      <use xlink:href="#DejaVuSans-65" transform="translate(196.044922 0)"/>
      <use xlink:href="#DejaVuSans-5f" transform="translate(257.568359 0)"/>
      <use xlink:href="#DejaVuSans-64" transform="translate(307.568359 0)"/>
      <use xlink:href="#DejaVuSans-69" transform="translate(371.044922 0)"/>
      <use xlink:href="#DejaVuSans-66" transform="translate(398.828125 0)"/>
      <use xlink:href="#DejaVuSans-66" transform="translate(434.033203 0)"/>
     </g>
    </g>
    <g id="line2d_28">
     <path d="M 503.816406 47.567344 
L 512.816406 47.567344 
L 521.816406 47.567344 
" style="fill: none; stroke: #ff7f0e; stroke-width: 1.5; stroke-linecap: square"/>
    </g>
    <g id="text_18">
     <!-- close_diff mean -->
     <g transform="translate(529.016406 50.717344) scale(0.09 -0.09)">
      <defs>
       <path id="DejaVuSans-61" d="M 2194 1759 
Q 1497 1759 1228 1600 
Q 959 1441 959 1056 
Q 959 750 1161 570 
Q 1363 391 1709 391 
Q 2188 391 2477 730 
Q 2766 1069 2766 1631 
L 2766 1759 
L 2194 1759 
z
M 3341 1997 
L 3341 0 
L 2766 0 
L 2766 531 
Q 2569 213 2275 61 
Q 1981 -91 1556 -91 
Q 1019 -91 701 211 
Q 384 513 384 1019 
Q 384 1609 779 1909 
Q 1175 2209 1959 2209 
L 2766 2209 
L 2766 2266 
Q 2766 2663 2505 2880 
Q 2244 3097 1772 3097 
Q 1472 3097 1187 3025 
Q 903 2953 641 2809 
L 641 3341 
Q 956 3463 1253 3523 
Q 1550 3584 1831 3584 
Q 2591 3584 2966 3190 
Q 3341 2797 3341 1997 
z
" transform="scale(0.015625)"/>
       <path id="DejaVuSans-6e" d="M 3513 2113 
L 3513 0 
L 2938 0 
L 2938 2094 
Q 2938 2591 2744 2837 
Q 2550 3084 2163 3084 
Q 1697 3084 1428 2787 
Q 1159 2491 1159 1978 
L 1159 0 
L 581 0 
L 581 3500 
L 1159 3500 
L 1159 2956 
Q 1366 3272 1645 3428 
Q 1925 3584 2291 3584 
Q 2894 3584 3203 3211 
Q 3513 2838 3513 2113 
z
" transform="scale(0.015625)"/>
      </defs>
      <use xlink:href="#DejaVuSans-63"/>
      <use xlink:href="#DejaVuSans-6c" transform="translate(54.980469 0)"/>
      <use xlink:href="#DejaVuSans-6f" transform="translate(82.763672 0)"/>
      <use xlink:href="#DejaVuSans-73" transform="translate(143.945312 0)"/>
      <use xlink:href="#DejaVuSans-65" transform="translate(196.044922 0)"/>
      <use xlink:href="#DejaVuSans-5f" transform="translate(257.568359 0)"/>
      <use xlink:href="#DejaVuSans-64" transform="translate(307.568359 0)"/>
      <use xlink:href="#DejaVuSans-69" transform="translate(371.044922 0)"/>
      <use xlink:href="#DejaVuSans-66" transform="translate(398.828125 0)"/>
      <use xlink:href="#DejaVuSans-66" transform="translate(434.033203 0)"/>
      <use xlink:href="#DejaVuSans-20" transform="translate(469.238281 0)"/>
      <use xlink:href="#DejaVuSans-6d" transform="translate(501.025391 0)"/>
      <use xlink:href="#DejaVuSans-65" transform="translate(598.4375 0)"/>
      <use xlink:href="#DejaVuSans-61" transform="translate(659.960938 0)"/>
      <use xlink:href="#DejaVuSans-6e" transform="translate(721.240234 0)"/>
     </g>
    </g>
    <g id="patch_8">
     <path d="M 503.816406 64.177969 
L 521.816406 64.177969 
L 521.816406 57.877969 
L 503.816406 57.877969 
z
" style="fill: #1f77b4; fill-opacity: 0.2"/>
    </g>
    <g id="text_19">
     <!-- mean +/- std -->
     <g transform="translate(529.016406 64.177969) scale(0.09 -0.09)">
      <defs>
       <path id="DejaVuSans-2b" d="M 2944 4013 
L 2944 2272 
L 4684 2272 
L 4684 1741 
L 2944 1741 
L 2944 0 
L 2419 0 
L 2419 1741 
L 678 1741 
L 678 2272 
L 2419 2272 
L 2419 4013 
L 2944 4013 
z
" transform="scale(0.015625)"/>
       <path id="DejaVuSans-2f" d="M 1625 4666 
L 2156 4666 
L 531 -594 
L 0 -594 
L 1625 4666 
z
" transform="scale(0.015625)"/>
       <path id="DejaVuSans-74" d="M 1172 4494 
L 1172 3500 
L 2356 3500 
L 2356 3053 
L 1172 3053 
L 1172 1153 
Q 1172 725 1289 603 
Q 1406 481 1766 481 
L 2356 481 
L 2356 0 
L 1766 0 
Q 1100 0 847 248 
Q 594 497 594 1153 
L 594 3053 
L 172 3053 
L 172 3500 
L 594 3500 
L 594 4494 
L 1172 4494 
z
" transform="scale(0.015625)"/>
      </defs>
      <use xlink:href="#DejaVuSans-6d"/>
      <use xlink:href="#DejaVuSans-65" transform="translate(97.412109 0)"/>
      <use xlink:href="#DejaVuSans-61" transform="translate(158.935547 0)"/>
      <use xlink:href="#DejaVuSans-6e" transform="translate(220.214844 0)"/>
      <use xlink:href="#DejaVuSans-20" transform="translate(283.59375 0)"/>
      <use xlink:href="#DejaVuSans-2b" transform="translate(315.380859 0)"/>
      <use xlink:href="#DejaVuSans-2f" transform="translate(399.169922 0)"/>
      <use xlink:href="#DejaVuSans-2d" transform="translate(432.861328 0)"/>
      <use xlink:href="#DejaVuSans-20" transform="translate(468.945312 0)"/>
      <use xlink:href="#DejaVuSans-73" transform="translate(500.732422 0)"/>
      <use xlink:href="#DejaVuSans-74" transform="translate(552.832031 0)"/>
      <use xlink:href="#DejaVuSans-64" transform="translate(592.041016 0)"/>
     </g>
    </g>
   </g>
  </g>
 </g>
 <defs>
  <clipPath id="p9ac7fa4686">
   <rect x="49.732656" y="22.318125" width="558" height="277.2"/>
  </clipPath>
 </defs>
</svg>
